<?xml version="1.0" encoding="UTF-8" standalone="no"?>
<!-- Created with Inkscape (http://www.inkscape.org/) -->

<svg
   xmlns:dc="http://purl.org/dc/elements/1.1/"
   xmlns:cc="http://creativecommons.org/ns#"
   xmlns:rdf="http://www.w3.org/1999/02/22-rdf-syntax-ns#"
   xmlns:svg="http://www.w3.org/2000/svg"
   xmlns="http://www.w3.org/2000/svg"
   xmlns:sodipodi="http://sodipodi.sourceforge.net/DTD/sodipodi-0.dtd"
   xmlns:inkscape="http://www.inkscape.org/namespaces/inkscape"
   width="20cm"
   height="20cm"
   viewBox="0 0 200 199.99999"
   version="1.1"
   id="svg8"
   inkscape:version="0.92.5 (2060ec1f9f, 2020-04-08)"
   sodipodi:docname="flower1.svg">
  <defs
     id="defs2" />
  <sodipodi:namedview
     id="base"
     pagecolor="#ffffff"
     bordercolor="#666666"
     borderopacity="1.0"
     inkscape:pageopacity="0.0"
     inkscape:pageshadow="2"
     inkscape:zoom="0.98994949"
     inkscape:cx="11.118076"
     inkscape:cy="498.37564"
     inkscape:document-units="mm"
     inkscape:current-layer="layer2"
     showgrid="false"
     units="cm"
     inkscape:window-width="1853"
     inkscape:window-height="1057"
     inkscape:window-x="1979"
     inkscape:window-y="-8"
     inkscape:window-maximized="1" />
  <metadata
     id="metadata5">
    <rdf:RDF>
      <cc:Work
         rdf:about="">
        <dc:format>image/svg+xml</dc:format>
        <dc:type
           rdf:resource="http://purl.org/dc/dcmitype/StillImage" />
        <dc:title></dc:title>
      </cc:Work>
    </rdf:RDF>
  </metadata>
  <g
     inkscape:label="Layer 1"
     inkscape:groupmode="layer"
     id="layer1"
     transform="translate(0,-97.000015)">
    <path
       style="opacity:1;fill:#008000;fill-opacity:1;stroke:none;stroke-width:2.06499982;stroke-miterlimit:4;stroke-dasharray:none;stroke-opacity:1;paint-order:fill markers stroke"
       d="m 123.73238,263.1431 c -10.18832,8.78254 -13.21639,19.46702 -15.00093,18.56667 -2.23648,-1.12837 -3.90298,-15.8336 6.99002,-22.82299 11.03579,-7.08102 13.93189,-18.74051 15.00092,-18.56669 2.47253,0.40206 2.81301,14.37258 -6.99001,22.82301 z"
       id="path1034"
       inkscape:connector-curvature="0"
       sodipodi:nodetypes="sssss" />
    <path
       style="opacity:1;fill:#008000;fill-opacity:1;stroke:none;stroke-width:1.71404064;stroke-miterlimit:4;stroke-dasharray:none;stroke-opacity:1;paint-order:fill markers stroke"
       d="m 110.30081,190.62313 c -9.33754,6.15827 -12.946153,14.608 -14.329957,13.6874 -1.73426,-1.15376 -1.595469,-13.37986 8.140117,-17.99601 9.86321,-4.67668 13.46326,-13.93925 14.32996,-13.68743 2.00457,0.58245 0.84431,12.07063 -8.14012,17.99604 z"
       id="path1034-5"
       inkscape:connector-curvature="0"
       sodipodi:nodetypes="sssss" />
    <path
       style="opacity:1;fill:#008000;fill-opacity:1;stroke:none;stroke-width:0.95375907;stroke-miterlimit:4;stroke-dasharray:none;stroke-opacity:1;paint-order:fill markers stroke"
       d="m 124.22492,135.85139 c -7.8491,1.46469 -12.05815,4.48587 -12.8663,3.96141 -1.01279,-0.65727 1.45424,-5.58726 9.28839,-6.38445 7.93686,-0.80764 12.29725,-4.15853 12.8663,-3.96142 1.31615,0.4559 -1.7361,4.97515 -9.28839,6.38446 z"
       id="path1034-5-4"
       inkscape:connector-curvature="0"
       sodipodi:nodetypes="sssss" />
    <path
       style="opacity:1;fill:#008000;fill-opacity:1;stroke:none;stroke-width:0.95375907;stroke-miterlimit:4;stroke-dasharray:none;stroke-opacity:1;paint-order:fill markers stroke"
       d="m 94.201499,140.09557 c 7.849091,1.46469 12.058141,4.48587 12.866291,3.96141 1.01279,-0.65727 -1.45424,-5.58726 -9.288385,-6.38445 -7.936856,-0.80764 -12.297246,-4.15853 -12.866296,-3.96142 -1.31615,0.4559 1.7361,4.97515 9.28839,6.38446 z"
       id="path1034-5-4-0"
       inkscape:connector-curvature="0"
       sodipodi:nodetypes="sssss" />
    <path
       style="opacity:1;fill:#008000;fill-opacity:1;stroke:none;stroke-width:1.71404064;stroke-miterlimit:4;stroke-dasharray:none;stroke-opacity:1;paint-order:fill markers stroke"
       d="m 86.219591,164.04939 c -9.33755,-6.15827 -12.94616,-14.608 -14.32997,-13.6874 -1.73426,1.15376 -1.59546,13.37986 8.14012,17.99601 9.86322,4.67668 13.46327,13.93926 14.32997,13.68744 2.00457,-0.58245 0.84431,-12.07064 -8.14012,-17.99605 z"
       id="path1034-5-1"
       inkscape:connector-curvature="0"
       sodipodi:nodetypes="sssss" />
    <path
       style="opacity:1;fill:#008000;fill-opacity:1;stroke:none;stroke-width:2.06499982;stroke-miterlimit:4;stroke-dasharray:none;stroke-opacity:1;paint-order:fill markers stroke"
       d="m 85.227068,235.16217 c 11.929053,6.21549 17.323832,15.92238 18.854722,14.63723 1.91858,-1.61062 0.17264,-16.30664 -12.031658,-20.61526 -12.364273,-4.3651 -17.853909,-15.0513 -18.85471,-14.63726 -2.31471,0.9577 0.553713,14.63481 12.031646,20.61529 z"
       id="path1034-6"
       inkscape:connector-curvature="0"
       sodipodi:nodetypes="sssss" />
  </g>
  <g
     inkscape:groupmode="layer"
     id="layer2"
     inkscape:label="Layer 2">
    <path
       transform="translate(0,-97.000015)"
       style="fill:none;stroke:#000000;stroke-width:1.6234163;stroke-linecap:butt;stroke-linejoin:miter;stroke-miterlimit:4;stroke-dasharray:none;stroke-opacity:1"
       d="M 99.155987,297.31417 C 131.82092,244.7071 61.206714,213.29961 115.7089,130.67188"
       id="path920"
       inkscape:connector-curvature="0"
       sodipodi:nodetypes="cc" />
  </g>
</svg>
