<?xml version="1.0" encoding="UTF-8" standalone="no"?>
<!-- Created with Inkscape (http://www.inkscape.org/) -->

<svg
   xmlns:dc="http://purl.org/dc/elements/1.1/"
   xmlns:cc="http://creativecommons.org/ns#"
   xmlns:rdf="http://www.w3.org/1999/02/22-rdf-syntax-ns#"
   xmlns:svg="http://www.w3.org/2000/svg"
   xmlns="http://www.w3.org/2000/svg"
   xmlns:sodipodi="http://sodipodi.sourceforge.net/DTD/sodipodi-0.dtd"
   xmlns:inkscape="http://www.inkscape.org/namespaces/inkscape"
   width="20cm"
   height="20cm"
   viewBox="0 0 200 199.99999"
   version="1.1"
   id="svg8"
   inkscape:version="0.92.5 (2060ec1f9f, 2020-04-08)"
   sodipodi:docname="mushroom0.svg">
  <defs
     id="defs2" />
  <sodipodi:namedview
     id="base"
     pagecolor="#ffffff"
     bordercolor="#666666"
     borderopacity="1.0"
     inkscape:pageopacity="0.0"
     inkscape:pageshadow="2"
     inkscape:zoom="0.49497475"
     inkscape:cx="-324.17817"
     inkscape:cy="667.98622"
     inkscape:document-units="mm"
     inkscape:current-layer="layer1"
     showgrid="false"
     units="cm"
     inkscape:window-width="1853"
     inkscape:window-height="1057"
     inkscape:window-x="1979"
     inkscape:window-y="-8"
     inkscape:window-maximized="1" />
  <metadata
     id="metadata5">
    <rdf:RDF>
      <cc:Work
         rdf:about="">
        <dc:format>image/svg+xml</dc:format>
        <dc:type
           rdf:resource="http://purl.org/dc/dcmitype/StillImage" />
        <dc:title></dc:title>
      </cc:Work>
    </rdf:RDF>
  </metadata>
  <g
     inkscape:label="Layer 1"
     inkscape:groupmode="layer"
     id="layer1"
     transform="translate(0,-97.000015)">
    <path
       style="opacity:1;fill:#502d16;fill-opacity:1;stroke:none;stroke-width:1.60000002;stroke-miterlimit:4;stroke-dasharray:none;stroke-opacity:1;paint-order:fill markers stroke"
       d="m 109.99108,259.20239 c 10.95805,46.17394 -6.33253,37.73277 -14.473802,37.73277 -8.14127,0 -33.984479,8.70844 -15.008342,-37.73277 7.659065,-18.7444 6.599803,-36.66369 14.741072,-36.66369 8.141272,0 10.065472,16.9621 14.741072,36.66369 z"
       id="path880"
       inkscape:connector-curvature="0"
       sodipodi:nodetypes="sssss" />
    <path
       style="opacity:1;fill:#aa4400;fill-opacity:1;stroke:none;stroke-width:1.60000002;stroke-miterlimit:4;stroke-dasharray:none;stroke-opacity:1;paint-order:fill markers stroke"
       d="m 150.81249,214.22323 c -1e-5,18.78754 -22.77755,15.11904 -53.67261,15.11904 -30.895071,0 -58.208333,3.6685 -58.208339,-15.11904 -3e-6,-18.78755 25.045404,-34.01786 55.940479,-34.01786 30.89507,0 55.94047,15.23032 55.94047,34.01786 z"
       id="path877"
       inkscape:connector-curvature="0"
       sodipodi:nodetypes="sssss" />
    <path
       style="opacity:1;fill:#ffe6d5;fill-opacity:1;stroke:none;stroke-width:1.17108011;stroke-miterlimit:4;stroke-dasharray:none;stroke-opacity:1;paint-order:fill markers stroke"
       d="m 68.153729,210.93924 c -10e-7,2.36174 1.240701,6.1472 0.133635,6.1472 -1.107066,0 -4.142676,-3.78546 -4.142677,-6.1472 10e-7,-2.36174 0.897455,-4.27631 2.004521,-4.27631 1.107066,0 2.00452,1.91457 2.004521,4.27631 z"
       id="path885"
       inkscape:connector-curvature="0"
       sodipodi:nodetypes="sssss" />
    <path
       style="opacity:1;fill:#ffe6d5;fill-opacity:1;stroke:none;stroke-width:1.03785491;stroke-miterlimit:4;stroke-dasharray:none;stroke-opacity:1;paint-order:fill markers stroke"
       d="m 87.129864,191.1613 c -2e-6,2.14033 -0.777796,3.8754 -1.737252,3.8754 -0.959456,0 -3.340867,-2.26961 -3.340869,-4.40994 -10e-7,-2.14033 2.381411,-3.34087 3.340869,-3.34087 0.959458,0 1.737252,1.73508 1.737252,3.87541 z"
       id="path885-7"
       inkscape:connector-curvature="0"
       sodipodi:nodetypes="sssss" />
    <path
       style="opacity:1;fill:#ffe6d5;fill-opacity:1;stroke:none;stroke-width:1.89284372;stroke-miterlimit:4;stroke-dasharray:none;stroke-opacity:1;paint-order:fill markers stroke"
       d="m 108.51142,220.29366 c 0,2.43555 -2.27355,4.40995 -5.07812,4.40995 -2.80457,0 -5.078121,-1.9744 -5.078121,-4.40995 0,-2.43555 2.273551,-6.54811 5.078121,-6.54811 2.80457,0 5.07812,4.11256 5.07812,6.54811 z"
       id="path885-3"
       inkscape:connector-curvature="0"
       sodipodi:nodetypes="cscsc" />
    <path
       style="opacity:1;fill:#ffe6d5;fill-opacity:1;stroke:none;stroke-width:1.47357678;stroke-miterlimit:4;stroke-dasharray:none;stroke-opacity:1;paint-order:fill markers stroke"
       d="m 129.09118,195.43759 c 1e-5,1.40229 -3.8135,0.0154 -5.34539,2.53907 -2.95219,4.86342 -5.3454,-1.13678 -5.34539,-2.53907 0,-1.40228 2.39321,-2.53906 5.34539,-2.53906 2.95218,0 5.34539,1.13678 5.34539,2.53906 z"
       id="path885-8"
       inkscape:connector-curvature="0"
       sodipodi:nodetypes="cscsc" />
  </g>
  <g
     inkscape:groupmode="layer"
     id="layer2"
     inkscape:label="Layer 2" />
</svg>
