<?xml version="1.0" encoding="UTF-8" standalone="no"?>
<!-- Created with Inkscape (http://www.inkscape.org/) -->

<svg
   xmlns:dc="http://purl.org/dc/elements/1.1/"
   xmlns:cc="http://creativecommons.org/ns#"
   xmlns:rdf="http://www.w3.org/1999/02/22-rdf-syntax-ns#"
   xmlns:svg="http://www.w3.org/2000/svg"
   xmlns="http://www.w3.org/2000/svg"
   xmlns:sodipodi="http://sodipodi.sourceforge.net/DTD/sodipodi-0.dtd"
   xmlns:inkscape="http://www.inkscape.org/namespaces/inkscape"
   width="200mm"
   height="200mm"
   viewBox="0 0 200 200"
   version="1.1"
   id="svg8"
   inkscape:version="0.92.5 (2060ec1f9f, 2020-04-08)"
   sodipodi:docname="tutorial2.svg">
  <defs
     id="defs2" />
  <sodipodi:namedview
     id="base"
     pagecolor="#ffffff"
     bordercolor="#666666"
     borderopacity="1.0"
     inkscape:pageopacity="0.0"
     inkscape:pageshadow="2"
     inkscape:zoom="1.4142136"
     inkscape:cx="249.58944"
     inkscape:cy="555.72616"
     inkscape:document-units="mm"
     inkscape:current-layer="flowRoot3055"
     showgrid="false"
     inkscape:window-width="1853"
     inkscape:window-height="1057"
     inkscape:window-x="1979"
     inkscape:window-y="-8"
     inkscape:window-maximized="1" />
  <metadata
     id="metadata5">
    <rdf:RDF>
      <cc:Work
         rdf:about="">
        <dc:format>image/svg+xml</dc:format>
        <dc:type
           rdf:resource="http://purl.org/dc/dcmitype/StillImage" />
        <dc:title />
      </cc:Work>
    </rdf:RDF>
  </metadata>
  <g
     inkscape:label="Ebene 1"
     inkscape:groupmode="layer"
     id="layer1"
     transform="translate(0,-97)"
     style="display:inline">
    <flowRoot
       xml:space="preserve"
       id="flowRoot2853"
       style="fill:black;fill-opacity:1;stroke:none;font-family:sans-serif;font-style:normal;font-weight:normal;font-size:40px;line-height:1.25;letter-spacing:0px;word-spacing:0px"><flowRegion
         id="flowRegion2855"><rect
           id="rect2857"
           width="755.19"
           height="217.78888"
           x="0.70710677"
           y="0.0083828345" /></flowRegion><flowPara
         id="flowPara2859" /></flowRoot>    <g
       aria-label="It's time to craft an axe! Drop 2 wood and 1 stone near the fireplace by double-clicking!"
       transform="matrix(0.26458333,0,0,0.26458333,-2.1166667,67.895834)"
       style="font-style:normal;font-variant:normal;font-weight:normal;font-stretch:normal;font-size:40px;line-height:1.25;font-family:sans-serif;-inkscape-font-specification:'sans-serif, Normal';font-variant-ligatures:normal;font-variant-caps:normal;font-variant-numeric:normal;font-feature-settings:normal;text-align:center;letter-spacing:0px;word-spacing:0px;writing-mode:lr-tb;text-anchor:middle;fill:#ffffff;fill-opacity:1;stroke:#000000;stroke-opacity:1"
       id="flowRoot3055">
      <path
         d="m 13.847656,115.13672 h 3.945313 v 29.16015 h -3.945313 z"
         style="stroke:#000000;stroke-opacity:1;fill:#ffffff;fill-opacity:1"
         id="path3063" />
      <path
         d="m 29.042969,116.21094 v 6.21094 h 7.402343 v 2.79296 h -7.402343 v 11.875 q 0,2.67578 0.722656,3.4375 0.742187,0.76172 2.988281,0.76172 h 3.691406 v 3.00781 h -3.691406 q -4.160156,0 -5.742187,-1.54296 -1.582032,-1.5625 -1.582032,-5.66407 v -11.875 h -2.636718 v -2.79296 h 2.636718 v -6.21094 z"
         style="stroke:#000000;stroke-opacity:1;fill:#ffffff;fill-opacity:1"
         id="path3065" />
      <path
         d="m 44.589844,115.13672 v 10.83984 h -3.320313 v -10.83984 z"
         style="stroke:#000000;stroke-opacity:1;fill:#ffffff;fill-opacity:1"
         id="path3067" />
      <path
         d="m 66.152344,123.06641 v 3.39843 q -1.523438,-0.78125 -3.164063,-1.17187 -1.640625,-0.39063 -3.398437,-0.39063 -2.675782,0 -4.023438,0.82032 -1.328125,0.82031 -1.328125,2.46093 0,1.25 0.957031,1.97266 0.957032,0.70312 3.847657,1.34766 l 1.230468,0.27343 q 3.828125,0.82032 5.429688,2.32422 1.621094,1.48438 1.621094,4.16016 0,3.04687 -2.421875,4.82422 -2.402344,1.77734 -6.621094,1.77734 -1.757813,0 -3.671875,-0.35156 -1.894531,-0.33203 -4.003906,-1.01563 v -3.71093 q 1.992187,1.03515 3.925781,1.5625 1.933594,0.50781 3.828125,0.50781 2.539062,0 3.90625,-0.85938 1.367187,-0.8789 1.367187,-2.46093 0,-1.46485 -0.996093,-2.2461 -0.976563,-0.78125 -4.316407,-1.5039 l -1.25,-0.29297 q -3.339843,-0.70313 -4.824218,-2.14844 -1.484375,-1.46484 -1.484375,-4.00391 0,-3.08593 2.1875,-4.76562 2.1875,-1.67969 6.210937,-1.67969 1.992188,0 3.75,0.29297 1.757813,0.29297 3.242188,0.87891 z"
         style="stroke:#000000;stroke-opacity:1;fill:#ffffff;fill-opacity:1"
         id="path3069" />
      <path
         d="m 89.355469,116.21094 v 6.21094 h 7.402343 v 2.79296 h -7.402343 v 11.875 q 0,2.67578 0.722656,3.4375 0.742187,0.76172 2.988281,0.76172 h 3.691406 v 3.00781 h -3.691406 q -4.160156,0 -5.742187,-1.54296 -1.582032,-1.5625 -1.582032,-5.66407 v -11.875 h -2.636718 v -2.79296 h 2.636718 v -6.21094 z"
         style="stroke:#000000;stroke-opacity:1;fill:#ffffff;fill-opacity:1"
         id="path3071" />
      <path
         d="m 101.50391,122.42188 h 3.59375 v 21.87499 h -3.59375 z m 0,-8.51563 h 3.59375 v 4.55078 h -3.59375 z"
         style="stroke:#000000;stroke-opacity:1;fill:#ffffff;fill-opacity:1"
         id="path3073" />
      <path
         d="m 129.62891,126.62109 q 1.34765,-2.42187 3.22265,-3.57421 1.875,-1.15235 4.41406,-1.15235 3.41797,0 5.27344,2.40235 1.85547,2.38281 1.85547,6.79687 v 13.20312 h -3.61328 v -13.08593 q 0,-3.14453 -1.11328,-4.66797 -1.11328,-1.52344 -3.39844,-1.52344 -2.79297,0 -4.41406,1.85547 -1.6211,1.85547 -1.6211,5.05859 v 12.36328 h -3.61328 v -13.08593 q 0,-3.16407 -1.11328,-4.66797 -1.11328,-1.52344 -3.4375,-1.52344 -2.7539,0 -4.375,1.875 -1.62109,1.85547 -1.62109,5.03906 v 12.36328 h -3.61328 v -21.87499 h 3.61328 v 3.39843 q 1.23047,-2.01172 2.94922,-2.96875 1.71875,-0.95703 4.08203,-0.95703 2.38281,0 4.04297,1.21094 1.67968,1.21094 2.48047,3.51562 z"
         style="stroke:#000000;stroke-opacity:1;fill:#ffffff;fill-opacity:1"
         id="path3075" />
      <path
         d="m 170.29297,132.46094 v 1.75781 h -16.52344 q 0.23438,3.71094 2.22656,5.66406 2.01172,1.9336 5.58594,1.9336 2.07031,0 4.00391,-0.50782 1.95312,-0.50781 3.86718,-1.52343 v 3.39843 q -1.93359,0.82032 -3.96484,1.25 -2.03125,0.42969 -4.12109,0.42969 -5.23438,0 -8.30078,-3.04687 -3.04688,-3.04688 -3.04688,-8.24219 0,-5.3711 2.89063,-8.51563 2.91015,-3.16406 7.83203,-3.16406 4.41406,0 6.97265,2.85156 2.57813,2.83204 2.57813,7.71485 z m -3.59375,-1.05469 q -0.0391,-2.94922 -1.66016,-4.70703 -1.60156,-1.75781 -4.25781,-1.75781 -3.00781,0 -4.82422,1.69922 -1.79687,1.69921 -2.07031,4.78515 z"
         style="stroke:#000000;stroke-opacity:1;fill:#ffffff;fill-opacity:1"
         id="path3077" />
      <path
         d="m 192.48047,116.21094 v 6.21094 h 7.40234 v 2.79296 h -7.40234 v 11.875 q 0,2.67578 0.72265,3.4375 0.74219,0.76172 2.98829,0.76172 h 3.6914 v 3.00781 h -3.6914 q -4.16016,0 -5.74219,-1.54296 -1.58203,-1.5625 -1.58203,-5.66407 v -11.875 h -2.63672 v -2.79296 h 2.63672 v -6.21094 z"
         style="stroke:#000000;stroke-opacity:1;fill:#ffffff;fill-opacity:1"
         id="path3079" />
      <path
         d="m 213.10547,124.94141 q -2.89063,0 -4.57031,2.26562 -1.67969,2.24609 -1.67969,6.17188 0,3.92578 1.66015,6.1914 1.67969,2.2461 4.58985,2.2461 2.87109,0 4.55078,-2.26563 1.67969,-2.26562 1.67969,-6.17187 0,-3.88672 -1.67969,-6.15235 -1.67969,-2.28515 -4.55078,-2.28515 z m 0,-3.04688 q 4.6875,0 7.36328,3.04688 2.67578,3.04687 2.67578,8.4375 0,5.37109 -2.67578,8.4375 -2.67578,3.04687 -7.36328,3.04687 -4.70703,0 -7.38281,-3.04687 -2.65625,-3.06641 -2.65625,-8.4375 0,-5.39063 2.65625,-8.4375 2.67578,-3.04688 7.38281,-3.04688 z"
         style="stroke:#000000;stroke-opacity:1;fill:#ffffff;fill-opacity:1"
         id="path3081" />
      <path
         d="m 257.55859,123.26172 v 3.35937 q -1.52343,-0.83984 -3.0664,-1.25 -1.52344,-0.42968 -3.08594,-0.42968 -3.49609,0 -5.42969,2.22656 -1.93359,2.20703 -1.93359,6.21094 0,4.0039 1.93359,6.23046 1.9336,2.20704 5.42969,2.20704 1.5625,0 3.08594,-0.41016 1.54297,-0.42969 3.0664,-1.26953 v 3.32031 q -1.5039,0.70313 -3.125,1.05469 -1.60156,0.35156 -3.41797,0.35156 -4.9414,0 -7.85156,-3.10547 -2.91015,-3.10547 -2.91015,-8.3789 0,-5.35157 2.92968,-8.41797 2.94922,-3.06641 8.06641,-3.06641 1.66016,0 3.24219,0.35156 1.58203,0.33204 3.0664,1.01563 z"
         style="stroke:#000000;stroke-opacity:1;fill:#ffffff;fill-opacity:1"
         id="path3083" />
      <path
         d="m 276.52344,125.78125 q -0.60547,-0.35156 -1.32813,-0.50781 -0.70312,-0.17578 -1.5625,-0.17578 -3.04687,0 -4.6875,1.99218 -1.62109,1.97266 -1.62109,5.6836 v 11.52343 h -3.61328 v -21.87499 h 3.61328 v 3.39843 q 1.13281,-1.99218 2.94922,-2.94922 1.8164,-0.97656 4.41406,-0.97656 0.37109,0 0.82031,0.0586 0.44922,0.0391 0.9961,0.13671 z"
         style="stroke:#000000;stroke-opacity:1;fill:#ffffff;fill-opacity:1"
         id="path3085" />
      <path
         d="m 290.27344,133.30078 q -4.35547,0 -6.03516,0.99609 -1.67969,0.9961 -1.67969,3.39844 0,1.91406 1.25,3.04688 1.26953,1.11328 3.4375,1.11328 2.98828,0 4.78516,-2.10938 1.81641,-2.1289 1.81641,-5.64453 v -0.80078 z m 7.16797,-1.48437 v 12.48046 h -3.59375 v -3.32031 q -1.23047,1.99219 -3.06641,2.94922 -1.83594,0.9375 -4.49219,0.9375 -3.35937,0 -5.35156,-1.875 -1.97266,-1.89453 -1.97266,-5.05859 0,-3.69141 2.46094,-5.56641 2.48047,-1.875 7.38281,-1.875 h 5.03907 v -0.35156 q 0,-2.48047 -1.64063,-3.82813 -1.62109,-1.36718 -4.57031,-1.36718 -1.875,0 -3.65235,0.44922 -1.77734,0.44921 -3.41796,1.34765 v -3.32031 q 1.97265,-0.76172 3.82812,-1.13281 1.85547,-0.39063 3.61328,-0.39063 4.7461,0 7.08985,2.46094 2.34375,2.46094 2.34375,7.46094 z"
         style="stroke:#000000;stroke-opacity:1;fill:#ffffff;fill-opacity:1"
         id="path3087" />
      <path
         d="m 315.9375,113.90625 v 2.98828 H 312.5 q -1.93359,0 -2.69531,0.78125 -0.74219,0.78125 -0.74219,2.8125 v 1.9336 h 5.91797 v 2.79296 h -5.91797 v 19.08203 h -3.61328 v -19.08203 h -3.4375 v -2.79296 h 3.4375 v -1.52344 q 0,-3.65235 1.69922,-5.3125 1.69922,-1.67969 5.39062,-1.67969 z"
         style="stroke:#000000;stroke-opacity:1;fill:#ffffff;fill-opacity:1"
         id="path3089" />
      <path
         d="m 321.77734,116.21094 v 6.21094 h 7.40235 v 2.79296 h -7.40235 v 11.875 q 0,2.67578 0.72266,3.4375 0.74219,0.76172 2.98828,0.76172 h 3.69141 v 3.00781 h -3.69141 q -4.16016,0 -5.74219,-1.54296 -1.58203,-1.5625 -1.58203,-5.66407 v -11.875 h -2.63672 v -2.79296 h 2.63672 v -6.21094 z"
         style="stroke:#000000;stroke-opacity:1;fill:#ffffff;fill-opacity:1"
         id="path3091" />
      <path
         d="m 356.60156,133.30078 q -4.35547,0 -6.03515,0.99609 -1.67969,0.9961 -1.67969,3.39844 0,1.91406 1.25,3.04688 1.26953,1.11328 3.4375,1.11328 2.98828,0 4.78515,-2.10938 1.81641,-2.1289 1.81641,-5.64453 v -0.80078 z m 7.16797,-1.48437 v 12.48046 h -3.59375 v -3.32031 q -1.23047,1.99219 -3.06641,2.94922 -1.83593,0.9375 -4.49218,0.9375 -3.35938,0 -5.35157,-1.875 -1.97265,-1.89453 -1.97265,-5.05859 0,-3.69141 2.46094,-5.56641 2.48046,-1.875 7.38281,-1.875 h 5.03906 v -0.35156 q 0,-2.48047 -1.64062,-3.82813 -1.6211,-1.36718 -4.57032,-1.36718 -1.875,0 -3.65234,0.44922 -1.77734,0.44921 -3.41797,1.34765 v -3.32031 q 1.97266,-0.76172 3.82813,-1.13281 1.85546,-0.39063 3.61328,-0.39063 4.74609,0 7.08984,2.46094 2.34375,2.46094 2.34375,7.46094 z"
         style="stroke:#000000;stroke-opacity:1;fill:#ffffff;fill-opacity:1"
         id="path3093" />
      <path
         d="m 389.375,131.09375 v 13.20312 h -3.59375 v -13.08593 q 0,-3.10547 -1.21094,-4.64844 -1.21094,-1.54297 -3.63281,-1.54297 -2.91016,0 -4.58984,1.85547 -1.67969,1.85547 -1.67969,5.05859 v 12.36328 h -3.61328 v -21.87499 h 3.61328 v 3.39843 q 1.28906,-1.97265 3.02734,-2.94922 1.75781,-0.97656 4.04297,-0.97656 3.76953,0 5.70313,2.34375 1.93359,2.32422 1.93359,6.85547 z"
         style="stroke:#000000;stroke-opacity:1;fill:#ffffff;fill-opacity:1"
         id="path3095" />
      <path
         d="m 419.25781,133.30078 q -4.35547,0 -6.03515,0.99609 -1.67969,0.9961 -1.67969,3.39844 0,1.91406 1.25,3.04688 1.26953,1.11328 3.4375,1.11328 2.98828,0 4.78515,-2.10938 1.81641,-2.1289 1.81641,-5.64453 v -0.80078 z m 7.16797,-1.48437 v 12.48046 h -3.59375 v -3.32031 q -1.23047,1.99219 -3.06641,2.94922 -1.83593,0.9375 -4.49218,0.9375 -3.35938,0 -5.35157,-1.875 -1.97265,-1.89453 -1.97265,-5.05859 0,-3.69141 2.46094,-5.56641 2.48046,-1.875 7.38281,-1.875 h 5.03906 v -0.35156 q 0,-2.48047 -1.64062,-3.82813 -1.6211,-1.36718 -4.57032,-1.36718 -1.875,0 -3.65234,0.44922 -1.77734,0.44921 -3.41797,1.34765 v -3.32031 q 1.97266,-0.76172 3.82813,-1.13281 1.85546,-0.39063 3.61328,-0.39063 4.74609,0 7.08984,2.46094 2.34375,2.46094 2.34375,7.46094 z"
         style="stroke:#000000;stroke-opacity:1;fill:#ffffff;fill-opacity:1"
         id="path3097" />
      <path
         d="m 452.03125,122.42188 -7.91016,10.64453 8.32032,11.23046 h -4.23829 l -6.36718,-8.59375 -6.36719,8.59375 h -4.23828 l 8.49609,-11.44531 -7.77344,-10.42968 h 4.23829 l 5.80078,7.79296 5.80078,-7.79296 z"
         style="stroke:#000000;stroke-opacity:1;fill:#ffffff;fill-opacity:1"
         id="path3099" />
      <path
         d="m 474.98047,132.46094 v 1.75781 h -16.52344 q 0.23438,3.71094 2.22656,5.66406 2.01172,1.9336 5.58594,1.9336 2.07031,0 4.00391,-0.50782 1.95312,-0.50781 3.86718,-1.52343 v 3.39843 q -1.93359,0.82032 -3.96484,1.25 -2.03125,0.42969 -4.12109,0.42969 -5.23438,0 -8.30078,-3.04687 -3.04688,-3.04688 -3.04688,-8.24219 0,-5.3711 2.89063,-8.51563 2.91015,-3.16406 7.83203,-3.16406 4.41406,0 6.97265,2.85156 2.57813,2.83204 2.57813,7.71485 z m -3.59375,-1.05469 q -0.0391,-2.94922 -1.66016,-4.70703 -1.60156,-1.75781 -4.25781,-1.75781 -3.00781,0 -4.82422,1.69922 -1.79687,1.69921 -2.07031,4.78515 z"
         style="stroke:#000000;stroke-opacity:1;fill:#ffffff;fill-opacity:1"
         id="path3101" />
      <path
         d="m 483.14453,139.33594 h 3.96484 v 4.96093 h -3.96484 z m 0,-24.19922 h 3.96484 v 12.79297 l -0.39062,6.97265 h -3.16406 l -0.41016,-6.97265 z"
         style="stroke:#000000;stroke-opacity:1;fill:#ffffff;fill-opacity:1"
         id="path3103" />
      <path
         d="m 513.73047,118.37891 v 22.67578 h 4.76562 q 6.03516,0 8.82813,-2.73438 2.8125,-2.73437 2.8125,-8.63281 0,-5.85937 -2.8125,-8.57422 -2.79297,-2.73437 -8.82813,-2.73437 z m -3.94531,-3.24219 h 8.10546 q 8.47657,0 12.44141,3.53516 3.96484,3.51562 3.96484,11.01562 0,7.53906 -3.98437,11.07422 -3.98438,3.53515 -12.42188,3.53515 h -8.10546 z"
         style="stroke:#000000;stroke-opacity:1;fill:#ffffff;fill-opacity:1"
         id="path3105" />
      <path
         d="m 553.08594,125.78125 q -0.60547,-0.35156 -1.32813,-0.50781 -0.70312,-0.17578 -1.5625,-0.17578 -3.04687,0 -4.6875,1.99218 -1.62109,1.97266 -1.62109,5.6836 v 11.52343 h -3.61328 v -21.87499 h 3.61328 v 3.39843 q 1.13281,-1.99218 2.94922,-2.94922 1.8164,-0.97656 4.41406,-0.97656 0.37109,0 0.82031,0.0586 0.44922,0.0391 0.9961,0.13671 z"
         style="stroke:#000000;stroke-opacity:1;fill:#ffffff;fill-opacity:1"
         id="path3107" />
      <path
         d="m 564.51172,124.94141 q -2.89063,0 -4.57031,2.26562 -1.67969,2.24609 -1.67969,6.17188 0,3.92578 1.66015,6.1914 1.67969,2.2461 4.58985,2.2461 2.87109,0 4.55078,-2.26563 1.67969,-2.26562 1.67969,-6.17187 0,-3.88672 -1.67969,-6.15235 -1.67969,-2.28515 -4.55078,-2.28515 z m 0,-3.04688 q 4.6875,0 7.36328,3.04688 2.67578,3.04687 2.67578,8.4375 0,5.37109 -2.67578,8.4375 -2.67578,3.04687 -7.36328,3.04687 -4.70703,0 -7.38281,-3.04687 -2.65625,-3.06641 -2.65625,-8.4375 0,-5.39063 2.65625,-8.4375 2.67578,-3.04688 7.38281,-3.04688 z"
         style="stroke:#000000;stroke-opacity:1;fill:#ffffff;fill-opacity:1"
         id="path3109" />
      <path
         d="m 583.96484,141.01562 v 11.60157 h -3.61328 v -30.19531 h 3.61328 v 3.32031 q 1.13282,-1.95313 2.85157,-2.89063 1.73828,-0.95703 4.14062,-0.95703 3.98438,0 6.46484,3.16406 2.5,3.16407 2.5,8.32032 0,5.15625 -2.5,8.32031 -2.48046,3.16406 -6.46484,3.16406 -2.40234,0 -4.14062,-0.9375 -1.71875,-0.95703 -2.85157,-2.91016 z m 12.22657,-7.63671 q 0,-3.96485 -1.64063,-6.21094 -1.62109,-2.26563 -4.47266,-2.26563 -2.85156,0 -4.49218,2.26563 -1.6211,2.24609 -1.6211,6.21094 0,3.96484 1.6211,6.23046 1.64062,2.2461 4.49218,2.2461 2.85157,0 4.47266,-2.2461 1.64063,-2.26562 1.64063,-6.23046 z"
         style="stroke:#000000;stroke-opacity:1;fill:#ffffff;fill-opacity:1"
         id="path3111" />
      <path
         d="m 622.51953,140.97656 h 13.76953 v 3.32031 h -18.51562 v -3.32031 q 2.24609,-2.32422 6.11328,-6.23047 3.88672,-3.92578 4.88281,-5.05859 1.89453,-2.12891 2.63672,-3.59375 0.76172,-1.48437 0.76172,-2.91016 0,-2.32421 -1.64063,-3.78906 -1.62109,-1.46484 -4.23828,-1.46484 -1.85547,0 -3.92578,0.64453 -2.05078,0.64453 -4.39453,1.95312 v -3.98437 q 2.38281,-0.95703 4.45312,-1.44531 2.07032,-0.48828 3.78907,-0.48828 4.53125,0 7.22656,2.26562 2.69531,2.26563 2.69531,6.05469 0,1.79687 -0.68359,3.41797 -0.66406,1.60156 -2.44141,3.78906 -0.48828,0.5664 -3.10547,3.28125 -2.61718,2.69531 -7.38281,7.55859 z"
         style="stroke:#000000;stroke-opacity:1;fill:#ffffff;fill-opacity:1"
         id="path3113" />
      <path
         d="m 654.72656,122.42188 h 3.59375 l 4.49219,17.07031 4.47266,-17.07031 h 4.23828 l 4.49218,17.07031 4.47266,-17.07031 h 3.59375 l -5.72266,21.87499 h -4.23828 l -4.70703,-17.92968 -4.72656,17.92968 h -4.23828 z"
         style="stroke:#000000;stroke-opacity:1;fill:#ffffff;fill-opacity:1"
         id="path3115" />
      <path
         d="m 698.02734,124.94141 q -2.89062,0 -4.57031,2.26562 -1.67969,2.24609 -1.67969,6.17188 0,3.92578 1.66016,6.1914 1.67969,2.2461 4.58984,2.2461 2.8711,0 4.55078,-2.26563 1.67969,-2.26562 1.67969,-6.17187 0,-3.88672 -1.67969,-6.15235 -1.67968,-2.28515 -4.55078,-2.28515 z m 0,-3.04688 q 4.6875,0 7.36328,3.04688 2.67579,3.04687 2.67579,8.4375 0,5.37109 -2.67579,8.4375 -2.67578,3.04687 -7.36328,3.04687 -4.70703,0 -7.38281,-3.04687 -2.65625,-3.06641 -2.65625,-8.4375 0,-5.39063 2.65625,-8.4375 2.67578,-3.04688 7.38281,-3.04688 z"
         style="stroke:#000000;stroke-opacity:1;fill:#ffffff;fill-opacity:1"
         id="path3117" />
      <path
         d="m 722.48047,124.94141 q -2.89063,0 -4.57031,2.26562 -1.67969,2.24609 -1.67969,6.17188 0,3.92578 1.66015,6.1914 1.67969,2.2461 4.58985,2.2461 2.87109,0 4.55078,-2.26563 1.67969,-2.26562 1.67969,-6.17187 0,-3.88672 -1.67969,-6.15235 -1.67969,-2.28515 -4.55078,-2.28515 z m 0,-3.04688 q 4.6875,0 7.36328,3.04688 2.67578,3.04687 2.67578,8.4375 0,5.37109 -2.67578,8.4375 -2.67578,3.04687 -7.36328,3.04687 -4.70703,0 -7.38281,-3.04687 -2.65625,-3.06641 -2.65625,-8.4375 0,-5.39063 2.65625,-8.4375 2.67578,-3.04688 7.38281,-3.04688 z"
         style="stroke:#000000;stroke-opacity:1;fill:#ffffff;fill-opacity:1"
         id="path3119" />
      <path
         d="m 752.85156,125.74219 v -11.83594 h 3.59375 v 30.39062 h -3.59375 v -3.28125 q -1.13281,1.95313 -2.87109,2.91016 -1.71875,0.9375 -4.14063,0.9375 -3.96484,0 -6.46484,-3.16406 -2.48047,-3.16406 -2.48047,-8.32031 0,-5.15625 2.48047,-8.32032 2.5,-3.16406 6.46484,-3.16406 2.42188,0 4.14063,0.95703 1.73828,0.9375 2.87109,2.89063 z m -12.24609,7.63672 q 0,3.96484 1.62109,6.23046 1.64063,2.2461 4.49219,2.2461 2.85156,0 4.49219,-2.2461 1.64062,-2.26562 1.64062,-6.23046 0,-3.96485 -1.64062,-6.21094 -1.64063,-2.26563 -4.49219,-2.26563 -2.85156,0 -4.49219,2.26563 -1.62109,2.24609 -1.62109,6.21094 z"
         style="stroke:#000000;stroke-opacity:1;fill:#ffffff;fill-opacity:1"
         id="path3121" />
      <path
         d="m 65.15625,183.30078 q -4.355469,0 -6.035156,0.99609 -1.679688,0.9961 -1.679688,3.39844 0,1.91406 1.25,3.04688 1.269531,1.11328 3.4375,1.11328 2.988281,0 4.785156,-2.10938 1.816407,-2.1289 1.816407,-5.64453 v -0.80078 z m 7.167969,-1.48437 v 12.48046 h -3.59375 v -3.32031 q -1.230469,1.99219 -3.066407,2.94922 -1.835937,0.9375 -4.492187,0.9375 -3.359375,0 -5.351563,-1.875 -1.972656,-1.89453 -1.972656,-5.05859 0,-3.69141 2.460938,-5.56641 2.480468,-1.875 7.382812,-1.875 h 5.039063 v -0.35156 q 0,-2.48047 -1.640625,-3.82813 -1.621094,-1.36718 -4.570313,-1.36718 -1.875,0 -3.652344,0.44921 -1.777343,0.44922 -3.417968,1.34766 v -3.32031 q 1.972656,-0.76172 3.828125,-1.13281 1.855468,-0.39063 3.613281,-0.39063 4.746094,0 7.089844,2.46094 2.34375,2.46094 2.34375,7.46094 z"
         style="stroke:#000000;stroke-opacity:1;fill:#ffffff;fill-opacity:1"
         id="path3123" />
      <path
         d="m 97.929687,181.09375 v 13.20312 h -3.59375 v -13.08593 q 0,-3.10547 -1.210937,-4.64844 -1.210938,-1.54297 -3.632813,-1.54297 -2.910156,0 -4.589843,1.85547 -1.679688,1.85547 -1.679688,5.05859 v 12.36328 h -3.613281 v -21.875 h 3.613281 v 3.39844 q 1.289063,-1.97265 3.027344,-2.94922 1.757812,-0.97656 4.042969,-0.97656 3.769531,0 5.703125,2.34375 1.933593,2.32422 1.933593,6.85547 z"
         style="stroke:#000000;stroke-opacity:1;fill:#ffffff;fill-opacity:1"
         id="path3125" />
      <path
         d="m 119.53125,175.74219 v -11.83594 h 3.59375 v 30.39062 h -3.59375 v -3.28125 q -1.13281,1.95313 -2.87109,2.91016 -1.71875,0.9375 -4.14063,0.9375 -3.96484,0 -6.46484,-3.16406 -2.48047,-3.16406 -2.48047,-8.32031 0,-5.15625 2.48047,-8.32032 2.5,-3.16406 6.46484,-3.16406 2.42188,0 4.14063,0.95703 1.73828,0.9375 2.87109,2.89063 z m -12.24609,7.63672 q 0,3.96484 1.62109,6.23046 1.64063,2.2461 4.49219,2.2461 2.85156,0 4.49219,-2.2461 1.64062,-2.26562 1.64062,-6.23046 0,-3.96485 -1.64062,-6.21094 -1.64063,-2.26563 -4.49219,-2.26563 -2.85156,0 -4.49219,2.26563 -1.62109,2.24609 -1.62109,6.21094 z"
         style="stroke:#000000;stroke-opacity:1;fill:#ffffff;fill-opacity:1"
         id="path3127" />
      <path
         d="m 144.45312,190.97656 h 6.44532 v -22.24609 l -7.01172,1.40625 v -3.59375 l 6.97265,-1.40625 h 3.94532 v 25.83984 H 161.25 v 3.32031 h -16.79688 z"
         style="stroke:#000000;stroke-opacity:1;fill:#ffffff;fill-opacity:1"
         id="path3129" />
      <path
         d="m 195.41016,173.06641 v 3.39843 q -1.52344,-0.78125 -3.16407,-1.17187 -1.64062,-0.39063 -3.39843,-0.39063 -2.67579,0 -4.02344,0.82032 -1.32813,0.82031 -1.32813,2.46093 0,1.25 0.95703,1.97266 0.95704,0.70312 3.84766,1.34766 l 1.23047,0.27343 q 3.82812,0.82032 5.42969,2.32422 1.62109,1.48438 1.62109,4.16016 0,3.04687 -2.42187,4.82422 -2.40235,1.77734 -6.6211,1.77734 -1.75781,0 -3.67187,-0.35156 -1.89453,-0.33203 -4.00391,-1.01563 v -3.71093 q 1.99219,1.03515 3.92578,1.5625 1.9336,0.50781 3.82813,0.50781 2.53906,0 3.90625,-0.85938 1.36718,-0.8789 1.36718,-2.46093 0,-1.46485 -0.99609,-2.2461 -0.97656,-0.78125 -4.31641,-1.5039 l -1.25,-0.29297 q -3.33984,-0.70313 -4.82421,-2.14844 -1.48438,-1.46484 -1.48438,-4.00391 0,-3.08593 2.1875,-4.76562 2.1875,-1.67969 6.21094,-1.67969 1.99219,0 3.75,0.29297 1.75781,0.29297 3.24219,0.87891 z"
         style="stroke:#000000;stroke-opacity:1;fill:#ffffff;fill-opacity:1"
         id="path3131" />
      <path
         d="m 205.87891,166.21094 v 6.21093 h 7.40234 v 2.79297 h -7.40234 v 11.875 q 0,2.67578 0.72265,3.4375 0.74219,0.76172 2.98828,0.76172 h 3.69141 v 3.00781 h -3.69141 q -4.16015,0 -5.74218,-1.54296 -1.58204,-1.5625 -1.58204,-5.66407 v -11.875 h -2.63671 v -2.79297 h 2.63671 v -6.21093 z"
         style="stroke:#000000;stroke-opacity:1;fill:#ffffff;fill-opacity:1"
         id="path3133" />
      <path
         d="m 226.50391,174.94141 q -2.89063,0 -4.57032,2.26562 -1.67968,2.24609 -1.67968,6.17188 0,3.92578 1.66015,6.1914 1.67969,2.2461 4.58985,2.2461 2.87109,0 4.55078,-2.26563 1.67968,-2.26562 1.67968,-6.17187 0,-3.88672 -1.67968,-6.15235 -1.67969,-2.28515 -4.55078,-2.28515 z m 0,-3.04688 q 4.6875,0 7.36328,3.04688 2.67578,3.04687 2.67578,8.4375 0,5.37109 -2.67578,8.4375 -2.67578,3.04687 -7.36328,3.04687 -4.70704,0 -7.38282,-3.04687 -2.65625,-3.06641 -2.65625,-8.4375 0,-5.39063 2.65625,-8.4375 2.67578,-3.04688 7.38282,-3.04688 z"
         style="stroke:#000000;stroke-opacity:1;fill:#ffffff;fill-opacity:1"
         id="path3135" />
      <path
         d="m 260.66406,181.09375 v 13.20312 h -3.59375 v -13.08593 q 0,-3.10547 -1.21094,-4.64844 -1.21093,-1.54297 -3.63281,-1.54297 -2.91015,0 -4.58984,1.85547 -1.67969,1.85547 -1.67969,5.05859 v 12.36328 h -3.61328 v -21.875 h 3.61328 v 3.39844 q 1.28906,-1.97265 3.02734,-2.94922 1.75782,-0.97656 4.04297,-0.97656 3.76953,0 5.70313,2.34375 1.93359,2.32422 1.93359,6.85547 z"
         style="stroke:#000000;stroke-opacity:1;fill:#ffffff;fill-opacity:1"
         id="path3137" />
      <path
         d="m 286.58203,182.46094 v 1.75781 h -16.52344 q 0.23438,3.71094 2.22657,5.66406 2.01171,1.9336 5.58593,1.9336 2.07032,0 4.00391,-0.50782 1.95312,-0.50781 3.86719,-1.52343 v 3.39843 q -1.9336,0.82032 -3.96485,1.25 -2.03125,0.42969 -4.12109,0.42969 -5.23438,0 -8.30078,-3.04687 -3.04688,-3.04688 -3.04688,-8.24219 0,-5.3711 2.89063,-8.51563 2.91015,-3.16406 7.83203,-3.16406 4.41406,0 6.97266,2.85156 2.57812,2.83203 2.57812,7.71485 z m -3.59375,-1.05469 q -0.0391,-2.94922 -1.66016,-4.70703 -1.60156,-1.75781 -4.25781,-1.75781 -3.00781,0 -4.82422,1.69921 -1.79687,1.69922 -2.07031,4.78516 z"
         style="stroke:#000000;stroke-opacity:1;fill:#ffffff;fill-opacity:1"
         id="path3139" />
      <path
         d="m 323.39844,181.09375 v 13.20312 h -3.59375 v -13.08593 q 0,-3.10547 -1.21094,-4.64844 -1.21094,-1.54297 -3.63281,-1.54297 -2.91016,0 -4.58985,1.85547 -1.67968,1.85547 -1.67968,5.05859 v 12.36328 h -3.61329 v -21.875 h 3.61329 v 3.39844 q 1.28906,-1.97265 3.02734,-2.94922 1.75781,-0.97656 4.04297,-0.97656 3.76953,0 5.70312,2.34375 1.9336,2.32422 1.9336,6.85547 z"
         style="stroke:#000000;stroke-opacity:1;fill:#ffffff;fill-opacity:1"
         id="path3141" />
      <path
         d="m 349.31641,182.46094 v 1.75781 h -16.52344 q 0.23437,3.71094 2.22656,5.66406 2.01172,1.9336 5.58594,1.9336 2.07031,0 4.0039,-0.50782 1.95313,-0.50781 3.86719,-1.52343 v 3.39843 q -1.93359,0.82032 -3.96484,1.25 -2.03125,0.42969 -4.1211,0.42969 -5.23437,0 -8.30078,-3.04687 -3.04687,-3.04688 -3.04687,-8.24219 0,-5.3711 2.89062,-8.51563 2.91016,-3.16406 7.83203,-3.16406 4.41407,0 6.97266,2.85156 2.57813,2.83203 2.57813,7.71485 z m -3.59375,-1.05469 q -0.0391,-2.94922 -1.66016,-4.70703 -1.60156,-1.75781 -4.25781,-1.75781 -3.00782,0 -4.82422,1.69921 -1.79688,1.69922 -2.07031,4.78516 z"
         style="stroke:#000000;stroke-opacity:1;fill:#ffffff;fill-opacity:1"
         id="path3143" />
      <path
         d="m 365.15625,183.30078 q -4.35547,0 -6.03516,0.99609 -1.67968,0.9961 -1.67968,3.39844 0,1.91406 1.25,3.04688 1.26953,1.11328 3.4375,1.11328 2.98828,0 4.78515,-2.10938 1.81641,-2.1289 1.81641,-5.64453 v -0.80078 z m 7.16797,-1.48437 v 12.48046 h -3.59375 v -3.32031 q -1.23047,1.99219 -3.06641,2.94922 -1.83594,0.9375 -4.49219,0.9375 -3.35937,0 -5.35156,-1.875 -1.97265,-1.89453 -1.97265,-5.05859 0,-3.69141 2.46093,-5.56641 2.48047,-1.875 7.38282,-1.875 h 5.03906 v -0.35156 q 0,-2.48047 -1.64063,-3.82813 -1.62109,-1.36718 -4.57031,-1.36718 -1.875,0 -3.65234,0.44921 -1.77735,0.44922 -3.41797,1.34766 v -3.32031 q 1.97265,-0.76172 3.82812,-1.13281 1.85547,-0.39063 3.61328,-0.39063 4.7461,0 7.08985,2.46094 2.34375,2.46094 2.34375,7.46094 z"
         style="stroke:#000000;stroke-opacity:1;fill:#ffffff;fill-opacity:1"
         id="path3145" />
      <path
         d="m 392.42187,175.78125 q -0.60546,-0.35156 -1.32812,-0.50781 -0.70313,-0.17578 -1.5625,-0.17578 -3.04688,0 -4.6875,1.99218 -1.62109,1.97266 -1.62109,5.6836 v 11.52343 h -3.61329 v -21.875 h 3.61329 v 3.39844 q 1.13281,-1.99219 2.94921,-2.94922 1.81641,-0.97656 4.41407,-0.97656 0.37109,0 0.82031,0.0586 0.44922,0.0391 0.99609,0.13672 z"
         style="stroke:#000000;stroke-opacity:1;fill:#ffffff;fill-opacity:1"
         id="path3147" />
      <path
         d="m 412.51953,166.21094 v 6.21093 h 7.40234 v 2.79297 h -7.40234 v 11.875 q 0,2.67578 0.72266,3.4375 0.74218,0.76172 2.98828,0.76172 h 3.6914 v 3.00781 h -3.6914 q -4.16016,0 -5.74219,-1.54296 -1.58203,-1.5625 -1.58203,-5.66407 v -11.875 h -2.63672 v -2.79297 h 2.63672 v -6.21093 z"
         style="stroke:#000000;stroke-opacity:1;fill:#ffffff;fill-opacity:1"
         id="path3149" />
      <path
         d="m 442.85156,181.09375 v 13.20312 h -3.59375 v -13.08593 q 0,-3.10547 -1.21094,-4.64844 -1.21093,-1.54297 -3.63281,-1.54297 -2.91015,0 -4.58984,1.85547 -1.67969,1.85547 -1.67969,5.05859 v 12.36328 h -3.61328 v -30.39062 h 3.61328 v 11.91406 q 1.28906,-1.97265 3.02734,-2.94922 1.75782,-0.97656 4.04297,-0.97656 3.76953,0 5.70313,2.34375 1.93359,2.32422 1.93359,6.85547 z"
         style="stroke:#000000;stroke-opacity:1;fill:#ffffff;fill-opacity:1"
         id="path3151" />
      <path
         d="m 468.76953,182.46094 v 1.75781 h -16.52344 q 0.23438,3.71094 2.22657,5.66406 2.01171,1.9336 5.58593,1.9336 2.07032,0 4.00391,-0.50782 1.95312,-0.50781 3.86719,-1.52343 v 3.39843 q -1.9336,0.82032 -3.96485,1.25 -2.03125,0.42969 -4.12109,0.42969 -5.23438,0 -8.30078,-3.04687 -3.04688,-3.04688 -3.04688,-8.24219 0,-5.3711 2.89063,-8.51563 2.91015,-3.16406 7.83203,-3.16406 4.41406,0 6.97266,2.85156 2.57812,2.83203 2.57812,7.71485 z m -3.59375,-1.05469 q -0.0391,-2.94922 -1.66016,-4.70703 -1.60156,-1.75781 -4.25781,-1.75781 -3.00781,0 -4.82422,1.69921 -1.79687,1.69922 -2.07031,4.78516 z"
         style="stroke:#000000;stroke-opacity:1;fill:#ffffff;fill-opacity:1"
         id="path3153" />
      <path
         d="m 505.07812,172.42187 v 21.875 h -3.61328 v -19.08203 h -9.86328 v 19.08203 h -3.61328 v -19.08203 h -3.4375 v -2.79297 h 3.4375 v -1.52343 q 0,-3.57422 1.67969,-5.27344 1.69922,-1.71875 5.19531,-1.71875 h 3.61328 v 2.98828 h -3.4375 q -1.93359,0 -2.69531,0.78125 -0.74219,0.78125 -0.74219,2.8125 v 1.93359 z m -3.61328,-8.47656 h 3.61328 v 4.55078 h -3.61328 z"
         style="stroke:#000000;stroke-opacity:1;fill:#ffffff;fill-opacity:1"
         id="path3155" />
      <path
         d="m 525.3125,175.78125 q -0.60547,-0.35156 -1.32813,-0.50781 -0.70312,-0.17578 -1.5625,-0.17578 -3.04687,0 -4.6875,1.99218 -1.62109,1.97266 -1.62109,5.6836 v 11.52343 H 512.5 v -21.875 h 3.61328 v 3.39844 q 1.13281,-1.99219 2.94922,-2.94922 1.81641,-0.97656 4.41406,-0.97656 0.3711,0 0.82031,0.0586 0.44922,0.0391 0.9961,0.13672 z"
         style="stroke:#000000;stroke-opacity:1;fill:#ffffff;fill-opacity:1"
         id="path3157" />
      <path
         d="m 546.97266,182.46094 v 1.75781 h -16.52344 q 0.23437,3.71094 2.22656,5.66406 2.01172,1.9336 5.58594,1.9336 2.07031,0 4.0039,-0.50782 1.95313,-0.50781 3.86719,-1.52343 v 3.39843 q -1.93359,0.82032 -3.96484,1.25 -2.03125,0.42969 -4.1211,0.42969 -5.23437,0 -8.30078,-3.04687 -3.04687,-3.04688 -3.04687,-8.24219 0,-5.3711 2.89062,-8.51563 2.91016,-3.16406 7.83203,-3.16406 4.41407,0 6.97266,2.85156 2.57813,2.83203 2.57813,7.71485 z m -3.59375,-1.05469 q -0.0391,-2.94922 -1.66016,-4.70703 -1.60156,-1.75781 -4.25781,-1.75781 -3.00782,0 -4.82422,1.69921 -1.79688,1.69922 -2.07031,4.78516 z"
         style="stroke:#000000;stroke-opacity:1;fill:#ffffff;fill-opacity:1"
         id="path3159" />
      <path
         d="m 556.34766,191.01562 v 11.60157 h -3.61329 v -30.19532 h 3.61329 v 3.32032 q 1.13281,-1.95313 2.85156,-2.89063 1.73828,-0.95703 4.14062,-0.95703 3.98438,0 6.46485,3.16406 2.5,3.16407 2.5,8.32032 0,5.15625 -2.5,8.32031 -2.48047,3.16406 -6.46485,3.16406 -2.40234,0 -4.14062,-0.9375 -1.71875,-0.95703 -2.85156,-2.91016 z m 12.22656,-7.63671 q 0,-3.96485 -1.64063,-6.21094 -1.62109,-2.26563 -4.47265,-2.26563 -2.85157,0 -4.49219,2.26563 -1.62109,2.24609 -1.62109,6.21094 0,3.96484 1.62109,6.23046 1.64062,2.2461 4.49219,2.2461 2.85156,0 4.47265,-2.2461 1.64063,-2.26562 1.64063,-6.23046 z"
         style="stroke:#000000;stroke-opacity:1;fill:#ffffff;fill-opacity:1"
         id="path3161" />
      <path
         d="m 578.26172,163.90625 h 3.59375 v 30.39062 h -3.59375 z"
         style="stroke:#000000;stroke-opacity:1;fill:#ffffff;fill-opacity:1"
         id="path3163" />
      <path
         d="m 599.29687,183.30078 q -4.35546,0 -6.03515,0.99609 -1.67969,0.9961 -1.67969,3.39844 0,1.91406 1.25,3.04688 1.26953,1.11328 3.4375,1.11328 2.98828,0 4.78516,-2.10938 1.8164,-2.1289 1.8164,-5.64453 v -0.80078 z m 7.16797,-1.48437 v 12.48046 h -3.59375 v -3.32031 q -1.23047,1.99219 -3.0664,2.94922 -1.83594,0.9375 -4.49219,0.9375 -3.35938,0 -5.35156,-1.875 -1.97266,-1.89453 -1.97266,-5.05859 0,-3.69141 2.46094,-5.56641 2.48047,-1.875 7.38281,-1.875 h 5.03906 v -0.35156 q 0,-2.48047 -1.64062,-3.82813 -1.6211,-1.36718 -4.57031,-1.36718 -1.875,0 -3.65235,0.44921 -1.77734,0.44922 -3.41797,1.34766 v -3.32031 q 1.97266,-0.76172 3.82813,-1.13281 1.85547,-0.39063 3.61328,-0.39063 4.74609,0 7.08984,2.46094 2.34375,2.46094 2.34375,7.46094 z"
         style="stroke:#000000;stroke-opacity:1;fill:#ffffff;fill-opacity:1"
         id="path3165" />
      <path
         d="m 629.62891,173.26172 v 3.35937 q -1.52344,-0.83984 -3.06641,-1.25 -1.52344,-0.42968 -3.08594,-0.42968 -3.49609,0 -5.42969,2.22656 -1.93359,2.20703 -1.93359,6.21094 0,4.0039 1.93359,6.23046 1.9336,2.20704 5.42969,2.20704 1.5625,0 3.08594,-0.41016 1.54297,-0.42969 3.06641,-1.26953 v 3.32031 q -1.50391,0.70313 -3.125,1.05469 -1.60157,0.35156 -3.41797,0.35156 -4.94141,0 -7.85157,-3.10547 -2.91015,-3.10547 -2.91015,-8.3789 0,-5.35157 2.92969,-8.41797 2.94921,-3.06641 8.0664,-3.06641 1.66016,0 3.24219,0.35156 1.58203,0.33203 3.06641,1.01563 z"
         style="stroke:#000000;stroke-opacity:1;fill:#ffffff;fill-opacity:1"
         id="path3167" />
      <path
         d="m 654.62891,182.46094 v 1.75781 h -16.52344 q 0.23437,3.71094 2.22656,5.66406 2.01172,1.9336 5.58594,1.9336 2.07031,0 4.0039,-0.50782 1.95313,-0.50781 3.86719,-1.52343 v 3.39843 q -1.93359,0.82032 -3.96484,1.25 -2.03125,0.42969 -4.1211,0.42969 -5.23437,0 -8.30078,-3.04687 -3.04687,-3.04688 -3.04687,-8.24219 0,-5.3711 2.89062,-8.51563 2.91016,-3.16406 7.83203,-3.16406 4.41407,0 6.97266,2.85156 2.57813,2.83203 2.57813,7.71485 z m -3.59375,-1.05469 q -0.0391,-2.94922 -1.66016,-4.70703 -1.60156,-1.75781 -4.25781,-1.75781 -3.00782,0 -4.82422,1.69921 -1.79688,1.69922 -2.07031,4.78516 z"
         style="stroke:#000000;stroke-opacity:1;fill:#ffffff;fill-opacity:1"
         id="path3169" />
      <path
         d="m 688.96484,183.37891 q 0,-3.96485 -1.64062,-6.21094 -1.6211,-2.26563 -4.47266,-2.26563 -2.85156,0 -4.49219,2.26563 -1.62109,2.24609 -1.62109,6.21094 0,3.96484 1.62109,6.23046 1.64063,2.2461 4.49219,2.2461 2.85156,0 4.47266,-2.2461 1.64062,-2.26562 1.64062,-6.23046 z m -12.22656,-7.63672 q 1.13281,-1.95313 2.85156,-2.89063 1.73828,-0.95703 4.14063,-0.95703 3.98437,0 6.46484,3.16406 2.5,3.16407 2.5,8.32032 0,5.15625 -2.5,8.32031 -2.48047,3.16406 -6.46484,3.16406 -2.40235,0 -4.14063,-0.9375 -1.71875,-0.95703 -2.85156,-2.91016 v 3.28125 H 673.125 v -30.39062 h 3.61328 z"
         style="stroke:#000000;stroke-opacity:1;fill:#ffffff;fill-opacity:1"
         id="path3171" />
      <path
         d="m 707.75391,196.32812 q -1.52344,3.90625 -2.96875,5.09766 -1.44532,1.19141 -3.86719,1.19141 h -2.8711 v -3.00782 h 2.10938 q 1.48437,0 2.30469,-0.70312 0.82031,-0.70313 1.8164,-3.32031 l 0.64453,-1.64063 -8.84765,-21.52344 h 3.80859 l 6.83594,17.10938 6.83594,-17.10938 h 3.80859 z"
         style="stroke:#000000;stroke-opacity:1;fill:#ffffff;fill-opacity:1"
         id="path3173" />
      <path
         d="m 244.10156,225.74219 v -11.83594 h 3.59375 v 30.39062 h -3.59375 v -3.28125 q -1.13281,1.95313 -2.87109,2.91016 -1.71875,0.9375 -4.14063,0.9375 -3.96484,0 -6.46484,-3.16406 -2.48047,-3.16406 -2.48047,-8.32031 0,-5.15625 2.48047,-8.32032 2.5,-3.16406 6.46484,-3.16406 2.42188,0 4.14063,0.95703 1.73828,0.9375 2.87109,2.89063 z m -12.24609,7.63672 q 0,3.96484 1.62109,6.23046 1.64063,2.2461 4.49219,2.2461 2.85156,0 4.49219,-2.2461 1.64062,-2.26562 1.64062,-6.23046 0,-3.96485 -1.64062,-6.21094 -1.64063,-2.26563 -4.49219,-2.26563 -2.85156,0 -4.49219,2.26563 -1.62109,2.24609 -1.62109,6.21094 z"
         style="stroke:#000000;stroke-opacity:1;fill:#ff4242;fill-opacity:1"
         id="path3175" />
      <path
         d="m 263.57422,224.94141 q -2.89063,0 -4.57031,2.26562 -1.67969,2.24609 -1.67969,6.17188 0,3.92578 1.66015,6.1914 1.67969,2.2461 4.58985,2.2461 2.87109,0 4.55078,-2.26563 1.67969,-2.26562 1.67969,-6.17187 0,-3.88672 -1.67969,-6.15235 -1.67969,-2.28515 -4.55078,-2.28515 z m 0,-3.04688 q 4.6875,0 7.36328,3.04688 2.67578,3.04687 2.67578,8.4375 0,5.37109 -2.67578,8.4375 -2.67578,3.04687 -7.36328,3.04687 -4.70703,0 -7.38281,-3.04687 -2.65625,-3.06641 -2.65625,-8.4375 0,-5.39063 2.65625,-8.4375 2.67578,-3.04688 7.38281,-3.04688 z"
         style="stroke:#000000;stroke-opacity:1;fill:#ff4242;fill-opacity:1"
         id="path3177" />
      <path
         d="m 279.17969,235.66406 v -13.24219 h 3.59375 v 13.10547 q 0,3.10547 1.21093,4.66797 1.21094,1.54297 3.63282,1.54297 2.91015,0 4.58984,-1.85547 1.69922,-1.85547 1.69922,-5.05859 V 222.42187 H 297.5 v 21.875 h -3.59375 v -3.35937 q -1.30859,1.99219 -3.04688,2.96875 -1.71875,0.95703 -4.0039,0.95703 -3.76953,0 -5.72266,-2.34375 -1.95312,-2.34375 -1.95312,-6.85547 z m 9.04297,-13.76953 z"
         style="stroke:#000000;stroke-opacity:1;fill:#ff4242;fill-opacity:1"
         id="path3179" />
      <path
         d="m 320.64453,233.37891 q 0,-3.96485 -1.64062,-6.21094 -1.6211,-2.26563 -4.47266,-2.26563 -2.85156,0 -4.49219,2.26563 -1.62109,2.24609 -1.62109,6.21094 0,3.96484 1.62109,6.23046 1.64063,2.2461 4.49219,2.2461 2.85156,0 4.47266,-2.2461 1.64062,-2.26562 1.64062,-6.23046 z m -12.22656,-7.63672 q 1.13281,-1.95313 2.85156,-2.89063 1.73828,-0.95703 4.14063,-0.95703 3.98437,0 6.46484,3.16406 2.5,3.16407 2.5,8.32032 0,5.15625 -2.5,8.32031 -2.48047,3.16406 -6.46484,3.16406 -2.40235,0 -4.14063,-0.9375 -1.71875,-0.95703 -2.85156,-2.91016 v 3.28125 h -3.61328 v -30.39062 h 3.61328 z"
         style="stroke:#000000;stroke-opacity:1;fill:#ff4242;fill-opacity:1"
         id="path3181" />
      <path
         d="m 330.33203,213.90625 h 3.59375 v 30.39062 h -3.59375 z"
         style="stroke:#000000;stroke-opacity:1;fill:#ff4242;fill-opacity:1"
         id="path3183" />
      <path
         d="m 360.13672,232.46094 v 1.75781 h -16.52344 q 0.23438,3.71094 2.22656,5.66406 2.01172,1.9336 5.58594,1.9336 2.07031,0 4.00391,-0.50782 1.95312,-0.50781 3.86718,-1.52343 v 3.39843 q -1.93359,0.82032 -3.96484,1.25 -2.03125,0.42969 -4.12109,0.42969 -5.23438,0 -8.30078,-3.04687 -3.04688,-3.04688 -3.04688,-8.24219 0,-5.3711 2.89063,-8.51563 2.91015,-3.16406 7.83203,-3.16406 4.41406,0 6.97265,2.85156 2.57813,2.83203 2.57813,7.71485 z m -3.59375,-1.05469 q -0.0391,-2.94922 -1.66016,-4.70703 -1.60156,-1.75781 -4.25781,-1.75781 -3.00781,0 -4.82422,1.69921 -1.79687,1.69922 -2.07031,4.78516 z"
         style="stroke:#000000;stroke-opacity:1;fill:#ff4242;fill-opacity:1"
         id="path3185" />
      <path
         d="m 364.21875,231.73828 h 10.52734 v 3.20313 h -10.52734 z"
         style="stroke:#000000;stroke-opacity:1;fill:#ff4242;fill-opacity:1"
         id="path3187" />
      <path
         d="m 396.23047,223.26172 v 3.35937 q -1.52344,-0.83984 -3.06641,-1.25 -1.52344,-0.42968 -3.08594,-0.42968 -3.49609,0 -5.42968,2.22656 -1.9336,2.20703 -1.9336,6.21094 0,4.0039 1.9336,6.23046 1.93359,2.20704 5.42968,2.20704 1.5625,0 3.08594,-0.41016 1.54297,-0.42969 3.06641,-1.26953 v 3.32031 q -1.50391,0.70313 -3.125,1.05469 -1.60156,0.35156 -3.41797,0.35156 -4.94141,0 -7.85156,-3.10547 -2.91016,-3.10547 -2.91016,-8.3789 0,-5.35157 2.92969,-8.41797 2.94922,-3.06641 8.0664,-3.06641 1.66016,0 3.24219,0.35156 1.58203,0.33203 3.06641,1.01563 z"
         style="stroke:#000000;stroke-opacity:1;fill:#ff4242;fill-opacity:1"
         id="path3189" />
      <path
         d="m 402.51953,213.90625 h 3.59375 v 30.39062 h -3.59375 z"
         style="stroke:#000000;stroke-opacity:1;fill:#ff4242;fill-opacity:1"
         id="path3191" />
      <path
         d="m 413.61328,222.42187 h 3.59375 v 21.875 h -3.59375 z m 0,-8.51562 h 3.59375 v 4.55078 h -3.59375 z"
         style="stroke:#000000;stroke-opacity:1;fill:#ff4242;fill-opacity:1"
         id="path3193" />
      <path
         d="m 440.44922,223.26172 v 3.35937 q -1.52344,-0.83984 -3.06641,-1.25 -1.52344,-0.42968 -3.08594,-0.42968 -3.49609,0 -5.42968,2.22656 -1.9336,2.20703 -1.9336,6.21094 0,4.0039 1.9336,6.23046 1.93359,2.20704 5.42968,2.20704 1.5625,0 3.08594,-0.41016 1.54297,-0.42969 3.06641,-1.26953 v 3.32031 q -1.50391,0.70313 -3.125,1.05469 -1.60156,0.35156 -3.41797,0.35156 -4.94141,0 -7.85156,-3.10547 -2.91016,-3.10547 -2.91016,-8.3789 0,-5.35157 2.92969,-8.41797 2.94922,-3.06641 8.0664,-3.06641 1.66016,0 3.24219,0.35156 1.58203,0.33203 3.06641,1.01563 z"
         style="stroke:#000000;stroke-opacity:1;fill:#ff4242;fill-opacity:1"
         id="path3195" />
      <path
         d="m 446.60156,213.90625 h 3.61328 v 17.94922 l 10.72266,-9.4336 h 4.58984 l -11.60156,10.23438 12.08984,11.64062 h -4.6875 l -11.11328,-10.68359 v 10.68359 h -3.61328 z"
         style="stroke:#000000;stroke-opacity:1;fill:#ff4242;fill-opacity:1"
         id="path3197" />
      <path
         d="m 469.94141,222.42187 h 3.59375 v 21.875 h -3.59375 z m 0,-8.51562 h 3.59375 v 4.55078 h -3.59375 z"
         style="stroke:#000000;stroke-opacity:1;fill:#ff4242;fill-opacity:1"
         id="path3199" />
      <path
         d="m 499.21875,231.09375 v 13.20312 H 495.625 v -13.08593 q 0,-3.10547 -1.21094,-4.64844 -1.21094,-1.54297 -3.63281,-1.54297 -2.91016,0 -4.58984,1.85547 -1.67969,1.85547 -1.67969,5.05859 v 12.36328 h -3.61328 v -21.875 h 3.61328 v 3.39844 q 1.28906,-1.97265 3.02734,-2.94922 1.75781,-0.97656 4.04297,-0.97656 3.76953,0 5.70313,2.34375 1.93359,2.32422 1.93359,6.85547 z"
         style="stroke:#000000;stroke-opacity:1;fill:#ff4242;fill-opacity:1"
         id="path3201" />
      <path
         d="m 520.82031,233.10547 q 0,-3.90625 -1.62109,-6.05469 -1.60156,-2.14844 -4.51172,-2.14844 -2.89063,0 -4.51172,2.14844 -1.60156,2.14844 -1.60156,6.05469 0,3.88672 1.60156,6.03515 1.62109,2.14844 4.51172,2.14844 2.91016,0 4.51172,-2.14844 1.62109,-2.14843 1.62109,-6.03515 z m 3.59375,8.47656 q 0,5.58594 -2.48047,8.30078 -2.48047,2.73438 -7.59765,2.73438 -1.89453,0 -3.57422,-0.29297 -1.67969,-0.27344 -3.26172,-0.85938 v -3.49609 q 1.58203,0.85937 3.125,1.26953 1.54297,0.41016 3.14453,0.41016 3.53516,0 5.29297,-1.85547 1.75781,-1.83594 1.75781,-5.56641 v -1.77734 q -1.11328,1.93359 -2.85156,2.89062 -1.73828,0.95703 -4.16016,0.95703 -4.02343,0 -6.48437,-3.0664 -2.46094,-3.06641 -2.46094,-8.125 0,-5.07813 2.46094,-8.14453 2.46094,-3.06641 6.48437,-3.06641 2.42188,0 4.16016,0.95703 1.73828,0.95703 2.85156,2.89063 v -3.32032 h 3.59375 z"
         style="stroke:#000000;stroke-opacity:1;fill:#ff4242;fill-opacity:1"
         id="path3203" />
      <path
         d="m 534.08203,239.33594 h 3.96484 v 4.96093 h -3.96484 z m 0,-24.19922 h 3.96484 v 12.79297 l -0.39062,6.97265 h -3.16406 l -0.41016,-6.97265 z"
         style="stroke:#000000;stroke-opacity:1;fill:#ff4242;fill-opacity:1"
         id="path3205" />
    </g>
  </g>
</svg>
