<?xml version="1.0" encoding="UTF-8" standalone="no"?>
<!-- Created with Inkscape (http://www.inkscape.org/) -->

<svg
   xmlns:dc="http://purl.org/dc/elements/1.1/"
   xmlns:cc="http://creativecommons.org/ns#"
   xmlns:rdf="http://www.w3.org/1999/02/22-rdf-syntax-ns#"
   xmlns:svg="http://www.w3.org/2000/svg"
   xmlns="http://www.w3.org/2000/svg"
   xmlns:sodipodi="http://sodipodi.sourceforge.net/DTD/sodipodi-0.dtd"
   xmlns:inkscape="http://www.inkscape.org/namespaces/inkscape"
   width="200mm"
   height="200mm"
   viewBox="0 0 200 200"
   version="1.1"
   id="svg8"
   inkscape:version="0.92.5 (2060ec1f9f, 2020-04-08)"
   sodipodi:docname="tutorial5.svg">
  <defs
     id="defs2" />
  <sodipodi:namedview
     id="base"
     pagecolor="#ffffff"
     bordercolor="#666666"
     borderopacity="1.0"
     inkscape:pageopacity="0.0"
     inkscape:pageshadow="2"
     inkscape:zoom="1.4142136"
     inkscape:cx="372.82251"
     inkscape:cy="633.32929"
     inkscape:document-units="mm"
     inkscape:current-layer="layer1"
     showgrid="false"
     inkscape:window-width="1853"
     inkscape:window-height="1057"
     inkscape:window-x="1979"
     inkscape:window-y="-8"
     inkscape:window-maximized="1" />
  <metadata
     id="metadata5">
    <rdf:RDF>
      <cc:Work
         rdf:about="">
        <dc:format>image/svg+xml</dc:format>
        <dc:type
           rdf:resource="http://purl.org/dc/dcmitype/StillImage" />
        <dc:title></dc:title>
      </cc:Work>
    </rdf:RDF>
  </metadata>
  <g
     inkscape:label="Ebene 1"
     inkscape:groupmode="layer"
     id="layer1"
     transform="translate(0,-97)"
     style="display:inline">
    <flowRoot
       xml:space="preserve"
       id="flowRoot2853"
       style="fill:black;fill-opacity:1;stroke:none;font-family:sans-serif;font-style:normal;font-weight:normal;font-size:40px;line-height:1.25;letter-spacing:0px;word-spacing:0px"><flowRegion
         id="flowRegion2855"><rect
           id="rect2857"
           width="755.19"
           height="217.78888"
           x="0.70710677"
           y="0.0083828345" /></flowRegion><flowPara
         id="flowPara2859"></flowPara></flowRoot>    <g
       aria-label="You can use your tools by clicking on things. You equipped an axe, so chop down a tree!"
       transform="matrix(0.26458333,0,0,0.26458333,0,97)"
       style="font-style:normal;font-variant:normal;font-weight:normal;font-stretch:normal;font-size:40px;line-height:1.25;font-family:sans-serif;-inkscape-font-specification:'sans-serif, Normal';font-variant-ligatures:normal;font-variant-caps:normal;font-variant-numeric:normal;font-feature-settings:normal;text-align:center;letter-spacing:0px;word-spacing:0px;writing-mode:lr-tb;text-anchor:middle;fill:#ffffff;fill-opacity:1;stroke:#000000;stroke-width:1.13385832;stroke-miterlimit:4;stroke-dasharray:none;stroke-opacity:1"
       id="flowRoot2861">
      <path
         d="M 9.3564453,6.2382812 H 13.594727 L 21.680664,18.230469 29.708008,6.2382812 h 4.238281 L 23.633789,21.511719 V 35.398437 H 19.668945 V 21.511719 Z"
         style=""
         id="path4186" />
      <path
         d="m 40.821289,16.042969 q -2.890625,0 -4.570312,2.265625 -1.679688,2.246093 -1.679688,6.171875 0,3.925781 1.660156,6.191406 1.679688,2.246094 4.589844,2.246094 2.871094,0 4.550781,-2.265625 1.679688,-2.265625 1.679688,-6.171875 0,-3.886719 -1.679688,-6.152344 -1.679687,-2.285156 -4.550781,-2.285156 z m 0,-3.046875 q 4.6875,0 7.363281,3.046875 2.675782,3.046875 2.675782,8.4375 0,5.371093 -2.675782,8.4375 -2.675781,3.046875 -7.363281,3.046875 -4.707031,0 -7.382812,-3.046875 -2.65625,-3.066407 -2.65625,-8.4375 0,-5.390625 2.65625,-8.4375 2.675781,-3.046875 7.382812,-3.046875 z"
         style=""
         id="path4188" />
      <path
         d="M 56.426758,26.765625 V 13.523438 h 3.59375 v 13.105468 q 0,3.105469 1.210937,4.667969 1.210938,1.542969 3.632813,1.542969 2.910156,0 4.589844,-1.855469 1.699218,-1.855469 1.699218,-5.058594 V 13.523438 h 3.59375 v 21.874999 h -3.59375 v -3.359375 q -1.308593,1.992188 -3.046875,2.96875 -1.71875,0.957032 -4.003906,0.957032 -3.769531,0 -5.722656,-2.34375 -1.953125,-2.34375 -1.953125,-6.855469 z m 9.042969,-13.769531 z"
         style=""
         id="path4190" />
      <path
         d="m 110.66504,14.363281 v 3.359375 q -1.52344,-0.839844 -3.06641,-1.25 -1.52343,-0.429687 -3.08593,-0.429687 -3.4961,0 -5.429692,2.226562 -1.933594,2.207031 -1.933594,6.210938 0,4.003906 1.933594,6.230468 1.933592,2.207032 5.429692,2.207032 1.5625,0 3.08593,-0.410157 1.54297,-0.429687 3.06641,-1.269531 v 3.320313 q -1.50391,0.703125 -3.125,1.054687 -1.60156,0.351563 -3.41797,0.351563 -4.941406,0 -7.851562,-3.105469 -2.910156,-3.105469 -2.910156,-8.378906 0,-5.351563 2.929687,-8.417969 2.949219,-3.066406 8.066411,-3.066406 1.66015,0 3.24218,0.351562 1.58203,0.332032 3.06641,1.015625 z"
         style=""
         id="path4192" />
      <path
         d="m 126.89551,24.402344 q -4.35547,0 -6.03516,0.996093 -1.67969,0.996094 -1.67969,3.398438 0,1.914062 1.25,3.046875 1.26954,1.113281 3.4375,1.113281 2.98829,0 4.78516,-2.109375 1.81641,-2.128906 1.81641,-5.644531 v -0.800781 z m 7.16797,-1.484375 v 12.480468 h -3.59375 v -3.320312 q -1.23047,1.992187 -3.06641,2.949219 -1.83594,0.9375 -4.49219,0.9375 -3.35937,0 -5.35156,-1.875 -1.97266,-1.894532 -1.97266,-5.058594 0,-3.691406 2.46094,-5.566406 2.48047,-1.875 7.38281,-1.875 h 5.03907 v -0.351563 q 0,-2.480469 -1.64063,-3.828125 -1.62109,-1.367187 -4.57031,-1.367187 -1.875,0 -3.65234,0.449218 -1.77735,0.449219 -3.41797,1.347657 v -3.320313 q 1.97265,-0.761718 3.82812,-1.132812 1.85547,-0.390625 3.61328,-0.390625 4.7461,0 7.08985,2.460937 2.34375,2.460938 2.34375,7.460938 z"
         style=""
         id="path4194" />
      <path
         d="M 159.66895,22.195312 V 35.398437 H 156.0752 V 22.3125 q 0,-3.105469 -1.21094,-4.648438 -1.21094,-1.542968 -3.63281,-1.542968 -2.91016,0 -4.58985,1.855468 -1.67969,1.855469 -1.67969,5.058594 v 12.363281 h -3.61328 V 13.523438 h 3.61328 v 3.398437 q 1.28907,-1.972656 3.02735,-2.949219 1.75781,-0.976562 4.04297,-0.976562 3.76953,0 5.70312,2.34375 1.9336,2.324218 1.9336,6.855468 z"
         style=""
         id="path4196" />
      <path
         d="M 179.23926,26.765625 V 13.523438 h 3.59375 v 13.105468 q 0,3.105469 1.21094,4.667969 1.21093,1.542969 3.63281,1.542969 2.91015,0 4.58984,-1.855469 1.69922,-1.855469 1.69922,-5.058594 V 13.523438 h 3.59375 v 21.874999 h -3.59375 v -3.359375 q -1.30859,1.992188 -3.04687,2.96875 -1.71875,0.957032 -4.00391,0.957032 -3.76953,0 -5.72266,-2.34375 -1.95312,-2.34375 -1.95312,-6.855469 z m 9.04297,-13.769531 z"
         style=""
         id="path4198" />
      <path
         d="m 218.94629,14.167969 v 3.398437 q -1.52344,-0.78125 -3.16406,-1.171875 -1.64063,-0.390625 -3.39844,-0.390625 -2.67578,0 -4.02344,0.820313 -1.32812,0.820312 -1.32812,2.460937 0,1.25 0.95703,1.972656 0.95703,0.703125 3.84765,1.347657 l 1.23047,0.273437 q 3.82813,0.820313 5.42969,2.324219 1.62109,1.484375 1.62109,4.160156 0,3.046875 -2.42187,4.824219 -2.40234,1.777344 -6.62109,1.777344 -1.75782,0 -3.67188,-0.351563 -1.89453,-0.332031 -4.00391,-1.015625 v -3.710937 q 1.99219,1.035156 3.92579,1.5625 1.93359,0.507812 3.82812,0.507812 2.53906,0 3.90625,-0.859375 1.36719,-0.878906 1.36719,-2.460937 0,-1.464844 -0.9961,-2.246094 -0.97656,-0.78125 -4.3164,-1.503906 l -1.25,-0.292969 q -3.33985,-0.703125 -4.82422,-2.148438 -1.48438,-1.464843 -1.48438,-4.003906 0,-3.085937 2.1875,-4.765625 2.1875,-1.679687 6.21094,-1.679687 1.99219,0 3.75,0.292969 1.75781,0.292968 3.24219,0.878906 z"
         style=""
         id="path4200" />
      <path
         d="m 244.57129,23.5625 v 1.757812 h -16.52344 q 0.23438,3.710938 2.22656,5.664063 2.01172,1.933594 5.58594,1.933594 2.07031,0 4.00391,-0.507813 1.95312,-0.507812 3.86719,-1.523437 v 3.398437 q -1.9336,0.820313 -3.96485,1.25 -2.03125,0.429688 -4.12109,0.429688 -5.23438,0 -8.30078,-3.046875 -3.04688,-3.046875 -3.04688,-8.242188 0,-5.371094 2.89063,-8.515625 2.91015,-3.164062 7.83203,-3.164062 4.41406,0 6.97265,2.851562 2.57813,2.832031 2.57813,7.714844 z m -3.59375,-1.054688 q -0.0391,-2.949218 -1.66016,-4.707031 -1.60156,-1.757812 -4.25781,-1.757812 -3.00781,0 -4.82422,1.699218 -1.79687,1.699219 -2.07031,4.785157 z"
         style=""
         id="path4202" />
      <path
         d="m 272.30566,37.429687 q -1.52343,3.90625 -2.96875,5.097657 -1.44531,1.191406 -3.86718,1.191406 h -2.8711 v -3.007813 h 2.10938 q 1.48437,0 2.30469,-0.703125 0.82031,-0.703125 1.8164,-3.320312 l 0.64453,-1.640625 -8.84765,-21.523437 h 3.80859 l 6.83594,17.109374 6.83594,-17.109374 h 3.80859 z"
         style=""
         id="path4204" />
      <path
         d="m 295.35254,16.042969 q -2.89063,0 -4.57031,2.265625 -1.67969,2.246093 -1.67969,6.171875 0,3.925781 1.66016,6.191406 1.67968,2.246094 4.58984,2.246094 2.87109,0 4.55078,-2.265625 1.67969,-2.265625 1.67969,-6.171875 0,-3.886719 -1.67969,-6.152344 -1.67969,-2.285156 -4.55078,-2.285156 z m 0,-3.046875 q 4.6875,0 7.36328,3.046875 2.67578,3.046875 2.67578,8.4375 0,5.371093 -2.67578,8.4375 -2.67578,3.046875 -7.36328,3.046875 -4.70703,0 -7.38281,-3.046875 -2.65625,-3.066407 -2.65625,-8.4375 0,-5.390625 2.65625,-8.4375 2.67578,-3.046875 7.38281,-3.046875 z"
         style=""
         id="path4206" />
      <path
         d="M 310.95801,26.765625 V 13.523438 h 3.59375 v 13.105468 q 0,3.105469 1.21094,4.667969 1.21093,1.542969 3.63281,1.542969 2.91015,0 4.58984,-1.855469 1.69922,-1.855469 1.69922,-5.058594 V 13.523438 h 3.59375 v 21.874999 h -3.59375 v -3.359375 q -1.30859,1.992188 -3.04687,2.96875 -1.71875,0.957032 -4.00391,0.957032 -3.76953,0 -5.72266,-2.34375 -1.95312,-2.34375 -1.95312,-6.855469 z m 9.04297,-13.769531 z"
         style=""
         id="path4208" />
      <path
         d="m 349.39551,16.882812 q -0.60547,-0.351562 -1.32813,-0.507812 -0.70312,-0.175781 -1.5625,-0.175781 -3.04687,0 -4.6875,1.992187 -1.62109,1.972656 -1.62109,5.683594 v 11.523437 h -3.61328 V 13.523438 h 3.61328 v 3.398437 q 1.13281,-1.992187 2.94922,-2.949219 1.8164,-0.976562 4.41406,-0.976562 0.37109,0 0.82031,0.05859 0.44922,0.03906 0.9961,0.136718 z"
         style=""
         id="path4210" />
      <path
         d="m 369.49316,7.3125 v 6.210938 h 7.40235 v 2.792968 h -7.40235 v 11.875 q 0,2.675781 0.72266,3.4375 0.74219,0.761719 2.98828,0.761719 h 3.69141 v 3.007812 h -3.69141 q -4.16015,0 -5.74219,-1.542968 -1.58203,-1.5625 -1.58203,-5.664063 v -11.875 h -2.63672 v -2.792968 h 2.63672 V 7.3125 Z"
         style=""
         id="path4212" />
      <path
         d="m 390.11816,16.042969 q -2.89062,0 -4.57031,2.265625 -1.67969,2.246093 -1.67969,6.171875 0,3.925781 1.66016,6.191406 1.67969,2.246094 4.58984,2.246094 2.8711,0 4.55079,-2.265625 1.67968,-2.265625 1.67968,-6.171875 0,-3.886719 -1.67968,-6.152344 -1.67969,-2.285156 -4.55079,-2.285156 z m 0,-3.046875 q 4.6875,0 7.36329,3.046875 2.67578,3.046875 2.67578,8.4375 0,5.371093 -2.67578,8.4375 -2.67579,3.046875 -7.36329,3.046875 -4.70703,0 -7.38281,-3.046875 -2.65625,-3.066407 -2.65625,-8.4375 0,-5.390625 2.65625,-8.4375 2.67578,-3.046875 7.38281,-3.046875 z"
         style=""
         id="path4214" />
      <path
         d="m 414.57129,16.042969 q -2.89063,0 -4.57031,2.265625 -1.67969,2.246093 -1.67969,6.171875 0,3.925781 1.66016,6.191406 1.67968,2.246094 4.58984,2.246094 2.87109,0 4.55078,-2.265625 1.67969,-2.265625 1.67969,-6.171875 0,-3.886719 -1.67969,-6.152344 -1.67969,-2.285156 -4.55078,-2.285156 z m 0,-3.046875 q 4.6875,0 7.36328,3.046875 2.67578,3.046875 2.67578,8.4375 0,5.371093 -2.67578,8.4375 -2.67578,3.046875 -7.36328,3.046875 -4.70703,0 -7.38281,-3.046875 -2.65625,-3.066407 -2.65625,-8.4375 0,-5.390625 2.65625,-8.4375 2.67578,-3.046875 7.38281,-3.046875 z"
         style=""
         id="path4216" />
      <path
         d="m 430.54785,5.0078125 h 3.59375 V 35.398437 h -3.59375 z"
         style=""
         id="path4218" />
      <path
         d="m 455.58691,14.167969 v 3.398437 q -1.52343,-0.78125 -3.16406,-1.171875 -1.64062,-0.390625 -3.39844,-0.390625 -2.67578,0 -4.02343,0.820313 -1.32813,0.820312 -1.32813,2.460937 0,1.25 0.95703,1.972656 0.95703,0.703125 3.84766,1.347657 l 1.23047,0.273437 q 3.82812,0.820313 5.42969,2.324219 1.62109,1.484375 1.62109,4.160156 0,3.046875 -2.42188,4.824219 -2.40234,1.777344 -6.62109,1.777344 -1.75781,0 -3.67187,-0.351563 -1.89454,-0.332031 -4.00391,-1.015625 v -3.710937 q 1.99219,1.035156 3.92578,1.5625 1.93359,0.507812 3.82813,0.507812 2.53906,0 3.90625,-0.859375 1.36718,-0.878906 1.36718,-2.460937 0,-1.464844 -0.99609,-2.246094 -0.97656,-0.78125 -4.31641,-1.503906 l -1.25,-0.292969 q -3.33984,-0.703125 -4.82422,-2.148438 -1.48437,-1.464843 -1.48437,-4.003906 0,-3.085937 2.1875,-4.765625 2.1875,-1.679687 6.21094,-1.679687 1.99218,0 3.75,0.292969 1.75781,0.292968 3.24218,0.878906 z"
         style=""
         id="path4220" />
      <path
         d="m 490.93848,24.480469 q 0,-3.964844 -1.64063,-6.210938 -1.62109,-2.265625 -4.47265,-2.265625 -2.85157,0 -4.49219,2.265625 -1.6211,2.246094 -1.6211,6.210938 0,3.964843 1.6211,6.230468 1.64062,2.246094 4.49219,2.246094 2.85156,0 4.47265,-2.246094 1.64063,-2.265625 1.64063,-6.230468 z M 478.71191,16.84375 q 1.13282,-1.953125 2.85157,-2.890625 1.73828,-0.957031 4.14062,-0.957031 3.98438,0 6.46485,3.164062 2.5,3.164063 2.5,8.320313 0,5.15625 -2.5,8.320312 -2.48047,3.164063 -6.46485,3.164063 -2.40234,0 -4.14062,-0.9375 -1.71875,-0.957032 -2.85157,-2.910157 v 3.28125 h -3.61328 V 5.0078125 h 3.61328 z"
         style=""
         id="path4222" />
      <path
         d="m 509.72754,37.429687 q -1.52344,3.90625 -2.96875,5.097657 -1.44531,1.191406 -3.86719,1.191406 h -2.87109 v -3.007813 h 2.10937 q 1.48438,0 2.30469,-0.703125 0.82031,-0.703125 1.81641,-3.320312 l 0.64453,-1.640625 -8.84766,-21.523437 h 3.8086 l 6.83593,17.109374 6.83594,-17.109374 h 3.80859 z"
         style=""
         id="path4224" />
      <path
         d="m 552.77441,14.363281 v 3.359375 q -1.52343,-0.839844 -3.0664,-1.25 -1.52344,-0.429687 -3.08594,-0.429687 -3.49609,0 -5.42969,2.226562 -1.93359,2.207031 -1.93359,6.210938 0,4.003906 1.93359,6.230468 1.9336,2.207032 5.42969,2.207032 1.5625,0 3.08594,-0.410157 1.54297,-0.429687 3.0664,-1.269531 v 3.320313 q -1.5039,0.703125 -3.125,1.054687 -1.60156,0.351563 -3.41796,0.351563 -4.94141,0 -7.85157,-3.105469 -2.91015,-3.105469 -2.91015,-8.378906 0,-5.351563 2.92968,-8.417969 2.94922,-3.066406 8.06641,-3.066406 1.66016,0 3.24219,0.351562 1.58203,0.332032 3.0664,1.015625 z"
         style=""
         id="path4226" />
      <path
         d="m 559.06348,5.0078125 h 3.59375 V 35.398437 h -3.59375 z"
         style=""
         id="path4228" />
      <path
         d="m 570.15723,13.523438 h 3.59375 v 21.874999 h -3.59375 z m 0,-8.5156255 h 3.59375 v 4.5507813 h -3.59375 z"
         style=""
         id="path4230" />
      <path
         d="m 596.99316,14.363281 v 3.359375 q -1.52343,-0.839844 -3.0664,-1.25 -1.52344,-0.429687 -3.08594,-0.429687 -3.49609,0 -5.42969,2.226562 -1.93359,2.207031 -1.93359,6.210938 0,4.003906 1.93359,6.230468 1.9336,2.207032 5.42969,2.207032 1.5625,0 3.08594,-0.410157 1.54297,-0.429687 3.0664,-1.269531 v 3.320313 q -1.5039,0.703125 -3.125,1.054687 -1.60156,0.351563 -3.41796,0.351563 -4.94141,0 -7.85157,-3.105469 -2.91015,-3.105469 -2.91015,-8.378906 0,-5.351563 2.92968,-8.417969 2.94922,-3.066406 8.06641,-3.066406 1.66016,0 3.24219,0.351562 1.58203,0.332032 3.0664,1.015625 z"
         style=""
         id="path4232" />
      <path
         d="m 603.14551,5.0078125 h 3.61328 V 22.957031 l 10.72266,-9.433593 h 4.58984 l -11.60156,10.234374 12.08984,11.640625 h -4.6875 L 606.75879,24.714844 v 10.683593 h -3.61328 z"
         style=""
         id="path4234" />
      <path
         d="m 626.48535,13.523438 h 3.59375 v 21.874999 h -3.59375 z m 0,-8.5156255 h 3.59375 v 4.5507813 h -3.59375 z"
         style=""
         id="path4236" />
      <path
         d="m 655.7627,22.195312 v 13.203125 h -3.59375 V 22.3125 q 0,-3.105469 -1.21094,-4.648438 -1.21094,-1.542968 -3.63281,-1.542968 -2.91016,0 -4.58985,1.855468 -1.67969,1.855469 -1.67969,5.058594 v 12.363281 h -3.61328 V 13.523438 h 3.61328 v 3.398437 q 1.28907,-1.972656 3.02735,-2.949219 1.75781,-0.976562 4.04297,-0.976562 3.76953,0 5.70312,2.34375 1.9336,2.324218 1.9336,6.855468 z"
         style=""
         id="path4238" />
      <path
         d="m 677.36426,24.207031 q 0,-3.90625 -1.6211,-6.054687 -1.60156,-2.148438 -4.51171,-2.148438 -2.89063,0 -4.51172,2.148438 -1.60157,2.148437 -1.60157,6.054687 0,3.886719 1.60157,6.035156 1.62109,2.148438 4.51172,2.148438 2.91015,0 4.51171,-2.148438 1.6211,-2.148437 1.6211,-6.035156 z m 3.59375,8.476563 q 0,5.585937 -2.48047,8.300781 -2.48047,2.734375 -7.59766,2.734375 -1.89453,0 -3.57422,-0.292969 -1.67968,-0.273437 -3.26171,-0.859375 v -3.496094 q 1.58203,0.859375 3.125,1.269532 1.54296,0.410156 3.14453,0.410156 3.53515,0 5.29297,-1.855469 1.75781,-1.835937 1.75781,-5.566406 v -1.777344 q -1.11328,1.933594 -2.85156,2.890625 -1.73829,0.957031 -4.16016,0.957031 -4.02344,0 -6.48438,-3.066406 -2.46093,-3.066406 -2.46093,-8.125 0,-5.078125 2.46093,-8.144531 2.46094,-3.066406 6.48438,-3.066406 2.42187,0 4.16016,0.957031 1.73828,0.957031 2.85156,2.890625 v -3.320312 h 3.59375 z"
         style=""
         id="path4240" />
      <path
         d="m 709.57129,16.042969 q -2.89063,0 -4.57031,2.265625 -1.67969,2.246093 -1.67969,6.171875 0,3.925781 1.66016,6.191406 1.67968,2.246094 4.58984,2.246094 2.87109,0 4.55078,-2.265625 1.67969,-2.265625 1.67969,-6.171875 0,-3.886719 -1.67969,-6.152344 -1.67969,-2.285156 -4.55078,-2.285156 z m 0,-3.046875 q 4.6875,0 7.36328,3.046875 2.67578,3.046875 2.67578,8.4375 0,5.371093 -2.67578,8.4375 -2.67578,3.046875 -7.36328,3.046875 -4.70703,0 -7.38281,-3.046875 -2.65625,-3.066407 -2.65625,-8.4375 0,-5.390625 2.65625,-8.4375 2.67578,-3.046875 7.38281,-3.046875 z"
         style=""
         id="path4242" />
      <path
         d="M 743.73145,22.195312 V 35.398437 H 740.1377 V 22.3125 q 0,-3.105469 -1.21094,-4.648438 -1.21094,-1.542968 -3.63281,-1.542968 -2.91016,0 -4.58985,1.855468 -1.67969,1.855469 -1.67969,5.058594 v 12.363281 h -3.61328 V 13.523438 h 3.61328 v 3.398437 q 1.28907,-1.972656 3.02735,-2.949219 1.75781,-0.976562 4.04297,-0.976562 3.76953,0 5.70312,2.34375 1.9336,2.324218 1.9336,6.855468 z"
         style=""
         id="path4244" />
      <path
         d="m 12.618164,57.3125 v 6.210937 h 7.402344 v 2.792969 h -7.402344 v 11.875 q 0,2.675781 0.722656,3.4375 0.742188,0.761719 2.988282,0.761719 h 3.691406 v 3.007812 h -3.691406 q -4.160157,0 -5.742188,-1.542968 -1.5820312,-1.5625 -1.5820312,-5.664063 v -11.875 H 6.3681641 V 63.523437 H 9.0048828 V 57.3125 Z"
         style=""
         id="path4246" />
      <path
         d="m 42.950195,72.195312 v 13.203125 h -3.59375 V 72.3125 q 0,-3.105469 -1.210937,-4.648438 -1.210938,-1.542968 -3.632813,-1.542968 -2.910156,0 -4.589843,1.855468 -1.679688,1.855469 -1.679688,5.058594 V 85.398437 H 24.629883 V 55.007812 h 3.613281 v 11.914063 q 1.289063,-1.972656 3.027344,-2.949219 1.757812,-0.976562 4.042969,-0.976562 3.769531,0 5.703125,2.34375 1.933593,2.324218 1.933593,6.855468 z"
         style=""
         id="path4248" />
      <path
         d="m 50.157227,63.523437 h 3.59375 v 21.875 h -3.59375 z m 0,-8.515625 h 3.59375 v 4.550782 h -3.59375 z"
         style=""
         id="path4250" />
      <path
         d="M 79.43457,72.195312 V 85.398437 H 75.84082 V 72.3125 q 0,-3.105469 -1.210937,-4.648438 -1.210938,-1.542968 -3.632813,-1.542968 -2.910156,0 -4.589843,1.855468 -1.679688,1.855469 -1.679688,5.058594 v 12.363281 h -3.613281 v -21.875 h 3.613281 v 3.398438 q 1.289063,-1.972656 3.027344,-2.949219 1.757812,-0.976562 4.042969,-0.976562 3.769531,0 5.703125,2.34375 1.933593,2.324218 1.933593,6.855468 z"
         style=""
         id="path4252" />
      <path
         d="m 101.03613,74.207031 q 0,-3.90625 -1.621091,-6.054687 -1.601562,-2.148438 -4.511719,-2.148438 -2.890625,0 -4.511718,2.148438 -1.601563,2.148437 -1.601563,6.054687 0,3.886719 1.601563,6.035156 1.621093,2.148438 4.511718,2.148438 2.910157,0 4.511719,-2.148438 1.621091,-2.148437 1.621091,-6.035156 z m 3.59375,8.476563 q 0,5.585937 -2.48047,8.300781 -2.480465,2.734375 -7.597652,2.734375 -1.894531,0 -3.574219,-0.292969 -1.679687,-0.273437 -3.261719,-0.859375 v -3.496094 q 1.582032,0.859375 3.125,1.269532 1.542969,0.410156 3.144532,0.410156 3.535156,0 5.292968,-1.855469 1.75781,-1.835937 1.75781,-5.566406 v -1.777344 q -1.113278,1.933594 -2.85156,2.890625 -1.738281,0.957031 -4.160156,0.957031 -4.023437,0 -6.484375,-3.066406 -2.460937,-3.066406 -2.460937,-8.125 0,-5.078125 2.460937,-8.144531 2.460938,-3.066406 6.484375,-3.066406 2.421875,0 4.160156,0.957031 1.738282,0.957031 2.85156,2.890625 v -3.320313 h 3.59375 z"
         style=""
         id="path4254" />
      <path
         d="m 125.97754,64.167969 v 3.398437 q -1.52344,-0.78125 -3.16406,-1.171875 -1.64063,-0.390625 -3.39844,-0.390625 -2.67578,0 -4.02344,0.820313 -1.32812,0.820312 -1.32812,2.460937 0,1.25 0.95703,1.972656 0.95703,0.703125 3.84765,1.347657 l 1.23047,0.273437 q 3.82813,0.820313 5.42969,2.324219 1.62109,1.484375 1.62109,4.160156 0,3.046875 -2.42187,4.824219 -2.40234,1.777344 -6.62109,1.777344 -1.75782,0 -3.67188,-0.351563 -1.89453,-0.332031 -4.00391,-1.015625 v -3.710937 q 1.99219,1.035156 3.92579,1.5625 1.93359,0.507812 3.82812,0.507812 2.53906,0 3.90625,-0.859375 1.36719,-0.878906 1.36719,-2.460937 0,-1.464844 -0.9961,-2.246094 -0.97656,-0.78125 -4.3164,-1.503906 l -1.25,-0.292969 q -3.33985,-0.703125 -4.82422,-2.148438 -1.48438,-1.464843 -1.48438,-4.003906 0,-3.085937 2.1875,-4.765625 2.1875,-1.679687 6.21094,-1.679687 1.99219,0 3.75,0.292968 1.75781,0.292969 3.24219,0.878907 z"
         style=""
         id="path4256" />
      <path
         d="m 133.39941,80.4375 h 4.1211 v 4.960937 h -4.1211 z"
         style=""
         id="path4258" />
      <path
         d="m 154.5127,56.238281 h 4.23828 l 8.08593,11.992188 8.02735,-11.992188 h 4.23828 l -10.3125,15.273438 V 85.398437 H 164.8252 V 71.511719 Z"
         style=""
         id="path4260" />
      <path
         d="m 185.97754,66.042969 q -2.89063,0 -4.57031,2.265625 -1.67969,2.246093 -1.67969,6.171875 0,3.925781 1.66016,6.191406 1.67968,2.246094 4.58984,2.246094 2.87109,0 4.55078,-2.265625 1.67969,-2.265625 1.67969,-6.171875 0,-3.886719 -1.67969,-6.152344 -1.67969,-2.285156 -4.55078,-2.285156 z m 0,-3.046875 q 4.6875,0 7.36328,3.046875 2.67578,3.046875 2.67578,8.4375 0,5.371093 -2.67578,8.4375 -2.67578,3.046875 -7.36328,3.046875 -4.70703,0 -7.38281,-3.046875 -2.65625,-3.066407 -2.65625,-8.4375 0,-5.390625 2.65625,-8.4375 2.67578,-3.046875 7.38281,-3.046875 z"
         style=""
         id="path4262" />
      <path
         d="M 201.58301,76.765625 V 63.523437 h 3.59375 v 13.105469 q 0,3.105469 1.21094,4.667969 1.21093,1.542969 3.63281,1.542969 2.91015,0 4.58984,-1.855469 1.69922,-1.855469 1.69922,-5.058594 V 63.523437 h 3.59375 v 21.875 h -3.59375 v -3.359375 q -1.30859,1.992188 -3.04687,2.96875 -1.71875,0.957032 -4.00391,0.957032 -3.76953,0 -5.72266,-2.34375 -1.95312,-2.34375 -1.95312,-6.855469 z m 9.04297,-13.769531 z"
         style=""
         id="path4264" />
      <path
         d="m 258.79004,73.5625 v 1.757812 H 242.2666 q 0.23438,3.710938 2.22656,5.664063 2.01172,1.933594 5.58594,1.933594 2.07031,0 4.00391,-0.507813 1.95312,-0.507812 3.86719,-1.523437 v 3.398437 q -1.9336,0.820313 -3.96485,1.25 -2.03125,0.429688 -4.12109,0.429688 -5.23438,0 -8.30078,-3.046875 -3.04688,-3.046875 -3.04688,-8.242188 0,-5.371094 2.89063,-8.515625 2.91015,-3.164062 7.83203,-3.164062 4.41406,0 6.97265,2.851562 2.57813,2.832031 2.57813,7.714844 z m -3.59375,-1.054688 q -0.0391,-2.949218 -1.66016,-4.707031 -1.60156,-1.757812 -4.25781,-1.757812 -3.00781,0 -4.82422,1.699218 -1.79687,1.699219 -2.07031,4.785157 z"
         style=""
         id="path4266" />
      <path
         d="m 266.83691,74.480469 q 0,3.964843 1.6211,6.230468 1.64062,2.246094 4.49219,2.246094 2.85156,0 4.49218,-2.246094 1.64063,-2.265625 1.64063,-6.230468 0,-3.964844 -1.64063,-6.210938 -1.64062,-2.265625 -4.49218,-2.265625 -2.85157,0 -4.49219,2.265625 -1.6211,2.246094 -1.6211,6.210938 z m 12.2461,7.636718 q -1.13281,1.953125 -2.8711,2.910157 -1.71875,0.9375 -4.14062,0.9375 -3.96484,0 -6.46484,-3.164063 -2.48047,-3.164062 -2.48047,-8.320312 0,-5.15625 2.48047,-8.320313 2.5,-3.164062 6.46484,-3.164062 2.42187,0 4.14062,0.957031 1.73829,0.9375 2.8711,2.890625 v -3.320313 h 3.59375 V 93.71875 h -3.59375 z"
         style=""
         id="path4268" />
      <path
         d="M 289.70801,76.765625 V 63.523437 h 3.59375 v 13.105469 q 0,3.105469 1.21094,4.667969 1.21093,1.542969 3.63281,1.542969 2.91015,0 4.58984,-1.855469 1.69922,-1.855469 1.69922,-5.058594 V 63.523437 h 3.59375 v 21.875 h -3.59375 v -3.359375 q -1.30859,1.992188 -3.04687,2.96875 -1.71875,0.957032 -4.00391,0.957032 -3.76953,0 -5.72266,-2.34375 -1.95312,-2.34375 -1.95312,-6.855469 z m 9.04297,-13.769531 z"
         style=""
         id="path4270" />
      <path
         d="m 315.46973,63.523437 h 3.59375 v 21.875 h -3.59375 z m 0,-8.515625 h 3.59375 v 4.550782 h -3.59375 z"
         style=""
         id="path4272" />
      <path
         d="M 330.04004,82.117187 V 93.71875 h -3.61328 V 63.523437 h 3.61328 v 3.320313 q 1.13281,-1.953125 2.85156,-2.890625 1.73828,-0.957031 4.14063,-0.957031 3.98437,0 6.46484,3.164062 2.5,3.164063 2.5,8.320313 0,5.15625 -2.5,8.320312 -2.48047,3.164063 -6.46484,3.164063 -2.40235,0 -4.14063,-0.9375 -1.71875,-0.957032 -2.85156,-2.910157 z m 12.22656,-7.636718 q 0,-3.964844 -1.64062,-6.210938 -1.6211,-2.265625 -4.47266,-2.265625 -2.85156,0 -4.49219,2.265625 -1.62109,2.246094 -1.62109,6.210938 0,3.964843 1.62109,6.230468 1.64063,2.246094 4.49219,2.246094 2.85156,0 4.47266,-2.246094 1.64062,-2.265625 1.64062,-6.230468 z"
         style=""
         id="path4274" />
      <path
         d="M 355.43066,82.117187 V 93.71875 h -3.61328 V 63.523437 h 3.61328 v 3.320313 q 1.13282,-1.953125 2.85157,-2.890625 1.73828,-0.957031 4.14062,-0.957031 3.98438,0 6.46485,3.164062 2.5,3.164063 2.5,8.320313 0,5.15625 -2.5,8.320312 -2.48047,3.164063 -6.46485,3.164063 -2.40234,0 -4.14062,-0.9375 -1.71875,-0.957032 -2.85157,-2.910157 z m 12.22657,-7.636718 q 0,-3.964844 -1.64063,-6.210938 -1.62109,-2.265625 -4.47265,-2.265625 -2.85157,0 -4.49219,2.265625 -1.6211,2.246094 -1.6211,6.210938 0,3.964843 1.6211,6.230468 1.64062,2.246094 4.49219,2.246094 2.85156,0 4.47265,-2.246094 1.64063,-2.265625 1.64063,-6.230468 z"
         style=""
         id="path4276" />
      <path
         d="m 396.05566,73.5625 v 1.757812 h -16.52343 q 0.23437,3.710938 2.22656,5.664063 2.01172,1.933594 5.58594,1.933594 2.07031,0 4.0039,-0.507813 1.95313,-0.507812 3.86719,-1.523437 v 3.398437 q -1.93359,0.820313 -3.96484,1.25 -2.03125,0.429688 -4.1211,0.429688 -5.23437,0 -8.30078,-3.046875 -3.04687,-3.046875 -3.04687,-8.242188 0,-5.371094 2.89062,-8.515625 2.91016,-3.164062 7.83203,-3.164062 4.41407,0 6.97266,2.851562 2.57812,2.832031 2.57812,7.714844 z m -3.59375,-1.054688 q -0.0391,-2.949218 -1.66015,-4.707031 -1.60156,-1.757812 -4.25781,-1.757812 -3.00782,0 -4.82422,1.699218 -1.79688,1.699219 -2.07032,4.785157 z"
         style=""
         id="path4278" />
      <path
         d="M 416.34863,66.84375 V 55.007812 h 3.59375 v 30.390625 h -3.59375 v -3.28125 q -1.13281,1.953125 -2.87109,2.910157 -1.71875,0.9375 -4.14063,0.9375 -3.96484,0 -6.46484,-3.164063 -2.48047,-3.164062 -2.48047,-8.320312 0,-5.15625 2.48047,-8.320313 2.5,-3.164062 6.46484,-3.164062 2.42188,0 4.14063,0.957031 1.73828,0.9375 2.87109,2.890625 z m -12.24609,7.636719 q 0,3.964843 1.62109,6.230468 1.64063,2.246094 4.49219,2.246094 2.85156,0 4.49219,-2.246094 1.64062,-2.265625 1.64062,-6.230468 0,-3.964844 -1.64062,-6.210938 -1.64063,-2.265625 -4.49219,-2.265625 -2.85156,0 -4.49219,2.265625 -1.62109,2.246094 -1.62109,6.210938 z"
         style=""
         id="path4280" />
      <path
         d="m 450.02051,74.402344 q -4.35547,0 -6.03516,0.996093 -1.67969,0.996094 -1.67969,3.398438 0,1.914062 1.25,3.046875 1.26954,1.113281 3.4375,1.113281 2.98829,0 4.78516,-2.109375 1.81641,-2.128906 1.81641,-5.644531 v -0.800781 z m 7.16797,-1.484375 v 12.480468 h -3.59375 v -3.320312 q -1.23047,1.992187 -3.06641,2.949219 -1.83594,0.9375 -4.49219,0.9375 -3.35937,0 -5.35156,-1.875 -1.97266,-1.894532 -1.97266,-5.058594 0,-3.691406 2.46094,-5.566406 2.48047,-1.875 7.38281,-1.875 h 5.03907 v -0.351563 q 0,-2.480469 -1.64063,-3.828125 -1.62109,-1.367187 -4.57031,-1.367187 -1.875,0 -3.65234,0.449218 -1.77735,0.449219 -3.41797,1.347657 v -3.320313 q 1.97265,-0.761719 3.82812,-1.132812 1.85547,-0.390625 3.61328,-0.390625 4.7461,0 7.08985,2.460937 2.34375,2.460938 2.34375,7.460938 z"
         style=""
         id="path4282" />
      <path
         d="M 482.79395,72.195312 V 85.398437 H 479.2002 V 72.3125 q 0,-3.105469 -1.21094,-4.648438 -1.21094,-1.542968 -3.63281,-1.542968 -2.91016,0 -4.58985,1.855468 -1.67969,1.855469 -1.67969,5.058594 v 12.363281 h -3.61328 v -21.875 h 3.61328 v 3.398438 q 1.28907,-1.972656 3.02735,-2.949219 1.75781,-0.976562 4.04297,-0.976562 3.76953,0 5.70312,2.34375 1.9336,2.324218 1.9336,6.855468 z"
         style=""
         id="path4284" />
      <path
         d="m 512.67676,74.402344 q -4.35547,0 -6.03516,0.996093 -1.67969,0.996094 -1.67969,3.398438 0,1.914062 1.25,3.046875 1.26954,1.113281 3.4375,1.113281 2.98829,0 4.78516,-2.109375 1.81641,-2.128906 1.81641,-5.644531 v -0.800781 z m 7.16797,-1.484375 v 12.480468 h -3.59375 v -3.320312 q -1.23047,1.992187 -3.06641,2.949219 -1.83594,0.9375 -4.49219,0.9375 -3.35937,0 -5.35156,-1.875 -1.97266,-1.894532 -1.97266,-5.058594 0,-3.691406 2.46094,-5.566406 2.48047,-1.875 7.38281,-1.875 h 5.03907 v -0.351563 q 0,-2.480469 -1.64063,-3.828125 -1.62109,-1.367187 -4.57031,-1.367187 -1.875,0 -3.65234,0.449218 -1.77735,0.449219 -3.41797,1.347657 v -3.320313 q 1.97265,-0.761719 3.82812,-1.132812 1.85547,-0.390625 3.61328,-0.390625 4.7461,0 7.08985,2.460937 2.34375,2.460938 2.34375,7.460938 z"
         style=""
         id="path4286" />
      <path
         d="m 545.4502,63.523437 -7.91016,10.644532 8.32031,11.230468 h -4.23828 l -6.36719,-8.59375 -6.36718,8.59375 h -4.23829 l 8.4961,-11.445312 -7.77344,-10.429688 h 4.23828 l 5.80078,7.792969 5.80078,-7.792969 z"
         style=""
         id="path4288" />
      <path
         d="m 568.39941,73.5625 v 1.757812 h -16.52343 q 0.23437,3.710938 2.22656,5.664063 2.01172,1.933594 5.58594,1.933594 2.07031,0 4.0039,-0.507813 1.95313,-0.507812 3.86719,-1.523437 v 3.398437 q -1.93359,0.820313 -3.96484,1.25 -2.03125,0.429688 -4.1211,0.429688 -5.23437,0 -8.30078,-3.046875 -3.04687,-3.046875 -3.04687,-8.242188 0,-5.371094 2.89062,-8.515625 2.91016,-3.164062 7.83203,-3.164062 4.41407,0 6.97266,2.851562 2.57812,2.832031 2.57812,7.714844 z m -3.59375,-1.054688 q -0.0391,-2.949218 -1.66015,-4.707031 -1.60156,-1.757812 -4.25781,-1.757812 -3.00782,0 -4.82422,1.699218 -1.79688,1.699219 -2.07032,4.785157 z"
         style=""
         id="path4290" />
      <path
         d="m 575.21582,80.4375 h 4.12109 v 3.359375 l -3.20312,6.25 h -2.51953 l 1.60156,-6.25 z"
         style=""
         id="path4292" />
      <path
         d="m 613.71191,64.167969 v 3.398437 q -1.52343,-0.78125 -3.16406,-1.171875 -1.64062,-0.390625 -3.39844,-0.390625 -2.67578,0 -4.02343,0.820313 -1.32813,0.820312 -1.32813,2.460937 0,1.25 0.95703,1.972656 0.95703,0.703125 3.84766,1.347657 l 1.23047,0.273437 q 3.82812,0.820313 5.42969,2.324219 1.62109,1.484375 1.62109,4.160156 0,3.046875 -2.42188,4.824219 -2.40234,1.777344 -6.62109,1.777344 -1.75781,0 -3.67187,-0.351563 -1.89454,-0.332031 -4.00391,-1.015625 v -3.710937 q 1.99219,1.035156 3.92578,1.5625 1.93359,0.507812 3.82813,0.507812 2.53906,0 3.90625,-0.859375 1.36718,-0.878906 1.36718,-2.460937 0,-1.464844 -0.99609,-2.246094 -0.97656,-0.78125 -4.31641,-1.503906 l -1.25,-0.292969 q -3.33984,-0.703125 -4.82422,-2.148438 -1.48437,-1.464843 -1.48437,-4.003906 0,-3.085937 2.1875,-4.765625 2.1875,-1.679687 6.21094,-1.679687 1.99218,0 3.75,0.292968 1.75781,0.292969 3.24218,0.878907 z"
         style=""
         id="path4294" />
      <path
         d="m 629.10254,66.042969 q -2.89063,0 -4.57031,2.265625 -1.67969,2.246093 -1.67969,6.171875 0,3.925781 1.66016,6.191406 1.67968,2.246094 4.58984,2.246094 2.87109,0 4.55078,-2.265625 1.67969,-2.265625 1.67969,-6.171875 0,-3.886719 -1.67969,-6.152344 -1.67969,-2.285156 -4.55078,-2.285156 z m 0,-3.046875 q 4.6875,0 7.36328,3.046875 2.67578,3.046875 2.67578,8.4375 0,5.371093 -2.67578,8.4375 -2.67578,3.046875 -7.36328,3.046875 -4.70703,0 -7.38281,-3.046875 -2.65625,-3.066407 -2.65625,-8.4375 0,-5.390625 2.65625,-8.4375 2.67578,-3.046875 7.38281,-3.046875 z"
         style=""
         id="path4296" />
      <path
         d="m 673.55566,64.363281 v 3.359375 q -1.52343,-0.839844 -3.0664,-1.25 -1.52344,-0.429687 -3.08594,-0.429687 -3.49609,0 -5.42969,2.226562 -1.93359,2.207031 -1.93359,6.210938 0,4.003906 1.93359,6.230468 1.9336,2.207032 5.42969,2.207032 1.5625,0 3.08594,-0.410157 1.54297,-0.429687 3.0664,-1.269531 v 3.320313 q -1.5039,0.703125 -3.125,1.054687 -1.60156,0.351563 -3.41796,0.351563 -4.94141,0 -7.85157,-3.105469 -2.91015,-3.105469 -2.91015,-8.378906 0,-5.351563 2.92968,-8.417969 2.94922,-3.066406 8.06641,-3.066406 1.66016,0 3.24219,0.351562 1.58203,0.332031 3.0664,1.015625 z"
         style=""
         id="path4298" />
      <path
         d="m 698.02832,72.195312 v 13.203125 h -3.59375 V 72.3125 q 0,-3.105469 -1.21094,-4.648438 -1.21093,-1.542968 -3.63281,-1.542968 -2.91016,0 -4.58984,1.855468 -1.67969,1.855469 -1.67969,5.058594 v 12.363281 h -3.61328 V 55.007812 h 3.61328 v 11.914063 q 1.28906,-1.972656 3.02734,-2.949219 1.75782,-0.976562 4.04297,-0.976562 3.76953,0 5.70313,2.34375 1.93359,2.324218 1.93359,6.855468 z"
         style=""
         id="path4300" />
      <path
         d="m 713.71191,66.042969 q -2.89062,0 -4.57031,2.265625 -1.67969,2.246093 -1.67969,6.171875 0,3.925781 1.66016,6.191406 1.67969,2.246094 4.58984,2.246094 2.8711,0 4.55079,-2.265625 1.67968,-2.265625 1.67968,-6.171875 0,-3.886719 -1.67968,-6.152344 -1.67969,-2.285156 -4.55079,-2.285156 z m 0,-3.046875 q 4.6875,0 7.36329,3.046875 2.67578,3.046875 2.67578,8.4375 0,5.371093 -2.67578,8.4375 -2.67579,3.046875 -7.36329,3.046875 -4.70703,0 -7.38281,-3.046875 -2.65625,-3.066407 -2.65625,-8.4375 0,-5.390625 2.65625,-8.4375 2.67578,-3.046875 7.38281,-3.046875 z"
         style=""
         id="path4302" />
      <path
         d="M 733.16504,82.117187 V 93.71875 h -3.61328 V 63.523437 h 3.61328 v 3.320313 q 1.13281,-1.953125 2.85156,-2.890625 1.73828,-0.957031 4.14063,-0.957031 3.98437,0 6.46484,3.164062 2.5,3.164063 2.5,8.320313 0,5.15625 -2.5,8.320312 -2.48047,3.164063 -6.46484,3.164063 -2.40235,0 -4.14063,-0.9375 -1.71875,-0.957032 -2.85156,-2.910157 z m 12.22656,-7.636718 q 0,-3.964844 -1.64062,-6.210938 -1.6211,-2.265625 -4.47266,-2.265625 -2.85156,0 -4.49219,2.265625 -1.62109,2.246094 -1.62109,6.210938 0,3.964843 1.62109,6.230468 1.64063,2.246094 4.49219,2.246094 2.85156,0 4.47266,-2.246094 1.64062,-2.265625 1.64062,-6.230468 z"
         style=""
         id="path4304" />
      <path
         d="m 269.2002,116.84375 v -11.83594 h 3.59375 v 30.39063 h -3.59375 v -3.28125 q -1.13282,1.95312 -2.8711,2.91015 -1.71875,0.9375 -4.14062,0.9375 -3.96485,0 -6.46485,-3.16406 -2.48047,-3.16406 -2.48047,-8.32031 0,-5.15625 2.48047,-8.32031 2.5,-3.16407 6.46485,-3.16407 2.42187,0 4.14062,0.95704 1.73828,0.9375 2.8711,2.89062 z m -12.2461,7.63672 q 0,3.96484 1.6211,6.23047 1.64062,2.24609 4.49218,2.24609 2.85157,0 4.49219,-2.24609 1.64063,-2.26563 1.64063,-6.23047 0,-3.96484 -1.64063,-6.21094 -1.64062,-2.26562 -4.49219,-2.26562 -2.85156,0 -4.49218,2.26562 -1.6211,2.2461 -1.6211,6.21094 z"
         style=""
         id="path4306" />
      <path
         d="m 288.67285,116.04297 q -2.89062,0 -4.57031,2.26562 -1.67969,2.2461 -1.67969,6.17188 0,3.92578 1.66016,6.1914 1.67969,2.2461 4.58984,2.2461 2.8711,0 4.55078,-2.26563 1.67969,-2.26562 1.67969,-6.17187 0,-3.88672 -1.67969,-6.15234 -1.67968,-2.28516 -4.55078,-2.28516 z m 0,-3.04688 q 4.6875,0 7.36328,3.04688 2.67578,3.04687 2.67578,8.4375 0,5.37109 -2.67578,8.4375 -2.67578,3.04687 -7.36328,3.04687 -4.70703,0 -7.38281,-3.04687 -2.65625,-3.06641 -2.65625,-8.4375 0,-5.39063 2.65625,-8.4375 2.67578,-3.04688 7.38281,-3.04688 z"
         style=""
         id="path4308" />
      <path
         d="m 302.55957,113.52344 h 3.59375 l 4.49219,17.07031 4.47265,-17.07031 h 4.23829 l 4.49218,17.07031 4.47266,-17.07031 h 3.59375 l -5.72266,21.875 h -4.23828 l -4.70703,-17.92969 -4.72656,17.92969 h -4.23828 z"
         style=""
         id="path4310" />
      <path
         d="m 355.56738,122.19531 v 13.20313 h -3.59375 V 122.3125 q 0,-3.10547 -1.21093,-4.64844 -1.21094,-1.54297 -3.63282,-1.54297 -2.91015,0 -4.58984,1.85547 -1.67969,1.85547 -1.67969,5.0586 v 12.36328 h -3.61328 v -21.875 h 3.61328 v 3.39844 q 1.28906,-1.97266 3.02735,-2.94922 1.75781,-0.97657 4.04296,-0.97657 3.76954,0 5.70313,2.34375 1.93359,2.32422 1.93359,6.85547 z"
         style=""
         id="path4312" />
      <path
         d="m 385.4502,124.40234 q -4.35547,0 -6.03516,0.9961 -1.67969,0.99609 -1.67969,3.39843 0,1.91407 1.25,3.04688 1.26953,1.11328 3.4375,1.11328 2.98828,0 4.78516,-2.10937 1.8164,-2.12891 1.8164,-5.64453 v -0.80079 z m 7.16796,-1.48437 v 12.48047 h -3.59375 v -3.32032 q -1.23046,1.99219 -3.0664,2.94922 -1.83594,0.9375 -4.49219,0.9375 -3.35937,0 -5.35156,-1.875 -1.97266,-1.89453 -1.97266,-5.05859 0,-3.69141 2.46094,-5.56641 2.48047,-1.875 7.38281,-1.875 h 5.03906 v -0.35156 q 0,-2.48047 -1.64062,-3.82812 -1.62109,-1.36719 -4.57031,-1.36719 -1.875,0 -3.65235,0.44922 -1.77734,0.44922 -3.41797,1.34765 v -3.32031 q 1.97266,-0.76172 3.82813,-1.13281 1.85547,-0.39063 3.61328,-0.39063 4.74609,0 7.08984,2.46094 2.34375,2.46094 2.34375,7.46094 z"
         style=""
         id="path4314" />
      <path
         d="m 416.3291,107.3125 v 6.21094 h 7.40235 v 2.79297 h -7.40235 v 11.875 q 0,2.67578 0.72266,3.4375 0.74219,0.76171 2.98828,0.76171 h 3.69141 v 3.00782 h -3.69141 q -4.16016,0 -5.74219,-1.54297 -1.58203,-1.5625 -1.58203,-5.66406 v -11.875 h -2.63672 v -2.79297 h 2.63672 v -6.21094 z"
         style=""
         id="path4316" />
      <path
         d="m 441.15332,116.88281 q -0.60547,-0.35156 -1.32812,-0.50781 -0.70313,-0.17578 -1.5625,-0.17578 -3.04688,0 -4.6875,1.99219 -1.6211,1.97265 -1.6211,5.68359 v 11.52344 h -3.61328 v -21.875 h 3.61328 v 3.39844 q 1.13281,-1.99219 2.94922,-2.94922 1.81641,-0.97657 4.41406,-0.97657 0.3711,0 0.82032,0.0586 0.44921,0.0391 0.99609,0.13672 z"
         style=""
         id="path4318" />
      <path
         d="m 462.81348,123.5625 v 1.75781 h -16.52344 q 0.23437,3.71094 2.22656,5.66406 2.01172,1.9336 5.58594,1.9336 2.07031,0 4.00391,-0.50781 1.95312,-0.50782 3.86718,-1.52344 v 3.39844 q -1.93359,0.82031 -3.96484,1.25 -2.03125,0.42968 -4.12109,0.42968 -5.23438,0 -8.30079,-3.04687 -3.04687,-3.04688 -3.04687,-8.24219 0,-5.37109 2.89062,-8.51562 2.91016,-3.16407 7.83204,-3.16407 4.41406,0 6.97265,2.85157 2.57813,2.83203 2.57813,7.71484 z m -3.59375,-1.05469 q -0.0391,-2.94922 -1.66016,-4.70703 -1.60156,-1.75781 -4.25781,-1.75781 -3.00781,0 -4.82422,1.69922 -1.79688,1.69922 -2.07031,4.78515 z"
         style=""
         id="path4320" />
      <path
         d="m 487.42285,123.5625 v 1.75781 h -16.52344 q 0.23438,3.71094 2.22657,5.66406 2.01172,1.9336 5.58593,1.9336 2.07032,0 4.00391,-0.50781 1.95313,-0.50782 3.86719,-1.52344 v 3.39844 q -1.9336,0.82031 -3.96485,1.25 -2.03125,0.42968 -4.12109,0.42968 -5.23437,0 -8.30078,-3.04687 -3.04688,-3.04688 -3.04688,-8.24219 0,-5.37109 2.89063,-8.51562 2.91016,-3.16407 7.83203,-3.16407 4.41406,0 6.97266,2.85157 2.57812,2.83203 2.57812,7.71484 z m -3.59375,-1.05469 q -0.0391,-2.94922 -1.66015,-4.70703 -1.60157,-1.75781 -4.25782,-1.75781 -3.00781,0 -4.82422,1.69922 -1.79687,1.69922 -2.07031,4.78515 z"
         style=""
         id="path4322" />
      <path
         d="m 495.58691,130.4375 h 3.96485 v 4.96094 h -3.96485 z m 0,-24.19922 h 3.96485 v 12.79297 l -0.39063,6.97266 h -3.16406 l -0.41016,-6.97266 z"
         style=""
         id="path4324" />
    </g>
  </g>
</svg>
