<?xml version="1.0" encoding="UTF-8" standalone="no"?>
<!-- Created with Inkscape (http://www.inkscape.org/) -->

<svg
   xmlns:dc="http://purl.org/dc/elements/1.1/"
   xmlns:cc="http://creativecommons.org/ns#"
   xmlns:rdf="http://www.w3.org/1999/02/22-rdf-syntax-ns#"
   xmlns:svg="http://www.w3.org/2000/svg"
   xmlns="http://www.w3.org/2000/svg"
   xmlns:sodipodi="http://sodipodi.sourceforge.net/DTD/sodipodi-0.dtd"
   xmlns:inkscape="http://www.inkscape.org/namespaces/inkscape"
   width="200mm"
   height="200mm"
   viewBox="0 0 200 200"
   version="1.1"
   id="svg8"
   inkscape:version="0.92.5 (2060ec1f9f, 2020-04-08)"
   sodipodi:docname="tutorial4.svg">
  <defs
     id="defs2" />
  <sodipodi:namedview
     id="base"
     pagecolor="#ffffff"
     bordercolor="#666666"
     borderopacity="1.0"
     inkscape:pageopacity="0.0"
     inkscape:pageshadow="2"
     inkscape:zoom="1.4142136"
     inkscape:cx="372.82251"
     inkscape:cy="633.32929"
     inkscape:document-units="mm"
     inkscape:current-layer="layer1"
     showgrid="false"
     inkscape:window-width="1853"
     inkscape:window-height="1057"
     inkscape:window-x="1979"
     inkscape:window-y="-8"
     inkscape:window-maximized="1" />
  <metadata
     id="metadata5">
    <rdf:RDF>
      <cc:Work
         rdf:about="">
        <dc:format>image/svg+xml</dc:format>
        <dc:type
           rdf:resource="http://purl.org/dc/dcmitype/StillImage" />
        <dc:title></dc:title>
      </cc:Work>
    </rdf:RDF>
  </metadata>
  <g
     inkscape:label="Ebene 1"
     inkscape:groupmode="layer"
     id="layer1"
     transform="translate(0,-97)"
     style="display:inline">
    <flowRoot
       xml:space="preserve"
       id="flowRoot2853"
       style="fill:black;fill-opacity:1;stroke:none;font-family:sans-serif;font-style:normal;font-weight:normal;font-size:40px;line-height:1.25;letter-spacing:0px;word-spacing:0px"><flowRegion
         id="flowRegion2855"><rect
           id="rect2857"
           width="755.19"
           height="217.78888"
           x="0.70710677"
           y="0.0083828345" /></flowRegion><flowPara
         id="flowPara2859"></flowPara></flowRoot>    <g
       aria-label="Here you can craft and change your tools, or upgrade the fireplace. Now craft an axe!"
       transform="matrix(0.26458333,0,0,0.26458333,0,97)"
       style="font-style:normal;font-variant:normal;font-weight:normal;font-stretch:normal;font-size:40px;line-height:1.25;font-family:sans-serif;-inkscape-font-specification:'sans-serif, Normal';font-variant-ligatures:normal;font-variant-caps:normal;font-variant-numeric:normal;font-feature-settings:normal;text-align:center;letter-spacing:0px;word-spacing:0px;writing-mode:lr-tb;text-anchor:middle;fill:#ffffff;fill-opacity:1;stroke:#000000;stroke-width:1.13385832;stroke-miterlimit:4;stroke-dasharray:none;stroke-opacity:1"
       id="flowRoot2861">
      <path
         d="m 21.446289,6.2382812 h 3.945313 V 18.191406 H 39.727539 V 6.2382812 h 3.945313 V 35.398437 H 39.727539 V 21.511719 H 25.391602 v 13.886718 h -3.945313 z"
         style=""
         id="path3765" />
      <path
         d="m 70.079102,23.5625 v 1.757812 H 53.555664 q 0.234375,3.710938 2.226563,5.664063 2.011718,1.933594 5.585937,1.933594 2.070313,0 4.003906,-0.507813 1.953125,-0.507812 3.867188,-1.523437 v 3.398437 q -1.933594,0.820313 -3.964844,1.25 -2.03125,0.429688 -4.121094,0.429688 -5.234375,0 -8.300781,-3.046875 -3.046875,-3.046875 -3.046875,-8.242188 0,-5.371094 2.890625,-8.515625 2.910156,-3.164062 7.832031,-3.164062 4.414063,0 6.972657,2.851562 2.578125,2.832031 2.578125,7.714844 z m -3.59375,-1.054688 q -0.03906,-2.949218 -1.660157,-4.707031 -1.601562,-1.757812 -4.257812,-1.757812 -3.007813,0 -4.824219,1.699218 -1.796875,1.699219 -2.070312,4.785157 z"
         style=""
         id="path3767" />
      <path
         d="M 88.65332,16.882812 Q 88.047852,16.53125 87.325195,16.375 q -0.703125,-0.175781 -1.5625,-0.175781 -3.046875,0 -4.6875,1.992187 -1.621093,1.972656 -1.621093,5.683594 V 35.398437 H 75.84082 V 13.523438 h 3.613282 v 3.398437 q 1.132812,-1.992187 2.949218,-2.949219 1.816407,-0.976562 4.414063,-0.976562 0.371094,0 0.820312,0.05859 0.449219,0.03906 0.996094,0.136718 z"
         style=""
         id="path3769" />
      <path
         d="m 110.31348,23.5625 v 1.757812 H 93.790039 q 0.234375,3.710938 2.226563,5.664063 2.011718,1.933594 5.585938,1.933594 2.07031,0 4.00391,-0.507813 1.95312,-0.507812 3.86718,-1.523437 v 3.398437 q -1.93359,0.820313 -3.96484,1.25 -2.03125,0.429688 -4.12109,0.429688 -5.23438,0 -8.300786,-3.046875 -3.046875,-3.046875 -3.046875,-8.242188 0,-5.371094 2.890625,-8.515625 2.910156,-3.164062 7.832036,-3.164062 4.41406,0 6.97265,2.851562 2.57813,2.832031 2.57813,7.714844 z m -3.59375,-1.054688 q -0.0391,-2.949218 -1.66016,-4.707031 -1.60156,-1.757812 -4.25781,-1.757812 -3.007815,0 -4.824221,1.699218 -1.796875,1.699219 -2.070312,4.785157 z"
         style=""
         id="path3771" />
      <path
         d="m 138.04785,37.429687 q -1.52344,3.90625 -2.96875,5.097657 -1.44531,1.191406 -3.86719,1.191406 h -2.87109 v -3.007813 h 2.10938 q 1.48437,0 2.30468,-0.703125 0.82032,-0.703125 1.81641,-3.320312 l 0.64453,-1.640625 -8.84766,-21.523437 h 3.8086 l 6.83594,17.109374 6.83593,-17.109374 h 3.8086 z"
         style=""
         id="path3773" />
      <path
         d="m 161.09473,16.042969 q -2.89063,0 -4.57032,2.265625 -1.67968,2.246093 -1.67968,6.171875 0,3.925781 1.66015,6.191406 1.67969,2.246094 4.58985,2.246094 2.87109,0 4.55078,-2.265625 1.67969,-2.265625 1.67969,-6.171875 0,-3.886719 -1.67969,-6.152344 -1.67969,-2.285156 -4.55078,-2.285156 z m 0,-3.046875 q 4.6875,0 7.36328,3.046875 2.67578,3.046875 2.67578,8.4375 0,5.371093 -2.67578,8.4375 -2.67578,3.046875 -7.36328,3.046875 -4.70703,0 -7.38282,-3.046875 -2.65625,-3.066407 -2.65625,-8.4375 0,-5.390625 2.65625,-8.4375 2.67579,-3.046875 7.38282,-3.046875 z"
         style=""
         id="path3775" />
      <path
         d="M 176.7002,26.765625 V 13.523438 h 3.59375 v 13.105468 q 0,3.105469 1.21093,4.667969 1.21094,1.542969 3.63282,1.542969 2.91015,0 4.58984,-1.855469 1.69922,-1.855469 1.69922,-5.058594 V 13.523438 h 3.59375 v 21.874999 h -3.59375 v -3.359375 q -1.3086,1.992188 -3.04688,2.96875 -1.71875,0.957032 -4.0039,0.957032 -3.76953,0 -5.72266,-2.34375 -1.95312,-2.34375 -1.95312,-6.855469 z m 9.04296,-13.769531 z"
         style=""
         id="path3777" />
      <path
         d="m 230.93848,14.363281 v 3.359375 q -1.52344,-0.839844 -3.06641,-1.25 -1.52344,-0.429687 -3.08594,-0.429687 -3.49609,0 -5.42968,2.226562 -1.9336,2.207031 -1.9336,6.210938 0,4.003906 1.9336,6.230468 1.93359,2.207032 5.42968,2.207032 1.5625,0 3.08594,-0.410157 1.54297,-0.429687 3.06641,-1.269531 v 3.320313 q -1.50391,0.703125 -3.125,1.054687 -1.60157,0.351563 -3.41797,0.351563 -4.94141,0 -7.85156,-3.105469 -2.91016,-3.105469 -2.91016,-8.378906 0,-5.351563 2.92969,-8.417969 2.94922,-3.066406 8.0664,-3.066406 1.66016,0 3.24219,0.351562 1.58203,0.332032 3.06641,1.015625 z"
         style=""
         id="path3779" />
      <path
         d="m 247.16895,24.402344 q -4.35547,0 -6.03516,0.996093 -1.67969,0.996094 -1.67969,3.398438 0,1.914062 1.25,3.046875 1.26953,1.113281 3.4375,1.113281 2.98828,0 4.78516,-2.109375 1.8164,-2.128906 1.8164,-5.644531 v -0.800781 z m 7.16796,-1.484375 v 12.480468 h -3.59375 v -3.320312 q -1.23046,1.992187 -3.0664,2.949219 -1.83594,0.9375 -4.49219,0.9375 -3.35937,0 -5.35156,-1.875 -1.97266,-1.894532 -1.97266,-5.058594 0,-3.691406 2.46094,-5.566406 2.48047,-1.875 7.38281,-1.875 h 5.03906 v -0.351563 q 0,-2.480469 -1.64062,-3.828125 -1.62109,-1.367187 -4.57031,-1.367187 -1.875,0 -3.65235,0.449218 -1.77734,0.449219 -3.41797,1.347657 v -3.320313 q 1.97266,-0.761718 3.82813,-1.132812 1.85547,-0.390625 3.61328,-0.390625 4.74609,0 7.08984,2.460937 2.34375,2.460938 2.34375,7.460938 z"
         style=""
         id="path3781" />
      <path
         d="m 279.94238,22.195312 v 13.203125 h -3.59375 V 22.3125 q 0,-3.105469 -1.21093,-4.648438 -1.21094,-1.542968 -3.63282,-1.542968 -2.91015,0 -4.58984,1.855468 -1.67969,1.855469 -1.67969,5.058594 v 12.363281 h -3.61328 V 13.523438 h 3.61328 v 3.398437 q 1.28906,-1.972656 3.02735,-2.949219 1.75781,-0.976562 4.04296,-0.976562 3.76954,0 5.70313,2.34375 1.93359,2.324218 1.93359,6.855468 z"
         style=""
         id="path3783" />
      <path
         d="m 315.62598,14.363281 v 3.359375 q -1.52344,-0.839844 -3.06641,-1.25 -1.52344,-0.429687 -3.08594,-0.429687 -3.49609,0 -5.42968,2.226562 -1.9336,2.207031 -1.9336,6.210938 0,4.003906 1.9336,6.230468 1.93359,2.207032 5.42968,2.207032 1.5625,0 3.08594,-0.410157 1.54297,-0.429687 3.06641,-1.269531 v 3.320313 q -1.50391,0.703125 -3.125,1.054687 -1.60157,0.351563 -3.41797,0.351563 -4.94141,0 -7.85156,-3.105469 -2.91016,-3.105469 -2.91016,-8.378906 0,-5.351563 2.92969,-8.417969 2.94922,-3.066406 8.0664,-3.066406 1.66016,0 3.24219,0.351562 1.58203,0.332032 3.06641,1.015625 z"
         style=""
         id="path3785" />
      <path
         d="M 334.59082,16.882812 Q 333.98535,16.53125 333.2627,16.375 q -0.70313,-0.175781 -1.5625,-0.175781 -3.04688,0 -4.6875,1.992187 -1.6211,1.972656 -1.6211,5.683594 v 11.523437 h -3.61328 V 13.523438 h 3.61328 v 3.398437 q 1.13281,-1.992187 2.94922,-2.949219 1.81641,-0.976562 4.41406,-0.976562 0.3711,0 0.82032,0.05859 0.44921,0.03906 0.99609,0.136718 z"
         style=""
         id="path3787" />
      <path
         d="m 348.34082,24.402344 q -4.35547,0 -6.03516,0.996093 -1.67968,0.996094 -1.67968,3.398438 0,1.914062 1.25,3.046875 1.26953,1.113281 3.4375,1.113281 2.98828,0 4.78515,-2.109375 1.81641,-2.128906 1.81641,-5.644531 v -0.800781 z m 7.16797,-1.484375 v 12.480468 h -3.59375 v -3.320312 q -1.23047,1.992187 -3.06641,2.949219 -1.83593,0.9375 -4.49218,0.9375 -3.35938,0 -5.35157,-1.875 -1.97265,-1.894532 -1.97265,-5.058594 0,-3.691406 2.46093,-5.566406 2.48047,-1.875 7.38282,-1.875 h 5.03906 v -0.351563 q 0,-2.480469 -1.64063,-3.828125 -1.62109,-1.367187 -4.57031,-1.367187 -1.875,0 -3.65234,0.449218 -1.77735,0.449219 -3.41797,1.347657 v -3.320313 q 1.97266,-0.761718 3.82812,-1.132812 1.85547,-0.390625 3.61329,-0.390625 4.74609,0 7.08984,2.460937 2.34375,2.460938 2.34375,7.460938 z"
         style=""
         id="path3789" />
      <path
         d="m 374.00488,5.0078125 v 2.9882812 h -3.4375 q -1.93359,0 -2.69531,0.7812501 -0.74219,0.78125 -0.74219,2.8125002 v 1.933594 h 5.91797 v 2.792968 h -5.91797 V 35.398437 H 363.5166 V 16.316406 h -3.4375 v -2.792968 h 3.4375 V 12 q 0,-3.6523437 1.69922,-5.3125 1.69922,-1.6796875 5.39063,-1.6796875 z"
         style=""
         id="path3791" />
      <path
         d="m 379.84473,7.3125 v 6.210938 h 7.40234 v 2.792968 h -7.40234 v 11.875 q 0,2.675781 0.72265,3.4375 0.74219,0.761719 2.98828,0.761719 h 3.69141 v 3.007812 h -3.69141 q -4.16015,0 -5.74218,-1.542968 -1.58203,-1.5625 -1.58203,-5.664063 v -11.875 h -2.63672 v -2.792968 h 2.63672 V 7.3125 Z"
         style=""
         id="path3793" />
      <path
         d="m 414.66895,24.402344 q -4.35547,0 -6.03516,0.996093 -1.67969,0.996094 -1.67969,3.398438 0,1.914062 1.25,3.046875 1.26953,1.113281 3.4375,1.113281 2.98828,0 4.78516,-2.109375 1.8164,-2.128906 1.8164,-5.644531 v -0.800781 z m 7.16796,-1.484375 v 12.480468 h -3.59375 v -3.320312 q -1.23046,1.992187 -3.0664,2.949219 -1.83594,0.9375 -4.49219,0.9375 -3.35937,0 -5.35156,-1.875 -1.97266,-1.894532 -1.97266,-5.058594 0,-3.691406 2.46094,-5.566406 2.48047,-1.875 7.38281,-1.875 h 5.03906 v -0.351563 q 0,-2.480469 -1.64062,-3.828125 -1.62109,-1.367187 -4.57031,-1.367187 -1.875,0 -3.65235,0.449218 -1.77734,0.449219 -3.41797,1.347657 v -3.320313 q 1.97266,-0.761718 3.82813,-1.132812 1.85547,-0.390625 3.61328,-0.390625 4.74609,0 7.08984,2.460937 2.34375,2.460938 2.34375,7.460938 z"
         style=""
         id="path3795" />
      <path
         d="m 447.44238,22.195312 v 13.203125 h -3.59375 V 22.3125 q 0,-3.105469 -1.21093,-4.648438 -1.21094,-1.542968 -3.63282,-1.542968 -2.91015,0 -4.58984,1.855468 -1.67969,1.855469 -1.67969,5.058594 v 12.363281 h -3.61328 V 13.523438 h 3.61328 v 3.398437 q 1.28906,-1.972656 3.02735,-2.949219 1.75781,-0.976562 4.04296,-0.976562 3.76954,0 5.70313,2.34375 1.93359,2.324218 1.93359,6.855468 z"
         style=""
         id="path3797" />
      <path
         d="M 469.04395,16.84375 V 5.0078125 h 3.59375 V 35.398437 h -3.59375 v -3.28125 q -1.13282,1.953125 -2.8711,2.910157 -1.71875,0.9375 -4.14062,0.9375 -3.96485,0 -6.46485,-3.164063 -2.48047,-3.164062 -2.48047,-8.320312 0,-5.15625 2.48047,-8.320313 2.5,-3.164062 6.46485,-3.164062 2.42187,0 4.14062,0.957031 1.73828,0.9375 2.8711,2.890625 z m -12.2461,7.636719 q 0,3.964843 1.6211,6.230468 1.64062,2.246094 4.49218,2.246094 2.85157,0 4.49219,-2.246094 1.64063,-2.265625 1.64063,-6.230468 0,-3.964844 -1.64063,-6.210938 -1.64062,-2.265625 -4.49219,-2.265625 -2.85156,0 -4.49218,2.265625 -1.6211,2.246094 -1.6211,6.210938 z"
         style=""
         id="path3799" />
      <path
         d="m 508.5166,14.363281 v 3.359375 q -1.52344,-0.839844 -3.0664,-1.25 -1.52344,-0.429687 -3.08594,-0.429687 -3.4961,0 -5.42969,2.226562 -1.93359,2.207031 -1.93359,6.210938 0,4.003906 1.93359,6.230468 1.93359,2.207032 5.42969,2.207032 1.5625,0 3.08594,-0.410157 1.54296,-0.429687 3.0664,-1.269531 v 3.320313 q -1.5039,0.703125 -3.125,1.054687 -1.60156,0.351563 -3.41797,0.351563 -4.9414,0 -7.85156,-3.105469 -2.91016,-3.105469 -2.91016,-8.378906 0,-5.351563 2.92969,-8.417969 2.94922,-3.066406 8.06641,-3.066406 1.66015,0 3.24219,0.351562 1.58203,0.332032 3.0664,1.015625 z"
         style=""
         id="path3801" />
      <path
         d="m 532.98926,22.195312 v 13.203125 h -3.59375 V 22.3125 q 0,-3.105469 -1.21094,-4.648438 -1.21094,-1.542968 -3.63281,-1.542968 -2.91016,0 -4.58985,1.855468 -1.67968,1.855469 -1.67968,5.058594 v 12.363281 h -3.61328 V 5.0078125 h 3.61328 V 16.921875 q 1.28906,-1.972656 3.02734,-2.949219 1.75781,-0.976562 4.04297,-0.976562 3.76953,0 5.70312,2.34375 1.9336,2.324218 1.9336,6.855468 z"
         style=""
         id="path3803" />
      <path
         d="m 550.1377,24.402344 q -4.35547,0 -6.03516,0.996093 -1.67969,0.996094 -1.67969,3.398438 0,1.914062 1.25,3.046875 1.26953,1.113281 3.4375,1.113281 2.98828,0 4.78516,-2.109375 1.8164,-2.128906 1.8164,-5.644531 v -0.800781 z m 7.16796,-1.484375 v 12.480468 h -3.59375 v -3.320312 q -1.23046,1.992187 -3.0664,2.949219 -1.83594,0.9375 -4.49219,0.9375 -3.35937,0 -5.35156,-1.875 -1.97266,-1.894532 -1.97266,-5.058594 0,-3.691406 2.46094,-5.566406 2.48047,-1.875 7.38281,-1.875 h 5.03906 v -0.351563 q 0,-2.480469 -1.64062,-3.828125 -1.62109,-1.367187 -4.57031,-1.367187 -1.875,0 -3.65235,0.449218 -1.77734,0.449219 -3.41797,1.347657 v -3.320313 q 1.97266,-0.761718 3.82813,-1.132812 1.85547,-0.390625 3.61328,-0.390625 4.74609,0 7.08984,2.460937 2.34375,2.460938 2.34375,7.460938 z"
         style=""
         id="path3805" />
      <path
         d="m 582.91113,22.195312 v 13.203125 h -3.59375 V 22.3125 q 0,-3.105469 -1.21093,-4.648438 -1.21094,-1.542968 -3.63282,-1.542968 -2.91015,0 -4.58984,1.855468 -1.67969,1.855469 -1.67969,5.058594 v 12.363281 h -3.61328 V 13.523438 h 3.61328 v 3.398437 q 1.28906,-1.972656 3.02735,-2.949219 1.75781,-0.976562 4.04296,-0.976562 3.76954,0 5.70313,2.34375 1.93359,2.324218 1.93359,6.855468 z"
         style=""
         id="path3807" />
      <path
         d="m 604.5127,24.207031 q 0,-3.90625 -1.6211,-6.054687 -1.60156,-2.148438 -4.51172,-2.148438 -2.89062,0 -4.51172,2.148438 -1.60156,2.148437 -1.60156,6.054687 0,3.886719 1.60156,6.035156 1.6211,2.148438 4.51172,2.148438 2.91016,0 4.51172,-2.148438 1.6211,-2.148437 1.6211,-6.035156 z m 3.59375,8.476563 q 0,5.585937 -2.48047,8.300781 -2.48047,2.734375 -7.59766,2.734375 -1.89453,0 -3.57422,-0.292969 -1.67969,-0.273437 -3.26172,-0.859375 v -3.496094 q 1.58203,0.859375 3.125,1.269532 1.54297,0.410156 3.14453,0.410156 3.53516,0 5.29297,-1.855469 1.75782,-1.835937 1.75782,-5.566406 v -1.777344 q -1.11329,1.933594 -2.85157,2.890625 -1.73828,0.957031 -4.16015,0.957031 -4.02344,0 -6.48438,-3.066406 -2.46094,-3.066406 -2.46094,-8.125 0,-5.078125 2.46094,-8.144531 2.46094,-3.066406 6.48438,-3.066406 2.42187,0 4.16015,0.957031 1.73828,0.957031 2.85157,2.890625 v -3.320312 h 3.59375 z"
         style=""
         id="path3809" />
      <path
         d="m 634.21973,23.5625 v 1.757812 h -16.52344 q 0.23437,3.710938 2.22656,5.664063 2.01172,1.933594 5.58594,1.933594 2.07031,0 4.00391,-0.507813 1.95312,-0.507812 3.86718,-1.523437 v 3.398437 q -1.93359,0.820313 -3.96484,1.25 -2.03125,0.429688 -4.12109,0.429688 -5.23438,0 -8.30079,-3.046875 -3.04687,-3.046875 -3.04687,-8.242188 0,-5.371094 2.89062,-8.515625 2.91016,-3.164062 7.83204,-3.164062 4.41406,0 6.97265,2.851562 2.57813,2.832031 2.57813,7.714844 z m -3.59375,-1.054688 q -0.0391,-2.949218 -1.66016,-4.707031 -1.60156,-1.757812 -4.25781,-1.757812 -3.00781,0 -4.82422,1.699218 -1.79688,1.699219 -2.07031,4.785157 z"
         style=""
         id="path3811" />
      <path
         d="m 661.9541,37.429687 q -1.52344,3.90625 -2.96875,5.097657 -1.44531,1.191406 -3.86719,1.191406 h -2.87109 v -3.007813 h 2.10938 q 1.48437,0 2.30468,-0.703125 0.82032,-0.703125 1.81641,-3.320312 l 0.64453,-1.640625 -8.84766,-21.523437 h 3.8086 l 6.83594,17.109374 6.83593,-17.109374 h 3.8086 z"
         style=""
         id="path3813" />
      <path
         d="m 685.00098,16.042969 q -2.89063,0 -4.57032,2.265625 -1.67968,2.246093 -1.67968,6.171875 0,3.925781 1.66015,6.191406 1.67969,2.246094 4.58985,2.246094 2.87109,0 4.55078,-2.265625 1.67969,-2.265625 1.67969,-6.171875 0,-3.886719 -1.67969,-6.152344 -1.67969,-2.285156 -4.55078,-2.285156 z m 0,-3.046875 q 4.6875,0 7.36328,3.046875 2.67578,3.046875 2.67578,8.4375 0,5.371093 -2.67578,8.4375 -2.67578,3.046875 -7.36328,3.046875 -4.70703,0 -7.38282,-3.046875 -2.65625,-3.066407 -2.65625,-8.4375 0,-5.390625 2.65625,-8.4375 2.67579,-3.046875 7.38282,-3.046875 z"
         style=""
         id="path3815" />
      <path
         d="M 700.60645,26.765625 V 13.523438 h 3.59375 v 13.105468 q 0,3.105469 1.21093,4.667969 1.21094,1.542969 3.63282,1.542969 2.91015,0 4.58984,-1.855469 1.69922,-1.855469 1.69922,-5.058594 V 13.523438 h 3.59375 v 21.874999 h -3.59375 v -3.359375 q -1.3086,1.992188 -3.04688,2.96875 -1.71875,0.957032 -4.0039,0.957032 -3.76953,0 -5.72266,-2.34375 -1.95312,-2.34375 -1.95312,-6.855469 z m 9.04296,-13.769531 z"
         style=""
         id="path3817" />
      <path
         d="m 739.04395,16.882812 q -0.60547,-0.351562 -1.32813,-0.507812 -0.70312,-0.175781 -1.5625,-0.175781 -3.04687,0 -4.6875,1.992187 -1.62109,1.972656 -1.62109,5.683594 v 11.523437 h -3.61328 V 13.523438 h 3.61328 v 3.398437 q 1.13281,-1.992187 2.94922,-2.949219 1.8164,-0.976562 4.41406,-0.976562 0.37109,0 0.82031,0.05859 0.44922,0.03906 0.99609,0.136718 z"
         style=""
         id="path3819" />
      <path
         d="m 25.743164,57.3125 v 6.210937 h 7.402344 v 2.792969 h -7.402344 v 11.875 q 0,2.675781 0.722656,3.4375 0.742188,0.761719 2.988282,0.761719 h 3.691406 v 3.007812 h -3.691406 q -4.160157,0 -5.742188,-1.542968 -1.582031,-1.5625 -1.582031,-5.664063 v -11.875 h -2.636719 v -2.792969 h 2.636719 V 57.3125 Z"
         style=""
         id="path3821" />
      <path
         d="m 46.368164,66.042969 q -2.890625,0 -4.570312,2.265625 -1.679688,2.246093 -1.679688,6.171875 0,3.925781 1.660156,6.191406 1.679688,2.246094 4.589844,2.246094 2.871094,0 4.550781,-2.265625 1.679688,-2.265625 1.679688,-6.171875 0,-3.886719 -1.679688,-6.152344 -1.679687,-2.285156 -4.550781,-2.285156 z m 0,-3.046875 q 4.6875,0 7.363281,3.046875 2.675782,3.046875 2.675782,8.4375 0,5.371093 -2.675782,8.4375 -2.675781,3.046875 -7.363281,3.046875 -4.707031,0 -7.382812,-3.046875 -2.65625,-3.066407 -2.65625,-8.4375 0,-5.390625 2.65625,-8.4375 2.675781,-3.046875 7.382812,-3.046875 z"
         style=""
         id="path3823" />
      <path
         d="m 70.821289,66.042969 q -2.890625,0 -4.570312,2.265625 -1.679688,2.246093 -1.679688,6.171875 0,3.925781 1.660156,6.191406 1.679688,2.246094 4.589844,2.246094 2.871094,0 4.550781,-2.265625 1.679688,-2.265625 1.679688,-6.171875 0,-3.886719 -1.679688,-6.152344 -1.679687,-2.285156 -4.550781,-2.285156 z m 0,-3.046875 q 4.6875,0 7.363281,3.046875 2.675782,3.046875 2.675782,8.4375 0,5.371093 -2.675782,8.4375 -2.675781,3.046875 -7.363281,3.046875 -4.707031,0 -7.382812,-3.046875 -2.65625,-3.066407 -2.65625,-8.4375 0,-5.390625 2.65625,-8.4375 2.675781,-3.046875 7.382812,-3.046875 z"
         style=""
         id="path3825" />
      <path
         d="m 86.797852,55.007812 h 3.59375 v 30.390625 h -3.59375 z"
         style=""
         id="path3827" />
      <path
         d="m 111.83691,64.167969 v 3.398437 q -1.52343,-0.78125 -3.16406,-1.171875 -1.64062,-0.390625 -3.39844,-0.390625 -2.67578,0 -4.02343,0.820313 -1.328128,0.820312 -1.328128,2.460937 0,1.25 0.957028,1.972656 0.95703,0.703125 3.84766,1.347657 l 1.23047,0.273437 q 3.82812,0.820313 5.42969,2.324219 1.62109,1.484375 1.62109,4.160156 0,3.046875 -2.42188,4.824219 -2.40234,1.777344 -6.62109,1.777344 -1.75781,0 -3.67187,-0.351563 -1.894536,-0.332031 -4.003911,-1.015625 v -3.710937 q 1.992188,1.035156 3.925781,1.5625 1.93359,0.507812 3.82813,0.507812 2.53906,0 3.90625,-0.859375 1.36718,-0.878906 1.36718,-2.460937 0,-1.464844 -0.99609,-2.246094 -0.97656,-0.78125 -4.31641,-1.503906 l -1.25,-0.292969 q -3.339841,-0.703125 -4.824216,-2.148438 -1.484375,-1.464843 -1.484375,-4.003906 0,-3.085937 2.1875,-4.765625 2.187501,-1.679687 6.210941,-1.679687 1.99218,0 3.75,0.292968 1.75781,0.292969 3.24218,0.878907 z"
         style=""
         id="path3829" />
      <path
         d="m 119.66895,80.4375 h 4.12109 v 3.359375 l -3.20313,6.25 h -2.51953 l 1.60157,-6.25 z"
         style=""
         id="path3831" />
      <path
         d="m 152.69629,66.042969 q -2.89063,0 -4.57031,2.265625 -1.67969,2.246093 -1.67969,6.171875 0,3.925781 1.66016,6.191406 1.67968,2.246094 4.58984,2.246094 2.87109,0 4.55078,-2.265625 1.67969,-2.265625 1.67969,-6.171875 0,-3.886719 -1.67969,-6.152344 -1.67969,-2.285156 -4.55078,-2.285156 z m 0,-3.046875 q 4.6875,0 7.36328,3.046875 2.67578,3.046875 2.67578,8.4375 0,5.371093 -2.67578,8.4375 -2.67578,3.046875 -7.36328,3.046875 -4.70703,0 -7.38281,-3.046875 -2.65625,-3.066407 -2.65625,-8.4375 0,-5.390625 2.65625,-8.4375 2.67578,-3.046875 7.38281,-3.046875 z"
         style=""
         id="path3833" />
      <path
         d="m 181.34863,66.882812 q -0.60547,-0.351562 -1.32812,-0.507812 -0.70313,-0.175781 -1.5625,-0.175781 -3.04688,0 -4.6875,1.992187 -1.6211,1.972656 -1.6211,5.683594 v 11.523437 h -3.61328 v -21.875 h 3.61328 v 3.398438 q 1.13282,-1.992188 2.94922,-2.949219 1.81641,-0.976562 4.41407,-0.976562 0.37109,0 0.82031,0.05859 0.44922,0.03906 0.99609,0.136719 z"
         style=""
         id="path3835" />
      <path
         d="M 197.52051,76.765625 V 63.523437 h 3.59375 v 13.105469 q 0,3.105469 1.21094,4.667969 1.21093,1.542969 3.63281,1.542969 2.91015,0 4.58984,-1.855469 1.69922,-1.855469 1.69922,-5.058594 V 63.523437 h 3.59375 v 21.875 h -3.59375 v -3.359375 q -1.30859,1.992188 -3.04687,2.96875 -1.71875,0.957032 -4.00391,0.957032 -3.76953,0 -5.72266,-2.34375 -1.95312,-2.34375 -1.95312,-6.855469 z m 9.04297,-13.769531 z"
         style=""
         id="path3837" />
      <path
         d="M 226.75879,82.117187 V 93.71875 h -3.61328 V 63.523437 h 3.61328 v 3.320313 q 1.13281,-1.953125 2.85156,-2.890625 1.73828,-0.957031 4.14063,-0.957031 3.98437,0 6.46484,3.164062 2.5,3.164063 2.5,8.320313 0,5.15625 -2.5,8.320312 -2.48047,3.164063 -6.46484,3.164063 -2.40235,0 -4.14063,-0.9375 -1.71875,-0.957032 -2.85156,-2.910157 z m 12.22656,-7.636718 q 0,-3.964844 -1.64062,-6.210938 -1.6211,-2.265625 -4.47266,-2.265625 -2.85156,0 -4.49219,2.265625 -1.62109,2.246094 -1.62109,6.210938 0,3.964843 1.62109,6.230468 1.64063,2.246094 4.49219,2.246094 2.85156,0 4.47266,-2.246094 1.64062,-2.265625 1.64062,-6.230468 z"
         style=""
         id="path3839" />
      <path
         d="m 263.06738,74.207031 q 0,-3.90625 -1.62109,-6.054687 -1.60156,-2.148438 -4.51172,-2.148438 -2.89062,0 -4.51172,2.148438 -1.60156,2.148437 -1.60156,6.054687 0,3.886719 1.60156,6.035156 1.6211,2.148438 4.51172,2.148438 2.91016,0 4.51172,-2.148438 1.62109,-2.148437 1.62109,-6.035156 z m 3.59375,8.476563 q 0,5.585937 -2.48047,8.300781 -2.48046,2.734375 -7.59765,2.734375 -1.89453,0 -3.57422,-0.292969 -1.67969,-0.273437 -3.26172,-0.859375 v -3.496094 q 1.58203,0.859375 3.125,1.269532 1.54297,0.410156 3.14453,0.410156 3.53516,0 5.29297,-1.855469 1.75781,-1.835937 1.75781,-5.566406 v -1.777344 q -1.11328,1.933594 -2.85156,2.890625 -1.73828,0.957031 -4.16016,0.957031 -4.02343,0 -6.48437,-3.066406 -2.46094,-3.066406 -2.46094,-8.125 0,-5.078125 2.46094,-8.144531 2.46094,-3.066406 6.48437,-3.066406 2.42188,0 4.16016,0.957031 1.73828,0.957031 2.85156,2.890625 v -3.320313 h 3.59375 z"
         style=""
         id="path3841" />
      <path
         d="m 286.73926,66.882812 q -0.60547,-0.351562 -1.32813,-0.507812 -0.70312,-0.175781 -1.5625,-0.175781 -3.04687,0 -4.6875,1.992187 -1.62109,1.972656 -1.62109,5.683594 v 11.523437 h -3.61328 v -21.875 h 3.61328 v 3.398438 q 1.13281,-1.992188 2.94922,-2.949219 1.8164,-0.976562 4.41406,-0.976562 0.37109,0 0.82031,0.05859 0.44922,0.03906 0.9961,0.136719 z"
         style=""
         id="path3843" />
      <path
         d="m 300.48926,74.402344 q -4.35547,0 -6.03516,0.996093 -1.67969,0.996094 -1.67969,3.398438 0,1.914062 1.25,3.046875 1.26954,1.113281 3.4375,1.113281 2.98829,0 4.78516,-2.109375 1.81641,-2.128906 1.81641,-5.644531 v -0.800781 z m 7.16797,-1.484375 v 12.480468 h -3.59375 v -3.320312 q -1.23047,1.992187 -3.06641,2.949219 -1.83594,0.9375 -4.49219,0.9375 -3.35937,0 -5.35156,-1.875 -1.97266,-1.894532 -1.97266,-5.058594 0,-3.691406 2.46094,-5.566406 2.48047,-1.875 7.38281,-1.875 h 5.03907 v -0.351563 q 0,-2.480469 -1.64063,-3.828125 -1.62109,-1.367187 -4.57031,-1.367187 -1.875,0 -3.65234,0.449218 -1.77735,0.449219 -3.41797,1.347657 v -3.320313 q 1.97265,-0.761719 3.82812,-1.132812 1.85547,-0.390625 3.61328,-0.390625 4.7461,0 7.08985,2.460937 2.34375,2.460938 2.34375,7.460938 z"
         style=""
         id="path3845" />
      <path
         d="M 329.47363,66.84375 V 55.007812 h 3.59375 v 30.390625 h -3.59375 v -3.28125 q -1.13281,1.953125 -2.87109,2.910157 -1.71875,0.9375 -4.14063,0.9375 -3.96484,0 -6.46484,-3.164063 -2.48047,-3.164062 -2.48047,-8.320312 0,-5.15625 2.48047,-8.320313 2.5,-3.164062 6.46484,-3.164062 2.42188,0 4.14063,0.957031 1.73828,0.9375 2.87109,2.890625 z m -12.24609,7.636719 q 0,3.964843 1.62109,6.230468 1.64063,2.246094 4.49219,2.246094 2.85156,0 4.49219,-2.246094 1.64062,-2.265625 1.64062,-6.230468 0,-3.964844 -1.64062,-6.210938 -1.64063,-2.265625 -4.49219,-2.265625 -2.85156,0 -4.49219,2.265625 -1.62109,2.246094 -1.62109,6.210938 z"
         style=""
         id="path3847" />
      <path
         d="m 359.18066,73.5625 v 1.757812 h -16.52343 q 0.23437,3.710938 2.22656,5.664063 2.01172,1.933594 5.58594,1.933594 2.07031,0 4.0039,-0.507813 1.95313,-0.507812 3.86719,-1.523437 v 3.398437 q -1.93359,0.820313 -3.96484,1.25 -2.03125,0.429688 -4.1211,0.429688 -5.23437,0 -8.30078,-3.046875 -3.04687,-3.046875 -3.04687,-8.242188 0,-5.371094 2.89062,-8.515625 2.91016,-3.164062 7.83203,-3.164062 4.41407,0 6.97266,2.851562 2.57812,2.832031 2.57812,7.714844 z m -3.59375,-1.054688 q -0.0391,-2.949218 -1.66015,-4.707031 -1.60156,-1.757812 -4.25781,-1.757812 -3.00782,0 -4.82422,1.699218 -1.79688,1.699219 -2.07032,4.785157 z"
         style=""
         id="path3849" />
      <path
         d="m 381.36816,57.3125 v 6.210937 h 7.40235 v 2.792969 h -7.40235 v 11.875 q 0,2.675781 0.72266,3.4375 0.74219,0.761719 2.98828,0.761719 h 3.69141 v 3.007812 h -3.69141 q -4.16015,0 -5.74219,-1.542968 -1.58203,-1.5625 -1.58203,-5.664063 v -11.875 h -2.63672 v -2.792969 h 2.63672 V 57.3125 Z"
         style=""
         id="path3851" />
      <path
         d="m 411.7002,72.195312 v 13.203125 h -3.59375 V 72.3125 q 0,-3.105469 -1.21094,-4.648438 -1.21094,-1.542968 -3.63281,-1.542968 -2.91016,0 -4.58985,1.855468 -1.67969,1.855469 -1.67969,5.058594 v 12.363281 h -3.61328 V 55.007812 h 3.61328 v 11.914063 q 1.28907,-1.972656 3.02735,-2.949219 1.75781,-0.976562 4.04297,-0.976562 3.76953,0 5.70312,2.34375 1.9336,2.324218 1.9336,6.855468 z"
         style=""
         id="path3853" />
      <path
         d="m 437.61816,73.5625 v 1.757812 h -16.52343 q 0.23437,3.710938 2.22656,5.664063 2.01172,1.933594 5.58594,1.933594 2.07031,0 4.0039,-0.507813 1.95313,-0.507812 3.86719,-1.523437 v 3.398437 q -1.93359,0.820313 -3.96484,1.25 -2.03125,0.429688 -4.1211,0.429688 -5.23437,0 -8.30078,-3.046875 -3.04687,-3.046875 -3.04687,-8.242188 0,-5.371094 2.89062,-8.515625 2.91016,-3.164062 7.83203,-3.164062 4.41407,0 6.97266,2.851562 2.57812,2.832031 2.57812,7.714844 z m -3.59375,-1.054688 q -0.0391,-2.949218 -1.66015,-4.707031 -1.60156,-1.757812 -4.25781,-1.757812 -3.00782,0 -4.82422,1.699218 -1.79688,1.699219 -2.07032,4.785157 z"
         style=""
         id="path3855" />
      <path
         d="m 473.92676,63.523437 v 21.875 h -3.61328 V 66.316406 h -9.86328 v 19.082031 h -3.61329 V 66.316406 h -3.4375 v -2.792969 h 3.4375 V 62 q 0,-3.574219 1.67969,-5.273438 1.69922,-1.71875 5.19531,-1.71875 h 3.61329 v 2.988282 h -3.4375 q -1.9336,0 -2.69532,0.78125 -0.74218,0.78125 -0.74218,2.8125 v 1.933593 z m -3.61328,-8.476562 h 3.61328 v 4.550781 h -3.61328 z"
         style=""
         id="path3857" />
      <path
         d="m 494.16113,66.882812 q -0.60547,-0.351562 -1.32812,-0.507812 -0.70313,-0.175781 -1.5625,-0.175781 -3.04688,0 -4.6875,1.992187 -1.6211,1.972656 -1.6211,5.683594 v 11.523437 h -3.61328 v -21.875 h 3.61328 v 3.398438 q 1.13282,-1.992188 2.94922,-2.949219 1.81641,-0.976562 4.41407,-0.976562 0.37109,0 0.82031,0.05859 0.44922,0.03906 0.99609,0.136719 z"
         style=""
         id="path3859" />
      <path
         d="m 515.82129,73.5625 v 1.757812 h -16.52344 q 0.23438,3.710938 2.22656,5.664063 2.01172,1.933594 5.58594,1.933594 2.07031,0 4.00391,-0.507813 1.95312,-0.507812 3.86719,-1.523437 v 3.398437 q -1.9336,0.820313 -3.96485,1.25 -2.03125,0.429688 -4.12109,0.429688 -5.23438,0 -8.30078,-3.046875 -3.04688,-3.046875 -3.04688,-8.242188 0,-5.371094 2.89063,-8.515625 2.91015,-3.164062 7.83203,-3.164062 4.41406,0 6.97265,2.851562 2.57813,2.832031 2.57813,7.714844 z m -3.59375,-1.054688 q -0.0391,-2.949218 -1.66016,-4.707031 -1.60156,-1.757812 -4.25781,-1.757812 -3.00781,0 -4.82422,1.699218 -1.79687,1.699219 -2.07031,4.785157 z"
         style=""
         id="path3861" />
      <path
         d="M 525.19629,82.117187 V 93.71875 h -3.61328 V 63.523437 h 3.61328 v 3.320313 q 1.13281,-1.953125 2.85156,-2.890625 1.73828,-0.957031 4.14063,-0.957031 3.98437,0 6.46484,3.164062 2.5,3.164063 2.5,8.320313 0,5.15625 -2.5,8.320312 -2.48047,3.164063 -6.46484,3.164063 -2.40235,0 -4.14063,-0.9375 -1.71875,-0.957032 -2.85156,-2.910157 z m 12.22656,-7.636718 q 0,-3.964844 -1.64062,-6.210938 -1.6211,-2.265625 -4.47266,-2.265625 -2.85156,0 -4.49219,2.265625 -1.62109,2.246094 -1.62109,6.210938 0,3.964843 1.62109,6.230468 1.64063,2.246094 4.49219,2.246094 2.85156,0 4.47266,-2.246094 1.64062,-2.265625 1.64062,-6.230468 z"
         style=""
         id="path3863" />
      <path
         d="m 547.11035,55.007812 h 3.59375 v 30.390625 h -3.59375 z"
         style=""
         id="path3865" />
      <path
         d="m 568.14551,74.402344 q -4.35547,0 -6.03516,0.996093 -1.67969,0.996094 -1.67969,3.398438 0,1.914062 1.25,3.046875 1.26954,1.113281 3.4375,1.113281 2.98829,0 4.78516,-2.109375 1.81641,-2.128906 1.81641,-5.644531 v -0.800781 z m 7.16797,-1.484375 v 12.480468 h -3.59375 v -3.320312 q -1.23047,1.992187 -3.06641,2.949219 -1.83594,0.9375 -4.49219,0.9375 -3.35937,0 -5.35156,-1.875 -1.97266,-1.894532 -1.97266,-5.058594 0,-3.691406 2.46094,-5.566406 2.48047,-1.875 7.38281,-1.875 h 5.03907 v -0.351563 q 0,-2.480469 -1.64063,-3.828125 -1.62109,-1.367187 -4.57031,-1.367187 -1.875,0 -3.65234,0.449218 -1.77735,0.449219 -3.41797,1.347657 v -3.320313 q 1.97265,-0.761719 3.82812,-1.132812 1.85547,-0.390625 3.61328,-0.390625 4.7461,0 7.08985,2.460937 2.34375,2.460938 2.34375,7.460938 z"
         style=""
         id="path3867" />
      <path
         d="m 598.47754,64.363281 v 3.359375 q -1.52344,-0.839844 -3.06641,-1.25 -1.52343,-0.429687 -3.08593,-0.429687 -3.4961,0 -5.42969,2.226562 -1.9336,2.207031 -1.9336,6.210938 0,4.003906 1.9336,6.230468 1.93359,2.207032 5.42969,2.207032 1.5625,0 3.08593,-0.410157 1.54297,-0.429687 3.06641,-1.269531 v 3.320313 q -1.50391,0.703125 -3.125,1.054687 -1.60156,0.351563 -3.41797,0.351563 -4.94141,0 -7.85156,-3.105469 -2.91016,-3.105469 -2.91016,-8.378906 0,-5.351563 2.92969,-8.417969 2.94922,-3.066406 8.06641,-3.066406 1.66015,0 3.24218,0.351562 1.58203,0.332031 3.06641,1.015625 z"
         style=""
         id="path3869" />
      <path
         d="m 623.47754,73.5625 v 1.757812 H 606.9541 q 0.23438,3.710938 2.22656,5.664063 2.01172,1.933594 5.58594,1.933594 2.07031,0 4.00391,-0.507813 1.95312,-0.507812 3.86719,-1.523437 v 3.398437 q -1.9336,0.820313 -3.96485,1.25 -2.03125,0.429688 -4.12109,0.429688 -5.23438,0 -8.30078,-3.046875 -3.04688,-3.046875 -3.04688,-8.242188 0,-5.371094 2.89063,-8.515625 2.91015,-3.164062 7.83203,-3.164062 4.41406,0 6.97265,2.851562 2.57813,2.832031 2.57813,7.714844 z m -3.59375,-1.054688 q -0.0391,-2.949218 -1.66016,-4.707031 -1.60156,-1.757812 -4.25781,-1.757812 -3.00781,0 -4.82422,1.699218 -1.79687,1.699219 -2.07031,4.785157 z"
         style=""
         id="path3871" />
      <path
         d="m 629.88379,80.4375 h 4.12109 v 4.960937 h -4.12109 z"
         style=""
         id="path3873" />
      <path
         d="m 655.00098,56.238281 h 5.3125 l 12.92968,24.394531 V 56.238281 h 3.82813 v 29.160156 h -5.3125 L 658.8291,61.003906 v 24.394531 h -3.82812 z"
         style=""
         id="path3875" />
      <path
         d="m 693.24316,66.042969 q -2.89062,0 -4.57031,2.265625 -1.67969,2.246093 -1.67969,6.171875 0,3.925781 1.66016,6.191406 1.67969,2.246094 4.58984,2.246094 2.8711,0 4.55079,-2.265625 1.67968,-2.265625 1.67968,-6.171875 0,-3.886719 -1.67968,-6.152344 -1.67969,-2.285156 -4.55079,-2.285156 z m 0,-3.046875 q 4.6875,0 7.36329,3.046875 2.67578,3.046875 2.67578,8.4375 0,5.371093 -2.67578,8.4375 -2.67579,3.046875 -7.36329,3.046875 -4.70703,0 -7.38281,-3.046875 -2.65625,-3.066407 -2.65625,-8.4375 0,-5.390625 2.65625,-8.4375 2.67578,-3.046875 7.38281,-3.046875 z"
         style=""
         id="path3877" />
      <path
         d="m 707.12988,63.523437 h 3.59375 l 4.49219,17.070313 4.47266,-17.070313 h 4.23828 l 4.49219,17.070313 4.47265,-17.070313 h 3.59375 l -5.72265,21.875 h -4.23829 l -4.70703,-17.929687 -4.72656,17.929687 h -4.23828 z"
         style=""
         id="path3879" />
      <path
         d="m 270.27441,114.36328 v 3.35938 q -1.52343,-0.83985 -3.0664,-1.25 -1.52344,-0.42969 -3.08594,-0.42969 -3.49609,0 -5.42969,2.22656 -1.93359,2.20703 -1.93359,6.21094 0,4.0039 1.93359,6.23047 1.9336,2.20703 5.42969,2.20703 1.5625,0 3.08594,-0.41016 1.54297,-0.42969 3.0664,-1.26953 v 3.32031 q -1.5039,0.70313 -3.125,1.05469 -1.60156,0.35156 -3.41796,0.35156 -4.94141,0 -7.85157,-3.10547 -2.91015,-3.10546 -2.91015,-8.3789 0,-5.35156 2.92968,-8.41797 2.94922,-3.06641 8.06641,-3.06641 1.66016,0 3.24219,0.35157 1.58203,0.33203 3.0664,1.01562 z"
         style=""
         id="path3881" />
      <path
         d="m 289.23926,116.88281 q -0.60547,-0.35156 -1.32813,-0.50781 -0.70312,-0.17578 -1.5625,-0.17578 -3.04687,0 -4.6875,1.99219 -1.62109,1.97265 -1.62109,5.68359 v 11.52344 h -3.61328 v -21.875 h 3.61328 v 3.39844 q 1.13281,-1.99219 2.94922,-2.94922 1.8164,-0.97657 4.41406,-0.97657 0.37109,0 0.82031,0.0586 0.44922,0.0391 0.9961,0.13672 z"
         style=""
         id="path3883" />
      <path
         d="m 302.98926,124.40234 q -4.35547,0 -6.03516,0.9961 -1.67969,0.99609 -1.67969,3.39843 0,1.91407 1.25,3.04688 1.26954,1.11328 3.4375,1.11328 2.98829,0 4.78516,-2.10937 1.81641,-2.12891 1.81641,-5.64453 v -0.80079 z m 7.16797,-1.48437 v 12.48047 h -3.59375 v -3.32032 q -1.23047,1.99219 -3.06641,2.94922 -1.83594,0.9375 -4.49219,0.9375 -3.35937,0 -5.35156,-1.875 -1.97266,-1.89453 -1.97266,-5.05859 0,-3.69141 2.46094,-5.56641 2.48047,-1.875 7.38281,-1.875 h 5.03907 v -0.35156 q 0,-2.48047 -1.64063,-3.82812 -1.62109,-1.36719 -4.57031,-1.36719 -1.875,0 -3.65234,0.44922 -1.77735,0.44922 -3.41797,1.34765 v -3.32031 q 1.97265,-0.76172 3.82812,-1.13281 1.85547,-0.39063 3.61328,-0.39063 4.7461,0 7.08985,2.46094 2.34375,2.46094 2.34375,7.46094 z"
         style=""
         id="path3885" />
      <path
         d="m 328.65332,105.00781 v 2.98828 h -3.4375 q -1.93359,0 -2.69531,0.78125 -0.74219,0.78125 -0.74219,2.8125 v 1.9336 h 5.91797 v 2.79297 h -5.91797 v 19.08203 h -3.61328 v -19.08203 h -3.4375 v -2.79297 h 3.4375 V 112 q 0,-3.65234 1.69922,-5.3125 1.69922,-1.67969 5.39062,-1.67969 z"
         style=""
         id="path3887" />
      <path
         d="m 334.49316,107.3125 v 6.21094 h 7.40235 v 2.79297 h -7.40235 v 11.875 q 0,2.67578 0.72266,3.4375 0.74219,0.76171 2.98828,0.76171 h 3.69141 v 3.00782 h -3.69141 q -4.16015,0 -5.74219,-1.54297 -1.58203,-1.5625 -1.58203,-5.66406 v -11.875 h -2.63672 v -2.79297 h 2.63672 v -6.21094 z"
         style=""
         id="path3889" />
      <path
         d="m 369.31738,124.40234 q -4.35547,0 -6.03515,0.9961 -1.67969,0.99609 -1.67969,3.39843 0,1.91407 1.25,3.04688 1.26953,1.11328 3.4375,1.11328 2.98828,0 4.78516,-2.10937 1.8164,-2.12891 1.8164,-5.64453 v -0.80079 z m 7.16797,-1.48437 v 12.48047 h -3.59375 v -3.32032 q -1.23047,1.99219 -3.0664,2.94922 -1.83594,0.9375 -4.49219,0.9375 -3.35938,0 -5.35156,-1.875 -1.97266,-1.89453 -1.97266,-5.05859 0,-3.69141 2.46094,-5.56641 2.48047,-1.875 7.38281,-1.875 h 5.03906 v -0.35156 q 0,-2.48047 -1.64062,-3.82812 -1.6211,-1.36719 -4.57032,-1.36719 -1.875,0 -3.65234,0.44922 -1.77734,0.44922 -3.41797,1.34765 v -3.32031 q 1.97266,-0.76172 3.82813,-1.13281 1.85547,-0.39063 3.61328,-0.39063 4.74609,0 7.08984,2.46094 2.34375,2.46094 2.34375,7.46094 z"
         style=""
         id="path3891" />
      <path
         d="m 402.09082,122.19531 v 13.20313 h -3.59375 V 122.3125 q 0,-3.10547 -1.21094,-4.64844 -1.21093,-1.54297 -3.63281,-1.54297 -2.91016,0 -4.58984,1.85547 -1.67969,1.85547 -1.67969,5.0586 v 12.36328 h -3.61328 v -21.875 h 3.61328 v 3.39844 q 1.28906,-1.97266 3.02734,-2.94922 1.75782,-0.97657 4.04297,-0.97657 3.76953,0 5.70313,2.34375 1.93359,2.32422 1.93359,6.85547 z"
         style=""
         id="path3893" />
      <path
         d="m 431.97363,124.40234 q -4.35547,0 -6.03515,0.9961 -1.67969,0.99609 -1.67969,3.39843 0,1.91407 1.25,3.04688 1.26953,1.11328 3.4375,1.11328 2.98828,0 4.78516,-2.10937 1.8164,-2.12891 1.8164,-5.64453 v -0.80079 z m 7.16797,-1.48437 v 12.48047 h -3.59375 v -3.32032 q -1.23047,1.99219 -3.0664,2.94922 -1.83594,0.9375 -4.49219,0.9375 -3.35938,0 -5.35156,-1.875 -1.97266,-1.89453 -1.97266,-5.05859 0,-3.69141 2.46094,-5.56641 2.48047,-1.875 7.38281,-1.875 h 5.03906 v -0.35156 q 0,-2.48047 -1.64062,-3.82812 -1.6211,-1.36719 -4.57032,-1.36719 -1.875,0 -3.65234,0.44922 -1.77734,0.44922 -3.41797,1.34765 v -3.32031 q 1.97266,-0.76172 3.82813,-1.13281 1.85547,-0.39063 3.61328,-0.39063 4.74609,0 7.08984,2.46094 2.34375,2.46094 2.34375,7.46094 z"
         style=""
         id="path3895" />
      <path
         d="m 464.74707,113.52344 -7.91016,10.64453 8.32032,11.23047 h -4.23828 l -6.36719,-8.59375 -6.36719,8.59375 h -4.23828 l 8.49609,-11.44531 -7.77343,-10.42969 h 4.23828 l 5.80078,7.79297 5.80078,-7.79297 z"
         style=""
         id="path3897" />
      <path
         d="m 487.69629,123.5625 v 1.75781 h -16.52344 q 0.23438,3.71094 2.22656,5.66406 2.01172,1.9336 5.58594,1.9336 2.07031,0 4.00391,-0.50781 1.95312,-0.50782 3.86719,-1.52344 v 3.39844 q -1.9336,0.82031 -3.96485,1.25 -2.03125,0.42968 -4.12109,0.42968 -5.23438,0 -8.30078,-3.04687 -3.04688,-3.04688 -3.04688,-8.24219 0,-5.37109 2.89063,-8.51562 2.91015,-3.16407 7.83203,-3.16407 4.41406,0 6.97265,2.85157 2.57813,2.83203 2.57813,7.71484 z m -3.59375,-1.05469 q -0.0391,-2.94922 -1.66016,-4.70703 -1.60156,-1.75781 -4.25781,-1.75781 -3.00781,0 -4.82422,1.69922 -1.79687,1.69922 -2.07031,4.78515 z"
         style=""
         id="path3899" />
      <path
         d="m 495.86035,130.4375 h 3.96485 v 4.96094 h -3.96485 z m 0,-24.19922 h 3.96485 v 12.79297 l -0.39063,6.97266 h -3.16406 l -0.41016,-6.97266 z"
         style=""
         id="path3901" />
    </g>
  </g>
</svg>
