<?xml version="1.0" encoding="UTF-8" standalone="no"?>
<!-- Created with Inkscape (http://www.inkscape.org/) -->

<svg
   xmlns:dc="http://purl.org/dc/elements/1.1/"
   xmlns:cc="http://creativecommons.org/ns#"
   xmlns:rdf="http://www.w3.org/1999/02/22-rdf-syntax-ns#"
   xmlns:svg="http://www.w3.org/2000/svg"
   xmlns="http://www.w3.org/2000/svg"
   xmlns:sodipodi="http://sodipodi.sourceforge.net/DTD/sodipodi-0.dtd"
   xmlns:inkscape="http://www.inkscape.org/namespaces/inkscape"
   width="200mm"
   height="200mm"
   viewBox="0 0 200 200"
   version="1.1"
   id="svg8"
   inkscape:version="0.92.5 (2060ec1f9f, 2020-04-08)"
   sodipodi:docname="tutorial2.svg">
  <defs
     id="defs2" />
  <sodipodi:namedview
     id="base"
     pagecolor="#ffffff"
     bordercolor="#666666"
     borderopacity="1.0"
     inkscape:pageopacity="0.0"
     inkscape:pageshadow="2"
     inkscape:zoom="1.4142136"
     inkscape:cx="448.18456"
     inkscape:cy="659.3596"
     inkscape:document-units="mm"
     inkscape:current-layer="layer1"
     showgrid="false"
     inkscape:window-width="1853"
     inkscape:window-height="1057"
     inkscape:window-x="1979"
     inkscape:window-y="-8"
     inkscape:window-maximized="1" />
  <metadata
     id="metadata5">
    <rdf:RDF>
      <cc:Work
         rdf:about="">
        <dc:format>image/svg+xml</dc:format>
        <dc:type
           rdf:resource="http://purl.org/dc/dcmitype/StillImage" />
        <dc:title></dc:title>
      </cc:Work>
    </rdf:RDF>
  </metadata>
  <g
     inkscape:label="Ebene 1"
     inkscape:groupmode="layer"
     id="layer1"
     transform="translate(0,-97)"
     style="display:inline">
    <g
       inkscape:groupmode="layer"
       id="layer2"
       inkscape:label="Hintergrund"
       style="display:inline">
      <rect
         style="fill:#e3dbdb;fill-opacity:1;stroke:none;stroke-width:0.33000827;stroke-opacity:1"
         id="rect94"
         width="200.15549"
         height="65.942101"
         x="7.6495816e-08"
         y="96.999809" />
    </g>
    <flowRoot
       xml:space="preserve"
       id="flowRoot100"
       style="fill:black;fill-opacity:1;stroke:none;font-family:sans-serif;font-style:normal;font-weight:normal;font-size:40px;line-height:1.25;letter-spacing:0px;word-spacing:0px"><flowRegion
         id="flowRegion102"><rect
           id="rect104"
           width="756.49316"
           height="144.47768"
           x="2.8911805e-07"
           y="-0.00072088768" /></flowRegion><flowPara
         id="flowPara106"></flowPara></flowRoot>    <g
       aria-label="It's time to craft an axe! Make the required resources (2 wood and 1 stone) available for crafting: Pick them up and drop them near the fireplace!"
       transform="matrix(0.26458333,0,0,0.26458333,0,97)"
       style="font-style:normal;font-variant:normal;font-weight:normal;font-stretch:normal;font-size:40px;line-height:1.25;font-family:sans-serif;-inkscape-font-specification:'sans-serif, Normal';font-variant-ligatures:normal;font-variant-caps:normal;font-variant-numeric:normal;font-feature-settings:normal;text-align:center;letter-spacing:0px;word-spacing:0px;writing-mode:lr-tb;text-anchor:middle;fill:#000000;fill-opacity:1;stroke:none"
       id="flowRoot261">
      <path
         d="m 43.012695,6.2304687 h 3.945313 V 35.390625 h -3.945313 z"
         style=""
         id="path269" />
      <path
         d="m 58.208008,7.3046875 v 6.2109375 h 7.402344 v 2.792969 h -7.402344 v 11.875 q 0,2.675781 0.722656,3.4375 0.742188,0.761718 2.988281,0.761718 h 3.691407 v 3.007813 h -3.691407 q -4.160156,0 -5.742187,-1.542969 -1.582031,-1.5625 -1.582031,-5.664062 v -11.875 h -2.636719 v -2.792969 h 2.636719 V 7.3046875 Z"
         style=""
         id="path271" />
      <path
         d="M 73.754883,6.2304687 V 17.070312 H 70.43457 V 6.2304687 Z"
         style=""
         id="path273" />
      <path
         d="m 95.317383,14.160156 v 3.398438 q -1.523438,-0.78125 -3.164063,-1.171875 -1.640625,-0.390625 -3.398437,-0.390625 -2.675781,0 -4.023438,0.820312 -1.328125,0.820313 -1.328125,2.460938 0,1.25 0.957032,1.972656 0.957031,0.703125 3.847656,1.347656 l 1.230469,0.273438 q 3.828125,0.820312 5.429687,2.324218 1.621094,1.484375 1.621094,4.160157 0,3.046875 -2.421875,4.824218 -2.402344,1.777344 -6.621094,1.777344 -1.757812,0 -3.671875,-0.351562 -1.894531,-0.332032 -4.003906,-1.015625 v -3.710938 q 1.992187,1.035156 3.925781,1.5625 1.933594,0.507813 3.828125,0.507813 2.539063,0 3.90625,-0.859375 1.367188,-0.878907 1.367188,-2.460938 0,-1.464844 -0.996094,-2.246094 -0.976563,-0.78125 -4.316406,-1.503906 l -1.25,-0.292969 q -3.339844,-0.703125 -4.824219,-2.148437 -1.484375,-1.464844 -1.484375,-4.003906 0,-3.085938 2.1875,-4.765625 2.1875,-1.679688 6.210937,-1.679688 1.992188,0 3.75,0.292969 1.757813,0.292969 3.242188,0.878906 z"
         style=""
         id="path275" />
      <path
         d="m 118.52051,7.3046875 v 6.2109375 h 7.40234 v 2.792969 h -7.40234 v 11.875 q 0,2.675781 0.72265,3.4375 0.74219,0.761718 2.98829,0.761718 h 3.6914 v 3.007813 h -3.6914 q -4.16016,0 -5.74219,-1.542969 -1.58203,-1.5625 -1.58203,-5.664062 v -11.875 h -2.63672 v -2.792969 h 2.63672 V 7.3046875 Z"
         style=""
         id="path277" />
      <path
         d="m 130.66895,13.515625 h 3.59375 v 21.875 h -3.59375 z m 0,-8.515625 h 3.59375 v 4.5507813 h -3.59375 z"
         style=""
         id="path279" />
      <path
         d="m 158.79395,17.714844 q 1.34765,-2.421875 3.22265,-3.574219 1.875,-1.152344 4.41406,-1.152344 3.41797,0 5.27344,2.402344 1.85547,2.382812 1.85547,6.796875 v 13.203125 h -3.61328 V 22.304687 q 0,-3.144531 -1.11328,-4.667968 -1.11328,-1.523438 -3.39844,-1.523438 -2.79297,0 -4.41406,1.855469 -1.6211,1.855469 -1.6211,5.058594 v 12.363281 h -3.61328 V 22.304687 q 0,-3.164062 -1.11328,-4.667968 -1.11328,-1.523438 -3.4375,-1.523438 -2.7539,0 -4.375,1.875 -1.62109,1.855469 -1.62109,5.039063 v 12.363281 h -3.61328 v -21.875 h 3.61328 v 3.398437 q 1.23047,-2.011718 2.94922,-2.968749 1.71875,-0.957032 4.08203,-0.957032 2.38281,0 4.04297,1.210938 1.67968,1.210937 2.48047,3.515625 z"
         style=""
         id="path281" />
      <path
         d="M 199.45801,23.554687 V 25.3125 h -16.52344 q 0.23438,3.710937 2.22656,5.664062 2.01172,1.933594 5.58594,1.933594 2.07031,0 4.00391,-0.507812 1.95312,-0.507813 3.86718,-1.523438 v 3.398438 q -1.93359,0.820312 -3.96484,1.25 -2.03125,0.429687 -4.12109,0.429687 -5.23438,0 -8.30078,-3.046875 -3.04688,-3.046875 -3.04688,-8.242187 0,-5.371094 2.89063,-8.515625 2.91015,-3.164063 7.83203,-3.164063 4.41406,0 6.97265,2.851563 2.57813,2.832031 2.57813,7.714843 z M 195.86426,22.5 q -0.0391,-2.949219 -1.66016,-4.707031 -1.60156,-1.757813 -4.25781,-1.757813 -3.00781,0 -4.82422,1.699219 -1.79687,1.699219 -2.07031,4.785156 z"
         style=""
         id="path283" />
      <path
         d="m 221.64551,7.3046875 v 6.2109375 h 7.40234 v 2.792969 h -7.40234 v 11.875 q 0,2.675781 0.72265,3.4375 0.74219,0.761718 2.98829,0.761718 h 3.6914 v 3.007813 h -3.6914 q -4.16016,0 -5.74219,-1.542969 -1.58203,-1.5625 -1.58203,-5.664062 v -11.875 h -2.63672 v -2.792969 h 2.63672 V 7.3046875 Z"
         style=""
         id="path285" />
      <path
         d="m 242.27051,16.035156 q -2.89063,0 -4.57031,2.265625 -1.67969,2.246094 -1.67969,6.171875 0,3.925781 1.66015,6.191406 1.67969,2.246094 4.58985,2.246094 2.87109,0 4.55078,-2.265625 1.67969,-2.265625 1.67969,-6.171875 0,-3.886719 -1.67969,-6.152344 -1.67969,-2.285156 -4.55078,-2.285156 z m 0,-3.046875 q 4.6875,0 7.36328,3.046875 2.67578,3.046875 2.67578,8.4375 0,5.371094 -2.67578,8.4375 -2.67578,3.046875 -7.36328,3.046875 -4.70703,0 -7.38281,-3.046875 -2.65625,-3.066406 -2.65625,-8.4375 0,-5.390625 2.65625,-8.4375 2.67578,-3.046875 7.38281,-3.046875 z"
         style=""
         id="path287" />
      <path
         d="m 286.72363,14.355469 v 3.359375 q -1.52343,-0.839844 -3.0664,-1.25 -1.52344,-0.429688 -3.08594,-0.429688 -3.49609,0 -5.42969,2.226563 -1.93359,2.207031 -1.93359,6.210937 0,4.003906 1.93359,6.230469 1.9336,2.207031 5.42969,2.207031 1.5625,0 3.08594,-0.410156 1.54297,-0.429688 3.0664,-1.269531 v 3.320312 q -1.5039,0.703125 -3.125,1.054688 -1.60156,0.351562 -3.41797,0.351562 -4.9414,0 -7.85156,-3.105469 -2.91015,-3.105468 -2.91015,-8.378906 0,-5.351562 2.92968,-8.417969 2.94922,-3.066406 8.06641,-3.066406 1.66016,0 3.24219,0.351563 1.58203,0.332031 3.0664,1.015625 z"
         style=""
         id="path289" />
      <path
         d="m 305.68848,16.875 q -0.60547,-0.351563 -1.32813,-0.507813 -0.70312,-0.175781 -1.5625,-0.175781 -3.04687,0 -4.6875,1.992188 -1.62109,1.972656 -1.62109,5.683593 v 11.523438 h -3.61328 v -21.875 h 3.61328 v 3.398437 q 1.13281,-1.992187 2.94922,-2.949218 1.8164,-0.976563 4.41406,-0.976563 0.37109,0 0.82031,0.05859 0.44922,0.03906 0.9961,0.136719 z"
         style=""
         id="path291" />
      <path
         d="m 319.43848,24.394531 q -4.35547,0 -6.03516,0.996094 -1.67969,0.996094 -1.67969,3.398437 0,1.914063 1.25,3.046875 1.26953,1.113282 3.4375,1.113282 2.98828,0 4.78516,-2.109375 1.81641,-2.128907 1.81641,-5.644532 v -0.800781 z m 7.16797,-1.484375 v 12.480469 h -3.59375 v -3.320313 q -1.23047,1.992188 -3.06641,2.949219 -1.83594,0.9375 -4.49219,0.9375 -3.35937,0 -5.35156,-1.875 -1.97266,-1.894531 -1.97266,-5.058594 0,-3.691406 2.46094,-5.566406 2.48047,-1.875 7.38281,-1.875 h 5.03907 v -0.351562 q 0,-2.480469 -1.64063,-3.828125 -1.62109,-1.367188 -4.57031,-1.367188 -1.875,0 -3.65235,0.449219 -1.77734,0.449219 -3.41796,1.347656 v -3.320312 q 1.97265,-0.761719 3.82812,-1.132813 1.85547,-0.390625 3.61328,-0.390625 4.7461,0 7.08985,2.460938 2.34375,2.460937 2.34375,7.460937 z"
         style=""
         id="path293" />
      <path
         d="m 345.10254,5 v 2.9882812 h -3.4375 q -1.93359,0 -2.69531,0.7812501 -0.74219,0.78125 -0.74219,2.8124997 v 1.933594 h 5.91797 v 2.792969 h -5.91797 v 19.082031 h -3.61328 V 16.308594 h -3.4375 v -2.792969 h 3.4375 v -1.523437 q 0,-3.6523442 1.69922,-5.3125005 Q 338.0127,5 341.7041,5 Z"
         style=""
         id="path295" />
      <path
         d="m 350.94238,7.3046875 v 6.2109375 h 7.40235 v 2.792969 h -7.40235 v 11.875 q 0,2.675781 0.72266,3.4375 0.74219,0.761718 2.98828,0.761718 h 3.69141 v 3.007813 h -3.69141 q -4.16016,0 -5.74219,-1.542969 -1.58203,-1.5625 -1.58203,-5.664062 v -11.875 h -2.63672 v -2.792969 h 2.63672 V 7.3046875 Z"
         style=""
         id="path297" />
      <path
         d="m 385.7666,24.394531 q -4.35547,0 -6.03515,0.996094 -1.67969,0.996094 -1.67969,3.398437 0,1.914063 1.25,3.046875 1.26953,1.113282 3.4375,1.113282 2.98828,0 4.78515,-2.109375 1.81641,-2.128907 1.81641,-5.644532 v -0.800781 z m 7.16797,-1.484375 v 12.480469 h -3.59375 v -3.320313 q -1.23047,1.992188 -3.06641,2.949219 -1.83593,0.9375 -4.49218,0.9375 -3.35938,0 -5.35157,-1.875 -1.97265,-1.894531 -1.97265,-5.058594 0,-3.691406 2.46094,-5.566406 2.48046,-1.875 7.38281,-1.875 h 5.03906 v -0.351562 q 0,-2.480469 -1.64062,-3.828125 -1.6211,-1.367188 -4.57032,-1.367188 -1.875,0 -3.65234,0.449219 -1.77734,0.449219 -3.41797,1.347656 v -3.320312 q 1.97266,-0.761719 3.82813,-1.132813 1.85546,-0.390625 3.61328,-0.390625 4.74609,0 7.08984,2.460938 2.34375,2.460937 2.34375,7.460937 z"
         style=""
         id="path299" />
      <path
         d="m 418.54004,22.1875 v 13.203125 h -3.59375 V 22.304687 q 0,-3.105468 -1.21094,-4.648437 -1.21094,-1.542969 -3.63281,-1.542969 -2.91016,0 -4.58984,1.855469 -1.67969,1.855469 -1.67969,5.058594 v 12.363281 h -3.61328 v -21.875 h 3.61328 v 3.398437 q 1.28906,-1.972656 3.02734,-2.949218 1.75781,-0.976563 4.04297,-0.976563 3.76953,0 5.70313,2.34375 1.93359,2.324219 1.93359,6.855469 z"
         style=""
         id="path301" />
      <path
         d="m 448.42285,24.394531 q -4.35547,0 -6.03515,0.996094 -1.67969,0.996094 -1.67969,3.398437 0,1.914063 1.25,3.046875 1.26953,1.113282 3.4375,1.113282 2.98828,0 4.78515,-2.109375 1.81641,-2.128907 1.81641,-5.644532 v -0.800781 z m 7.16797,-1.484375 v 12.480469 h -3.59375 v -3.320313 q -1.23047,1.992188 -3.06641,2.949219 -1.83593,0.9375 -4.49218,0.9375 -3.35938,0 -5.35157,-1.875 -1.97265,-1.894531 -1.97265,-5.058594 0,-3.691406 2.46094,-5.566406 2.48046,-1.875 7.38281,-1.875 h 5.03906 v -0.351562 q 0,-2.480469 -1.64062,-3.828125 -1.6211,-1.367188 -4.57032,-1.367188 -1.875,0 -3.65234,0.449219 -1.77734,0.449219 -3.41797,1.347656 v -3.320312 q 1.97266,-0.761719 3.82813,-1.132813 1.85546,-0.390625 3.61328,-0.390625 4.74609,0 7.08984,2.460938 2.34375,2.460937 2.34375,7.460937 z"
         style=""
         id="path303" />
      <path
         d="m 481.19629,13.515625 -7.91016,10.644531 8.32032,11.230469 h -4.23829 l -6.36718,-8.59375 -6.36719,8.59375 h -4.23828 l 8.49609,-11.445313 -7.77344,-10.429687 h 4.23829 l 5.80078,7.792969 5.80078,-7.792969 z"
         style=""
         id="path305" />
      <path
         d="M 504.14551,23.554687 V 25.3125 h -16.52344 q 0.23438,3.710937 2.22656,5.664062 2.01172,1.933594 5.58594,1.933594 2.07031,0 4.00391,-0.507812 1.95312,-0.507813 3.86718,-1.523438 v 3.398438 q -1.93359,0.820312 -3.96484,1.25 -2.03125,0.429687 -4.12109,0.429687 -5.23438,0 -8.30078,-3.046875 -3.04688,-3.046875 -3.04688,-8.242187 0,-5.371094 2.89063,-8.515625 2.91015,-3.164063 7.83203,-3.164063 4.41406,0 6.97265,2.851563 2.57813,2.832031 2.57813,7.714843 z M 500.55176,22.5 q -0.0391,-2.949219 -1.66016,-4.707031 -1.60156,-1.757813 -4.25781,-1.757813 -3.00781,0 -4.82422,1.699219 -1.79687,1.699219 -2.07031,4.785156 z"
         style=""
         id="path307" />
      <path
         d="m 512.30957,30.429687 h 3.96484 v 4.960938 h -3.96484 z m 0,-24.1992183 h 3.96484 V 19.023437 l -0.39062,6.972657 h -3.16406 l -0.41016,-6.972657 z"
         style=""
         id="path309" />
      <path
         d="m 538.9502,6.2304687 h 5.8789 l 7.44141,19.8437503 7.48047,-19.8437503 h 5.8789 V 35.390625 h -3.84765 V 9.7851563 L 554.2627,29.785156 h -3.96485 L 542.77832,9.7851563 V 35.390625 h -3.82812 z"
         style=""
         id="path311" />
      <path
         d="m 583.2666,24.394531 q -4.35547,0 -6.03515,0.996094 -1.67969,0.996094 -1.67969,3.398437 0,1.914063 1.25,3.046875 1.26953,1.113282 3.4375,1.113282 2.98828,0 4.78515,-2.109375 1.81641,-2.128907 1.81641,-5.644532 v -0.800781 z m 7.16797,-1.484375 v 12.480469 h -3.59375 v -3.320313 q -1.23047,1.992188 -3.06641,2.949219 -1.83593,0.9375 -4.49218,0.9375 -3.35938,0 -5.35157,-1.875 -1.97265,-1.894531 -1.97265,-5.058594 0,-3.691406 2.46094,-5.566406 2.48046,-1.875 7.38281,-1.875 h 5.03906 v -0.351562 q 0,-2.480469 -1.64062,-3.828125 -1.6211,-1.367188 -4.57032,-1.367188 -1.875,0 -3.65234,0.449219 -1.77734,0.449219 -3.41797,1.347656 v -3.320312 q 1.97266,-0.761719 3.82813,-1.132813 1.85546,-0.390625 3.61328,-0.390625 4.74609,0 7.08984,2.460938 2.34375,2.460937 2.34375,7.460937 z"
         style=""
         id="path313" />
      <path
         d="m 597.71973,5 h 3.61328 v 17.949219 l 10.72265,-9.433594 h 4.58985 L 605.04395,23.75 617.13379,35.390625 h -4.6875 L 601.33301,24.707031 v 10.683594 h -3.61328 z"
         style=""
         id="path315" />
      <path
         d="M 638.36426,23.554687 V 25.3125 h -16.52344 q 0.23438,3.710937 2.22656,5.664062 2.01172,1.933594 5.58594,1.933594 2.07031,0 4.00391,-0.507812 1.95312,-0.507813 3.86718,-1.523438 v 3.398438 q -1.93359,0.820312 -3.96484,1.25 -2.03125,0.429687 -4.12109,0.429687 -5.23438,0 -8.30078,-3.046875 -3.04688,-3.046875 -3.04688,-8.242187 0,-5.371094 2.89063,-8.515625 2.91015,-3.164063 7.83203,-3.164063 4.41406,0 6.97265,2.851563 2.57813,2.832031 2.57813,7.714843 z M 634.77051,22.5 q -0.0391,-2.949219 -1.66016,-4.707031 -1.60156,-1.757813 -4.25781,-1.757813 -3.00781,0 -4.82422,1.699219 -1.79687,1.699219 -2.07031,4.785156 z"
         style=""
         id="path317" />
      <path
         d="m 660.55176,7.3046875 v 6.2109375 h 7.40234 v 2.792969 h -7.40234 v 11.875 q 0,2.675781 0.72265,3.4375 0.74219,0.761718 2.98829,0.761718 h 3.6914 v 3.007813 h -3.6914 q -4.16016,0 -5.74219,-1.542969 -1.58203,-1.5625 -1.58203,-5.664062 v -11.875 h -2.63672 v -2.792969 h 2.63672 V 7.3046875 Z"
         style=""
         id="path319" />
      <path
         d="m 690.88379,22.1875 v 13.203125 h -3.59375 V 22.304687 q 0,-3.105468 -1.21094,-4.648437 -1.21094,-1.542969 -3.63281,-1.542969 -2.91016,0 -4.58984,1.855469 -1.67969,1.855469 -1.67969,5.058594 v 12.363281 h -3.61328 V 5 h 3.61328 v 11.914062 q 1.28906,-1.972656 3.02734,-2.949218 1.75781,-0.976563 4.04297,-0.976563 3.76953,0 5.70313,2.34375 1.93359,2.324219 1.93359,6.855469 z"
         style=""
         id="path321" />
      <path
         d="M 716.80176,23.554687 V 25.3125 h -16.52344 q 0.23438,3.710937 2.22656,5.664062 2.01172,1.933594 5.58594,1.933594 2.07031,0 4.00391,-0.507812 1.95312,-0.507813 3.86718,-1.523438 v 3.398438 q -1.93359,0.820312 -3.96484,1.25 -2.03125,0.429687 -4.12109,0.429687 -5.23438,0 -8.30078,-3.046875 -3.04688,-3.046875 -3.04688,-8.242187 0,-5.371094 2.89063,-8.515625 2.91015,-3.164063 7.83203,-3.164063 4.41406,0 6.97265,2.851563 2.57813,2.832031 2.57813,7.714843 z M 713.20801,22.5 q -0.0391,-2.949219 -1.66016,-4.707031 -1.60156,-1.757813 -4.25781,-1.757813 -3.00781,0 -4.82422,1.699219 -1.79687,1.699219 -2.07031,4.785156 z"
         style=""
         id="path323" />
      <path
         d="m 58.266602,66.875 q -0.605469,-0.351563 -1.328125,-0.507813 -0.703125,-0.175781 -1.5625,-0.175781 -3.046875,0 -4.6875,1.992188 -1.621094,1.972656 -1.621094,5.683593 v 11.523438 h -3.613281 v -21.875 h 3.613281 v 3.398437 q 1.132812,-1.992187 2.949219,-2.949218 1.816406,-0.976563 4.414062,-0.976563 0.371094,0 0.820313,0.05859 0.449218,0.03906 0.996093,0.136719 z"
         style=""
         id="path325" />
      <path
         d="M 79.926758,73.554687 V 75.3125 H 63.40332 q 0.234375,3.710937 2.226563,5.664062 2.011719,1.933594 5.585937,1.933594 2.070313,0 4.003907,-0.507812 1.953125,-0.507813 3.867187,-1.523438 v 3.398438 q -1.933594,0.820312 -3.964844,1.25 -2.03125,0.429687 -4.121093,0.429687 -5.234375,0 -8.300782,-3.046875 -3.046875,-3.046875 -3.046875,-8.242187 0,-5.371094 2.890625,-8.515625 2.910157,-3.164063 7.832032,-3.164063 4.414062,0 6.972656,2.851563 2.578125,2.832031 2.578125,7.714843 z M 76.333008,72.5 q -0.03906,-2.949219 -1.660156,-4.707031 -1.601563,-1.757813 -4.257813,-1.757813 -3.007812,0 -4.824219,1.699219 -1.796875,1.699219 -2.070312,4.785156 z"
         style=""
         id="path327" />
      <path
         d="m 87.973633,74.472656 q 0,3.964844 1.621094,6.230469 1.640625,2.246094 4.492187,2.246094 2.851563,0 4.492188,-2.246094 1.640628,-2.265625 1.640628,-6.230469 0,-3.964844 -1.640628,-6.210937 -1.640625,-2.265625 -4.492188,-2.265625 -2.851562,0 -4.492187,2.265625 -1.621094,2.246093 -1.621094,6.210937 z m 12.246097,7.636719 q -1.132816,1.953125 -2.871097,2.910156 -1.71875,0.9375 -4.140625,0.9375 -3.964844,0 -6.464844,-3.164062 -2.480469,-3.164063 -2.480469,-8.320313 0,-5.15625 2.480469,-8.320312 2.5,-3.164063 6.464844,-3.164063 2.421875,0 4.140625,0.957031 1.738281,0.9375 2.871097,2.890625 v -3.320312 h 3.59375 v 30.195312 h -3.59375 z"
         style=""
         id="path329" />
      <path
         d="M 110.84473,76.757812 V 63.515625 h 3.59375 v 13.105469 q 0,3.105468 1.21093,4.667968 1.21094,1.542969 3.63282,1.542969 2.91015,0 4.58984,-1.855469 1.69922,-1.855468 1.69922,-5.058593 V 63.515625 h 3.59375 v 21.875 h -3.59375 V 82.03125 Q 124.2627,84.023437 122.52441,85 q -1.71875,0.957031 -4.0039,0.957031 -3.76953,0 -5.72266,-2.34375 -1.95312,-2.34375 -1.95312,-6.855469 z m 9.04297,-13.769531 z"
         style=""
         id="path331" />
      <path
         d="m 136.60645,63.515625 h 3.59375 v 21.875 h -3.59375 z m 0,-8.515625 h 3.59375 v 4.550781 h -3.59375 z"
         style=""
         id="path333" />
      <path
         d="m 160.37598,66.875 q -0.60547,-0.351563 -1.32813,-0.507813 -0.70312,-0.175781 -1.5625,-0.175781 -3.04687,0 -4.6875,1.992188 -1.62109,1.972656 -1.62109,5.683593 v 11.523438 h -3.61328 v -21.875 h 3.61328 v 3.398437 q 1.13281,-1.992187 2.94922,-2.949218 1.8164,-0.976563 4.41406,-0.976563 0.37109,0 0.82031,0.05859 0.44922,0.03906 0.9961,0.136719 z"
         style=""
         id="path335" />
      <path
         d="M 182.03613,73.554687 V 75.3125 H 165.5127 q 0.23437,3.710937 2.22656,5.664062 2.01172,1.933594 5.58594,1.933594 2.07031,0 4.0039,-0.507812 1.95313,-0.507813 3.86719,-1.523438 v 3.398438 q -1.93359,0.820312 -3.96484,1.25 -2.03125,0.429687 -4.1211,0.429687 -5.23437,0 -8.30078,-3.046875 -3.04687,-3.046875 -3.04687,-8.242187 0,-5.371094 2.89062,-8.515625 2.91016,-3.164063 7.83203,-3.164063 4.41406,0 6.97266,2.851563 2.57812,2.832031 2.57812,7.714843 z M 178.44238,72.5 q -0.0391,-2.949219 -1.66015,-4.707031 -1.60157,-1.757813 -4.25782,-1.757813 -3.00781,0 -4.82421,1.699219 -1.79688,1.699219 -2.07032,4.785156 z"
         style=""
         id="path337" />
      <path
         d="M 202.3291,66.835937 V 55 h 3.59375 v 30.390625 h -3.59375 v -3.28125 q -1.13281,1.953125 -2.87109,2.910156 -1.71875,0.9375 -4.14063,0.9375 -3.96484,0 -6.46484,-3.164062 -2.48047,-3.164063 -2.48047,-8.320313 0,-5.15625 2.48047,-8.320312 2.5,-3.164063 6.46484,-3.164063 2.42188,0 4.14063,0.957031 1.73828,0.9375 2.87109,2.890625 z m -12.24609,7.636719 q 0,3.964844 1.62109,6.230469 1.64063,2.246094 4.49219,2.246094 2.85156,0 4.49219,-2.246094 1.64062,-2.265625 1.64062,-6.230469 0,-3.964844 -1.64062,-6.210937 -1.64063,-2.265625 -4.49219,-2.265625 -2.85156,0 -4.49219,2.265625 -1.62109,2.246093 -1.62109,6.210937 z"
         style=""
         id="path339" />
      <path
         d="m 238.73535,66.875 q -0.60547,-0.351563 -1.32812,-0.507813 -0.70313,-0.175781 -1.5625,-0.175781 -3.04688,0 -4.6875,1.992188 -1.6211,1.972656 -1.6211,5.683593 v 11.523438 h -3.61328 v -21.875 h 3.61328 v 3.398437 q 1.13282,-1.992187 2.94922,-2.949218 1.81641,-0.976563 4.41406,-0.976563 0.3711,0 0.82032,0.05859 0.44922,0.03906 0.99609,0.136719 z"
         style=""
         id="path341" />
      <path
         d="M 260.39551,73.554687 V 75.3125 h -16.52344 q 0.23438,3.710937 2.22656,5.664062 2.01172,1.933594 5.58594,1.933594 2.07031,0 4.00391,-0.507812 1.95312,-0.507813 3.86718,-1.523438 v 3.398438 q -1.93359,0.820312 -3.96484,1.25 -2.03125,0.429687 -4.12109,0.429687 -5.23438,0 -8.30078,-3.046875 -3.04688,-3.046875 -3.04688,-8.242187 0,-5.371094 2.89063,-8.515625 2.91015,-3.164063 7.83203,-3.164063 4.41406,0 6.97265,2.851563 2.57813,2.832031 2.57813,7.714843 z M 256.80176,72.5 q -0.0391,-2.949219 -1.66016,-4.707031 -1.60156,-1.757813 -4.25781,-1.757813 -3.00781,0 -4.82422,1.699219 -1.79687,1.699219 -2.07031,4.785156 z"
         style=""
         id="path343" />
      <path
         d="m 280.23926,64.160156 v 3.398438 q -1.52344,-0.78125 -3.16406,-1.171875 -1.64063,-0.390625 -3.39844,-0.390625 -2.67578,0 -4.02344,0.820312 -1.32812,0.820313 -1.32812,2.460938 0,1.25 0.95703,1.972656 0.95703,0.703125 3.84765,1.347656 l 1.23047,0.273438 q 3.82813,0.820312 5.42969,2.324218 1.62109,1.484375 1.62109,4.160157 0,3.046875 -2.42187,4.824218 -2.40235,1.777344 -6.6211,1.777344 -1.75781,0 -3.67187,-0.351562 -1.89453,-0.332032 -4.00391,-1.015625 v -3.710938 q 1.99219,1.035156 3.92578,1.5625 1.9336,0.507813 3.82813,0.507813 2.53906,0 3.90625,-0.859375 1.36719,-0.878907 1.36719,-2.460938 0,-1.464844 -0.9961,-2.246094 -0.97656,-0.78125 -4.3164,-1.503906 l -1.25,-0.292969 q -3.33985,-0.703125 -4.82422,-2.148437 -1.48438,-1.464844 -1.48438,-4.003906 0,-3.085938 2.1875,-4.765625 2.1875,-1.679688 6.21094,-1.679688 1.99219,0 3.75,0.292969 1.75781,0.292969 3.24219,0.878906 z"
         style=""
         id="path345" />
      <path
         d="m 295.62988,66.035156 q -2.89062,0 -4.57031,2.265625 -1.67969,2.246094 -1.67969,6.171875 0,3.925781 1.66016,6.191406 1.67969,2.246094 4.58984,2.246094 2.8711,0 4.55078,-2.265625 1.67969,-2.265625 1.67969,-6.171875 0,-3.886719 -1.67969,-6.152344 -1.67968,-2.285156 -4.55078,-2.285156 z m 0,-3.046875 q 4.6875,0 7.36328,3.046875 2.67579,3.046875 2.67579,8.4375 0,5.371094 -2.67579,8.4375 -2.67578,3.046875 -7.36328,3.046875 -4.70703,0 -7.38281,-3.046875 -2.65625,-3.066406 -2.65625,-8.4375 0,-5.390625 2.65625,-8.4375 2.67578,-3.046875 7.38281,-3.046875 z"
         style=""
         id="path347" />
      <path
         d="M 311.23535,76.757812 V 63.515625 h 3.59375 v 13.105469 q 0,3.105468 1.21094,4.667968 1.21094,1.542969 3.63281,1.542969 2.91016,0 4.58985,-1.855469 1.69921,-1.855468 1.69921,-5.058593 V 63.515625 h 3.59375 v 21.875 h -3.59375 V 82.03125 q -1.30859,1.992187 -3.04687,2.96875 -1.71875,0.957031 -4.00391,0.957031 -3.76953,0 -5.72265,-2.34375 -1.95313,-2.34375 -1.95313,-6.855469 z m 9.04297,-13.769531 z"
         style=""
         id="path349" />
      <path
         d="m 349.67285,66.875 q -0.60547,-0.351563 -1.32812,-0.507813 -0.70313,-0.175781 -1.5625,-0.175781 -3.04688,0 -4.6875,1.992188 -1.6211,1.972656 -1.6211,5.683593 v 11.523438 h -3.61328 v -21.875 h 3.61328 v 3.398437 q 1.13282,-1.992187 2.94922,-2.949218 1.81641,-0.976563 4.41406,-0.976563 0.3711,0 0.82032,0.05859 0.44922,0.03906 0.99609,0.136719 z"
         style=""
         id="path351" />
      <path
         d="m 368.36426,64.355469 v 3.359375 q -1.52344,-0.839844 -3.06641,-1.25 -1.52344,-0.429688 -3.08594,-0.429688 -3.49609,0 -5.42968,2.226563 -1.9336,2.207031 -1.9336,6.210937 0,4.003906 1.9336,6.230469 1.93359,2.207031 5.42968,2.207031 1.5625,0 3.08594,-0.410156 1.54297,-0.429688 3.06641,-1.269531 v 3.320312 q -1.50391,0.703125 -3.125,1.054688 -1.60156,0.351562 -3.41797,0.351562 -4.94141,0 -7.85156,-3.105469 -2.91016,-3.105468 -2.91016,-8.378906 0,-5.351562 2.92969,-8.417969 2.94922,-3.066406 8.0664,-3.066406 1.66016,0 3.24219,0.351563 1.58203,0.332031 3.06641,1.015625 z"
         style=""
         id="path353" />
      <path
         d="M 393.36426,73.554687 V 75.3125 h -16.52344 q 0.23438,3.710937 2.22656,5.664062 2.01172,1.933594 5.58594,1.933594 2.07031,0 4.00391,-0.507812 1.95312,-0.507813 3.86718,-1.523438 v 3.398438 q -1.93359,0.820312 -3.96484,1.25 -2.03125,0.429687 -4.12109,0.429687 -5.23438,0 -8.30078,-3.046875 -3.04688,-3.046875 -3.04688,-8.242187 0,-5.371094 2.89063,-8.515625 2.91015,-3.164063 7.83203,-3.164063 4.41406,0 6.97265,2.851563 2.57813,2.832031 2.57813,7.714843 z M 389.77051,72.5 q -0.0391,-2.949219 -1.66016,-4.707031 -1.60156,-1.757813 -4.25781,-1.757813 -3.00781,0 -4.82422,1.699219 -1.79687,1.699219 -2.07031,4.785156 z"
         style=""
         id="path355" />
      <path
         d="m 413.20801,64.160156 v 3.398438 q -1.52344,-0.78125 -3.16406,-1.171875 -1.64063,-0.390625 -3.39844,-0.390625 -2.67578,0 -4.02344,0.820312 -1.32812,0.820313 -1.32812,2.460938 0,1.25 0.95703,1.972656 0.95703,0.703125 3.84765,1.347656 l 1.23047,0.273438 q 3.82813,0.820312 5.42969,2.324218 1.62109,1.484375 1.62109,4.160157 0,3.046875 -2.42187,4.824218 -2.40235,1.777344 -6.6211,1.777344 -1.75781,0 -3.67187,-0.351562 -1.89453,-0.332032 -4.00391,-1.015625 v -3.710938 q 1.99219,1.035156 3.92578,1.5625 1.9336,0.507813 3.82813,0.507813 2.53906,0 3.90625,-0.859375 1.36719,-0.878907 1.36719,-2.460938 0,-1.464844 -0.9961,-2.246094 -0.97656,-0.78125 -4.3164,-1.503906 l -1.25,-0.292969 q -3.33985,-0.703125 -4.82422,-2.148437 -1.48438,-1.464844 -1.48438,-4.003906 0,-3.085938 2.1875,-4.765625 2.1875,-1.679688 6.21094,-1.679688 1.99219,0 3.75,0.292969 1.75781,0.292969 3.24219,0.878906 z"
         style=""
         id="path357" />
      <path
         d="m 441.48926,55.039062 q -2.61719,4.492188 -3.88672,8.886719 -1.26953,4.394531 -1.26953,8.90625 0,4.511719 1.26953,8.945313 1.28906,4.414062 3.88672,8.886718 h -3.125 q -2.92969,-4.589843 -4.39453,-9.023437 -1.44532,-4.433594 -1.44532,-8.808594 0,-4.355469 1.44532,-8.769531 1.44531,-4.414063 4.39453,-9.023438 z"
         style=""
         id="path359" />
      <path
         d="m 452.3877,82.070312 h 13.76953 v 3.320313 H 447.6416 v -3.320313 q 2.2461,-2.324218 6.11328,-6.230468 3.88672,-3.925782 4.88282,-5.058594 1.89453,-2.128906 2.63671,-3.59375 0.76172,-1.484375 0.76172,-2.910156 0,-2.324219 -1.64062,-3.789063 -1.6211,-1.464844 -4.23828,-1.464844 -1.85547,0 -3.92578,0.644532 -2.05079,0.644531 -4.39454,1.953125 v -3.984375 q 2.38282,-0.957032 4.45313,-1.445313 2.07031,-0.488281 3.78906,-0.488281 4.53125,0 7.22656,2.265625 2.69532,2.265625 2.69532,6.054687 0,1.796875 -0.6836,3.417969 -0.66406,1.601563 -2.4414,3.789063 -0.48828,0.566406 -3.10547,3.28125 -2.61719,2.695312 -7.38281,7.558593 z"
         style=""
         id="path361" />
      <path
         d="m 484.59473,63.515625 h 3.59375 l 4.49218,17.070312 4.47266,-17.070312 h 4.23828 l 4.49219,17.070312 4.47266,-17.070312 h 3.59375 l -5.72266,21.875 h -4.23828 l -4.70703,-17.929688 -4.72657,17.929688 h -4.23828 z"
         style=""
         id="path363" />
      <path
         d="m 527.89551,66.035156 q -2.89063,0 -4.57031,2.265625 -1.67969,2.246094 -1.67969,6.171875 0,3.925781 1.66015,6.191406 1.67969,2.246094 4.58985,2.246094 2.87109,0 4.55078,-2.265625 1.67969,-2.265625 1.67969,-6.171875 0,-3.886719 -1.67969,-6.152344 -1.67969,-2.285156 -4.55078,-2.285156 z m 0,-3.046875 q 4.6875,0 7.36328,3.046875 2.67578,3.046875 2.67578,8.4375 0,5.371094 -2.67578,8.4375 -2.67578,3.046875 -7.36328,3.046875 -4.70703,0 -7.38281,-3.046875 -2.65625,-3.066406 -2.65625,-8.4375 0,-5.390625 2.65625,-8.4375 2.67578,-3.046875 7.38281,-3.046875 z"
         style=""
         id="path365" />
      <path
         d="m 552.34863,66.035156 q -2.89062,0 -4.57031,2.265625 -1.67969,2.246094 -1.67969,6.171875 0,3.925781 1.66016,6.191406 1.67969,2.246094 4.58984,2.246094 2.8711,0 4.55078,-2.265625 1.67969,-2.265625 1.67969,-6.171875 0,-3.886719 -1.67969,-6.152344 -1.67968,-2.285156 -4.55078,-2.285156 z m 0,-3.046875 q 4.6875,0 7.36328,3.046875 2.67579,3.046875 2.67579,8.4375 0,5.371094 -2.67579,8.4375 -2.67578,3.046875 -7.36328,3.046875 -4.70703,0 -7.38281,-3.046875 -2.65625,-3.066406 -2.65625,-8.4375 0,-5.390625 2.65625,-8.4375 2.67578,-3.046875 7.38281,-3.046875 z"
         style=""
         id="path367" />
      <path
         d="M 582.71973,66.835937 V 55 h 3.59375 v 30.390625 h -3.59375 v -3.28125 q -1.13282,1.953125 -2.8711,2.910156 -1.71875,0.9375 -4.14062,0.9375 -3.96485,0 -6.46485,-3.164062 -2.48046,-3.164063 -2.48046,-8.320313 0,-5.15625 2.48046,-8.320312 2.5,-3.164063 6.46485,-3.164063 2.42187,0 4.14062,0.957031 1.73828,0.9375 2.8711,2.890625 z m -12.2461,7.636719 q 0,3.964844 1.6211,6.230469 1.64062,2.246094 4.49218,2.246094 2.85157,0 4.49219,-2.246094 1.64063,-2.265625 1.64063,-6.230469 0,-3.964844 -1.64063,-6.210937 -1.64062,-2.265625 -4.49219,-2.265625 -2.85156,0 -4.49218,2.265625 -1.6211,2.246093 -1.6211,6.210937 z"
         style=""
         id="path369" />
      <path
         d="m 616.3916,74.394531 q -4.35547,0 -6.03515,0.996094 -1.67969,0.996094 -1.67969,3.398437 0,1.914063 1.25,3.046875 1.26953,1.113282 3.4375,1.113282 2.98828,0 4.78515,-2.109375 1.81641,-2.128907 1.81641,-5.644532 v -0.800781 z m 7.16797,-1.484375 v 12.480469 h -3.59375 v -3.320313 q -1.23047,1.992188 -3.06641,2.949219 -1.83593,0.9375 -4.49218,0.9375 -3.35938,0 -5.35157,-1.875 -1.97265,-1.894531 -1.97265,-5.058594 0,-3.691406 2.46094,-5.566406 2.48046,-1.875 7.38281,-1.875 h 5.03906 v -0.351562 q 0,-2.480469 -1.64062,-3.828125 -1.6211,-1.367188 -4.57032,-1.367188 -1.875,0 -3.65234,0.449219 -1.77734,0.449219 -3.41797,1.347656 v -3.320312 q 1.97266,-0.761719 3.82813,-1.132813 1.85546,-0.390625 3.61328,-0.390625 4.74609,0 7.08984,2.460938 2.34375,2.460937 2.34375,7.460937 z"
         style=""
         id="path371" />
      <path
         d="m 649.16504,72.1875 v 13.203125 h -3.59375 V 72.304687 q 0,-3.105468 -1.21094,-4.648437 -1.21094,-1.542969 -3.63281,-1.542969 -2.91016,0 -4.58984,1.855469 -1.67969,1.855469 -1.67969,5.058594 v 12.363281 h -3.61328 v -21.875 h 3.61328 v 3.398437 q 1.28906,-1.972656 3.02734,-2.949218 1.75781,-0.976563 4.04297,-0.976563 3.76953,0 5.70313,2.34375 1.93359,2.324219 1.93359,6.855469 z"
         style=""
         id="path373" />
      <path
         d="M 670.7666,66.835937 V 55 h 3.59375 v 30.390625 h -3.59375 v -3.28125 q -1.13281,1.953125 -2.87109,2.910156 -1.71875,0.9375 -4.14063,0.9375 -3.96484,0 -6.46484,-3.164062 -2.48047,-3.164063 -2.48047,-8.320313 0,-5.15625 2.48047,-8.320312 2.5,-3.164063 6.46484,-3.164063 2.42188,0 4.14063,0.957031 1.73828,0.9375 2.87109,2.890625 z m -12.24609,7.636719 q 0,3.964844 1.62109,6.230469 1.64063,2.246094 4.49219,2.246094 2.85156,0 4.49219,-2.246094 1.64062,-2.265625 1.64062,-6.230469 0,-3.964844 -1.64062,-6.210937 -1.64063,-2.265625 -4.49219,-2.265625 -2.85156,0 -4.49219,2.265625 -1.62109,2.246093 -1.62109,6.210937 z"
         style=""
         id="path375" />
      <path
         d="m 695.68848,82.070312 h 6.44531 V 59.824219 l -7.01172,1.40625 v -3.59375 l 6.97266,-1.40625 h 3.94531 v 25.839843 h 6.44531 v 3.320313 h -16.79687 z"
         style=""
         id="path377" />
      <path
         d="m 66.606445,114.16016 v 3.39843 q -1.523437,-0.78125 -3.164062,-1.17187 -1.640625,-0.39063 -3.398438,-0.39063 -2.675781,0 -4.023437,0.82032 -1.328125,0.82031 -1.328125,2.46093 0,1.25 0.957031,1.97266 0.957031,0.70313 3.847656,1.34766 l 1.230469,0.27343 q 3.828125,0.82032 5.429688,2.32422 1.621093,1.48438 1.621093,4.16016 0,3.04687 -2.421875,4.82422 -2.402343,1.77734 -6.621093,1.77734 -1.757813,0 -3.671875,-0.35156 -1.894532,-0.33203 -4.003907,-1.01563 v -3.71093 q 1.992188,1.03515 3.925782,1.5625 1.933593,0.50781 3.828125,0.50781 2.539062,0 3.90625,-0.85938 1.367187,-0.8789 1.367187,-2.46093 0,-1.46485 -0.996094,-2.2461 -0.976562,-0.78125 -4.316406,-1.5039 l -1.25,-0.29297 q -3.339844,-0.70313 -4.824219,-2.14844 -1.484375,-1.46484 -1.484375,-4.00391 0,-3.08593 2.1875,-4.76562 2.1875,-1.67969 6.210938,-1.67969 1.992187,0 3.75,0.29297 1.757812,0.29297 3.242187,0.87891 z"
         style=""
         id="path379" />
      <path
         d="m 77.075195,107.30469 v 6.21094 h 7.402344 v 2.79296 h -7.402344 v 11.875 q 0,2.67578 0.722657,3.4375 0.742187,0.76172 2.988281,0.76172 h 3.691406 v 3.00781 h -3.691406 q -4.160156,0 -5.742188,-1.54296 -1.582031,-1.5625 -1.582031,-5.66407 v -11.875 h -2.636719 v -2.79296 h 2.636719 v -6.21094 z"
         style=""
         id="path381" />
      <path
         d="m 97.700195,116.03516 q -2.890625,0 -4.570312,2.26562 -1.679688,2.2461 -1.679688,6.17188 0,3.92578 1.660157,6.1914 1.679687,2.2461 4.589843,2.2461 2.871095,0 4.550785,-2.26563 1.67968,-2.26562 1.67968,-6.17187 0,-3.88672 -1.67968,-6.15235 -1.67969,-2.28515 -4.550785,-2.28515 z m 0,-3.04688 q 4.687505,0 7.363285,3.04688 2.67578,3.04687 2.67578,8.4375 0,5.37109 -2.67578,8.4375 -2.67578,3.04687 -7.363285,3.04687 -4.707031,0 -7.382812,-3.04687 -2.65625,-3.06641 -2.65625,-8.4375 0,-5.39063 2.65625,-8.4375 2.675781,-3.04688 7.382812,-3.04688 z"
         style=""
         id="path383" />
      <path
         d="m 131.86035,122.1875 v 13.20312 h -3.59375 v -13.08593 q 0,-3.10547 -1.21094,-4.64844 -1.21093,-1.54297 -3.63281,-1.54297 -2.91015,0 -4.58984,1.85547 -1.67969,1.85547 -1.67969,5.05859 v 12.36328 h -3.61328 v -21.87499 h 3.61328 v 3.39843 q 1.28906,-1.97265 3.02734,-2.94922 1.75782,-0.97656 4.04297,-0.97656 3.76953,0 5.70313,2.34375 1.93359,2.32422 1.93359,6.85547 z"
         style=""
         id="path385" />
      <path
         d="m 157.77832,123.55469 v 1.75781 h -16.52344 q 0.23438,3.71094 2.22657,5.66406 2.01171,1.9336 5.58593,1.9336 2.07032,0 4.00391,-0.50782 1.95312,-0.50781 3.86719,-1.52343 v 3.39843 q -1.9336,0.82032 -3.96485,1.25 -2.03125,0.42969 -4.12109,0.42969 -5.23438,0 -8.30078,-3.04687 -3.04688,-3.04688 -3.04688,-8.24219 0,-5.37109 2.89063,-8.51563 2.91015,-3.16406 7.83203,-3.16406 4.41406,0 6.97266,2.85156 2.57812,2.83204 2.57812,7.71485 z M 154.18457,122.5 q -0.0391,-2.94922 -1.66016,-4.70703 -1.60156,-1.75781 -4.25781,-1.75781 -3.00781,0 -4.82422,1.69922 -1.79687,1.69921 -2.07031,4.78515 z"
         style=""
         id="path387" />
      <path
         d="m 163.11035,105.03906 h 3.125 q 2.92969,4.60938 4.375,9.02344 1.46485,4.41406 1.46485,8.76953 0,4.375 -1.46485,8.80859 -1.44531,4.4336 -4.375,9.02344 h -3.125 q 2.59766,-4.47265 3.86719,-8.88672 1.28906,-4.43359 1.28906,-8.94531 0,-4.51172 -1.28906,-8.90625 -1.26953,-4.39453 -3.86719,-8.88672 z"
         style=""
         id="path389" />
      <path
         d="m 201.97754,124.39453 q -4.35547,0 -6.03516,0.9961 -1.67968,0.99609 -1.67968,3.39843 0,1.91406 1.25,3.04688 1.26953,1.11328 3.4375,1.11328 2.98828,0 4.78515,-2.10938 1.81641,-2.1289 1.81641,-5.64453 v -0.80078 z m 7.16797,-1.48437 v 12.48046 h -3.59375 v -3.32031 q -1.23047,1.99219 -3.06641,2.94922 -1.83594,0.9375 -4.49219,0.9375 -3.35937,0 -5.35156,-1.875 -1.97265,-1.89453 -1.97265,-5.05859 0,-3.69141 2.46093,-5.56641 2.48047,-1.875 7.38282,-1.875 h 5.03906 v -0.35156 q 0,-2.48047 -1.64063,-3.82813 -1.62109,-1.36718 -4.57031,-1.36718 -1.875,0 -3.65234,0.44922 -1.77735,0.44921 -3.41797,1.34765 v -3.32031 q 1.97265,-0.76172 3.82812,-1.13281 1.85547,-0.39063 3.61328,-0.39063 4.7461,0 7.08985,2.46094 2.34375,2.46094 2.34375,7.46094 z"
         style=""
         id="path391" />
      <path
         d="m 213.98926,113.51563 h 3.80859 l 6.83594,18.35937 6.83594,-18.35937 h 3.80859 l -8.20312,21.87499 h -4.88282 z"
         style=""
         id="path393" />
      <path
         d="m 250.18066,124.39453 q -4.35546,0 -6.03515,0.9961 -1.67969,0.99609 -1.67969,3.39843 0,1.91406 1.25,3.04688 1.26953,1.11328 3.4375,1.11328 2.98828,0 4.78516,-2.10938 1.8164,-2.1289 1.8164,-5.64453 v -0.80078 z m 7.16797,-1.48437 v 12.48046 h -3.59375 v -3.32031 q -1.23047,1.99219 -3.0664,2.94922 -1.83594,0.9375 -4.49219,0.9375 -3.35938,0 -5.35156,-1.875 -1.97266,-1.89453 -1.97266,-5.05859 0,-3.69141 2.46094,-5.56641 2.48047,-1.875 7.38281,-1.875 h 5.03906 v -0.35156 q 0,-2.48047 -1.64062,-3.82813 -1.6211,-1.36718 -4.57031,-1.36718 -1.875,0 -3.65235,0.44922 -1.77734,0.44921 -3.41797,1.34765 v -3.32031 q 1.97266,-0.76172 3.82813,-1.13281 1.85547,-0.39063 3.61328,-0.39063 4.74609,0 7.08984,2.46094 2.34375,2.46094 2.34375,7.46094 z"
         style=""
         id="path395" />
      <path
         d="m 264.77051,113.51563 h 3.59375 v 21.87499 h -3.59375 z m 0,-8.51563 h 3.59375 v 4.55078 h -3.59375 z"
         style=""
         id="path397" />
      <path
         d="m 275.86426,105 h 3.59375 v 30.39062 h -3.59375 z"
         style=""
         id="path399" />
      <path
         d="m 296.89941,124.39453 q -4.35546,0 -6.03515,0.9961 -1.67969,0.99609 -1.67969,3.39843 0,1.91406 1.25,3.04688 1.26953,1.11328 3.4375,1.11328 2.98828,0 4.78516,-2.10938 1.8164,-2.1289 1.8164,-5.64453 v -0.80078 z m 7.16797,-1.48437 v 12.48046 h -3.59375 v -3.32031 q -1.23047,1.99219 -3.0664,2.94922 -1.83594,0.9375 -4.49219,0.9375 -3.35938,0 -5.35156,-1.875 -1.97266,-1.89453 -1.97266,-5.05859 0,-3.69141 2.46094,-5.56641 2.48047,-1.875 7.38281,-1.875 h 5.03906 v -0.35156 q 0,-2.48047 -1.64062,-3.82813 -1.6211,-1.36718 -4.57031,-1.36718 -1.875,0 -3.65235,0.44922 -1.77734,0.44921 -3.41797,1.34765 v -3.32031 q 1.97266,-0.76172 3.82813,-1.13281 1.85547,-0.39063 3.61328,-0.39063 4.74609,0 7.08984,2.46094 2.34375,2.46094 2.34375,7.46094 z"
         style=""
         id="path401" />
      <path
         d="m 327.19238,124.47266 q 0,-3.96485 -1.64062,-6.21094 -1.6211,-2.26563 -4.47266,-2.26563 -2.85156,0 -4.49219,2.26563 -1.62109,2.24609 -1.62109,6.21094 0,3.96484 1.62109,6.23046 1.64063,2.2461 4.49219,2.2461 2.85156,0 4.47266,-2.2461 1.64062,-2.26562 1.64062,-6.23046 z m -12.22656,-7.63672 q 1.13281,-1.95313 2.85156,-2.89063 1.73828,-0.95703 4.14063,-0.95703 3.98437,0 6.46484,3.16406 2.5,3.16407 2.5,8.32032 0,5.15625 -2.5,8.32031 -2.48047,3.16406 -6.46484,3.16406 -2.40235,0 -4.14063,-0.9375 -1.71875,-0.95703 -2.85156,-2.91016 v 3.28125 h -3.61328 V 105 h 3.61328 z"
         style=""
         id="path403" />
      <path
         d="m 336.87988,105 h 3.59375 v 30.39062 h -3.59375 z"
         style=""
         id="path405" />
      <path
         d="m 366.68457,123.55469 v 1.75781 h -16.52344 q 0.23438,3.71094 2.22657,5.66406 2.01171,1.9336 5.58593,1.9336 2.07032,0 4.00391,-0.50782 1.95312,-0.50781 3.86719,-1.52343 v 3.39843 q -1.9336,0.82032 -3.96485,1.25 -2.03125,0.42969 -4.12109,0.42969 -5.23438,0 -8.30078,-3.04687 -3.04688,-3.04688 -3.04688,-8.24219 0,-5.37109 2.89063,-8.51563 2.91015,-3.16406 7.83203,-3.16406 4.41406,0 6.97266,2.85156 2.57812,2.83204 2.57812,7.71485 z M 363.09082,122.5 q -0.0391,-2.94922 -1.66016,-4.70703 -1.60156,-1.75781 -4.25781,-1.75781 -3.00781,0 -4.82422,1.69922 -1.79687,1.69921 -2.07031,4.78515 z"
         style=""
         id="path407" />
      <path
         d="m 396.3916,105 v 2.98828 h -3.4375 q -1.93359,0 -2.69531,0.78125 -0.74219,0.78125 -0.74219,2.8125 v 1.9336 h 5.91797 v 2.79296 h -5.91797 v 19.08203 h -3.61328 v -19.08203 h -3.4375 v -2.79296 h 3.4375 v -1.52344 q 0,-3.65235 1.69922,-5.3125 Q 389.30176,105 392.99316,105 Z"
         style=""
         id="path409" />
      <path
         d="m 407.85645,116.03516 q -2.89063,0 -4.57032,2.26562 -1.67968,2.2461 -1.67968,6.17188 0,3.92578 1.66015,6.1914 1.67969,2.2461 4.58985,2.2461 2.87109,0 4.55078,-2.26563 1.67968,-2.26562 1.67968,-6.17187 0,-3.88672 -1.67968,-6.15235 -1.67969,-2.28515 -4.55078,-2.28515 z m 0,-3.04688 q 4.6875,0 7.36328,3.04688 2.67578,3.04687 2.67578,8.4375 0,5.37109 -2.67578,8.4375 -2.67578,3.04687 -7.36328,3.04687 -4.70704,0 -7.38282,-3.04687 -2.65625,-3.06641 -2.65625,-8.4375 0,-5.39063 2.65625,-8.4375 2.67578,-3.04688 7.38282,-3.04688 z"
         style=""
         id="path411" />
      <path
         d="m 436.50879,116.875 q -0.60547,-0.35156 -1.32813,-0.50781 -0.70312,-0.17578 -1.5625,-0.17578 -3.04687,0 -4.6875,1.99218 -1.62109,1.97266 -1.62109,5.6836 v 11.52343 h -3.61328 v -21.87499 h 3.61328 v 3.39843 q 1.13281,-1.99218 2.94922,-2.94922 1.81641,-0.97656 4.41406,-0.97656 0.3711,0 0.82031,0.0586 0.44922,0.0391 0.9961,0.13671 z"
         style=""
         id="path413" />
      <path
         d="m 468.79395,114.35547 v 3.35937 q -1.52344,-0.83984 -3.06641,-1.25 -1.52344,-0.42968 -3.08594,-0.42968 -3.49609,0 -5.42969,2.22656 -1.93359,2.20703 -1.93359,6.21094 0,4.0039 1.93359,6.23046 1.9336,2.20704 5.42969,2.20704 1.5625,0 3.08594,-0.41016 1.54297,-0.42969 3.06641,-1.26953 v 3.32031 q -1.50391,0.70313 -3.125,1.05469 -1.60157,0.35156 -3.41797,0.35156 -4.94141,0 -7.85157,-3.10547 -2.91015,-3.10547 -2.91015,-8.3789 0,-5.35157 2.92969,-8.41797 2.94921,-3.06641 8.0664,-3.06641 1.66016,0 3.24219,0.35156 1.58203,0.33204 3.06641,1.01563 z"
         style=""
         id="path415" />
      <path
         d="m 487.75879,116.875 q -0.60547,-0.35156 -1.32813,-0.50781 -0.70312,-0.17578 -1.5625,-0.17578 -3.04687,0 -4.6875,1.99218 -1.62109,1.97266 -1.62109,5.6836 v 11.52343 h -3.61328 v -21.87499 h 3.61328 v 3.39843 q 1.13281,-1.99218 2.94922,-2.94922 1.81641,-0.97656 4.41406,-0.97656 0.3711,0 0.82031,0.0586 0.44922,0.0391 0.9961,0.13671 z"
         style=""
         id="path417" />
      <path
         d="m 501.50879,124.39453 q -4.35547,0 -6.03516,0.9961 -1.67968,0.99609 -1.67968,3.39843 0,1.91406 1.25,3.04688 1.26953,1.11328 3.4375,1.11328 2.98828,0 4.78515,-2.10938 1.81641,-2.1289 1.81641,-5.64453 v -0.80078 z m 7.16797,-1.48437 v 12.48046 h -3.59375 v -3.32031 q -1.23047,1.99219 -3.06641,2.94922 -1.83594,0.9375 -4.49219,0.9375 -3.35937,0 -5.35156,-1.875 -1.97265,-1.89453 -1.97265,-5.05859 0,-3.69141 2.46093,-5.56641 2.48047,-1.875 7.38282,-1.875 h 5.03906 v -0.35156 q 0,-2.48047 -1.64063,-3.82813 -1.62109,-1.36718 -4.57031,-1.36718 -1.875,0 -3.65234,0.44922 -1.77735,0.44921 -3.41797,1.34765 v -3.32031 q 1.97265,-0.76172 3.82812,-1.13281 1.85547,-0.39063 3.61328,-0.39063 4.7461,0 7.08985,2.46094 2.34375,2.46094 2.34375,7.46094 z"
         style=""
         id="path419" />
      <path
         d="m 527.17285,105 v 2.98828 h -3.4375 q -1.93359,0 -2.69531,0.78125 -0.74219,0.78125 -0.74219,2.8125 v 1.9336 h 5.91797 v 2.79296 h -5.91797 v 19.08203 h -3.61328 v -19.08203 h -3.4375 v -2.79296 h 3.4375 v -1.52344 q 0,-3.65235 1.69922,-5.3125 Q 520.08301,105 523.77441,105 Z"
         style=""
         id="path421" />
      <path
         d="m 533.0127,107.30469 v 6.21094 h 7.40234 v 2.79296 h -7.40234 v 11.875 q 0,2.67578 0.72265,3.4375 0.74219,0.76172 2.98828,0.76172 h 3.69141 v 3.00781 h -3.69141 q -4.16015,0 -5.74218,-1.54296 -1.58204,-1.5625 -1.58204,-5.66407 v -11.875 h -2.63671 v -2.79296 h 2.63671 v -6.21094 z"
         style=""
         id="path423" />
      <path
         d="m 545.16113,113.51563 h 3.59375 v 21.87499 h -3.59375 z m 0,-8.51563 h 3.59375 v 4.55078 h -3.59375 z"
         style=""
         id="path425" />
      <path
         d="m 574.43848,122.1875 v 13.20312 h -3.59375 v -13.08593 q 0,-3.10547 -1.21094,-4.64844 -1.21094,-1.54297 -3.63281,-1.54297 -2.91016,0 -4.58985,1.85547 -1.67968,1.85547 -1.67968,5.05859 v 12.36328 h -3.61329 v -21.87499 h 3.61329 v 3.39843 q 1.28906,-1.97265 3.02734,-2.94922 1.75781,-0.97656 4.04297,-0.97656 3.76953,0 5.70312,2.34375 1.9336,2.32422 1.9336,6.85547 z"
         style=""
         id="path427" />
      <path
         d="m 596.04004,124.19922 q 0,-3.90625 -1.62109,-6.05469 -1.60157,-2.14844 -4.51172,-2.14844 -2.89063,0 -4.51172,2.14844 -1.60156,2.14844 -1.60156,6.05469 0,3.88672 1.60156,6.03515 1.62109,2.14844 4.51172,2.14844 2.91015,0 4.51172,-2.14844 1.62109,-2.14843 1.62109,-6.03515 z m 3.59375,8.47656 q 0,5.58594 -2.48047,8.30078 -2.48047,2.73438 -7.59766,2.73438 -1.89453,0 -3.57421,-0.29297 -1.67969,-0.27344 -3.26172,-0.85938 v -3.49609 q 1.58203,0.85937 3.125,1.26953 1.54297,0.41016 3.14453,0.41016 3.53515,0 5.29297,-1.85547 1.75781,-1.83594 1.75781,-5.56641 v -1.77734 q -1.11328,1.93359 -2.85156,2.89062 -1.73828,0.95703 -4.16016,0.95703 -4.02344,0 -6.48437,-3.0664 -2.46094,-3.06641 -2.46094,-8.125 0,-5.07813 2.46094,-8.14453 2.46093,-3.06641 6.48437,-3.06641 2.42188,0 4.16016,0.95703 1.73828,0.95703 2.85156,2.89063 v -3.32031 h 3.59375 z"
         style=""
         id="path429" />
      <path
         d="m 607.9541,130.42969 h 4.1211 v 4.96093 h -4.1211 z m 0,-15.72266 h 4.1211 v 4.96094 h -4.1211 z"
         style=""
         id="path431" />
      <path
         d="m 637.3877,109.47266 v 10.95703 h 4.96093 q 2.75391,0 4.25782,-1.42578 1.5039,-1.42578 1.5039,-4.0625 0,-2.61719 -1.5039,-4.04297 -1.50391,-1.42578 -4.25782,-1.42578 z m -3.94532,-3.24219 h 8.90625 q 4.90235,0 7.40235,2.22656 2.51953,2.20703 2.51953,6.48438 0,4.3164 -2.51953,6.52343 -2.5,2.20704 -7.40235,2.20704 h -4.96093 v 11.71874 h -3.94532 z"
         style=""
         id="path433" />
      <path
         d="m 656.56738,113.51563 h 3.59375 v 21.87499 h -3.59375 z m 0,-8.51563 h 3.59375 v 4.55078 h -3.59375 z"
         style=""
         id="path435" />
      <path
         d="m 683.40332,114.35547 v 3.35937 q -1.52344,-0.83984 -3.06641,-1.25 -1.52343,-0.42968 -3.08593,-0.42968 -3.4961,0 -5.42969,2.22656 -1.93359,2.20703 -1.93359,6.21094 0,4.0039 1.93359,6.23046 1.93359,2.20704 5.42969,2.20704 1.5625,0 3.08593,-0.41016 1.54297,-0.42969 3.06641,-1.26953 v 3.32031 q -1.50391,0.70313 -3.125,1.05469 -1.60156,0.35156 -3.41797,0.35156 -4.9414,0 -7.85156,-3.10547 -2.91016,-3.10547 -2.91016,-8.3789 0,-5.35157 2.92969,-8.41797 2.94922,-3.06641 8.06641,-3.06641 1.66015,0 3.24218,0.35156 1.58204,0.33204 3.06641,1.01563 z"
         style=""
         id="path437" />
      <path
         d="m 689.55566,105 h 3.61329 v 17.94922 l 10.72265,-9.43359 h 4.58985 l -11.60157,10.23437 12.08985,11.64062 h -4.6875 l -11.11328,-10.68359 v 10.68359 h -3.61329 z"
         style=""
         id="path439" />
      <path
         d="m 56.606445,157.30469 v 6.21093 h 7.402344 v 2.79297 h -7.402344 v 11.875 q 0,2.67578 0.722657,3.4375 0.742187,0.76172 2.988281,0.76172 h 3.691406 v 3.00781 h -3.691406 q -4.160156,0 -5.742188,-1.54296 -1.582031,-1.5625 -1.582031,-5.66407 v -11.875 h -2.636719 v -2.79297 h 2.636719 v -6.21093 z"
         style=""
         id="path441" />
      <path
         d="m 86.938477,172.1875 v 13.20312 h -3.59375 v -13.08593 q 0,-3.10547 -1.210938,-4.64844 -1.210937,-1.54297 -3.632812,-1.54297 -2.910157,0 -4.589844,1.85547 -1.679688,1.85547 -1.679688,5.05859 v 12.36328 H 68.618164 V 155 h 3.613281 v 11.91406 q 1.289063,-1.97265 3.027344,-2.94922 1.757813,-0.97656 4.042969,-0.97656 3.769531,0 5.703125,2.34375 1.933594,2.32422 1.933594,6.85547 z"
         style=""
         id="path443" />
      <path
         d="m 112.85645,173.55469 v 1.75781 H 96.333008 q 0.234375,3.71094 2.226562,5.66406 2.01172,1.9336 5.58594,1.9336 2.07031,0 4.0039,-0.50782 1.95313,-0.50781 3.86719,-1.52343 v 3.39843 q -1.93359,0.82032 -3.96484,1.25 -2.03125,0.42969 -4.1211,0.42969 -5.234371,0 -8.300777,-3.04687 -3.046875,-3.04688 -3.046875,-8.24219 0,-5.3711 2.890625,-8.51563 2.910156,-3.16406 7.832027,-3.16406 4.41407,0 6.97266,2.85156 2.57813,2.83203 2.57813,7.71485 z M 109.2627,172.5 q -0.0391,-2.94922 -1.66016,-4.70703 -1.60156,-1.75781 -4.25781,-1.75781 -3.00782,0 -4.824222,1.69921 -1.796875,1.69922 -2.070313,4.78516 z"
         style=""
         id="path445" />
      <path
         d="m 135.78613,167.71484 q 1.34766,-2.42187 3.22266,-3.57422 1.875,-1.15234 4.41406,-1.15234 3.41797,0 5.27344,2.40234 1.85547,2.38282 1.85547,6.79688 v 13.20312 h -3.61328 v -13.08593 q 0,-3.14453 -1.11328,-4.66797 -1.11329,-1.52344 -3.39844,-1.52344 -2.79297,0 -4.41406,1.85547 -1.6211,1.85547 -1.6211,5.05859 v 12.36328 h -3.61328 v -13.08593 q 0,-3.16407 -1.11328,-4.66797 -1.11328,-1.52344 -3.4375,-1.52344 -2.75391,0 -4.375,1.875 -1.62109,1.85547 -1.62109,5.03906 v 12.36328 h -3.61329 v -21.875 h 3.61329 v 3.39844 q 1.23046,-2.01172 2.94921,-2.96875 1.71875,-0.95703 4.08204,-0.95703 2.38281,0 4.04296,1.21094 1.67969,1.21094 2.48047,3.51562 z"
         style=""
         id="path447" />
      <path
         d="m 170.10254,176.75781 v -13.24219 h 3.59375 v 13.10547 q 0,3.10547 1.21094,4.66797 1.21093,1.54297 3.63281,1.54297 2.91016,0 4.58984,-1.85547 1.69922,-1.85547 1.69922,-5.05859 v -12.40235 h 3.59375 v 21.875 h -3.59375 v -3.35937 q -1.30859,1.99219 -3.04687,2.96875 -1.71875,0.95703 -4.00391,0.95703 -3.76953,0 -5.72266,-2.34375 -1.95312,-2.34375 -1.95312,-6.85547 z m 9.04297,-13.76953 z"
         style=""
         id="path449" />
      <path
         d="m 199.34082,182.10937 v 11.60157 h -3.61328 v -30.19532 h 3.61328 v 3.32032 q 1.13281,-1.95313 2.85156,-2.89063 1.73828,-0.95703 4.14063,-0.95703 3.98437,0 6.46484,3.16406 2.5,3.16407 2.5,8.32032 0,5.15625 -2.5,8.32031 -2.48047,3.16406 -6.46484,3.16406 -2.40235,0 -4.14063,-0.9375 -1.71875,-0.95703 -2.85156,-2.91016 z m 12.22656,-7.63671 q 0,-3.96485 -1.64062,-6.21094 -1.6211,-2.26563 -4.47266,-2.26563 -2.85156,0 -4.49219,2.26563 -1.62109,2.24609 -1.62109,6.21094 0,3.96484 1.62109,6.23046 1.64063,2.2461 4.49219,2.2461 2.85156,0 4.47266,-2.2461 1.64062,-2.26562 1.64062,-6.23046 z"
         style=""
         id="path451" />
      <path
         d="m 243.93066,174.39453 q -4.35546,0 -6.03515,0.99609 -1.67969,0.9961 -1.67969,3.39844 0,1.91406 1.25,3.04688 1.26953,1.11328 3.4375,1.11328 2.98828,0 4.78516,-2.10938 1.8164,-2.1289 1.8164,-5.64453 v -0.80078 z m 7.16797,-1.48437 v 12.48046 h -3.59375 v -3.32031 q -1.23047,1.99219 -3.0664,2.94922 -1.83594,0.9375 -4.49219,0.9375 -3.35938,0 -5.35156,-1.875 -1.97266,-1.89453 -1.97266,-5.05859 0,-3.69141 2.46094,-5.56641 2.48047,-1.875 7.38281,-1.875 h 5.03906 v -0.35156 q 0,-2.48047 -1.64062,-3.82813 -1.6211,-1.36718 -4.57031,-1.36718 -1.875,0 -3.65235,0.44921 -1.77734,0.44922 -3.41797,1.34766 v -3.32031 q 1.97266,-0.76172 3.82813,-1.13281 1.85547,-0.39063 3.61328,-0.39063 4.74609,0 7.08984,2.46094 2.34375,2.46094 2.34375,7.46094 z"
         style=""
         id="path453" />
      <path
         d="m 276.7041,172.1875 v 13.20312 h -3.59375 v -13.08593 q 0,-3.10547 -1.21094,-4.64844 -1.21093,-1.54297 -3.63281,-1.54297 -2.91015,0 -4.58984,1.85547 -1.67969,1.85547 -1.67969,5.05859 v 12.36328 h -3.61328 v -21.875 h 3.61328 v 3.39844 q 1.28906,-1.97265 3.02734,-2.94922 1.75782,-0.97656 4.04297,-0.97656 3.76953,0 5.70313,2.34375 1.93359,2.32422 1.93359,6.85547 z"
         style=""
         id="path455" />
      <path
         d="M 298.30566,166.83594 V 155 h 3.59375 v 30.39062 h -3.59375 v -3.28125 q -1.13281,1.95313 -2.87109,2.91016 -1.71875,0.9375 -4.14062,0.9375 -3.96485,0 -6.46485,-3.16406 -2.48047,-3.16406 -2.48047,-8.32031 0,-5.15625 2.48047,-8.32032 2.5,-3.16406 6.46485,-3.16406 2.42187,0 4.14062,0.95703 1.73828,0.9375 2.87109,2.89063 z m -12.24609,7.63672 q 0,3.96484 1.62109,6.23046 1.64063,2.2461 4.49219,2.2461 2.85156,0 4.49219,-2.2461 1.64062,-2.26562 1.64062,-6.23046 0,-3.96485 -1.64062,-6.21094 -1.64063,-2.26563 -4.49219,-2.26563 -2.85156,0 -4.49219,2.26563 -1.62109,2.24609 -1.62109,6.21094 z"
         style=""
         id="path457" />
      <path
         d="M 336.43066,166.83594 V 155 h 3.59375 v 30.39062 h -3.59375 v -3.28125 q -1.13281,1.95313 -2.87109,2.91016 -1.71875,0.9375 -4.14062,0.9375 -3.96485,0 -6.46485,-3.16406 -2.48047,-3.16406 -2.48047,-8.32031 0,-5.15625 2.48047,-8.32032 2.5,-3.16406 6.46485,-3.16406 2.42187,0 4.14062,0.95703 1.73828,0.9375 2.87109,2.89063 z m -12.24609,7.63672 q 0,3.96484 1.62109,6.23046 1.64063,2.2461 4.49219,2.2461 2.85156,0 4.49219,-2.2461 1.64062,-2.26562 1.64062,-6.23046 0,-3.96485 -1.64062,-6.21094 -1.64063,-2.26563 -4.49219,-2.26563 -2.85156,0 -4.49219,2.26563 -1.62109,2.24609 -1.62109,6.21094 z"
         style=""
         id="path459" />
      <path
         d="m 360.10254,166.875 q -0.60547,-0.35156 -1.32813,-0.50781 -0.70312,-0.17578 -1.5625,-0.17578 -3.04687,0 -4.6875,1.99218 -1.62109,1.97266 -1.62109,5.6836 v 11.52343 h -3.61328 v -21.875 h 3.61328 v 3.39844 q 1.13281,-1.99219 2.94922,-2.94922 1.81641,-0.97656 4.41406,-0.97656 0.3711,0 0.82031,0.0586 0.44922,0.0391 0.9961,0.13672 z"
         style=""
         id="path461" />
      <path
         d="m 371.52832,166.03516 q -2.89062,0 -4.57031,2.26562 -1.67969,2.24609 -1.67969,6.17188 0,3.92578 1.66016,6.1914 1.67968,2.2461 4.58984,2.2461 2.87109,0 4.55078,-2.26563 1.67969,-2.26562 1.67969,-6.17187 0,-3.88672 -1.67969,-6.15235 -1.67969,-2.28515 -4.55078,-2.28515 z m 0,-3.04688 q 4.6875,0 7.36328,3.04688 2.67578,3.04687 2.67578,8.4375 0,5.37109 -2.67578,8.4375 -2.67578,3.04687 -7.36328,3.04687 -4.70703,0 -7.38281,-3.04687 -2.65625,-3.06641 -2.65625,-8.4375 0,-5.39063 2.65625,-8.4375 2.67578,-3.04688 7.38281,-3.04688 z"
         style=""
         id="path463" />
      <path
         d="m 390.98145,182.10937 v 11.60157 h -3.61329 v -30.19532 h 3.61329 v 3.32032 q 1.13281,-1.95313 2.85156,-2.89063 1.73828,-0.95703 4.14062,-0.95703 3.98438,0 6.46485,3.16406 2.5,3.16407 2.5,8.32032 0,5.15625 -2.5,8.32031 -2.48047,3.16406 -6.46485,3.16406 -2.40234,0 -4.14062,-0.9375 -1.71875,-0.95703 -2.85156,-2.91016 z m 12.22656,-7.63671 q 0,-3.96485 -1.64063,-6.21094 -1.62109,-2.26563 -4.47265,-2.26563 -2.85157,0 -4.49219,2.26563 -1.62109,2.24609 -1.62109,6.21094 0,3.96484 1.62109,6.23046 1.64062,2.2461 4.49219,2.2461 2.85156,0 4.47265,-2.2461 1.64063,-2.26562 1.64063,-6.23046 z"
         style=""
         id="path465" />
      <path
         d="m 429.18457,157.30469 v 6.21093 h 7.40234 v 2.79297 h -7.40234 v 11.875 q 0,2.67578 0.72266,3.4375 0.74218,0.76172 2.98828,0.76172 h 3.6914 v 3.00781 h -3.6914 q -4.16016,0 -5.74219,-1.54296 -1.58203,-1.5625 -1.58203,-5.66407 v -11.875 h -2.63672 v -2.79297 h 2.63672 v -6.21093 z"
         style=""
         id="path467" />
      <path
         d="m 459.5166,172.1875 v 13.20312 h -3.59375 v -13.08593 q 0,-3.10547 -1.21094,-4.64844 -1.21093,-1.54297 -3.63281,-1.54297 -2.91015,0 -4.58984,1.85547 -1.67969,1.85547 -1.67969,5.05859 v 12.36328 h -3.61328 V 155 h 3.61328 v 11.91406 q 1.28906,-1.97265 3.02734,-2.94922 1.75782,-0.97656 4.04297,-0.97656 3.76953,0 5.70313,2.34375 1.93359,2.32422 1.93359,6.85547 z"
         style=""
         id="path469" />
      <path
         d="m 485.43457,173.55469 v 1.75781 h -16.52344 q 0.23438,3.71094 2.22657,5.66406 2.01171,1.9336 5.58593,1.9336 2.07032,0 4.00391,-0.50782 1.95312,-0.50781 3.86719,-1.52343 v 3.39843 q -1.9336,0.82032 -3.96485,1.25 -2.03125,0.42969 -4.12109,0.42969 -5.23438,0 -8.30078,-3.04687 -3.04688,-3.04688 -3.04688,-8.24219 0,-5.3711 2.89063,-8.51563 2.91015,-3.16406 7.83203,-3.16406 4.41406,0 6.97266,2.85156 2.57812,2.83203 2.57812,7.71485 z M 481.84082,172.5 q -0.0391,-2.94922 -1.66016,-4.70703 -1.60156,-1.75781 -4.25781,-1.75781 -3.00781,0 -4.82422,1.69921 -1.79687,1.69922 -2.07031,4.78516 z"
         style=""
         id="path471" />
      <path
         d="m 508.36426,167.71484 q 1.34765,-2.42187 3.22265,-3.57422 1.875,-1.15234 4.41407,-1.15234 3.41797,0 5.27343,2.40234 1.85547,2.38282 1.85547,6.79688 v 13.20312 h -3.61328 v -13.08593 q 0,-3.14453 -1.11328,-4.66797 -1.11328,-1.52344 -3.39844,-1.52344 -2.79297,0 -4.41406,1.85547 -1.62109,1.85547 -1.62109,5.05859 v 12.36328 h -3.61328 v -13.08593 q 0,-3.16407 -1.11329,-4.66797 -1.11328,-1.52344 -3.4375,-1.52344 -2.7539,0 -4.375,1.875 -1.62109,1.85547 -1.62109,5.03906 v 12.36328 h -3.61328 v -21.875 h 3.61328 v 3.39844 q 1.23047,-2.01172 2.94922,-2.96875 1.71875,-0.95703 4.08203,-0.95703 2.38281,0 4.04297,1.21094 1.67969,1.21094 2.48047,3.51562 z"
         style=""
         id="path473" />
      <path
         d="m 561.23535,172.1875 v 13.20312 h -3.59375 v -13.08593 q 0,-3.10547 -1.21094,-4.64844 -1.21093,-1.54297 -3.63281,-1.54297 -2.91015,0 -4.58984,1.85547 -1.67969,1.85547 -1.67969,5.05859 v 12.36328 h -3.61328 v -21.875 h 3.61328 v 3.39844 q 1.28906,-1.97265 3.02734,-2.94922 1.75782,-0.97656 4.04297,-0.97656 3.76953,0 5.70313,2.34375 1.93359,2.32422 1.93359,6.85547 z"
         style=""
         id="path475" />
      <path
         d="m 587.15332,173.55469 v 1.75781 h -16.52344 q 0.23438,3.71094 2.22657,5.66406 2.01171,1.9336 5.58593,1.9336 2.07032,0 4.00391,-0.50782 1.95312,-0.50781 3.86719,-1.52343 v 3.39843 q -1.9336,0.82032 -3.96485,1.25 -2.03125,0.42969 -4.12109,0.42969 -5.23438,0 -8.30078,-3.04687 -3.04688,-3.04688 -3.04688,-8.24219 0,-5.3711 2.89063,-8.51563 2.91015,-3.16406 7.83203,-3.16406 4.41406,0 6.97266,2.85156 2.57812,2.83203 2.57812,7.71485 z M 583.55957,172.5 q -0.0391,-2.94922 -1.66016,-4.70703 -1.60156,-1.75781 -4.25781,-1.75781 -3.00781,0 -4.82422,1.69921 -1.79687,1.69922 -2.07031,4.78516 z"
         style=""
         id="path477" />
      <path
         d="m 602.99316,174.39453 q -4.35546,0 -6.03515,0.99609 -1.67969,0.9961 -1.67969,3.39844 0,1.91406 1.25,3.04688 1.26953,1.11328 3.4375,1.11328 2.98828,0 4.78516,-2.10938 1.8164,-2.1289 1.8164,-5.64453 v -0.80078 z m 7.16797,-1.48437 v 12.48046 h -3.59375 v -3.32031 q -1.23047,1.99219 -3.0664,2.94922 -1.83594,0.9375 -4.49219,0.9375 -3.35938,0 -5.35156,-1.875 -1.97266,-1.89453 -1.97266,-5.05859 0,-3.69141 2.46094,-5.56641 2.48047,-1.875 7.38281,-1.875 h 5.03906 v -0.35156 q 0,-2.48047 -1.64062,-3.82813 -1.6211,-1.36718 -4.57031,-1.36718 -1.875,0 -3.65235,0.44921 -1.77734,0.44922 -3.41797,1.34766 v -3.32031 q 1.97266,-0.76172 3.82813,-1.13281 1.85547,-0.39063 3.61328,-0.39063 4.74609,0 7.08984,2.46094 2.34375,2.46094 2.34375,7.46094 z"
         style=""
         id="path479" />
      <path
         d="m 630.25879,166.875 q -0.60547,-0.35156 -1.32813,-0.50781 -0.70312,-0.17578 -1.5625,-0.17578 -3.04687,0 -4.6875,1.99218 -1.62109,1.97266 -1.62109,5.6836 v 11.52343 h -3.61328 v -21.875 h 3.61328 v 3.39844 q 1.13281,-1.99219 2.94922,-2.94922 1.81641,-0.97656 4.41406,-0.97656 0.3711,0 0.82031,0.0586 0.44922,0.0391 0.9961,0.13672 z"
         style=""
         id="path481" />
      <path
         d="m 650.35645,157.30469 v 6.21093 h 7.40234 v 2.79297 h -7.40234 v 11.875 q 0,2.67578 0.72265,3.4375 0.74219,0.76172 2.98828,0.76172 h 3.69141 v 3.00781 h -3.69141 q -4.16015,0 -5.74218,-1.54296 -1.58204,-1.5625 -1.58204,-5.66407 v -11.875 h -2.63671 v -2.79297 h 2.63671 v -6.21093 z"
         style=""
         id="path483" />
      <path
         d="m 680.68848,172.1875 v 13.20312 h -3.59375 v -13.08593 q 0,-3.10547 -1.21094,-4.64844 -1.21094,-1.54297 -3.63281,-1.54297 -2.91016,0 -4.58985,1.85547 -1.67968,1.85547 -1.67968,5.05859 v 12.36328 h -3.61329 V 155 h 3.61329 v 11.91406 q 1.28906,-1.97265 3.02734,-2.94922 1.75781,-0.97656 4.04297,-0.97656 3.76953,0 5.70312,2.34375 1.9336,2.32422 1.9336,6.85547 z"
         style=""
         id="path485" />
      <path
         d="m 706.60645,173.55469 v 1.75781 h -16.52344 q 0.23437,3.71094 2.22656,5.66406 2.01172,1.9336 5.58594,1.9336 2.07031,0 4.0039,-0.50782 1.95313,-0.50781 3.86719,-1.52343 v 3.39843 q -1.93359,0.82032 -3.96484,1.25 -2.03125,0.42969 -4.1211,0.42969 -5.23437,0 -8.30078,-3.04687 -3.04687,-3.04688 -3.04687,-8.24219 0,-5.3711 2.89062,-8.51563 2.91016,-3.16406 7.83203,-3.16406 4.41407,0 6.97266,2.85156 2.57813,2.83203 2.57813,7.71485 z M 703.0127,172.5 q -0.0391,-2.94922 -1.66016,-4.70703 -1.60156,-1.75781 -4.25781,-1.75781 -3.00782,0 -4.82422,1.69921 -1.79688,1.69922 -2.07031,4.78516 z"
         style=""
         id="path487" />
      <path
         d="m 305.88379,213.51562 v 21.875 h -3.61328 v -19.08203 h -9.86328 v 19.08203 h -3.61328 v -19.08203 h -3.4375 v -2.79297 h 3.4375 v -1.52343 q 0,-3.57422 1.67968,-5.27344 Q 292.17285,205 295.66895,205 h 3.61328 v 2.98828 h -3.4375 q -1.9336,0 -2.69532,0.78125 -0.74218,0.78125 -0.74218,2.8125 v 1.93359 z m -3.61328,-8.47656 h 3.61328 v 4.55078 h -3.61328 z"
         style=""
         id="path489" />
      <path
         d="m 326.11816,216.875 q -0.60546,-0.35156 -1.32812,-0.50781 -0.70313,-0.17578 -1.5625,-0.17578 -3.04688,0 -4.6875,1.99218 -1.62109,1.97266 -1.62109,5.6836 v 11.52343 h -3.61329 v -21.875 h 3.61329 v 3.39844 q 1.13281,-1.99219 2.94921,-2.94922 1.81641,-0.97656 4.41407,-0.97656 0.37109,0 0.82031,0.0586 0.44922,0.0391 0.99609,0.13672 z"
         style=""
         id="path491" />
      <path
         d="m 347.77832,223.55469 v 1.75781 h -16.52344 q 0.23438,3.71094 2.22657,5.66406 2.01171,1.9336 5.58593,1.9336 2.07032,0 4.00391,-0.50782 1.95312,-0.50781 3.86719,-1.52343 v 3.39843 q -1.9336,0.82032 -3.96485,1.25 -2.03125,0.42969 -4.12109,0.42969 -5.23438,0 -8.30078,-3.04687 -3.04688,-3.04688 -3.04688,-8.24219 0,-5.3711 2.89063,-8.51563 2.91015,-3.16406 7.83203,-3.16406 4.41406,0 6.97266,2.85156 2.57812,2.83203 2.57812,7.71485 z M 344.18457,222.5 q -0.0391,-2.94922 -1.66016,-4.70703 -1.60156,-1.75781 -4.25781,-1.75781 -3.00781,0 -4.82422,1.69921 -1.79687,1.69922 -2.07031,4.78516 z"
         style=""
         id="path493" />
      <path
         d="m 357.15332,232.10937 v 11.60157 h -3.61328 v -30.19532 h 3.61328 v 3.32032 q 1.13281,-1.95313 2.85156,-2.89063 1.73828,-0.95703 4.14063,-0.95703 3.98437,0 6.46484,3.16406 2.5,3.16407 2.5,8.32032 0,5.15625 -2.5,8.32031 -2.48047,3.16406 -6.46484,3.16406 -2.40235,0 -4.14063,-0.9375 -1.71875,-0.95703 -2.85156,-2.91016 z m 12.22656,-7.63671 q 0,-3.96485 -1.64062,-6.21094 -1.6211,-2.26563 -4.47266,-2.26563 -2.85156,0 -4.49219,2.26563 -1.62109,2.24609 -1.62109,6.21094 0,3.96484 1.62109,6.23046 1.64063,2.2461 4.49219,2.2461 2.85156,0 4.47266,-2.2461 1.64062,-2.26562 1.64062,-6.23046 z"
         style=""
         id="path495" />
      <path
         d="m 379.06738,205 h 3.59375 v 30.39062 h -3.59375 z"
         style=""
         id="path497" />
      <path
         d="m 400.10254,224.39453 q -4.35547,0 -6.03516,0.99609 -1.67968,0.9961 -1.67968,3.39844 0,1.91406 1.25,3.04688 1.26953,1.11328 3.4375,1.11328 2.98828,0 4.78515,-2.10938 1.81641,-2.1289 1.81641,-5.64453 v -0.80078 z m 7.16797,-1.48437 v 12.48046 h -3.59375 v -3.32031 q -1.23047,1.99219 -3.06641,2.94922 -1.83594,0.9375 -4.49219,0.9375 -3.35937,0 -5.35156,-1.875 -1.97265,-1.89453 -1.97265,-5.05859 0,-3.69141 2.46093,-5.56641 2.48047,-1.875 7.38282,-1.875 h 5.03906 v -0.35156 q 0,-2.48047 -1.64063,-3.82813 -1.62109,-1.36718 -4.57031,-1.36718 -1.875,0 -3.65234,0.44921 -1.77735,0.44922 -3.41797,1.34766 v -3.32031 q 1.97265,-0.76172 3.82812,-1.13281 1.85547,-0.39063 3.61328,-0.39063 4.7461,0 7.08985,2.46094 2.34375,2.46094 2.34375,7.46094 z"
         style=""
         id="path499" />
      <path
         d="m 430.43457,214.35547 v 3.35937 q -1.52344,-0.83984 -3.06641,-1.25 -1.52343,-0.42968 -3.08593,-0.42968 -3.4961,0 -5.42969,2.22656 -1.93359,2.20703 -1.93359,6.21094 0,4.0039 1.93359,6.23046 1.93359,2.20704 5.42969,2.20704 1.5625,0 3.08593,-0.41016 1.54297,-0.42969 3.06641,-1.26953 v 3.32031 q -1.50391,0.70313 -3.125,1.05469 -1.60156,0.35156 -3.41797,0.35156 -4.9414,0 -7.85156,-3.10547 -2.91016,-3.10547 -2.91016,-8.3789 0,-5.35157 2.92969,-8.41797 2.94922,-3.06641 8.06641,-3.06641 1.66015,0 3.24218,0.35156 1.58204,0.33203 3.06641,1.01563 z"
         style=""
         id="path501" />
      <path
         d="m 455.43457,223.55469 v 1.75781 h -16.52344 q 0.23438,3.71094 2.22657,5.66406 2.01171,1.9336 5.58593,1.9336 2.07032,0 4.00391,-0.50782 1.95312,-0.50781 3.86719,-1.52343 v 3.39843 q -1.9336,0.82032 -3.96485,1.25 -2.03125,0.42969 -4.12109,0.42969 -5.23438,0 -8.30078,-3.04687 -3.04688,-3.04688 -3.04688,-8.24219 0,-5.3711 2.89063,-8.51563 2.91015,-3.16406 7.83203,-3.16406 4.41406,0 6.97266,2.85156 2.57812,2.83203 2.57812,7.71485 z M 451.84082,222.5 q -0.0391,-2.94922 -1.66016,-4.70703 -1.60156,-1.75781 -4.25781,-1.75781 -3.00781,0 -4.82422,1.69921 -1.79687,1.69922 -2.07031,4.78516 z"
         style=""
         id="path503" />
      <path
         d="m 463.59863,230.42969 h 3.96485 v 4.96093 h -3.96485 z m 0,-24.19922 h 3.96485 v 12.79297 l -0.39063,6.97265 h -3.16406 l -0.41016,-6.97265 z"
         style=""
         id="path505" />
    </g>
  </g>
</svg>
