<?xml version="1.0" encoding="UTF-8" standalone="no"?>
<!-- Created with Inkscape (http://www.inkscape.org/) -->

<svg
   xmlns:dc="http://purl.org/dc/elements/1.1/"
   xmlns:cc="http://creativecommons.org/ns#"
   xmlns:rdf="http://www.w3.org/1999/02/22-rdf-syntax-ns#"
   xmlns:svg="http://www.w3.org/2000/svg"
   xmlns="http://www.w3.org/2000/svg"
   xmlns:sodipodi="http://sodipodi.sourceforge.net/DTD/sodipodi-0.dtd"
   xmlns:inkscape="http://www.inkscape.org/namespaces/inkscape"
   width="200mm"
   height="200mm"
   viewBox="0 0 200 200"
   version="1.1"
   id="svg8"
   inkscape:version="0.92.5 (2060ec1f9f, 2020-04-08)"
   sodipodi:docname="tutorial6.svg">
  <defs
     id="defs2" />
  <sodipodi:namedview
     id="base"
     pagecolor="#ffffff"
     bordercolor="#666666"
     borderopacity="1.0"
     inkscape:pageopacity="0.0"
     inkscape:pageshadow="2"
     inkscape:zoom="1.4142136"
     inkscape:cx="372.82251"
     inkscape:cy="633.32929"
     inkscape:document-units="mm"
     inkscape:current-layer="layer1"
     showgrid="false"
     inkscape:window-width="1853"
     inkscape:window-height="1057"
     inkscape:window-x="1979"
     inkscape:window-y="-8"
     inkscape:window-maximized="1" />
  <metadata
     id="metadata5">
    <rdf:RDF>
      <cc:Work
         rdf:about="">
        <dc:format>image/svg+xml</dc:format>
        <dc:type
           rdf:resource="http://purl.org/dc/dcmitype/StillImage" />
        <dc:title></dc:title>
      </cc:Work>
    </rdf:RDF>
  </metadata>
  <g
     inkscape:label="Ebene 1"
     inkscape:groupmode="layer"
     id="layer1"
     transform="translate(0,-97)"
     style="display:inline">
    <flowRoot
       xml:space="preserve"
       id="flowRoot2853"
       style="fill:black;fill-opacity:1;stroke:none;font-family:sans-serif;font-style:normal;font-weight:normal;font-size:40px;line-height:1.25;letter-spacing:0px;word-spacing:0px"><flowRegion
         id="flowRegion2855"><rect
           id="rect2857"
           width="755.19"
           height="217.78888"
           x="0.70710677"
           y="0.0083828345" /></flowRegion><flowPara
         id="flowPara2859"></flowPara></flowRoot>    <g
       aria-label="Your energy is running low. Pick up the meat and walk near the fire to cook it!"
       transform="matrix(0.26458333,0,0,0.26458333,0,97)"
       style="font-style:normal;font-variant:normal;font-weight:normal;font-stretch:normal;font-size:40px;line-height:1.25;font-family:sans-serif;-inkscape-font-specification:'sans-serif, Normal';font-variant-ligatures:normal;font-variant-caps:normal;font-variant-numeric:normal;font-feature-settings:normal;text-align:center;letter-spacing:0px;word-spacing:0px;writing-mode:lr-tb;text-anchor:middle;fill:#ffffff;fill-opacity:1;stroke:#000000;stroke-width:1.13385832;stroke-miterlimit:4;stroke-dasharray:none;stroke-opacity:1"
       id="flowRoot2861">
      <path
         d="m 30.450195,6.2382812 h 4.238282 L 42.774414,18.230469 50.801758,6.2382812 h 4.238281 L 44.727539,21.511719 V 35.398437 H 40.762695 V 21.511719 Z"
         style=""
         id="path4329" />
      <path
         d="m 61.915039,16.042969 q -2.890625,0 -4.570312,2.265625 -1.679688,2.246093 -1.679688,6.171875 0,3.925781 1.660156,6.191406 1.679688,2.246094 4.589844,2.246094 2.871094,0 4.550781,-2.265625 1.679688,-2.265625 1.679688,-6.171875 0,-3.886719 -1.679688,-6.152344 -1.679687,-2.285156 -4.550781,-2.285156 z m 0,-3.046875 q 4.6875,0 7.363281,3.046875 2.675782,3.046875 2.675782,8.4375 0,5.371093 -2.675782,8.4375 -2.675781,3.046875 -7.363281,3.046875 -4.707031,0 -7.382812,-3.046875 -2.65625,-3.066407 -2.65625,-8.4375 0,-5.390625 2.65625,-8.4375 2.675781,-3.046875 7.382812,-3.046875 z"
         style=""
         id="path4331" />
      <path
         d="M 77.520508,26.765625 V 13.523438 h 3.59375 v 13.105468 q 0,3.105469 1.210937,4.667969 1.210938,1.542969 3.632813,1.542969 2.910156,0 4.589844,-1.855469 1.699218,-1.855469 1.699218,-5.058594 V 13.523438 h 3.59375 v 21.874999 h -3.59375 v -3.359375 q -1.308593,1.992188 -3.046875,2.96875 -1.71875,0.957032 -4.003906,0.957032 -3.769531,0 -5.722656,-2.34375 -1.953125,-2.34375 -1.953125,-6.855469 z m 9.042969,-13.769531 z"
         style=""
         id="path4333" />
      <path
         d="m 115.95801,16.882812 q -0.60547,-0.351562 -1.32813,-0.507812 -0.70312,-0.175781 -1.5625,-0.175781 -3.04687,0 -4.6875,1.992187 -1.62109,1.972656 -1.62109,5.683594 v 11.523437 h -3.61328 V 13.523438 h 3.61328 v 3.398437 q 1.13281,-1.992187 2.94922,-2.949219 1.8164,-0.976562 4.41406,-0.976562 0.37109,0 0.82031,0.05859 0.44922,0.03906 0.9961,0.136718 z"
         style=""
         id="path4335" />
      <path
         d="m 151.21191,23.5625 v 1.757812 h -16.52343 q 0.23437,3.710938 2.22656,5.664063 2.01172,1.933594 5.58594,1.933594 2.07031,0 4.0039,-0.507813 1.95313,-0.507812 3.86719,-1.523437 v 3.398437 q -1.93359,0.820313 -3.96484,1.25 -2.03125,0.429688 -4.1211,0.429688 -5.23437,0 -8.30078,-3.046875 -3.04687,-3.046875 -3.04687,-8.242188 0,-5.371094 2.89062,-8.515625 2.91016,-3.164062 7.83203,-3.164062 4.41407,0 6.97266,2.851562 2.57812,2.832031 2.57812,7.714844 z m -3.59375,-1.054688 q -0.0391,-2.949218 -1.66015,-4.707031 -1.60156,-1.757812 -4.25781,-1.757812 -3.00782,0 -4.82422,1.699218 -1.79688,1.699219 -2.07032,4.785157 z"
         style=""
         id="path4337" />
      <path
         d="M 175.29395,22.195312 V 35.398437 H 171.7002 V 22.3125 q 0,-3.105469 -1.21094,-4.648438 -1.21094,-1.542968 -3.63281,-1.542968 -2.91016,0 -4.58985,1.855468 -1.67969,1.855469 -1.67969,5.058594 v 12.363281 h -3.61328 V 13.523438 h 3.61328 v 3.398437 q 1.28907,-1.972656 3.02735,-2.949219 1.75781,-0.976562 4.04297,-0.976562 3.76953,0 5.70312,2.34375 1.9336,2.324218 1.9336,6.855468 z"
         style=""
         id="path4339" />
      <path
         d="m 201.21191,23.5625 v 1.757812 h -16.52343 q 0.23437,3.710938 2.22656,5.664063 2.01172,1.933594 5.58594,1.933594 2.07031,0 4.0039,-0.507813 1.95313,-0.507812 3.86719,-1.523437 v 3.398437 q -1.93359,0.820313 -3.96484,1.25 -2.03125,0.429688 -4.1211,0.429688 -5.23437,0 -8.30078,-3.046875 -3.04687,-3.046875 -3.04687,-8.242188 0,-5.371094 2.89062,-8.515625 2.91016,-3.164062 7.83203,-3.164062 4.41407,0 6.97266,2.851562 2.57812,2.832031 2.57812,7.714844 z m -3.59375,-1.054688 q -0.0391,-2.949218 -1.66015,-4.707031 -1.60156,-1.757812 -4.25781,-1.757812 -3.00782,0 -4.82422,1.699218 -1.79688,1.699219 -2.07032,4.785157 z"
         style=""
         id="path4341" />
      <path
         d="m 219.78613,16.882812 q -0.60547,-0.351562 -1.32812,-0.507812 -0.70313,-0.175781 -1.5625,-0.175781 -3.04688,0 -4.6875,1.992187 -1.6211,1.972656 -1.6211,5.683594 v 11.523437 h -3.61328 V 13.523438 h 3.61328 v 3.398437 q 1.13282,-1.992187 2.94922,-2.949219 1.81641,-0.976562 4.41407,-0.976562 0.37109,0 0.82031,0.05859 0.44922,0.03906 0.99609,0.136718 z"
         style=""
         id="path4343" />
      <path
         d="m 237.28613,24.207031 q 0,-3.90625 -1.62109,-6.054687 -1.60156,-2.148438 -4.51172,-2.148438 -2.89062,0 -4.51172,2.148438 -1.60156,2.148437 -1.60156,6.054687 0,3.886719 1.60156,6.035156 1.6211,2.148438 4.51172,2.148438 2.91016,0 4.51172,-2.148438 1.62109,-2.148437 1.62109,-6.035156 z m 3.59375,8.476563 q 0,5.585937 -2.48047,8.300781 -2.48046,2.734375 -7.59765,2.734375 -1.89453,0 -3.57422,-0.292969 -1.67969,-0.273437 -3.26172,-0.859375 v -3.496094 q 1.58203,0.859375 3.125,1.269532 1.54297,0.410156 3.14453,0.410156 3.53516,0 5.29297,-1.855469 1.75781,-1.835937 1.75781,-5.566406 v -1.777344 q -1.11328,1.933594 -2.85156,2.890625 -1.73828,0.957031 -4.16016,0.957031 -4.02343,0 -6.48437,-3.066406 -2.46094,-3.066406 -2.46094,-8.125 0,-5.078125 2.46094,-8.144531 2.46094,-3.066406 6.48437,-3.066406 2.42188,0 4.16016,0.957031 1.73828,0.957031 2.85156,2.890625 v -3.320312 h 3.59375 z"
         style=""
         id="path4345" />
      <path
         d="m 257.38379,37.429687 q -1.52344,3.90625 -2.96875,5.097657 -1.44531,1.191406 -3.86719,1.191406 h -2.87109 v -3.007813 h 2.10937 q 1.48438,0 2.30469,-0.703125 0.82031,-0.703125 1.81641,-3.320312 l 0.64453,-1.640625 -8.84766,-21.523437 h 3.8086 l 6.83593,17.109374 6.83594,-17.109374 h 3.80859 z"
         style=""
         id="path4347" />
      <path
         d="m 284.68848,13.523438 h 3.59375 v 21.874999 h -3.59375 z m 0,-8.5156255 h 3.59375 v 4.5507813 h -3.59375 z"
         style=""
         id="path4349" />
      <path
         d="m 309.72754,14.167969 v 3.398437 q -1.52344,-0.78125 -3.16406,-1.171875 -1.64063,-0.390625 -3.39844,-0.390625 -2.67578,0 -4.02344,0.820313 -1.32812,0.820312 -1.32812,2.460937 0,1.25 0.95703,1.972656 0.95703,0.703125 3.84765,1.347657 l 1.23047,0.273437 q 3.82813,0.820313 5.42969,2.324219 1.62109,1.484375 1.62109,4.160156 0,3.046875 -2.42187,4.824219 -2.40234,1.777344 -6.62109,1.777344 -1.75782,0 -3.67188,-0.351563 -1.89453,-0.332031 -4.00391,-1.015625 v -3.710937 q 1.99219,1.035156 3.92579,1.5625 1.93359,0.507812 3.82812,0.507812 2.53906,0 3.90625,-0.859375 1.36719,-0.878906 1.36719,-2.460937 0,-1.464844 -0.9961,-2.246094 -0.97656,-0.78125 -4.3164,-1.503906 l -1.25,-0.292969 q -3.33985,-0.703125 -4.82422,-2.148438 -1.48438,-1.464843 -1.48438,-4.003906 0,-3.085937 2.1875,-4.765625 2.1875,-1.679687 6.21094,-1.679687 1.99219,0 3.75,0.292969 1.75781,0.292968 3.24219,0.878906 z"
         style=""
         id="path4351" />
      <path
         d="m 342.05176,16.882812 q -0.60547,-0.351562 -1.32813,-0.507812 -0.70312,-0.175781 -1.5625,-0.175781 -3.04687,0 -4.6875,1.992187 -1.62109,1.972656 -1.62109,5.683594 v 11.523437 h -3.61328 V 13.523438 h 3.61328 v 3.398437 q 1.13281,-1.992187 2.94922,-2.949219 1.8164,-0.976562 4.41406,-0.976562 0.37109,0 0.82031,0.05859 0.44922,0.03906 0.9961,0.136718 z"
         style=""
         id="path4353" />
      <path
         d="M 345.48926,26.765625 V 13.523438 h 3.59375 v 13.105468 q 0,3.105469 1.21094,4.667969 1.21093,1.542969 3.63281,1.542969 2.91015,0 4.58984,-1.855469 1.69922,-1.855469 1.69922,-5.058594 V 13.523438 h 3.59375 v 21.874999 h -3.59375 v -3.359375 q -1.30859,1.992188 -3.04687,2.96875 -1.71875,0.957032 -4.00391,0.957032 -3.76953,0 -5.72266,-2.34375 -1.95312,-2.34375 -1.95312,-6.855469 z m 9.04297,-13.769531 z"
         style=""
         id="path4355" />
      <path
         d="m 389.43457,22.195312 v 13.203125 h -3.59375 V 22.3125 q 0,-3.105469 -1.21094,-4.648438 -1.21093,-1.542968 -3.63281,-1.542968 -2.91016,0 -4.58984,1.855468 -1.67969,1.855469 -1.67969,5.058594 v 12.363281 h -3.61328 V 13.523438 h 3.61328 v 3.398437 q 1.28906,-1.972656 3.02734,-2.949219 1.75782,-0.976562 4.04297,-0.976562 3.76953,0 5.70313,2.34375 1.93359,2.324218 1.93359,6.855468 z"
         style=""
         id="path4357" />
      <path
         d="m 414.8252,22.195312 v 13.203125 h -3.59375 V 22.3125 q 0,-3.105469 -1.21094,-4.648438 -1.21094,-1.542968 -3.63281,-1.542968 -2.91016,0 -4.58985,1.855468 -1.67969,1.855469 -1.67969,5.058594 v 12.363281 h -3.61328 V 13.523438 h 3.61328 v 3.398437 q 1.28907,-1.972656 3.02735,-2.949219 1.75781,-0.976562 4.04297,-0.976562 3.76953,0 5.70312,2.34375 1.9336,2.324218 1.9336,6.855468 z"
         style=""
         id="path4359" />
      <path
         d="m 422.03223,13.523438 h 3.59375 v 21.874999 h -3.59375 z m 0,-8.5156255 h 3.59375 v 4.5507813 h -3.59375 z"
         style=""
         id="path4361" />
      <path
         d="m 451.30957,22.195312 v 13.203125 h -3.59375 V 22.3125 q 0,-3.105469 -1.21094,-4.648438 -1.21093,-1.542968 -3.63281,-1.542968 -2.91016,0 -4.58984,1.855468 -1.67969,1.855469 -1.67969,5.058594 v 12.363281 h -3.61328 V 13.523438 h 3.61328 v 3.398437 q 1.28906,-1.972656 3.02734,-2.949219 1.75782,-0.976562 4.04297,-0.976562 3.76953,0 5.70313,2.34375 1.93359,2.324218 1.93359,6.855468 z"
         style=""
         id="path4363" />
      <path
         d="m 472.91113,24.207031 q 0,-3.90625 -1.62109,-6.054687 -1.60156,-2.148438 -4.51172,-2.148438 -2.89062,0 -4.51172,2.148438 -1.60156,2.148437 -1.60156,6.054687 0,3.886719 1.60156,6.035156 1.6211,2.148438 4.51172,2.148438 2.91016,0 4.51172,-2.148438 1.62109,-2.148437 1.62109,-6.035156 z m 3.59375,8.476563 q 0,5.585937 -2.48047,8.300781 -2.48046,2.734375 -7.59765,2.734375 -1.89453,0 -3.57422,-0.292969 -1.67969,-0.273437 -3.26172,-0.859375 v -3.496094 q 1.58203,0.859375 3.125,1.269532 1.54297,0.410156 3.14453,0.410156 3.53516,0 5.29297,-1.855469 1.75781,-1.835937 1.75781,-5.566406 v -1.777344 q -1.11328,1.933594 -2.85156,2.890625 -1.73828,0.957031 -4.16016,0.957031 -4.02343,0 -6.48437,-3.066406 -2.46094,-3.066406 -2.46094,-8.125 0,-5.078125 2.46094,-8.144531 2.46094,-3.066406 6.48437,-3.066406 2.42188,0 4.16016,0.957031 1.73828,0.957031 2.85156,2.890625 v -3.320312 h 3.59375 z"
         style=""
         id="path4365" />
      <path
         d="m 496.6416,5.0078125 h 3.59375 V 35.398437 h -3.59375 z"
         style=""
         id="path4367" />
      <path
         d="m 516.21191,16.042969 q -2.89062,0 -4.57031,2.265625 -1.67969,2.246093 -1.67969,6.171875 0,3.925781 1.66016,6.191406 1.67969,2.246094 4.58984,2.246094 2.8711,0 4.55079,-2.265625 1.67968,-2.265625 1.67968,-6.171875 0,-3.886719 -1.67968,-6.152344 -1.67969,-2.285156 -4.55079,-2.285156 z m 0,-3.046875 q 4.6875,0 7.36329,3.046875 2.67578,3.046875 2.67578,8.4375 0,5.371093 -2.67578,8.4375 -2.67579,3.046875 -7.36329,3.046875 -4.70703,0 -7.38281,-3.046875 -2.65625,-3.066407 -2.65625,-8.4375 0,-5.390625 2.65625,-8.4375 2.67578,-3.046875 7.38281,-3.046875 z"
         style=""
         id="path4369" />
      <path
         d="m 530.09863,13.523438 h 3.59375 l 4.49219,17.070312 4.47266,-17.070312 h 4.23828 l 4.49219,17.070312 4.47265,-17.070312 h 3.59375 l -5.72265,21.874999 h -4.23829 l -4.70703,-17.929687 -4.72656,17.929687 h -4.23828 z"
         style=""
         id="path4371" />
      <path
         d="m 561.75879,30.4375 h 4.12109 v 4.960937 h -4.12109 z"
         style=""
         id="path4373" />
      <path
         d="M 590.82129,9.4804688 V 20.4375 h 4.96094 q 2.7539,0 4.25781,-1.425781 1.50391,-1.425782 1.50391,-4.0625 0,-2.617188 -1.50391,-4.042969 -1.50391,-1.4257812 -4.25781,-1.4257812 z m -3.94531,-3.2421876 h 8.90625 q 4.90234,0 7.40234,2.2265626 2.51953,2.2070312 2.51953,6.4843752 0,4.316406 -2.51953,6.523437 -2.5,2.207031 -7.40234,2.207031 h -4.96094 v 11.71875 h -3.94531 z"
         style=""
         id="path4375" />
      <path
         d="m 610.00098,13.523438 h 3.59375 v 21.874999 h -3.59375 z m 0,-8.5156255 h 3.59375 v 4.5507813 h -3.59375 z"
         style=""
         id="path4377" />
      <path
         d="m 636.83691,14.363281 v 3.359375 q -1.52343,-0.839844 -3.0664,-1.25 -1.52344,-0.429687 -3.08594,-0.429687 -3.49609,0 -5.42969,2.226562 -1.93359,2.207031 -1.93359,6.210938 0,4.003906 1.93359,6.230468 1.9336,2.207032 5.42969,2.207032 1.5625,0 3.08594,-0.410157 1.54297,-0.429687 3.0664,-1.269531 v 3.320313 q -1.5039,0.703125 -3.125,1.054687 -1.60156,0.351563 -3.41796,0.351563 -4.94141,0 -7.85157,-3.105469 -2.91015,-3.105469 -2.91015,-8.378906 0,-5.351563 2.92968,-8.417969 2.94922,-3.066406 8.06641,-3.066406 1.66016,0 3.24219,0.351562 1.58203,0.332032 3.0664,1.015625 z"
         style=""
         id="path4379" />
      <path
         d="m 642.98926,5.0078125 h 3.61328 V 22.957031 l 10.72266,-9.433593 h 4.58984 l -11.60156,10.234374 12.08984,11.640625 h -4.6875 L 646.60254,24.714844 v 10.683593 h -3.61328 z"
         style=""
         id="path4381" />
      <path
         d="M 678.69238,26.765625 V 13.523438 h 3.59375 v 13.105468 q 0,3.105469 1.21094,4.667969 1.21094,1.542969 3.63281,1.542969 2.91016,0 4.58985,-1.855469 1.69922,-1.855469 1.69922,-5.058594 V 13.523438 h 3.59375 v 21.874999 h -3.59375 v -3.359375 q -1.3086,1.992188 -3.04688,2.96875 -1.71875,0.957032 -4.00391,0.957032 -3.76953,0 -5.72265,-2.34375 -1.95313,-2.34375 -1.95313,-6.855469 z m 9.04297,-13.769531 z"
         style=""
         id="path4383" />
      <path
         d="M 707.93066,32.117187 V 43.71875 h -3.61328 V 13.523438 h 3.61328 v 3.320312 q 1.13282,-1.953125 2.85157,-2.890625 1.73828,-0.957031 4.14062,-0.957031 3.98438,0 6.46485,3.164062 2.5,3.164063 2.5,8.320313 0,5.15625 -2.5,8.320312 -2.48047,3.164063 -6.46485,3.164063 -2.40234,0 -4.14062,-0.9375 -1.71875,-0.957032 -2.85157,-2.910157 z m 12.22657,-7.636718 q 0,-3.964844 -1.64063,-6.210938 -1.62109,-2.265625 -4.47265,-2.265625 -2.85157,0 -4.49219,2.265625 -1.6211,2.246094 -1.6211,6.210938 0,3.964843 1.6211,6.230468 1.64062,2.246094 4.49219,2.246094 2.85156,0 4.47265,-2.246094 1.64063,-2.265625 1.64063,-6.230468 z"
         style=""
         id="path4385" />
      <path
         d="m 41.680664,57.3125 v 6.210937 h 7.402344 v 2.792969 h -7.402344 v 11.875 q 0,2.675781 0.722656,3.4375 0.742188,0.761719 2.988282,0.761719 h 3.691406 v 3.007812 h -3.691406 q -4.160157,0 -5.742188,-1.542968 -1.582031,-1.5625 -1.582031,-5.664063 v -11.875 h -2.636719 v -2.792969 h 2.636719 V 57.3125 Z"
         style=""
         id="path4387" />
      <path
         d="m 72.012695,72.195312 v 13.203125 h -3.59375 V 72.3125 q 0,-3.105469 -1.210937,-4.648438 -1.210938,-1.542968 -3.632813,-1.542968 -2.910156,0 -4.589843,1.855468 -1.679688,1.855469 -1.679688,5.058594 V 85.398437 H 53.692383 V 55.007812 h 3.613281 v 11.914063 q 1.289063,-1.972656 3.027344,-2.949219 1.757812,-0.976562 4.042969,-0.976562 3.769531,0 5.703125,2.34375 1.933593,2.324218 1.933593,6.855468 z"
         style=""
         id="path4389" />
      <path
         d="m 97.930664,73.5625 v 1.757812 H 81.407227 q 0.234375,3.710938 2.226562,5.664063 2.011719,1.933594 5.585938,1.933594 2.070312,0 4.003906,-0.507813 1.953125,-0.507812 3.867187,-1.523437 v 3.398437 q -1.933593,0.820313 -3.964843,1.25 -2.03125,0.429688 -4.121094,0.429688 -5.234375,0 -8.300781,-3.046875 -3.046875,-3.046875 -3.046875,-8.242188 0,-5.371094 2.890625,-8.515625 2.910156,-3.164062 7.832031,-3.164062 4.414062,0 6.972656,2.851562 2.578125,2.832031 2.578125,7.714844 z m -3.59375,-1.054688 q -0.03906,-2.949218 -1.660156,-4.707031 -1.601563,-1.757812 -4.257813,-1.757812 -3.007812,0 -4.824218,1.699218 -1.796875,1.699219 -2.070313,4.785157 z"
         style=""
         id="path4391" />
      <path
         d="m 133.59473,67.722656 q 1.34765,-2.421875 3.22265,-3.574219 1.875,-1.152343 4.41407,-1.152343 3.41796,0 5.27343,2.402343 1.85547,2.382813 1.85547,6.796875 v 13.203125 h -3.61328 V 72.3125 q 0,-3.144531 -1.11328,-4.667969 -1.11328,-1.523437 -3.39844,-1.523437 -2.79297,0 -4.41406,1.855468 -1.62109,1.855469 -1.62109,5.058594 v 12.363281 h -3.61329 V 72.3125 q 0,-3.164063 -1.11328,-4.667969 -1.11328,-1.523437 -3.4375,-1.523437 -2.7539,0 -4.375,1.875 -1.62109,1.855468 -1.62109,5.039062 v 12.363281 h -3.61328 v -21.875 h 3.61328 v 3.398438 q 1.23047,-2.011719 2.94922,-2.96875 1.71875,-0.957031 4.08203,-0.957031 2.38281,0 4.04297,1.210937 1.67969,1.210938 2.48047,3.515625 z"
         style=""
         id="path4393" />
      <path
         d="m 174.25879,73.5625 v 1.757812 h -16.52344 q 0.23438,3.710938 2.22656,5.664063 2.01172,1.933594 5.58594,1.933594 2.07031,0 4.00391,-0.507813 1.95312,-0.507812 3.86719,-1.523437 v 3.398437 q -1.9336,0.820313 -3.96485,1.25 -2.03125,0.429688 -4.12109,0.429688 -5.23438,0 -8.30078,-3.046875 -3.04688,-3.046875 -3.04688,-8.242188 0,-5.371094 2.89063,-8.515625 2.91015,-3.164062 7.83203,-3.164062 4.41406,0 6.97265,2.851562 2.57813,2.832031 2.57813,7.714844 z m -3.59375,-1.054688 q -0.0391,-2.949218 -1.66016,-4.707031 -1.60156,-1.757812 -4.25781,-1.757812 -3.00781,0 -4.82422,1.699218 -1.79687,1.699219 -2.07031,4.785157 z"
         style=""
         id="path4395" />
      <path
         d="m 190.09863,74.402344 q -4.35547,0 -6.03515,0.996093 -1.67969,0.996094 -1.67969,3.398438 0,1.914062 1.25,3.046875 1.26953,1.113281 3.4375,1.113281 2.98828,0 4.78516,-2.109375 1.8164,-2.128906 1.8164,-5.644531 v -0.800781 z m 7.16797,-1.484375 v 12.480468 h -3.59375 v -3.320312 q -1.23047,1.992187 -3.0664,2.949219 -1.83594,0.9375 -4.49219,0.9375 -3.35938,0 -5.35156,-1.875 -1.97266,-1.894532 -1.97266,-5.058594 0,-3.691406 2.46094,-5.566406 2.48047,-1.875 7.38281,-1.875 h 5.03906 v -0.351563 q 0,-2.480469 -1.64062,-3.828125 -1.6211,-1.367187 -4.57032,-1.367187 -1.875,0 -3.65234,0.449218 -1.77734,0.449219 -3.41797,1.347657 v -3.320313 q 1.97266,-0.761719 3.82813,-1.132812 1.85547,-0.390625 3.61328,-0.390625 4.74609,0 7.08984,2.460937 2.34375,2.460938 2.34375,7.460938 z"
         style=""
         id="path4397" />
      <path
         d="m 208.24316,57.3125 v 6.210937 h 7.40235 v 2.792969 h -7.40235 v 11.875 q 0,2.675781 0.72266,3.4375 0.74219,0.761719 2.98828,0.761719 h 3.69141 v 3.007812 h -3.69141 q -4.16015,0 -5.74219,-1.542968 -1.58203,-1.5625 -1.58203,-5.664063 v -11.875 h -2.63672 v -2.792969 h 2.63672 V 57.3125 Z"
         style=""
         id="path4399" />
      <path
         d="m 243.06738,74.402344 q -4.35547,0 -6.03515,0.996093 -1.67969,0.996094 -1.67969,3.398438 0,1.914062 1.25,3.046875 1.26953,1.113281 3.4375,1.113281 2.98828,0 4.78516,-2.109375 1.8164,-2.128906 1.8164,-5.644531 v -0.800781 z m 7.16797,-1.484375 v 12.480468 h -3.59375 v -3.320312 q -1.23047,1.992187 -3.0664,2.949219 -1.83594,0.9375 -4.49219,0.9375 -3.35938,0 -5.35156,-1.875 -1.97266,-1.894532 -1.97266,-5.058594 0,-3.691406 2.46094,-5.566406 2.48047,-1.875 7.38281,-1.875 h 5.03906 v -0.351563 q 0,-2.480469 -1.64062,-3.828125 -1.6211,-1.367187 -4.57032,-1.367187 -1.875,0 -3.65234,0.449218 -1.77734,0.449219 -3.41797,1.347657 v -3.320313 q 1.97266,-0.761719 3.82813,-1.132812 1.85547,-0.390625 3.61328,-0.390625 4.74609,0 7.08984,2.460937 2.34375,2.460938 2.34375,7.460938 z"
         style=""
         id="path4401" />
      <path
         d="m 275.84082,72.195312 v 13.203125 h -3.59375 V 72.3125 q 0,-3.105469 -1.21094,-4.648438 -1.21093,-1.542968 -3.63281,-1.542968 -2.91016,0 -4.58984,1.855468 -1.67969,1.855469 -1.67969,5.058594 v 12.363281 h -3.61328 v -21.875 h 3.61328 v 3.398438 q 1.28906,-1.972656 3.02734,-2.949219 1.75782,-0.976562 4.04297,-0.976562 3.76953,0 5.70313,2.34375 1.93359,2.324218 1.93359,6.855468 z"
         style=""
         id="path4403" />
      <path
         d="M 297.44238,66.84375 V 55.007812 h 3.59375 v 30.390625 h -3.59375 v -3.28125 q -1.13281,1.953125 -2.87109,2.910157 -1.71875,0.9375 -4.14063,0.9375 -3.96484,0 -6.46484,-3.164063 -2.48047,-3.164062 -2.48047,-8.320312 0,-5.15625 2.48047,-8.320313 2.5,-3.164062 6.46484,-3.164062 2.42188,0 4.14063,0.957031 1.73828,0.9375 2.87109,2.890625 z m -12.24609,7.636719 q 0,3.964843 1.62109,6.230468 1.64063,2.246094 4.49219,2.246094 2.85156,0 4.49219,-2.246094 1.64062,-2.265625 1.64062,-6.230468 0,-3.964844 -1.64062,-6.210938 -1.64063,-2.265625 -4.49219,-2.265625 -2.85156,0 -4.49219,2.265625 -1.62109,2.246094 -1.62109,6.210938 z"
         style=""
         id="path4405" />
      <path
         d="m 319.08301,63.523437 h 3.59375 l 4.49219,17.070313 4.47265,-17.070313 h 4.23828 l 4.49219,17.070313 4.47266,-17.070313 h 3.59375 l -5.72266,21.875 h -4.23828 l -4.70703,-17.929687 -4.72656,17.929687 h -4.23829 z"
         style=""
         id="path4407" />
      <path
         d="m 363.84863,74.402344 q -4.35547,0 -6.03515,0.996093 -1.67969,0.996094 -1.67969,3.398438 0,1.914062 1.25,3.046875 1.26953,1.113281 3.4375,1.113281 2.98828,0 4.78516,-2.109375 1.8164,-2.128906 1.8164,-5.644531 v -0.800781 z m 7.16797,-1.484375 v 12.480468 h -3.59375 v -3.320312 q -1.23047,1.992187 -3.0664,2.949219 -1.83594,0.9375 -4.49219,0.9375 -3.35938,0 -5.35156,-1.875 -1.97266,-1.894532 -1.97266,-5.058594 0,-3.691406 2.46094,-5.566406 2.48047,-1.875 7.38281,-1.875 h 5.03906 v -0.351563 q 0,-2.480469 -1.64062,-3.828125 -1.6211,-1.367187 -4.57032,-1.367187 -1.875,0 -3.65234,0.449218 -1.77734,0.449219 -3.41797,1.347657 v -3.320313 q 1.97266,-0.761719 3.82813,-1.132812 1.85547,-0.390625 3.61328,-0.390625 4.74609,0 7.08984,2.460937 2.34375,2.460938 2.34375,7.460938 z"
         style=""
         id="path4409" />
      <path
         d="m 378.43848,55.007812 h 3.59375 v 30.390625 h -3.59375 z"
         style=""
         id="path4411" />
      <path
         d="m 389.39551,55.007812 h 3.61328 v 17.949219 l 10.72266,-9.433594 h 4.58984 l -11.60156,10.234375 12.08984,11.640625 h -4.6875 L 393.00879,74.714844 v 10.683593 h -3.61328 z"
         style=""
         id="path4413" />
      <path
         d="m 443.65332,72.195312 v 13.203125 h -3.59375 V 72.3125 q 0,-3.105469 -1.21094,-4.648438 -1.21093,-1.542968 -3.63281,-1.542968 -2.91016,0 -4.58984,1.855468 -1.67969,1.855469 -1.67969,5.058594 v 12.363281 h -3.61328 v -21.875 h 3.61328 v 3.398438 q 1.28906,-1.972656 3.02734,-2.949219 1.75782,-0.976562 4.04297,-0.976562 3.76953,0 5.70313,2.34375 1.93359,2.324218 1.93359,6.855468 z"
         style=""
         id="path4415" />
      <path
         d="m 469.57129,73.5625 v 1.757812 h -16.52344 q 0.23438,3.710938 2.22656,5.664063 2.01172,1.933594 5.58594,1.933594 2.07031,0 4.00391,-0.507813 1.95312,-0.507812 3.86719,-1.523437 v 3.398437 q -1.9336,0.820313 -3.96485,1.25 -2.03125,0.429688 -4.12109,0.429688 -5.23438,0 -8.30078,-3.046875 -3.04688,-3.046875 -3.04688,-8.242188 0,-5.371094 2.89063,-8.515625 2.91015,-3.164062 7.83203,-3.164062 4.41406,0 6.97265,2.851562 2.57813,2.832031 2.57813,7.714844 z m -3.59375,-1.054688 q -0.0391,-2.949218 -1.66016,-4.707031 -1.60156,-1.757812 -4.25781,-1.757812 -3.00781,0 -4.82422,1.699218 -1.79687,1.699219 -2.07031,4.785157 z"
         style=""
         id="path4417" />
      <path
         d="m 485.41113,74.402344 q -4.35547,0 -6.03515,0.996093 -1.67969,0.996094 -1.67969,3.398438 0,1.914062 1.25,3.046875 1.26953,1.113281 3.4375,1.113281 2.98828,0 4.78516,-2.109375 1.8164,-2.128906 1.8164,-5.644531 v -0.800781 z m 7.16797,-1.484375 v 12.480468 h -3.59375 v -3.320312 q -1.23047,1.992187 -3.0664,2.949219 -1.83594,0.9375 -4.49219,0.9375 -3.35938,0 -5.35156,-1.875 -1.97266,-1.894532 -1.97266,-5.058594 0,-3.691406 2.46094,-5.566406 2.48047,-1.875 7.38281,-1.875 h 5.03906 v -0.351563 q 0,-2.480469 -1.64062,-3.828125 -1.6211,-1.367187 -4.57032,-1.367187 -1.875,0 -3.65234,0.449218 -1.77734,0.449219 -3.41797,1.347657 v -3.320313 q 1.97266,-0.761719 3.82813,-1.132812 1.85547,-0.390625 3.61328,-0.390625 4.74609,0 7.08984,2.460937 2.34375,2.460938 2.34375,7.460938 z"
         style=""
         id="path4419" />
      <path
         d="m 512.67676,66.882812 q -0.60547,-0.351562 -1.32813,-0.507812 -0.70312,-0.175781 -1.5625,-0.175781 -3.04687,0 -4.6875,1.992187 -1.62109,1.972656 -1.62109,5.683594 v 11.523437 h -3.61328 v -21.875 h 3.61328 v 3.398438 q 1.13281,-1.992188 2.94922,-2.949219 1.8164,-0.976562 4.41406,-0.976562 0.37109,0 0.82031,0.05859 0.44922,0.03906 0.9961,0.136719 z"
         style=""
         id="path4421" />
      <path
         d="m 532.77441,57.3125 v 6.210937 h 7.40235 v 2.792969 h -7.40235 v 11.875 q 0,2.675781 0.72266,3.4375 0.74219,0.761719 2.98828,0.761719 h 3.69141 v 3.007812 h -3.69141 q -4.16015,0 -5.74219,-1.542968 -1.58203,-1.5625 -1.58203,-5.664063 v -11.875 h -2.63672 v -2.792969 h 2.63672 V 57.3125 Z"
         style=""
         id="path4423" />
      <path
         d="M 563.10645,72.195312 V 85.398437 H 559.5127 V 72.3125 q 0,-3.105469 -1.21094,-4.648438 -1.21094,-1.542968 -3.63281,-1.542968 -2.91016,0 -4.58985,1.855468 -1.67969,1.855469 -1.67969,5.058594 v 12.363281 h -3.61328 V 55.007812 h 3.61328 v 11.914063 q 1.28907,-1.972656 3.02735,-2.949219 1.75781,-0.976562 4.04297,-0.976562 3.76953,0 5.70312,2.34375 1.9336,2.324218 1.9336,6.855468 z"
         style=""
         id="path4425" />
      <path
         d="m 589.02441,73.5625 v 1.757812 h -16.52343 q 0.23437,3.710938 2.22656,5.664063 2.01172,1.933594 5.58594,1.933594 2.07031,0 4.0039,-0.507813 1.95313,-0.507812 3.86719,-1.523437 v 3.398437 q -1.93359,0.820313 -3.96484,1.25 -2.03125,0.429688 -4.1211,0.429688 -5.23437,0 -8.30078,-3.046875 -3.04687,-3.046875 -3.04687,-8.242188 0,-5.371094 2.89062,-8.515625 2.91016,-3.164062 7.83203,-3.164062 4.41407,0 6.97266,2.851562 2.57812,2.832031 2.57812,7.714844 z m -3.59375,-1.054688 q -0.0391,-2.949218 -1.66015,-4.707031 -1.60156,-1.757812 -4.25781,-1.757812 -3.00782,0 -4.82422,1.699218 -1.79688,1.699219 -2.07032,4.785157 z"
         style=""
         id="path4427" />
      <path
         d="m 625.33301,63.523437 v 21.875 h -3.61328 V 66.316406 h -9.86328 v 19.082031 h -3.61329 V 66.316406 h -3.4375 v -2.792969 h 3.4375 V 62 q 0,-3.574219 1.67969,-5.273438 1.69922,-1.71875 5.19531,-1.71875 h 3.61329 v 2.988282 h -3.4375 q -1.9336,0 -2.69532,0.78125 -0.74218,0.78125 -0.74218,2.8125 v 1.933593 z m -3.61328,-8.476562 h 3.61328 v 4.550781 h -3.61328 z"
         style=""
         id="path4429" />
      <path
         d="m 645.56738,66.882812 q -0.60547,-0.351562 -1.32812,-0.507812 -0.70313,-0.175781 -1.5625,-0.175781 -3.04688,0 -4.6875,1.992187 -1.6211,1.972656 -1.6211,5.683594 v 11.523437 h -3.61328 v -21.875 h 3.61328 v 3.398438 q 1.13282,-1.992188 2.94922,-2.949219 1.81641,-0.976562 4.41407,-0.976562 0.37109,0 0.82031,0.05859 0.44922,0.03906 0.99609,0.136719 z"
         style=""
         id="path4431" />
      <path
         d="m 667.22754,73.5625 v 1.757812 H 650.7041 q 0.23438,3.710938 2.22656,5.664063 2.01172,1.933594 5.58594,1.933594 2.07031,0 4.00391,-0.507813 1.95312,-0.507812 3.86719,-1.523437 v 3.398437 q -1.9336,0.820313 -3.96485,1.25 -2.03125,0.429688 -4.12109,0.429688 -5.23438,0 -8.30078,-3.046875 -3.04688,-3.046875 -3.04688,-8.242188 0,-5.371094 2.89063,-8.515625 2.91015,-3.164062 7.83203,-3.164062 4.41406,0 6.97265,2.851562 2.57813,2.832031 2.57813,7.714844 z m -3.59375,-1.054688 q -0.0391,-2.949218 -1.66016,-4.707031 -1.60156,-1.757812 -4.25781,-1.757812 -3.00781,0 -4.82422,1.699218 -1.79687,1.699219 -2.07031,4.785157 z"
         style=""
         id="path4433" />
      <path
         d="m 689.41504,57.3125 v 6.210937 h 7.40234 v 2.792969 h -7.40234 v 11.875 q 0,2.675781 0.72266,3.4375 0.74218,0.761719 2.98828,0.761719 h 3.6914 v 3.007812 h -3.6914 q -4.16016,0 -5.74219,-1.542968 -1.58203,-1.5625 -1.58203,-5.664063 v -11.875 h -2.63672 v -2.792969 h 2.63672 V 57.3125 Z"
         style=""
         id="path4435" />
      <path
         d="m 710.04004,66.042969 q -2.89063,0 -4.57031,2.265625 -1.67969,2.246093 -1.67969,6.171875 0,3.925781 1.66016,6.191406 1.67968,2.246094 4.58984,2.246094 2.87109,0 4.55078,-2.265625 1.67969,-2.265625 1.67969,-6.171875 0,-3.886719 -1.67969,-6.152344 -1.67969,-2.285156 -4.55078,-2.285156 z m 0,-3.046875 q 4.6875,0 7.36328,3.046875 2.67578,3.046875 2.67578,8.4375 0,5.371093 -2.67578,8.4375 -2.67578,3.046875 -7.36328,3.046875 -4.70703,0 -7.38281,-3.046875 -2.65625,-3.066407 -2.65625,-8.4375 0,-5.390625 2.65625,-8.4375 2.67578,-3.046875 7.38281,-3.046875 z"
         style=""
         id="path4437" />
      <path
         d="m 322.96973,114.36328 v 3.35938 q -1.52344,-0.83985 -3.06641,-1.25 -1.52344,-0.42969 -3.08594,-0.42969 -3.49609,0 -5.42968,2.22656 -1.9336,2.20703 -1.9336,6.21094 0,4.0039 1.9336,6.23047 1.93359,2.20703 5.42968,2.20703 1.5625,0 3.08594,-0.41016 1.54297,-0.42969 3.06641,-1.26953 v 3.32031 q -1.50391,0.70313 -3.125,1.05469 -1.60157,0.35156 -3.41797,0.35156 -4.94141,0 -7.85156,-3.10547 -2.91016,-3.10546 -2.91016,-8.3789 0,-5.35156 2.92969,-8.41797 2.94922,-3.06641 8.0664,-3.06641 1.66016,0 3.24219,0.35157 1.58203,0.33203 3.06641,1.01562 z"
         style=""
         id="path4439" />
      <path
         d="m 337.73535,116.04297 q -2.89062,0 -4.57031,2.26562 -1.67969,2.2461 -1.67969,6.17188 0,3.92578 1.66016,6.1914 1.67969,2.2461 4.58984,2.2461 2.8711,0 4.55078,-2.26563 1.67969,-2.26562 1.67969,-6.17187 0,-3.88672 -1.67969,-6.15234 -1.67968,-2.28516 -4.55078,-2.28516 z m 0,-3.04688 q 4.6875,0 7.36328,3.04688 2.67578,3.04687 2.67578,8.4375 0,5.37109 -2.67578,8.4375 -2.67578,3.04687 -7.36328,3.04687 -4.70703,0 -7.38281,-3.04687 -2.65625,-3.06641 -2.65625,-8.4375 0,-5.39063 2.65625,-8.4375 2.67578,-3.04688 7.38281,-3.04688 z"
         style=""
         id="path4441" />
      <path
         d="m 362.18848,116.04297 q -2.89063,0 -4.57032,2.26562 -1.67968,2.2461 -1.67968,6.17188 0,3.92578 1.66015,6.1914 1.67969,2.2461 4.58985,2.2461 2.87109,0 4.55078,-2.26563 1.67969,-2.26562 1.67969,-6.17187 0,-3.88672 -1.67969,-6.15234 -1.67969,-2.28516 -4.55078,-2.28516 z m 0,-3.04688 q 4.6875,0 7.36328,3.04688 2.67578,3.04687 2.67578,8.4375 0,5.37109 -2.67578,8.4375 -2.67578,3.04687 -7.36328,3.04687 -4.70703,0 -7.38282,-3.04687 -2.65625,-3.06641 -2.65625,-8.4375 0,-5.39063 2.65625,-8.4375 2.67579,-3.04688 7.38282,-3.04688 z"
         style=""
         id="path4443" />
      <path
         d="m 378.02832,105.00781 h 3.61328 v 17.94922 l 10.72266,-9.43359 h 4.58984 l -11.60156,10.23437 12.08984,11.64063 h -4.6875 l -11.11328,-10.6836 v 10.6836 h -3.61328 z"
         style=""
         id="path4445" />
      <path
         d="m 414.10254,113.52344 h 3.59375 v 21.875 h -3.59375 z m 0,-8.51563 h 3.59375 v 4.55078 h -3.59375 z"
         style=""
         id="path4447" />
      <path
         d="m 428.75098,107.3125 v 6.21094 h 7.40234 v 2.79297 h -7.40234 v 11.875 q 0,2.67578 0.72265,3.4375 0.74219,0.76171 2.98828,0.76171 h 3.69141 v 3.00782 h -3.69141 q -4.16015,0 -5.74218,-1.54297 -1.58203,-1.5625 -1.58203,-5.66406 v -11.875 h -2.63672 v -2.79297 h 2.63672 v -6.21094 z"
         style=""
         id="path4449" />
      <path
         d="m 443.16504,130.4375 h 3.96484 v 4.96094 h -3.96484 z m 0,-24.19922 h 3.96484 v 12.79297 l -0.39062,6.97266 h -3.16406 l -0.41016,-6.97266 z"
         style=""
         id="path4451" />
    </g>
  </g>
</svg>
