<?xml version="1.0" encoding="UTF-8" standalone="no"?>
<!-- Created with Inkscape (http://www.inkscape.org/) -->

<svg
   xmlns:dc="http://purl.org/dc/elements/1.1/"
   xmlns:cc="http://creativecommons.org/ns#"
   xmlns:rdf="http://www.w3.org/1999/02/22-rdf-syntax-ns#"
   xmlns:svg="http://www.w3.org/2000/svg"
   xmlns="http://www.w3.org/2000/svg"
   xmlns:sodipodi="http://sodipodi.sourceforge.net/DTD/sodipodi-0.dtd"
   xmlns:inkscape="http://www.inkscape.org/namespaces/inkscape"
   width="200mm"
   height="200mm"
   viewBox="0 0 200 200"
   version="1.1"
   id="svg8"
   inkscape:version="0.92.5 (2060ec1f9f, 2020-04-08)"
   sodipodi:docname="tutorial0.svg">
  <defs
     id="defs2" />
  <sodipodi:namedview
     id="base"
     pagecolor="#ffffff"
     bordercolor="#666666"
     borderopacity="1.0"
     inkscape:pageopacity="0.0"
     inkscape:pageshadow="2"
     inkscape:zoom="1"
     inkscape:cx="393.94753"
     inkscape:cy="653.8"
     inkscape:document-units="mm"
     inkscape:current-layer="layer1"
     showgrid="false"
     inkscape:window-width="1853"
     inkscape:window-height="1057"
     inkscape:window-x="1979"
     inkscape:window-y="-8"
     inkscape:window-maximized="1" />
  <metadata
     id="metadata5">
    <rdf:RDF>
      <cc:Work
         rdf:about="">
        <dc:format>image/svg+xml</dc:format>
        <dc:type
           rdf:resource="http://purl.org/dc/dcmitype/StillImage" />
        <dc:title></dc:title>
      </cc:Work>
    </rdf:RDF>
  </metadata>
  <g
     inkscape:label="Ebene 1"
     inkscape:groupmode="layer"
     id="layer1"
     transform="translate(0,-97)"
     style="display:inline">
    <g
       inkscape:groupmode="layer"
       id="layer2"
       inkscape:label="Hintergrund"
       style="display:inline">
      <rect
         style="fill:#e3dbdb;fill-opacity:1;stroke:none;stroke-width:0.251261;stroke-opacity:1"
         id="rect94"
         width="200.15549"
         height="38.226387"
         x="7.6495816e-08"
         y="96.999809" />
    </g>
    <g
       aria-label="Click on this log to walk there and pick it up!"
       transform="matrix(0.26458333,0,0,0.26458333,0,97)"
       style="font-style:normal;font-variant:normal;font-weight:normal;font-stretch:normal;font-size:40px;line-height:1.25;font-family:sans-serif;-inkscape-font-specification:'sans-serif, Normal';font-variant-ligatures:normal;font-variant-caps:normal;font-variant-numeric:normal;font-feature-settings:normal;text-align:center;letter-spacing:0px;word-spacing:0px;writing-mode:lr-tb;text-anchor:middle;fill:#000000;fill-opacity:1;stroke:none"
       id="flowRoot10">
      <path
         d="m 57.84375,32.021484 v 4.160157 q -1.992188,-1.855469 -4.257813,-2.773438 -2.246093,-0.917969 -4.785156,-0.917969 -5,0 -7.65625,3.066407 -2.65625,3.046875 -2.65625,8.828125 0,5.761718 2.65625,8.828125 2.65625,3.046875 7.65625,3.046875 2.539063,0 4.785156,-0.917969 2.265625,-0.917969 4.257813,-2.773438 v 4.121094 q -2.070313,1.40625 -4.394531,2.109375 -2.304688,0.703125 -4.882813,0.703125 -6.621094,0 -10.429687,-4.042969 -3.808594,-4.0625 -3.808594,-11.074218 0,-7.03125 3.808594,-11.074219 3.808593,-4.0625 10.429687,-4.0625 2.617188,0 4.921875,0.703125 2.324219,0.683594 4.355469,2.070312 z"
         id="path18"
         inkscape:connector-curvature="0" />
      <path
         d="m 63.820312,28.544922 h 3.59375 v 30.390625 h -3.59375 z"
         id="path20"
         inkscape:connector-curvature="0" />
      <path
         d="m 74.914062,37.060547 h 3.59375 v 21.875 h -3.59375 z m 0,-8.515625 h 3.59375 v 4.550781 h -3.59375 z"
         id="path22"
         inkscape:connector-curvature="0" />
      <path
         d="m 101.75,37.900391 v 3.359375 q -1.52344,-0.839844 -3.066406,-1.25 -1.523438,-0.429688 -3.085938,-0.429688 -3.496094,0 -5.429687,2.226563 -1.933594,2.207031 -1.933594,6.210937 0,4.003906 1.933594,6.230469 1.933593,2.207031 5.429687,2.207031 1.5625,0 3.085938,-0.410156 1.542966,-0.429688 3.066406,-1.269531 v 3.320312 q -1.50391,0.703125 -3.125,1.054688 -1.601563,0.351562 -3.417969,0.351562 -4.941406,0 -7.851562,-3.105469 -2.910157,-3.105468 -2.910157,-8.378906 0,-5.351562 2.929688,-8.417969 2.949219,-3.066406 8.066406,-3.066406 1.660156,0 3.242188,0.351563 1.582036,0.332031 3.066406,1.015625 z"
         id="path24"
         inkscape:connector-curvature="0" />
      <path
         d="m 107.90234,28.544922 h 3.61329 v 17.949219 l 10.72265,-9.433594 h 4.58985 l -11.60157,10.234375 12.08985,11.640625 h -4.6875 L 111.51563,48.251953 v 10.683594 h -3.61329 z"
         id="path26"
         inkscape:connector-curvature="0" />
      <path
         d="m 152.45312,39.580078 q -2.89062,0 -4.57031,2.265625 -1.67969,2.246094 -1.67969,6.171875 0,3.925781 1.66016,6.191406 1.67969,2.246094 4.58984,2.246094 2.8711,0 4.55079,-2.265625 1.67968,-2.265625 1.67968,-6.171875 0,-3.886719 -1.67968,-6.152344 -1.67969,-2.285156 -4.55079,-2.285156 z m 0,-3.046875 q 4.6875,0 7.36329,3.046875 2.67578,3.046875 2.67578,8.4375 0,5.371094 -2.67578,8.4375 -2.67579,3.046875 -7.36329,3.046875 -4.70703,0 -7.38281,-3.046875 -2.65625,-3.066406 -2.65625,-8.4375 0,-5.390625 2.65625,-8.4375 2.67578,-3.046875 7.38281,-3.046875 z"
         id="path28"
         inkscape:connector-curvature="0" />
      <path
         d="m 186.61328,45.732422 v 13.203125 h -3.59375 V 45.849609 q 0,-3.105468 -1.21094,-4.648437 -1.21093,-1.542969 -3.63281,-1.542969 -2.91016,0 -4.58984,1.855469 -1.67969,1.855469 -1.67969,5.058594 v 12.363281 h -3.61328 v -21.875 h 3.61328 v 3.398437 q 1.28906,-1.972656 3.02734,-2.949218 1.75782,-0.976563 4.04297,-0.976563 3.76953,0 5.70313,2.34375 1.93359,2.324219 1.93359,6.855469 z"
         id="path30"
         inkscape:connector-curvature="0" />
      <path
         d="m 210.10937,30.849609 v 6.210938 h 7.40235 v 2.792969 h -7.40235 v 11.875 q 0,2.675781 0.72266,3.4375 0.74219,0.761718 2.98828,0.761718 h 3.69141 v 3.007813 h -3.69141 q -4.16015,0 -5.74219,-1.542969 -1.58203,-1.5625 -1.58203,-5.664062 v -11.875 h -2.63672 v -2.792969 h 2.63672 v -6.210938 z"
         id="path32"
         inkscape:connector-curvature="0" />
      <path
         d="m 240.44141,45.732422 v 13.203125 h -3.59375 V 45.849609 q 0,-3.105468 -1.21094,-4.648437 -1.21094,-1.542969 -3.63281,-1.542969 -2.91016,0 -4.58985,1.855469 -1.67969,1.855469 -1.67969,5.058594 v 12.363281 h -3.61328 V 28.544922 h 3.61328 v 11.914062 q 1.28907,-1.972656 3.02735,-2.949218 1.75781,-0.976563 4.04297,-0.976563 3.76953,0 5.70312,2.34375 1.9336,2.324219 1.9336,6.855469 z"
         id="path34"
         inkscape:connector-curvature="0" />
      <path
         d="m 247.64844,37.060547 h 3.59375 v 21.875 h -3.59375 z m 0,-8.515625 h 3.59375 v 4.550781 h -3.59375 z"
         id="path36"
         inkscape:connector-curvature="0" />
      <path
         d="m 272.6875,37.705078 v 3.398438 q -1.52344,-0.78125 -3.16406,-1.171875 -1.64063,-0.390625 -3.39844,-0.390625 -2.67578,0 -4.02344,0.820312 -1.32812,0.820313 -1.32812,2.460938 0,1.25 0.95703,1.972656 0.95703,0.703125 3.84765,1.347656 l 1.23047,0.273438 q 3.82813,0.820312 5.42969,2.324218 1.62109,1.484375 1.62109,4.160157 0,3.046875 -2.42187,4.824218 -2.40234,1.777344 -6.62109,1.777344 -1.75782,0 -3.67188,-0.351562 -1.89453,-0.332032 -4.00391,-1.015625 v -3.710938 q 1.99219,1.035156 3.92579,1.5625 1.93359,0.507813 3.82812,0.507813 2.53906,0 3.90625,-0.859375 1.36719,-0.878907 1.36719,-2.460938 0,-1.464844 -0.9961,-2.246094 -0.97656,-0.78125 -4.3164,-1.503906 l -1.25,-0.292969 q -3.33985,-0.703125 -4.82422,-2.148437 -1.48438,-1.464844 -1.48438,-4.003906 0,-3.085938 2.1875,-4.765625 2.1875,-1.679688 6.21094,-1.679688 1.99219,0 3.75,0.292969 1.75781,0.292969 3.24219,0.878906 z"
         id="path38"
         inkscape:connector-curvature="0" />
      <path
         d="m 292.33594,28.544922 h 3.59375 v 30.390625 h -3.59375 z"
         id="path40"
         inkscape:connector-curvature="0" />
      <path
         d="m 311.90625,39.580078 q -2.89063,0 -4.57031,2.265625 -1.67969,2.246094 -1.67969,6.171875 0,3.925781 1.66016,6.191406 1.67968,2.246094 4.58984,2.246094 2.87109,0 4.55078,-2.265625 1.67969,-2.265625 1.67969,-6.171875 0,-3.886719 -1.67969,-6.152344 -1.67969,-2.285156 -4.55078,-2.285156 z m 0,-3.046875 q 4.6875,0 7.36328,3.046875 2.67578,3.046875 2.67578,8.4375 0,5.371094 -2.67578,8.4375 -2.67578,3.046875 -7.36328,3.046875 -4.70703,0 -7.38281,-3.046875 -2.65625,-3.066406 -2.65625,-8.4375 0,-5.390625 2.65625,-8.4375 2.67578,-3.046875 7.38281,-3.046875 z"
         id="path42"
         inkscape:connector-curvature="0" />
      <path
         d="m 342.27734,47.744141 q 0,-3.90625 -1.62109,-6.054688 -1.60156,-2.148437 -4.51172,-2.148437 -2.89062,0 -4.51172,2.148437 -1.60156,2.148438 -1.60156,6.054688 0,3.886718 1.60156,6.035156 1.6211,2.148437 4.51172,2.148437 2.91016,0 4.51172,-2.148437 1.62109,-2.148438 1.62109,-6.035156 z m 3.59375,8.476562 q 0,5.585938 -2.48047,8.300781 -2.48046,2.734375 -7.59765,2.734375 -1.89453,0 -3.57422,-0.292968 -1.67969,-0.273438 -3.26172,-0.859375 v -3.496094 q 1.58203,0.859375 3.125,1.269531 1.54297,0.410156 3.14453,0.410156 3.53516,0 5.29297,-1.855468 1.75781,-1.835938 1.75781,-5.566407 v -1.777343 q -1.11328,1.933593 -2.85156,2.890625 -1.73828,0.957031 -4.16016,0.957031 -4.02343,0 -6.48437,-3.066406 -2.46094,-3.066407 -2.46094,-8.125 0,-5.078125 2.46094,-8.144532 2.46094,-3.066406 6.48437,-3.066406 2.42188,0 4.16016,0.957031 1.73828,0.957032 2.85156,2.890625 v -3.320312 h 3.59375 z"
         id="path44"
         inkscape:connector-curvature="0" />
      <path
         d="m 369.5625,30.849609 v 6.210938 h 7.40234 v 2.792969 h -7.40234 v 11.875 q 0,2.675781 0.72266,3.4375 0.74218,0.761718 2.98828,0.761718 h 3.6914 v 3.007813 h -3.6914 q -4.16016,0 -5.74219,-1.542969 -1.58203,-1.5625 -1.58203,-5.664062 v -11.875 h -2.63672 v -2.792969 h 2.63672 v -6.210938 z"
         id="path46"
         inkscape:connector-curvature="0" />
      <path
         d="m 390.1875,39.580078 q -2.89063,0 -4.57031,2.265625 -1.67969,2.246094 -1.67969,6.171875 0,3.925781 1.66016,6.191406 1.67968,2.246094 4.58984,2.246094 2.87109,0 4.55078,-2.265625 1.67969,-2.265625 1.67969,-6.171875 0,-3.886719 -1.67969,-6.152344 -1.67969,-2.285156 -4.55078,-2.285156 z m 0,-3.046875 q 4.6875,0 7.36328,3.046875 2.67578,3.046875 2.67578,8.4375 0,5.371094 -2.67578,8.4375 -2.67578,3.046875 -7.36328,3.046875 -4.70703,0 -7.38281,-3.046875 -2.65625,-3.066406 -2.65625,-8.4375 0,-5.390625 2.65625,-8.4375 2.67578,-3.046875 7.38281,-3.046875 z"
         id="path48"
         inkscape:connector-curvature="0" />
      <path
         d="m 416.80859,37.060547 h 3.59375 l 4.49219,17.070312 4.47266,-17.070312 h 4.23828 l 4.49219,17.070312 4.47265,-17.070312 h 3.59375 l -5.72265,21.875 h -4.23829 l -4.70703,-17.929688 -4.72656,17.929688 h -4.23828 z"
         id="path50"
         inkscape:connector-curvature="0" />
      <path
         d="m 461.57422,47.939453 q -4.35547,0 -6.03516,0.996094 -1.67969,0.996094 -1.67969,3.398437 0,1.914063 1.25,3.046875 1.26954,1.113282 3.4375,1.113282 2.98829,0 4.78516,-2.109375 1.81641,-2.128907 1.81641,-5.644532 v -0.800781 z m 7.16797,-1.484375 v 12.480469 h -3.59375 v -3.320313 q -1.23047,1.992188 -3.06641,2.949219 -1.83594,0.9375 -4.49219,0.9375 -3.35937,0 -5.35156,-1.875 -1.97266,-1.894531 -1.97266,-5.058594 0,-3.691406 2.46094,-5.566406 2.48047,-1.875 7.38281,-1.875 h 5.03907 v -0.351562 q 0,-2.480469 -1.64063,-3.828125 -1.62109,-1.367188 -4.57031,-1.367188 -1.875,0 -3.65234,0.449219 -1.77735,0.449219 -3.41797,1.347656 v -3.320312 q 1.97265,-0.761719 3.82812,-1.132813 1.85547,-0.390625 3.61328,-0.390625 4.7461,0 7.08985,2.460938 2.34375,2.460937 2.34375,7.460937 z"
         id="path52"
         inkscape:connector-curvature="0" />
      <path
         d="m 476.16406,28.544922 h 3.59375 v 30.390625 h -3.59375 z"
         id="path54"
         inkscape:connector-curvature="0" />
      <path
         d="m 487.12109,28.544922 h 3.61328 v 17.949219 l 10.72266,-9.433594 h 4.58984 l -11.60156,10.234375 12.08985,11.640625 h -4.6875 L 490.73437,48.251953 v 10.683594 h -3.61328 z"
         id="path56"
         inkscape:connector-curvature="0" />
      <path
         d="m 526.75,30.849609 v 6.210938 h 7.40234 v 2.792969 H 526.75 v 11.875 q 0,2.675781 0.72266,3.4375 0.74218,0.761718 2.98828,0.761718 h 3.6914 v 3.007813 h -3.6914 q -4.16016,0 -5.74219,-1.542969 -1.58203,-1.5625 -1.58203,-5.664062 v -11.875 H 520.5 v -2.792969 h 2.63672 v -6.210938 z"
         id="path58"
         inkscape:connector-curvature="0" />
      <path
         d="m 557.08203,45.732422 v 13.203125 h -3.59375 V 45.849609 q 0,-3.105468 -1.21094,-4.648437 -1.21093,-1.542969 -3.63281,-1.542969 -2.91016,0 -4.58984,1.855469 -1.67969,1.855469 -1.67969,5.058594 v 12.363281 h -3.61328 V 28.544922 h 3.61328 v 11.914062 q 1.28906,-1.972656 3.02734,-2.949218 1.75782,-0.976563 4.04297,-0.976563 3.76953,0 5.70313,2.34375 1.93359,2.324219 1.93359,6.855469 z"
         id="path60"
         inkscape:connector-curvature="0" />
      <path
         d="m 583,47.099609 v 1.757813 h -16.52344 q 0.23438,3.710937 2.22656,5.664062 2.01172,1.933594 5.58594,1.933594 2.07031,0 4.00391,-0.507812 1.95312,-0.507813 3.86719,-1.523438 v 3.398438 q -1.9336,0.820312 -3.96485,1.25 -2.03125,0.429687 -4.12109,0.429687 -5.23438,0 -8.30078,-3.046875 -3.04688,-3.046875 -3.04688,-8.242187 0,-5.371094 2.89063,-8.515625 2.91015,-3.164063 7.83203,-3.164063 4.41406,0 6.97265,2.851563 Q 583,42.216797 583,47.099609 Z m -3.59375,-1.054687 q -0.0391,-2.949219 -1.66016,-4.707031 -1.60156,-1.757813 -4.25781,-1.757813 -3.00781,0 -4.82422,1.699219 -1.79687,1.699219 -2.07031,4.785156 z"
         id="path62"
         inkscape:connector-curvature="0" />
      <path
         d="m 601.57422,40.419922 q -0.60547,-0.351563 -1.32813,-0.507813 -0.70312,-0.175781 -1.5625,-0.175781 -3.04687,0 -4.6875,1.992188 -1.62109,1.972656 -1.62109,5.683593 v 11.523438 h -3.61328 v -21.875 h 3.61328 v 3.398437 q 1.13281,-1.992187 2.94922,-2.949218 1.8164,-0.976563 4.41406,-0.976563 0.37109,0 0.82031,0.05859 0.44922,0.03906 0.9961,0.136719 z"
         id="path64"
         inkscape:connector-curvature="0" />
      <path
         d="m 623.23437,47.099609 v 1.757813 h -16.52343 q 0.23437,3.710937 2.22656,5.664062 2.01172,1.933594 5.58594,1.933594 2.07031,0 4.0039,-0.507812 1.95313,-0.507813 3.86719,-1.523438 v 3.398438 q -1.93359,0.820312 -3.96484,1.25 -2.03125,0.429687 -4.1211,0.429687 -5.23437,0 -8.30078,-3.046875 -3.04687,-3.046875 -3.04687,-8.242187 0,-5.371094 2.89062,-8.515625 2.91016,-3.164063 7.83203,-3.164063 4.41407,0 6.97266,2.851563 2.57812,2.832031 2.57812,7.714843 z m -3.59375,-1.054687 q -0.0391,-2.949219 -1.66015,-4.707031 -1.60156,-1.757813 -4.25781,-1.757813 -3.00782,0 -4.82422,1.699219 -1.79688,1.699219 -2.07032,4.785156 z"
         id="path66"
         inkscape:connector-curvature="0" />
      <path
         d="m 651.80859,47.939453 q -4.35547,0 -6.03515,0.996094 -1.67969,0.996094 -1.67969,3.398437 0,1.914063 1.25,3.046875 1.26953,1.113282 3.4375,1.113282 2.98828,0 4.78516,-2.109375 1.8164,-2.128907 1.8164,-5.644532 v -0.800781 z m 7.16797,-1.484375 v 12.480469 h -3.59375 v -3.320313 q -1.23047,1.992188 -3.0664,2.949219 -1.83594,0.9375 -4.49219,0.9375 -3.35938,0 -5.35156,-1.875 Q 640.5,55.732422 640.5,52.568359 q 0,-3.691406 2.46094,-5.566406 2.48047,-1.875 7.38281,-1.875 h 5.03906 v -0.351562 q 0,-2.480469 -1.64062,-3.828125 -1.6211,-1.367188 -4.57032,-1.367188 -1.875,0 -3.65234,0.449219 -1.77734,0.449219 -3.41797,1.347656 v -3.320312 q 1.97266,-0.761719 3.82813,-1.132813 1.85547,-0.390625 3.61328,-0.390625 4.74609,0 7.08984,2.460938 2.34375,2.460937 2.34375,7.460937 z"
         id="path68"
         inkscape:connector-curvature="0" />
      <path
         d="m 684.58203,45.732422 v 13.203125 h -3.59375 V 45.849609 q 0,-3.105468 -1.21094,-4.648437 -1.21093,-1.542969 -3.63281,-1.542969 -2.91016,0 -4.58984,1.855469 -1.67969,1.855469 -1.67969,5.058594 v 12.363281 h -3.61328 v -21.875 h 3.61328 v 3.398437 q 1.28906,-1.972656 3.02734,-2.949218 1.75782,-0.976563 4.04297,-0.976563 3.76953,0 5.70313,2.34375 1.93359,2.324219 1.93359,6.855469 z"
         id="path70"
         inkscape:connector-curvature="0" />
      <path
         d="M 706.18359,40.380859 V 28.544922 h 3.59375 v 30.390625 h -3.59375 v -3.28125 q -1.13281,1.953125 -2.87109,2.910156 -1.71875,0.9375 -4.14063,0.9375 -3.96484,0 -6.46484,-3.164062 -2.48047,-3.164063 -2.48047,-8.320313 0,-5.15625 2.48047,-8.320312 2.5,-3.164063 6.46484,-3.164063 2.42188,0 4.14063,0.957031 1.73828,0.9375 2.87109,2.890625 z m -12.24609,7.636719 q 0,3.964844 1.62109,6.230469 1.64063,2.246094 4.49219,2.246094 2.85156,0 4.49219,-2.246094 1.64062,-2.265625 1.64062,-6.230469 0,-3.964844 -1.64062,-6.210937 -1.64063,-2.265625 -4.49219,-2.265625 -2.85156,0 -4.49219,2.265625 -1.62109,2.246093 -1.62109,6.210937 z"
         id="path72"
         inkscape:connector-curvature="0" />
      <path
         d="m 279.60156,105.6543 v 11.60156 h -3.61328 V 87.060547 h 3.61328 v 3.320312 q 1.13281,-1.953125 2.85156,-2.890625 1.73829,-0.957031 4.14063,-0.957031 3.98437,0 6.46484,3.164063 2.5,3.164062 2.5,8.320312 0,5.156252 -2.5,8.320312 -2.48047,3.16406 -6.46484,3.16406 -2.40234,0 -4.14063,-0.9375 -1.71875,-0.95703 -2.85156,-2.91015 z m 12.22656,-7.636722 q 0,-3.964844 -1.64062,-6.210937 -1.62109,-2.265625 -4.47266,-2.265625 -2.85156,0 -4.49218,2.265625 -1.6211,2.246093 -1.6211,6.210937 0,3.964842 1.6211,6.230472 1.64062,2.24609 4.49218,2.24609 2.85157,0 4.47266,-2.24609 1.64062,-2.26563 1.64062,-6.230472 z"
         id="path74"
         inkscape:connector-curvature="0" />
      <path
         d="m 301.51562,87.060547 h 3.59375 v 21.875003 h -3.59375 z m 0,-8.515625 h 3.59375 v 4.550781 h -3.59375 z"
         id="path76"
         inkscape:connector-curvature="0" />
      <path
         d="m 328.35156,87.900391 v 3.359375 q -1.52344,-0.839844 -3.0664,-1.25 -1.52344,-0.429688 -3.08594,-0.429688 -3.4961,0 -5.42969,2.226563 -1.93359,2.207031 -1.93359,6.210937 0,4.003902 1.93359,6.230472 1.93359,2.20703 5.42969,2.20703 1.5625,0 3.08594,-0.41016 1.54296,-0.42969 3.0664,-1.26953 v 3.32031 q -1.5039,0.70313 -3.125,1.05469 -1.60156,0.35156 -3.41797,0.35156 -4.9414,0 -7.85156,-3.10547 -2.91016,-3.10546 -2.91016,-8.378902 0,-5.351562 2.92969,-8.417969 2.94922,-3.066406 8.06641,-3.066406 1.66015,0 3.24219,0.351563 1.58203,0.332031 3.0664,1.015625 z"
         id="path78"
         inkscape:connector-curvature="0" />
      <path
         d="m 334.50391,78.544922 h 3.61328 v 17.949219 l 10.72265,-9.433594 h 4.58985 l -11.60157,10.234375 12.08985,11.640628 h -4.6875 L 338.11719,98.251953 v 10.683597 h -3.61328 z"
         id="path80"
         inkscape:connector-curvature="0" />
      <path
         d="m 370.57812,87.060547 h 3.59375 v 21.875003 h -3.59375 z m 0,-8.515625 h 3.59375 v 4.550781 h -3.59375 z"
         id="path82"
         inkscape:connector-curvature="0" />
      <path
         d="m 385.22656,80.849609 v 6.210938 h 7.40235 v 2.792969 h -7.40235 v 11.875004 q 0,2.67578 0.72266,3.4375 0.74219,0.76171 2.98828,0.76171 h 3.69141 v 3.00782 h -3.69141 q -4.16016,0 -5.74219,-1.54297 -1.58203,-1.5625 -1.58203,-5.66406 V 89.853516 h -2.63672 v -2.792969 h 2.63672 v -6.210938 z"
         id="path84"
         inkscape:connector-curvature="0" />
      <path
         d="M 409.73828,100.30273 V 87.060547 h 3.59375 v 13.105473 q 0,3.10546 1.21094,4.66796 1.21094,1.54297 3.63281,1.54297 2.91016,0 4.58984,-1.85547 1.69922,-1.85546 1.69922,-5.058589 V 87.060547 h 3.59375 v 21.875003 h -3.59375 v -3.35938 q -1.30859,1.99219 -3.04687,2.96875 -1.71875,0.95703 -4.00391,0.95703 -3.76953,0 -5.72265,-2.34375 -1.95313,-2.34375 -1.95313,-6.85547 z m 9.04297,-13.769527 z"
         id="path86"
         inkscape:connector-curvature="0" />
      <path
         d="m 438.97656,105.6543 v 11.60156 h -3.61328 V 87.060547 h 3.61328 v 3.320312 q 1.13281,-1.953125 2.85156,-2.890625 1.73829,-0.957031 4.14063,-0.957031 3.98437,0 6.46484,3.164063 2.5,3.164062 2.5,8.320312 0,5.156252 -2.5,8.320312 -2.48047,3.16406 -6.46484,3.16406 -2.40234,0 -4.14063,-0.9375 -1.71875,-0.95703 -2.85156,-2.91015 z m 12.22656,-7.636722 q 0,-3.964844 -1.64062,-6.210937 -1.62109,-2.265625 -4.47266,-2.265625 -2.85156,0 -4.49218,2.265625 -1.6211,2.246093 -1.6211,6.210937 0,3.964842 1.6211,6.230472 1.64062,2.24609 4.49218,2.24609 2.85157,0 4.47266,-2.24609 1.64062,-2.26563 1.64062,-6.230472 z"
         id="path88"
         inkscape:connector-curvature="0" />
      <path
         d="m 463.15625,103.97461 h 3.96484 v 4.96094 h -3.96484 z m 0,-24.199219 h 3.96484 v 12.792968 l -0.39062,6.972657 h -3.16406 l -0.41016,-6.972657 z"
         id="path90"
         inkscape:connector-curvature="0" />
    </g>
  </g>
</svg>
