<?xml version="1.0" encoding="UTF-8" standalone="no"?>
<!-- Created with Inkscape (http://www.inkscape.org/) -->

<svg
   xmlns:dc="http://purl.org/dc/elements/1.1/"
   xmlns:cc="http://creativecommons.org/ns#"
   xmlns:rdf="http://www.w3.org/1999/02/22-rdf-syntax-ns#"
   xmlns:svg="http://www.w3.org/2000/svg"
   xmlns="http://www.w3.org/2000/svg"
   xmlns:sodipodi="http://sodipodi.sourceforge.net/DTD/sodipodi-0.dtd"
   xmlns:inkscape="http://www.inkscape.org/namespaces/inkscape"
   width="200mm"
   height="200mm"
   viewBox="0 0 200 200"
   version="1.1"
   id="svg8"
   inkscape:version="0.92.5 (2060ec1f9f, 2020-04-08)"
   sodipodi:docname="tutorial3.svg">
  <defs
     id="defs2" />
  <sodipodi:namedview
     id="base"
     pagecolor="#ffffff"
     bordercolor="#666666"
     borderopacity="1.0"
     inkscape:pageopacity="0.0"
     inkscape:pageshadow="2"
     inkscape:zoom="1.4142136"
     inkscape:cx="372.82251"
     inkscape:cy="633.32929"
     inkscape:document-units="mm"
     inkscape:current-layer="layer1"
     showgrid="false"
     inkscape:window-width="1853"
     inkscape:window-height="1057"
     inkscape:window-x="1979"
     inkscape:window-y="-8"
     inkscape:window-maximized="1" />
  <metadata
     id="metadata5">
    <rdf:RDF>
      <cc:Work
         rdf:about="">
        <dc:format>image/svg+xml</dc:format>
        <dc:type
           rdf:resource="http://purl.org/dc/dcmitype/StillImage" />
        <dc:title></dc:title>
      </cc:Work>
    </rdf:RDF>
  </metadata>
  <g
     inkscape:label="Ebene 1"
     inkscape:groupmode="layer"
     id="layer1"
     transform="translate(0,-97)"
     style="display:inline">
    <flowRoot
       xml:space="preserve"
       id="flowRoot2853"
       style="fill:black;fill-opacity:1;stroke:none;font-family:sans-serif;font-style:normal;font-weight:normal;font-size:40px;line-height:1.25;letter-spacing:0px;word-spacing:0px"><flowRegion
         id="flowRegion2855"><rect
           id="rect2857"
           width="755.19"
           height="217.78888"
           x="0.70710677"
           y="0.0083828345" /></flowRegion><flowPara
         id="flowPara2859"></flowPara></flowRoot>    <g
       aria-label="Now click on the fire to open up the crafting menu."
       transform="matrix(0.26458333,0,0,0.26458333,0,97)"
       style="font-style:normal;font-variant:normal;font-weight:normal;font-stretch:normal;font-size:40px;line-height:1.25;font-family:sans-serif;-inkscape-font-specification:'sans-serif, Normal';font-variant-ligatures:normal;font-variant-caps:normal;font-variant-numeric:normal;font-feature-settings:normal;text-align:center;letter-spacing:0px;word-spacing:0px;writing-mode:lr-tb;text-anchor:middle;fill:#ffffff;fill-opacity:1;stroke:#000000;stroke-width:1.13385832;stroke-miterlimit:4;stroke-dasharray:none;stroke-opacity:1"
       id="flowRoot2861">
      <path
         d="m 24.258789,6.2382812 h 5.3125 L 42.500977,30.632812 V 6.2382812 h 3.828125 V 35.398437 h -5.3125 L 28.086914,11.003906 v 24.394531 h -3.828125 z"
         style=""
         id="path3682" />
      <path
         d="m 62.500977,16.042969 q -2.890625,0 -4.570313,2.265625 -1.679687,2.246093 -1.679687,6.171875 0,3.925781 1.660156,6.191406 1.679687,2.246094 4.589844,2.246094 2.871093,0 4.550781,-2.265625 1.679687,-2.265625 1.679687,-6.171875 0,-3.886719 -1.679687,-6.152344 -1.679688,-2.285156 -4.550781,-2.285156 z m 0,-3.046875 q 4.6875,0 7.363281,3.046875 2.675781,3.046875 2.675781,8.4375 0,5.371093 -2.675781,8.4375 -2.675781,3.046875 -7.363281,3.046875 -4.707032,0 -7.382813,-3.046875 -2.65625,-3.066407 -2.65625,-8.4375 0,-5.390625 2.65625,-8.4375 2.675781,-3.046875 7.382813,-3.046875 z"
         style=""
         id="path3684" />
      <path
         d="m 76.387695,13.523438 h 3.59375 l 4.492188,17.070312 4.472656,-17.070312 h 4.238281 l 4.492188,17.070312 4.472652,-17.070312 h 3.59375 l -5.72265,21.874999 H 95.782227 L 91.075195,17.46875 86.348633,35.398437 h -4.238281 z"
         style=""
         id="path3686" />
      <path
         d="m 139.68848,14.363281 v 3.359375 q -1.52344,-0.839844 -3.06641,-1.25 -1.52344,-0.429687 -3.08594,-0.429687 -3.49609,0 -5.42968,2.226562 -1.9336,2.207031 -1.9336,6.210938 0,4.003906 1.9336,6.230468 1.93359,2.207032 5.42968,2.207032 1.5625,0 3.08594,-0.410157 1.54297,-0.429687 3.06641,-1.269531 v 3.320313 q -1.50391,0.703125 -3.125,1.054687 -1.60157,0.351563 -3.41797,0.351563 -4.94141,0 -7.85156,-3.105469 -2.91016,-3.105469 -2.91016,-8.378906 0,-5.351563 2.92969,-8.417969 2.94922,-3.066406 8.0664,-3.066406 1.66016,0 3.24219,0.351562 1.58203,0.332032 3.06641,1.015625 z"
         style=""
         id="path3688" />
      <path
         d="m 145.97754,5.0078125 h 3.59375 V 35.398437 h -3.59375 z"
         style=""
         id="path3690" />
      <path
         d="m 157.07129,13.523438 h 3.59375 v 21.874999 h -3.59375 z m 0,-8.5156255 h 3.59375 v 4.5507813 h -3.59375 z"
         style=""
         id="path3692" />
      <path
         d="m 183.90723,14.363281 v 3.359375 q -1.52344,-0.839844 -3.06641,-1.25 -1.52344,-0.429687 -3.08594,-0.429687 -3.49609,0 -5.42968,2.226562 -1.9336,2.207031 -1.9336,6.210938 0,4.003906 1.9336,6.230468 1.93359,2.207032 5.42968,2.207032 1.5625,0 3.08594,-0.410157 1.54297,-0.429687 3.06641,-1.269531 v 3.320313 q -1.50391,0.703125 -3.125,1.054687 -1.60157,0.351563 -3.41797,0.351563 -4.94141,0 -7.85156,-3.105469 -2.91016,-3.105469 -2.91016,-8.378906 0,-5.351563 2.92969,-8.417969 2.94922,-3.066406 8.0664,-3.066406 1.66016,0 3.24219,0.351562 1.58203,0.332032 3.06641,1.015625 z"
         style=""
         id="path3694" />
      <path
         d="m 190.05957,5.0078125 h 3.61328 V 22.957031 l 10.72266,-9.433593 h 4.58984 l -11.60156,10.234374 12.08984,11.640625 h -4.6875 L 193.67285,24.714844 v 10.683593 h -3.61328 z"
         style=""
         id="path3696" />
      <path
         d="m 234.61035,16.042969 q -2.89062,0 -4.57031,2.265625 -1.67969,2.246093 -1.67969,6.171875 0,3.925781 1.66016,6.191406 1.67969,2.246094 4.58984,2.246094 2.8711,0 4.55078,-2.265625 1.67969,-2.265625 1.67969,-6.171875 0,-3.886719 -1.67969,-6.152344 -1.67968,-2.285156 -4.55078,-2.285156 z m 0,-3.046875 q 4.6875,0 7.36328,3.046875 2.67578,3.046875 2.67578,8.4375 0,5.371093 -2.67578,8.4375 -2.67578,3.046875 -7.36328,3.046875 -4.70703,0 -7.38281,-3.046875 -2.65625,-3.066407 -2.65625,-8.4375 0,-5.390625 2.65625,-8.4375 2.67578,-3.046875 7.38281,-3.046875 z"
         style=""
         id="path3698" />
      <path
         d="m 268.77051,22.195312 v 13.203125 h -3.59375 V 22.3125 q 0,-3.105469 -1.21094,-4.648438 -1.21094,-1.542968 -3.63281,-1.542968 -2.91016,0 -4.58985,1.855468 -1.67968,1.855469 -1.67968,5.058594 V 35.398437 H 250.4502 V 13.523438 h 3.61328 v 3.398437 q 1.28906,-1.972656 3.02734,-2.949219 1.75781,-0.976562 4.04297,-0.976562 3.76953,0 5.70312,2.34375 1.9336,2.324218 1.9336,6.855468 z"
         style=""
         id="path3700" />
      <path
         d="m 292.2666,7.3125 v 6.210938 h 7.40235 v 2.792968 h -7.40235 v 11.875 q 0,2.675781 0.72266,3.4375 0.74219,0.761719 2.98828,0.761719 h 3.69141 v 3.007812 h -3.69141 q -4.16016,0 -5.74219,-1.542968 -1.58203,-1.5625 -1.58203,-5.664063 v -11.875 h -2.63672 v -2.792968 h 2.63672 V 7.3125 Z"
         style=""
         id="path3702" />
      <path
         d="m 322.59863,22.195312 v 13.203125 h -3.59375 V 22.3125 q 0,-3.105469 -1.21093,-4.648438 -1.21094,-1.542968 -3.63282,-1.542968 -2.91015,0 -4.58984,1.855468 -1.67969,1.855469 -1.67969,5.058594 v 12.363281 h -3.61328 V 5.0078125 h 3.61328 V 16.921875 q 1.28906,-1.972656 3.02735,-2.949219 1.75781,-0.976562 4.04296,-0.976562 3.76954,0 5.70313,2.34375 1.93359,2.324218 1.93359,6.855468 z"
         style=""
         id="path3704" />
      <path
         d="m 348.5166,23.5625 v 1.757812 h -16.52344 q 0.23438,3.710938 2.22657,5.664063 2.01172,1.933594 5.58593,1.933594 2.07032,0 4.00391,-0.507813 1.95313,-0.507812 3.86719,-1.523437 v 3.398437 q -1.9336,0.820313 -3.96485,1.25 -2.03125,0.429688 -4.12109,0.429688 -5.23437,0 -8.30078,-3.046875 -3.04688,-3.046875 -3.04688,-8.242188 0,-5.371094 2.89063,-8.515625 2.91016,-3.164062 7.83203,-3.164062 4.41406,0 6.97266,2.851562 2.57812,2.832031 2.57812,7.714844 z m -3.59375,-1.054688 q -0.0391,-2.949218 -1.66015,-4.707031 -1.60157,-1.757812 -4.25782,-1.757812 -3.00781,0 -4.82422,1.699218 -1.79687,1.699219 -2.07031,4.785157 z"
         style=""
         id="path3706" />
      <path
         d="m 384.8252,13.523438 v 21.874999 h -3.61329 V 16.316406 h -9.86328 v 19.082031 h -3.61328 V 16.316406 h -3.4375 v -2.792968 h 3.4375 V 12 q 0,-3.5742187 1.67969,-5.2734375 1.69922,-1.71875 5.19531,-1.71875 h 3.61328 v 2.9882812 h -3.4375 q -1.93359,0 -2.69531,0.7812501 -0.74219,0.78125 -0.74219,2.8125002 v 1.933594 z m -3.61329,-8.476563 h 3.61329 v 4.5507813 h -3.61329 z"
         style=""
         id="path3708" />
      <path
         d="M 405.05957,16.882812 Q 404.4541,16.53125 403.73145,16.375 q -0.70313,-0.175781 -1.5625,-0.175781 -3.04688,0 -4.6875,1.992187 -1.6211,1.972656 -1.6211,5.683594 v 11.523437 h -3.61328 V 13.523438 h 3.61328 v 3.398437 q 1.13281,-1.992187 2.94922,-2.949219 1.81641,-0.976562 4.41406,-0.976562 0.3711,0 0.82032,0.05859 0.44921,0.03906 0.99609,0.136718 z"
         style=""
         id="path3710" />
      <path
         d="m 426.71973,23.5625 v 1.757812 h -16.52344 q 0.23437,3.710938 2.22656,5.664063 2.01172,1.933594 5.58594,1.933594 2.07031,0 4.00391,-0.507813 1.95312,-0.507812 3.86718,-1.523437 v 3.398437 q -1.93359,0.820313 -3.96484,1.25 -2.03125,0.429688 -4.12109,0.429688 -5.23438,0 -8.30079,-3.046875 -3.04687,-3.046875 -3.04687,-8.242188 0,-5.371094 2.89062,-8.515625 2.91016,-3.164062 7.83204,-3.164062 4.41406,0 6.97265,2.851562 2.57813,2.832031 2.57813,7.714844 z m -3.59375,-1.054688 q -0.0391,-2.949218 -1.66016,-4.707031 -1.60156,-1.757812 -4.25781,-1.757812 -3.00781,0 -4.82422,1.699218 -1.79688,1.699219 -2.07031,4.785157 z"
         style=""
         id="path3712" />
      <path
         d="m 448.90723,7.3125 v 6.210938 h 7.40234 v 2.792968 h -7.40234 v 11.875 q 0,2.675781 0.72265,3.4375 0.74219,0.761719 2.98828,0.761719 h 3.69141 v 3.007812 h -3.69141 q -4.16015,0 -5.74218,-1.542968 -1.58203,-1.5625 -1.58203,-5.664063 v -11.875 h -2.63672 v -2.792968 h 2.63672 V 7.3125 Z"
         style=""
         id="path3714" />
      <path
         d="m 469.53223,16.042969 q -2.89063,0 -4.57032,2.265625 -1.67968,2.246093 -1.67968,6.171875 0,3.925781 1.66015,6.191406 1.67969,2.246094 4.58985,2.246094 2.87109,0 4.55078,-2.265625 1.67969,-2.265625 1.67969,-6.171875 0,-3.886719 -1.67969,-6.152344 -1.67969,-2.285156 -4.55078,-2.285156 z m 0,-3.046875 q 4.6875,0 7.36328,3.046875 2.67578,3.046875 2.67578,8.4375 0,5.371093 -2.67578,8.4375 -2.67578,3.046875 -7.36328,3.046875 -4.70703,0 -7.38282,-3.046875 -2.65625,-3.066407 -2.65625,-8.4375 0,-5.390625 2.65625,-8.4375 2.67579,-3.046875 7.38282,-3.046875 z"
         style=""
         id="path3716" />
      <path
         d="m 506.71973,16.042969 q -2.89063,0 -4.57032,2.265625 -1.67968,2.246093 -1.67968,6.171875 0,3.925781 1.66015,6.191406 1.67969,2.246094 4.58985,2.246094 2.87109,0 4.55078,-2.265625 1.67969,-2.265625 1.67969,-6.171875 0,-3.886719 -1.67969,-6.152344 -1.67969,-2.285156 -4.55078,-2.285156 z m 0,-3.046875 q 4.6875,0 7.36328,3.046875 2.67578,3.046875 2.67578,8.4375 0,5.371093 -2.67578,8.4375 -2.67578,3.046875 -7.36328,3.046875 -4.70703,0 -7.38282,-3.046875 -2.65625,-3.066407 -2.65625,-8.4375 0,-5.390625 2.65625,-8.4375 2.67579,-3.046875 7.38282,-3.046875 z"
         style=""
         id="path3718" />
      <path
         d="M 526.17285,32.117187 V 43.71875 h -3.61328 V 13.523438 h 3.61328 v 3.320312 q 1.13281,-1.953125 2.85156,-2.890625 1.73829,-0.957031 4.14063,-0.957031 3.98437,0 6.46484,3.164062 2.5,3.164063 2.5,8.320313 0,5.15625 -2.5,8.320312 -2.48047,3.164063 -6.46484,3.164063 -2.40234,0 -4.14063,-0.9375 -1.71875,-0.957032 -2.85156,-2.910157 z m 12.22656,-7.636718 q 0,-3.964844 -1.64062,-6.210938 -1.62109,-2.265625 -4.47266,-2.265625 -2.85156,0 -4.49218,2.265625 -1.6211,2.246094 -1.6211,6.210938 0,3.964843 1.6211,6.230468 1.64062,2.246094 4.49218,2.246094 2.85157,0 4.47266,-2.246094 1.64062,-2.265625 1.64062,-6.230468 z"
         style=""
         id="path3720" />
      <path
         d="m 566.79785,23.5625 v 1.757812 h -16.52344 q 0.23438,3.710938 2.22657,5.664063 2.01172,1.933594 5.58593,1.933594 2.07032,0 4.00391,-0.507813 1.95313,-0.507812 3.86719,-1.523437 v 3.398437 q -1.9336,0.820313 -3.96485,1.25 -2.03125,0.429688 -4.12109,0.429688 -5.23437,0 -8.30078,-3.046875 -3.04688,-3.046875 -3.04688,-8.242188 0,-5.371094 2.89063,-8.515625 2.91016,-3.164062 7.83203,-3.164062 4.41406,0 6.97266,2.851562 2.57812,2.832031 2.57812,7.714844 z m -3.59375,-1.054688 q -0.0391,-2.949218 -1.66015,-4.707031 -1.60157,-1.757812 -4.25782,-1.757812 -3.00781,0 -4.82422,1.699218 -1.79687,1.699219 -2.07031,4.785157 z"
         style=""
         id="path3722" />
      <path
         d="m 590.87988,22.195312 v 13.203125 h -3.59375 V 22.3125 q 0,-3.105469 -1.21093,-4.648438 -1.21094,-1.542968 -3.63282,-1.542968 -2.91015,0 -4.58984,1.855468 -1.67969,1.855469 -1.67969,5.058594 v 12.363281 h -3.61328 V 13.523438 h 3.61328 v 3.398437 q 1.28906,-1.972656 3.02735,-2.949219 1.75781,-0.976562 4.04296,-0.976562 3.76954,0 5.70313,2.34375 1.93359,2.324218 1.93359,6.855468 z"
         style=""
         id="path3724" />
      <path
         d="M 610.4502,26.765625 V 13.523438 h 3.59375 v 13.105468 q 0,3.105469 1.21093,4.667969 1.21094,1.542969 3.63282,1.542969 2.91015,0 4.58984,-1.855469 1.69922,-1.855469 1.69922,-5.058594 V 13.523438 h 3.59375 v 21.874999 h -3.59375 v -3.359375 q -1.3086,1.992188 -3.04688,2.96875 -1.71875,0.957032 -4.0039,0.957032 -3.76953,0 -5.72266,-2.34375 -1.95312,-2.34375 -1.95312,-6.855469 z m 9.04296,-13.769531 z"
         style=""
         id="path3726" />
      <path
         d="M 639.68848,32.117187 V 43.71875 H 636.0752 V 13.523438 h 3.61328 v 3.320312 q 1.13281,-1.953125 2.85156,-2.890625 1.73828,-0.957031 4.14062,-0.957031 3.98438,0 6.46485,3.164062 2.5,3.164063 2.5,8.320313 0,5.15625 -2.5,8.320312 -2.48047,3.164063 -6.46485,3.164063 -2.40234,0 -4.14062,-0.9375 -1.71875,-0.957032 -2.85156,-2.910157 z m 12.22656,-7.636718 q 0,-3.964844 -1.64063,-6.210938 -1.62109,-2.265625 -4.47265,-2.265625 -2.85156,0 -4.49219,2.265625 -1.62109,2.246094 -1.62109,6.210938 0,3.964843 1.62109,6.230468 1.64063,2.246094 4.49219,2.246094 2.85156,0 4.47265,-2.246094 1.64063,-2.265625 1.64063,-6.230468 z"
         style=""
         id="path3728" />
      <path
         d="m 677.8916,7.3125 v 6.210938 h 7.40235 v 2.792968 h -7.40235 v 11.875 q 0,2.675781 0.72266,3.4375 0.74219,0.761719 2.98828,0.761719 h 3.69141 v 3.007812 h -3.69141 q -4.16016,0 -5.74219,-1.542968 -1.58203,-1.5625 -1.58203,-5.664063 v -11.875 h -2.63672 v -2.792968 h 2.63672 V 7.3125 Z"
         style=""
         id="path3730" />
      <path
         d="m 708.22363,22.195312 v 13.203125 h -3.59375 V 22.3125 q 0,-3.105469 -1.21093,-4.648438 -1.21094,-1.542968 -3.63282,-1.542968 -2.91015,0 -4.58984,1.855468 -1.67969,1.855469 -1.67969,5.058594 v 12.363281 h -3.61328 V 5.0078125 h 3.61328 V 16.921875 q 1.28906,-1.972656 3.02735,-2.949219 1.75781,-0.976562 4.04296,-0.976562 3.76954,0 5.70313,2.34375 1.93359,2.324218 1.93359,6.855468 z"
         style=""
         id="path3732" />
      <path
         d="m 734.1416,23.5625 v 1.757812 h -16.52344 q 0.23438,3.710938 2.22657,5.664063 2.01172,1.933594 5.58593,1.933594 2.07032,0 4.00391,-0.507813 1.95313,-0.507812 3.86719,-1.523437 v 3.398437 q -1.9336,0.820313 -3.96485,1.25 -2.03125,0.429688 -4.12109,0.429688 -5.23437,0 -8.30078,-3.046875 -3.04688,-3.046875 -3.04688,-8.242188 0,-5.371094 2.89063,-8.515625 2.91016,-3.164062 7.83203,-3.164062 4.41406,0 6.97266,2.851562 2.57812,2.832031 2.57812,7.714844 z m -3.59375,-1.054688 q -0.0391,-2.949218 -1.66015,-4.707031 -1.60157,-1.757812 -4.25782,-1.757812 -3.00781,0 -4.82422,1.699218 -1.79687,1.699219 -2.07031,4.785157 z"
         style=""
         id="path3734" />
      <path
         d="m 250.89941,64.363281 v 3.359375 q -1.52343,-0.839844 -3.0664,-1.25 -1.52344,-0.429687 -3.08594,-0.429687 -3.49609,0 -5.42969,2.226562 -1.93359,2.207031 -1.93359,6.210938 0,4.003906 1.93359,6.230468 1.9336,2.207032 5.42969,2.207032 1.5625,0 3.08594,-0.410157 1.54297,-0.429687 3.0664,-1.269531 v 3.320313 q -1.5039,0.703125 -3.125,1.054687 -1.60156,0.351563 -3.41796,0.351563 -4.94141,0 -7.85157,-3.105469 -2.91015,-3.105469 -2.91015,-8.378906 0,-5.351563 2.92968,-8.417969 2.94922,-3.066406 8.06641,-3.066406 1.66016,0 3.24219,0.351562 1.58203,0.332031 3.0664,1.015625 z"
         style=""
         id="path3736" />
      <path
         d="m 269.86426,66.882812 q -0.60547,-0.351562 -1.32813,-0.507812 -0.70312,-0.175781 -1.5625,-0.175781 -3.04687,0 -4.6875,1.992187 -1.62109,1.972656 -1.62109,5.683594 v 11.523437 h -3.61328 v -21.875 h 3.61328 v 3.398438 q 1.13281,-1.992188 2.94922,-2.949219 1.8164,-0.976562 4.41406,-0.976562 0.37109,0 0.82031,0.05859 0.44922,0.03906 0.9961,0.136719 z"
         style=""
         id="path3738" />
      <path
         d="m 283.61426,74.402344 q -4.35547,0 -6.03516,0.996093 -1.67969,0.996094 -1.67969,3.398438 0,1.914062 1.25,3.046875 1.26954,1.113281 3.4375,1.113281 2.98829,0 4.78516,-2.109375 1.81641,-2.128906 1.81641,-5.644531 v -0.800781 z m 7.16797,-1.484375 v 12.480468 h -3.59375 v -3.320312 q -1.23047,1.992187 -3.06641,2.949219 -1.83594,0.9375 -4.49219,0.9375 -3.35937,0 -5.35156,-1.875 -1.97266,-1.894532 -1.97266,-5.058594 0,-3.691406 2.46094,-5.566406 2.48047,-1.875 7.38281,-1.875 h 5.03907 v -0.351563 q 0,-2.480469 -1.64063,-3.828125 -1.62109,-1.367187 -4.57031,-1.367187 -1.875,0 -3.65234,0.449218 -1.77735,0.449219 -3.41797,1.347657 v -3.320313 q 1.97265,-0.761719 3.82812,-1.132812 1.85547,-0.390625 3.61328,-0.390625 4.7461,0 7.08985,2.460937 2.34375,2.460938 2.34375,7.460938 z"
         style=""
         id="path3740" />
      <path
         d="m 309.27832,55.007812 v 2.988282 h -3.4375 q -1.93359,0 -2.69531,0.78125 -0.74219,0.78125 -0.74219,2.8125 v 1.933593 h 5.91797 v 2.792969 h -5.91797 v 19.082031 h -3.61328 V 66.316406 h -3.4375 v -2.792969 h 3.4375 V 62 q 0,-3.652344 1.69922,-5.3125 1.69922,-1.679688 5.39062,-1.679688 z"
         style=""
         id="path3742" />
      <path
         d="m 315.11816,57.3125 v 6.210937 h 7.40235 v 2.792969 h -7.40235 v 11.875 q 0,2.675781 0.72266,3.4375 0.74219,0.761719 2.98828,0.761719 h 3.69141 v 3.007812 h -3.69141 q -4.16015,0 -5.74219,-1.542968 -1.58203,-1.5625 -1.58203,-5.664063 v -11.875 h -2.63672 v -2.792969 h 2.63672 V 57.3125 Z"
         style=""
         id="path3744" />
      <path
         d="m 327.2666,63.523437 h 3.59375 v 21.875 h -3.59375 z m 0,-8.515625 h 3.59375 v 4.550782 h -3.59375 z"
         style=""
         id="path3746" />
      <path
         d="M 356.54395,72.195312 V 85.398437 H 352.9502 V 72.3125 q 0,-3.105469 -1.21094,-4.648438 -1.21094,-1.542968 -3.63281,-1.542968 -2.91016,0 -4.58985,1.855468 -1.67969,1.855469 -1.67969,5.058594 v 12.363281 h -3.61328 v -21.875 h 3.61328 v 3.398438 q 1.28907,-1.972656 3.02735,-2.949219 1.75781,-0.976562 4.04297,-0.976562 3.76953,0 5.70312,2.34375 1.9336,2.324218 1.9336,6.855468 z"
         style=""
         id="path3748" />
      <path
         d="m 378.14551,74.207031 q 0,-3.90625 -1.6211,-6.054687 -1.60156,-2.148438 -4.51171,-2.148438 -2.89063,0 -4.51172,2.148438 -1.60157,2.148437 -1.60157,6.054687 0,3.886719 1.60157,6.035156 1.62109,2.148438 4.51172,2.148438 2.91015,0 4.51171,-2.148438 1.6211,-2.148437 1.6211,-6.035156 z m 3.59375,8.476563 q 0,5.585937 -2.48047,8.300781 -2.48047,2.734375 -7.59766,2.734375 -1.89453,0 -3.57422,-0.292969 -1.67968,-0.273437 -3.26171,-0.859375 v -3.496094 q 1.58203,0.859375 3.125,1.269532 1.54296,0.410156 3.14453,0.410156 3.53515,0 5.29297,-1.855469 1.75781,-1.835937 1.75781,-5.566406 v -1.777344 q -1.11328,1.933594 -2.85156,2.890625 -1.73829,0.957031 -4.16016,0.957031 -4.02344,0 -6.48438,-3.066406 -2.46093,-3.066406 -2.46093,-8.125 0,-5.078125 2.46093,-8.144531 2.46094,-3.066406 6.48438,-3.066406 2.42187,0 4.16016,0.957031 1.73828,0.957031 2.85156,2.890625 v -3.320313 h 3.59375 z"
         style=""
         id="path3750" />
      <path
         d="m 418.90723,67.722656 q 1.34765,-2.421875 3.22265,-3.574219 1.875,-1.152343 4.41407,-1.152343 3.41796,0 5.27343,2.402343 1.85547,2.382813 1.85547,6.796875 v 13.203125 h -3.61328 V 72.3125 q 0,-3.144531 -1.11328,-4.667969 -1.11328,-1.523437 -3.39844,-1.523437 -2.79297,0 -4.41406,1.855468 -1.62109,1.855469 -1.62109,5.058594 v 12.363281 h -3.61329 V 72.3125 q 0,-3.164063 -1.11328,-4.667969 -1.11328,-1.523437 -3.4375,-1.523437 -2.7539,0 -4.375,1.875 -1.62109,1.855468 -1.62109,5.039062 v 12.363281 h -3.61328 v -21.875 h 3.61328 v 3.398438 q 1.23047,-2.011719 2.94922,-2.96875 1.71875,-0.957031 4.08203,-0.957031 2.38281,0 4.04297,1.210937 1.67969,1.210938 2.48047,3.515625 z"
         style=""
         id="path3752" />
      <path
         d="m 459.57129,73.5625 v 1.757812 h -16.52344 q 0.23438,3.710938 2.22656,5.664063 2.01172,1.933594 5.58594,1.933594 2.07031,0 4.00391,-0.507813 1.95312,-0.507812 3.86719,-1.523437 v 3.398437 q -1.9336,0.820313 -3.96485,1.25 -2.03125,0.429688 -4.12109,0.429688 -5.23438,0 -8.30078,-3.046875 -3.04688,-3.046875 -3.04688,-8.242188 0,-5.371094 2.89063,-8.515625 2.91015,-3.164062 7.83203,-3.164062 4.41406,0 6.97265,2.851562 2.57813,2.832031 2.57813,7.714844 z m -3.59375,-1.054688 q -0.0391,-2.949218 -1.66016,-4.707031 -1.60156,-1.757812 -4.25781,-1.757812 -3.00781,0 -4.82422,1.699218 -1.79687,1.699219 -2.07031,4.785157 z"
         style=""
         id="path3754" />
      <path
         d="m 483.65332,72.195312 v 13.203125 h -3.59375 V 72.3125 q 0,-3.105469 -1.21094,-4.648438 -1.21093,-1.542968 -3.63281,-1.542968 -2.91016,0 -4.58984,1.855468 -1.67969,1.855469 -1.67969,5.058594 v 12.363281 h -3.61328 v -21.875 h 3.61328 v 3.398438 q 1.28906,-1.972656 3.02734,-2.949219 1.75782,-0.976562 4.04297,-0.976562 3.76953,0 5.70313,2.34375 1.93359,2.324218 1.93359,6.855468 z"
         style=""
         id="path3756" />
      <path
         d="M 490.48926,76.765625 V 63.523437 h 3.59375 v 13.105469 q 0,3.105469 1.21094,4.667969 1.21093,1.542969 3.63281,1.542969 2.91015,0 4.58984,-1.855469 1.69922,-1.855469 1.69922,-5.058594 V 63.523437 h 3.59375 v 21.875 h -3.59375 v -3.359375 q -1.30859,1.992188 -3.04687,2.96875 -1.71875,0.957032 -4.00391,0.957032 -3.76953,0 -5.72266,-2.34375 -1.95312,-2.34375 -1.95312,-6.855469 z m 9.04297,-13.769531 z"
         style=""
         id="path3758" />
      <path
         d="m 516.75879,80.4375 h 4.12109 v 4.960937 h -4.12109 z"
         style=""
         id="path3760" />
    </g>
  </g>
</svg>
