<?xml version="1.0" encoding="UTF-8" standalone="no"?>
<!-- Created with Inkscape (http://www.inkscape.org/) -->

<svg
   xmlns:dc="http://purl.org/dc/elements/1.1/"
   xmlns:cc="http://creativecommons.org/ns#"
   xmlns:rdf="http://www.w3.org/1999/02/22-rdf-syntax-ns#"
   xmlns:svg="http://www.w3.org/2000/svg"
   xmlns="http://www.w3.org/2000/svg"
   xmlns:sodipodi="http://sodipodi.sourceforge.net/DTD/sodipodi-0.dtd"
   xmlns:inkscape="http://www.inkscape.org/namespaces/inkscape"
   width="200mm"
   height="200mm"
   viewBox="0 0 200 200"
   version="1.1"
   id="svg8"
   inkscape:version="0.92.5 (2060ec1f9f, 2020-04-08)"
   sodipodi:docname="tutorial6.svg">
  <defs
     id="defs2" />
  <sodipodi:namedview
     id="base"
     pagecolor="#ffffff"
     bordercolor="#666666"
     borderopacity="1.0"
     inkscape:pageopacity="0.0"
     inkscape:pageshadow="2"
     inkscape:zoom="1.4142136"
     inkscape:cx="372.82251"
     inkscape:cy="633.32929"
     inkscape:document-units="mm"
     inkscape:current-layer="flowRoot2861"
     showgrid="false"
     inkscape:window-width="1853"
     inkscape:window-height="1057"
     inkscape:window-x="1979"
     inkscape:window-y="-8"
     inkscape:window-maximized="1" />
  <metadata
     id="metadata5">
    <rdf:RDF>
      <cc:Work
         rdf:about="">
        <dc:format>image/svg+xml</dc:format>
        <dc:type
           rdf:resource="http://purl.org/dc/dcmitype/StillImage" />
        <dc:title />
      </cc:Work>
    </rdf:RDF>
  </metadata>
  <g
     inkscape:label="Ebene 1"
     inkscape:groupmode="layer"
     id="layer1"
     transform="translate(0,-97)"
     style="display:inline">
    <flowRoot
       xml:space="preserve"
       id="flowRoot2853"
       style="fill:black;fill-opacity:1;stroke:none;font-family:sans-serif;font-style:normal;font-weight:normal;font-size:40px;line-height:1.25;letter-spacing:0px;word-spacing:0px"><flowRegion
         id="flowRegion2855"><rect
           id="rect2857"
           width="755.19"
           height="217.78888"
           x="0.70710677"
           y="0.0083828345" /></flowRegion><flowPara
         id="flowPara2859" /></flowRoot>    <g
       aria-label="Your energy is running low. Pick up the meat and walk near the fire to cook it!"
       transform="matrix(0.26458333,0,0,0.26458333,0,97)"
       style="font-style:normal;font-variant:normal;font-weight:normal;font-stretch:normal;font-size:40px;line-height:1.25;font-family:sans-serif;-inkscape-font-specification:'sans-serif, Normal';font-variant-ligatures:normal;font-variant-caps:normal;font-variant-numeric:normal;font-feature-settings:normal;text-align:center;letter-spacing:0px;word-spacing:0px;writing-mode:lr-tb;text-anchor:middle;fill:#ffffff;fill-opacity:1;stroke:#000000;stroke-width:1.13385832;stroke-miterlimit:4;stroke-dasharray:none;stroke-opacity:1"
       id="flowRoot2861">
      <g
         aria-label="Your energy is running low. Pick up the meat and click on the fire to cook it!"
         style="font-style:normal;font-weight:normal;font-size:40px;line-height:1.25;font-family:sans-serif;letter-spacing:0px;word-spacing:0px;fill:#ffffff;fill-opacity:1;stroke:#000000;stroke-width:1.13385832;stroke-miterlimit:4;stroke-dasharray:none;stroke-opacity:1"
         id="flowRoot887">
        <path
           d="m 29.036133,7.6523437 h 4.238281 L 41.360352,19.644531 49.387695,7.6523437 h 4.238282 L 43.313477,22.925781 V 36.8125 H 39.348633 V 22.925781 Z"
           style=""
           id="path895" />
        <path
           d="m 60.500977,17.457031 q -2.890625,0 -4.570313,2.265625 -1.679687,2.246094 -1.679687,6.171875 0,3.925781 1.660156,6.191406 1.679687,2.246094 4.589844,2.246094 2.871093,0 4.550781,-2.265625 1.679687,-2.265625 1.679687,-6.171875 0,-3.886719 -1.679687,-6.152344 -1.679688,-2.285156 -4.550781,-2.285156 z m 0,-3.046875 q 4.6875,0 7.363281,3.046875 2.675781,3.046875 2.675781,8.4375 0,5.371094 -2.675781,8.4375 -2.675781,3.046875 -7.363281,3.046875 -4.707032,0 -7.382813,-3.046875 -2.65625,-3.066406 -2.65625,-8.4375 0,-5.390625 2.65625,-8.4375 2.675781,-3.046875 7.382813,-3.046875 z"
           style=""
           id="path897" />
        <path
           d="M 76.106445,28.179687 V 14.9375 h 3.59375 v 13.105469 q 0,3.105468 1.210938,4.667968 1.210937,1.542969 3.632812,1.542969 2.910157,0 4.589844,-1.855469 1.699219,-1.855468 1.699219,-5.058593 V 14.9375 h 3.59375 v 21.875 h -3.59375 v -3.359375 q -1.308594,1.992187 -3.046875,2.96875 -1.71875,0.957031 -4.003906,0.957031 -3.769532,0 -5.722657,-2.34375 -1.953125,-2.34375 -1.953125,-6.855469 z m 9.042969,-13.769531 z"
           style=""
           id="path899" />
        <path
           d="m 114.54395,18.296875 q -0.60547,-0.351563 -1.32813,-0.507813 -0.70312,-0.175781 -1.5625,-0.175781 -3.04687,0 -4.6875,1.992188 -1.62109,1.972656 -1.62109,5.683593 V 36.8125 h -3.61328 v -21.875 h 3.61328 v 3.398437 q 1.13281,-1.992187 2.94922,-2.949218 1.8164,-0.976563 4.41406,-0.976563 0.37109,0 0.82031,0.05859 0.44922,0.03906 0.99609,0.136719 z"
           style=""
           id="path901" />
        <path
           d="m 149.79785,24.976562 v 1.757813 h -16.52344 q 0.23438,3.710937 2.22657,5.664062 2.01172,1.933594 5.58593,1.933594 2.07032,0 4.00391,-0.507812 1.95313,-0.507813 3.86719,-1.523438 v 3.398438 q -1.9336,0.820312 -3.96485,1.25 -2.03125,0.429687 -4.12109,0.429687 -5.23437,0 -8.30078,-3.046875 -3.04688,-3.046875 -3.04688,-8.242187 0,-5.371094 2.89063,-8.515625 2.91016,-3.164063 7.83203,-3.164063 4.41406,0 6.97266,2.851563 2.57812,2.832031 2.57812,7.714843 z m -3.59375,-1.054687 q -0.0391,-2.949219 -1.66015,-4.707031 -1.60157,-1.757813 -4.25782,-1.757813 -3.00781,0 -4.82422,1.699219 -1.79687,1.699219 -2.07031,4.785156 z"
           style=""
           id="path903" />
        <path
           d="M 173.87988,23.609375 V 36.8125 h -3.59375 V 23.726562 q 0,-3.105468 -1.21093,-4.648437 -1.21094,-1.542969 -3.63282,-1.542969 -2.91015,0 -4.58984,1.855469 -1.67969,1.855469 -1.67969,5.058594 V 36.8125 h -3.61328 v -21.875 h 3.61328 v 3.398437 q 1.28906,-1.972656 3.02735,-2.949218 1.75781,-0.976563 4.04296,-0.976563 3.76954,0 5.70313,2.34375 1.93359,2.324219 1.93359,6.855469 z"
           style=""
           id="path905" />
        <path
           d="m 199.79785,24.976562 v 1.757813 h -16.52344 q 0.23438,3.710937 2.22657,5.664062 2.01172,1.933594 5.58593,1.933594 2.07032,0 4.00391,-0.507812 1.95313,-0.507813 3.86719,-1.523438 v 3.398438 q -1.9336,0.820312 -3.96485,1.25 -2.03125,0.429687 -4.12109,0.429687 -5.23437,0 -8.30078,-3.046875 -3.04688,-3.046875 -3.04688,-8.242187 0,-5.371094 2.89063,-8.515625 2.91016,-3.164063 7.83203,-3.164063 4.41406,0 6.97266,2.851563 2.57812,2.832031 2.57812,7.714843 z m -3.59375,-1.054687 q -0.0391,-2.949219 -1.66015,-4.707031 -1.60157,-1.757813 -4.25782,-1.757813 -3.00781,0 -4.82422,1.699219 -1.79687,1.699219 -2.07031,4.785156 z"
           style=""
           id="path907" />
        <path
           d="m 218.37207,18.296875 q -0.60547,-0.351563 -1.32812,-0.507813 -0.70313,-0.175781 -1.5625,-0.175781 -3.04688,0 -4.6875,1.992188 -1.6211,1.972656 -1.6211,5.683593 V 36.8125 h -3.61328 v -21.875 h 3.61328 v 3.398437 q 1.13281,-1.992187 2.94922,-2.949218 1.81641,-0.976563 4.41406,-0.976563 0.3711,0 0.82032,0.05859 0.44921,0.03906 0.99609,0.136719 z"
           style=""
           id="path909" />
        <path
           d="m 235.87207,25.621094 q 0,-3.90625 -1.62109,-6.054688 -1.60157,-2.148437 -4.51172,-2.148437 -2.89063,0 -4.51172,2.148437 -1.60156,2.148438 -1.60156,6.054688 0,3.886718 1.60156,6.035156 1.62109,2.148437 4.51172,2.148437 2.91015,0 4.51172,-2.148437 1.62109,-2.148438 1.62109,-6.035156 z m 3.59375,8.476562 q 0,5.585938 -2.48047,8.300781 -2.48047,2.734375 -7.59765,2.734375 -1.89454,0 -3.57422,-0.292968 -1.67969,-0.273438 -3.26172,-0.859375 v -3.496094 q 1.58203,0.859375 3.125,1.269531 1.54297,0.410156 3.14453,0.410156 3.53516,0 5.29297,-1.855468 1.75781,-1.835938 1.75781,-5.566407 v -1.777343 q -1.11328,1.933593 -2.85156,2.890625 -1.73828,0.957031 -4.16016,0.957031 -4.02344,0 -6.48437,-3.066406 -2.46094,-3.066407 -2.46094,-8.125 0,-5.078125 2.46094,-8.144532 2.46093,-3.066406 6.48437,-3.066406 2.42188,0 4.16016,0.957032 1.73828,0.957031 2.85156,2.890624 V 14.9375 h 3.59375 z"
           style=""
           id="path911" />
        <path
           d="m 255.96973,38.84375 q -1.52344,3.90625 -2.96875,5.097656 -1.44532,1.191406 -3.86719,1.191406 H 246.2627 V 42.125 h 2.10937 q 1.48438,0 2.30469,-0.703125 0.82031,-0.703125 1.8164,-3.320313 L 253.1377,36.460937 244.29004,14.9375 h 3.80859 l 6.83594,17.109375 6.83594,-17.109375 h 3.80859 z"
           style=""
           id="path913" />
        <path
           d="m 283.27441,14.9375 h 3.59375 v 21.875 h -3.59375 z m 0,-8.515625 h 3.59375 v 4.550781 h -3.59375 z"
           style=""
           id="path915" />
        <path
           d="m 308.31348,15.582031 v 3.398438 q -1.52344,-0.78125 -3.16407,-1.171875 -1.64062,-0.390625 -3.39843,-0.390625 -2.67578,0 -4.02344,0.820312 -1.32813,0.820313 -1.32813,2.460938 0,1.25 0.95704,1.972656 0.95703,0.703125 3.84765,1.347656 l 1.23047,0.273438 q 3.82813,0.820312 5.42969,2.324218 1.62109,1.484375 1.62109,4.160157 0,3.046875 -2.42187,4.824218 -2.40235,1.777344 -6.6211,1.777344 -1.75781,0 -3.67187,-0.351562 -1.89453,-0.332032 -4.00391,-1.015625 v -3.710938 q 1.99219,1.035156 3.92578,1.5625 1.9336,0.507813 3.82813,0.507813 2.53906,0 3.90625,-0.859375 1.36719,-0.878907 1.36719,-2.460938 0,-1.464844 -0.9961,-2.246094 -0.97656,-0.78125 -4.3164,-1.503906 l -1.25,-0.292969 q -3.33985,-0.703125 -4.82422,-2.148437 -1.48438,-1.464844 -1.48438,-4.003906 0,-3.085938 2.1875,-4.765625 2.1875,-1.679688 6.21094,-1.679688 1.99219,0 3.75,0.292969 1.75781,0.292969 3.24219,0.878906 z"
           style=""
           id="path917" />
        <path
           d="m 340.6377,18.296875 q -0.60547,-0.351563 -1.32813,-0.507813 -0.70312,-0.175781 -1.5625,-0.175781 -3.04687,0 -4.6875,1.992188 -1.62109,1.972656 -1.62109,5.683593 V 36.8125 h -3.61328 v -21.875 h 3.61328 v 3.398437 q 1.13281,-1.992187 2.94922,-2.949218 1.8164,-0.976563 4.41406,-0.976563 0.37109,0 0.82031,0.05859 0.44922,0.03906 0.99609,0.136719 z"
           style=""
           id="path919" />
        <path
           d="M 344.0752,28.179687 V 14.9375 h 3.59375 v 13.105469 q 0,3.105468 1.21093,4.667968 1.21094,1.542969 3.63282,1.542969 2.91015,0 4.58984,-1.855469 1.69922,-1.855468 1.69922,-5.058593 V 14.9375 h 3.59375 v 21.875 h -3.59375 v -3.359375 q -1.3086,1.992187 -3.04688,2.96875 -1.71875,0.957031 -4.0039,0.957031 -3.76953,0 -5.72266,-2.34375 -1.95312,-2.34375 -1.95312,-6.855469 z m 9.04296,-13.769531 z"
           style=""
           id="path921" />
        <path
           d="M 388.02051,23.609375 V 36.8125 h -3.59375 V 23.726562 q 0,-3.105468 -1.21094,-4.648437 -1.21094,-1.542969 -3.63281,-1.542969 -2.91016,0 -4.58985,1.855469 -1.67968,1.855469 -1.67968,5.058594 V 36.8125 h -3.61328 v -21.875 h 3.61328 v 3.398437 q 1.28906,-1.972656 3.02734,-2.949218 1.75781,-0.976563 4.04297,-0.976563 3.76953,0 5.70312,2.34375 1.9336,2.324219 1.9336,6.855469 z"
           style=""
           id="path923" />
        <path
           d="M 413.41113,23.609375 V 36.8125 h -3.59375 V 23.726562 q 0,-3.105468 -1.21093,-4.648437 -1.21094,-1.542969 -3.63282,-1.542969 -2.91015,0 -4.58984,1.855469 -1.67969,1.855469 -1.67969,5.058594 V 36.8125 h -3.61328 v -21.875 h 3.61328 v 3.398437 q 1.28906,-1.972656 3.02735,-2.949218 1.75781,-0.976563 4.04296,-0.976563 3.76954,0 5.70313,2.34375 1.93359,2.324219 1.93359,6.855469 z"
           style=""
           id="path925" />
        <path
           d="m 420.61816,14.9375 h 3.59375 v 21.875 h -3.59375 z m 0,-8.515625 h 3.59375 v 4.550781 h -3.59375 z"
           style=""
           id="path927" />
        <path
           d="M 449.89551,23.609375 V 36.8125 h -3.59375 V 23.726562 q 0,-3.105468 -1.21094,-4.648437 -1.21094,-1.542969 -3.63281,-1.542969 -2.91016,0 -4.58985,1.855469 -1.67968,1.855469 -1.67968,5.058594 V 36.8125 h -3.61328 v -21.875 h 3.61328 v 3.398437 q 1.28906,-1.972656 3.02734,-2.949218 1.75781,-0.976563 4.04297,-0.976563 3.76953,0 5.70312,2.34375 1.9336,2.324219 1.9336,6.855469 z"
           style=""
           id="path929" />
        <path
           d="m 471.49707,25.621094 q 0,-3.90625 -1.62109,-6.054688 -1.60157,-2.148437 -4.51172,-2.148437 -2.89063,0 -4.51172,2.148437 -1.60156,2.148438 -1.60156,6.054688 0,3.886718 1.60156,6.035156 1.62109,2.148437 4.51172,2.148437 2.91015,0 4.51172,-2.148437 1.62109,-2.148438 1.62109,-6.035156 z m 3.59375,8.476562 q 0,5.585938 -2.48047,8.300781 -2.48047,2.734375 -7.59765,2.734375 -1.89454,0 -3.57422,-0.292968 -1.67969,-0.273438 -3.26172,-0.859375 v -3.496094 q 1.58203,0.859375 3.125,1.269531 1.54297,0.410156 3.14453,0.410156 3.53516,0 5.29297,-1.855468 1.75781,-1.835938 1.75781,-5.566407 v -1.777343 q -1.11328,1.933593 -2.85156,2.890625 -1.73828,0.957031 -4.16016,0.957031 -4.02344,0 -6.48437,-3.066406 -2.46094,-3.066407 -2.46094,-8.125 0,-5.078125 2.46094,-8.144532 2.46093,-3.066406 6.48437,-3.066406 2.42188,0 4.16016,0.957032 1.73828,0.957031 2.85156,2.890624 V 14.9375 h 3.59375 z"
           style=""
           id="path931" />
        <path
           d="m 495.22754,6.421875 h 3.59375 V 36.8125 h -3.59375 z"
           style=""
           id="path933" />
        <path
           d="m 514.79785,17.457031 q -2.89062,0 -4.57031,2.265625 -1.67969,2.246094 -1.67969,6.171875 0,3.925781 1.66016,6.191406 1.67969,2.246094 4.58984,2.246094 2.8711,0 4.55078,-2.265625 1.67969,-2.265625 1.67969,-6.171875 0,-3.886719 -1.67969,-6.152344 -1.67968,-2.285156 -4.55078,-2.285156 z m 0,-3.046875 q 4.6875,0 7.36328,3.046875 2.67578,3.046875 2.67578,8.4375 0,5.371094 -2.67578,8.4375 -2.67578,3.046875 -7.36328,3.046875 -4.70703,0 -7.38281,-3.046875 -2.65625,-3.066406 -2.65625,-8.4375 0,-5.390625 2.65625,-8.4375 2.67578,-3.046875 7.38281,-3.046875 z"
           style=""
           id="path935" />
        <path
           d="m 528.68457,14.9375 h 3.59375 l 4.49219,17.070312 4.47265,-17.070312 h 4.23829 l 4.49218,17.070312 4.47266,-17.070312 h 3.59375 l -5.72266,21.875 H 548.0791 L 543.37207,18.882812 538.64551,36.8125 h -4.23828 z"
           style=""
           id="path937" />
        <path
           d="m 560.34473,31.851562 h 4.12109 V 36.8125 h -4.12109 z"
           style=""
           id="path939" />
        <path
           d="m 589.40723,10.894531 v 10.957031 h 4.96093 q 2.75391,0 4.25782,-1.425781 1.5039,-1.425781 1.5039,-4.0625 0,-2.617187 -1.5039,-4.042968 -1.50391,-1.425782 -4.25782,-1.425782 z m -3.94532,-3.2421873 h 8.90625 q 4.90235,0 7.40235,2.2265626 2.51953,2.2070317 2.51953,6.4843747 0,4.316406 -2.51953,6.523438 -2.5,2.207031 -7.40235,2.207031 h -4.96093 V 36.8125 h -3.94532 z"
           style=""
           id="path941" />
        <path
           d="m 608.58691,14.9375 h 3.59375 v 21.875 h -3.59375 z m 0,-8.515625 h 3.59375 v 4.550781 h -3.59375 z"
           style=""
           id="path943" />
        <path
           d="m 635.42285,15.777344 v 3.359375 q -1.52344,-0.839844 -3.0664,-1.25 -1.52344,-0.429688 -3.08594,-0.429688 -3.4961,0 -5.42969,2.226563 -1.93359,2.207031 -1.93359,6.210937 0,4.003906 1.93359,6.230469 1.93359,2.207031 5.42969,2.207031 1.5625,0 3.08594,-0.410156 1.54296,-0.429688 3.0664,-1.269531 v 3.320312 q -1.5039,0.703125 -3.125,1.054688 -1.60156,0.351562 -3.41797,0.351562 -4.9414,0 -7.85156,-3.105469 -2.91016,-3.105468 -2.91016,-8.378906 0,-5.351562 2.92969,-8.417969 2.94922,-3.066406 8.06641,-3.066406 1.66015,0 3.24219,0.351563 1.58203,0.332031 3.0664,1.015625 z"
           style=""
           id="path945" />
        <path
           d="m 641.5752,6.421875 h 3.61328 V 24.371094 L 655.91113,14.9375 h 4.58985 L 648.89941,25.171875 660.98926,36.8125 h -4.6875 L 645.18848,26.128906 V 36.8125 h -3.61328 z"
           style=""
           id="path947" />
        <path
           d="M 677.27832,28.179687 V 14.9375 h 3.59375 v 13.105469 q 0,3.105468 1.21094,4.667968 1.21094,1.542969 3.63281,1.542969 2.91016,0 4.58984,-1.855469 1.69922,-1.855468 1.69922,-5.058593 V 14.9375 h 3.59375 v 21.875 h -3.59375 v -3.359375 q -1.30859,1.992187 -3.04687,2.96875 -1.71875,0.957031 -4.00391,0.957031 -3.76953,0 -5.72265,-2.34375 -1.95313,-2.34375 -1.95313,-6.855469 z m 9.04297,-13.769531 z"
           style=""
           id="path949" />
        <path
           d="m 706.5166,33.53125 v 11.601562 h -3.61328 V 14.9375 h 3.61328 v 3.320312 q 1.13281,-1.953125 2.85156,-2.890624 1.73829,-0.957032 4.14063,-0.957032 3.98437,0 6.46484,3.164063 2.5,3.164062 2.5,8.320312 0,5.15625 -2.5,8.320313 -2.48047,3.164062 -6.46484,3.164062 -2.40234,0 -4.14063,-0.9375 -1.71875,-0.957031 -2.85156,-2.910156 z m 12.22656,-7.636719 q 0,-3.964844 -1.64062,-6.210937 -1.62109,-2.265625 -4.47266,-2.265625 -2.85156,0 -4.49218,2.265625 -1.6211,2.246093 -1.6211,6.210937 0,3.964844 1.6211,6.230469 1.64062,2.246094 4.49218,2.246094 2.85157,0 4.47266,-2.246094 1.64062,-2.265625 1.64062,-6.230469 z"
           style=""
           id="path951" />
        <path
           d="M 8.4697266,58.726562 V 64.9375 H 15.87207 v 2.792969 H 8.4697266 v 11.875 q 0,2.675781 0.7226562,3.4375 0.7421875,0.761718 2.9882812,0.761718 H 15.87207 V 86.8125 h -3.691406 q -4.1601562,0 -5.7421874,-1.542969 -1.5820313,-1.5625 -1.5820313,-5.664062 v -11.875 H 2.2197266 V 64.9375 h 2.6367187 v -6.210938 z"
           style=""
           id="path953" />
        <path
           d="M 38.801758,73.609375 V 86.8125 h -3.59375 V 73.726562 q 0,-3.105468 -1.210938,-4.648437 -1.210937,-1.542969 -3.632812,-1.542969 -2.910156,0 -4.589844,1.855469 -1.679687,1.855469 -1.679687,5.058594 V 86.8125 H 20.481445 V 56.421875 h 3.613282 v 11.914062 q 1.289062,-1.972656 3.027343,-2.949218 1.757813,-0.976563 4.042969,-0.976563 3.769531,0 5.703125,2.34375 1.933594,2.324219 1.933594,6.855469 z"
           style=""
           id="path955" />
        <path
           d="m 64.719727,74.976562 v 1.757813 H 48.196289 q 0.234375,3.710937 2.226563,5.664062 2.011718,1.933594 5.585937,1.933594 2.070313,0 4.003906,-0.507812 1.953125,-0.507813 3.867188,-1.523438 v 3.398438 q -1.933594,0.820312 -3.964844,1.25 -2.03125,0.429687 -4.121094,0.429687 -5.234375,0 -8.300781,-3.046875 -3.046875,-3.046875 -3.046875,-8.242187 0,-5.371094 2.890625,-8.515625 2.910156,-3.164063 7.832031,-3.164063 4.414063,0 6.972657,2.851563 2.578125,2.832031 2.578125,7.714843 z m -3.59375,-1.054687 q -0.03906,-2.949219 -1.660157,-4.707031 -1.601562,-1.757813 -4.257812,-1.757813 -3.007813,0 -4.824219,1.699219 -1.796875,1.699219 -2.070312,4.785156 z"
           style=""
           id="path957" />
        <path
           d="m 100.38379,69.136719 q 1.34766,-2.421875 3.22266,-3.574219 1.875,-1.152344 4.41406,-1.152344 3.41797,0 5.27344,2.402344 1.85546,2.382812 1.85546,6.796875 V 86.8125 h -3.61328 V 73.726562 q 0,-3.144531 -1.11328,-4.667968 -1.11328,-1.523438 -3.39844,-1.523438 -2.79296,0 -4.41406,1.855469 -1.62109,1.855469 -1.62109,5.058594 V 86.8125 H 97.375977 V 73.726562 q 0,-3.164062 -1.113282,-4.667968 -1.113281,-1.523438 -3.4375,-1.523438 -2.753906,0 -4.375,1.875 -1.621093,1.855469 -1.621093,5.039063 V 86.8125 H 83.21582 v -21.875 h 3.613282 v 3.398437 q 1.230468,-2.011718 2.949218,-2.96875 1.71875,-0.957031 4.082032,-0.957031 2.382812,0 4.042968,1.210938 1.679688,1.210937 2.48047,3.515625 z"
           style=""
           id="path959" />
        <path
           d="m 141.04785,74.976562 v 1.757813 h -16.52344 q 0.23438,3.710937 2.22657,5.664062 2.01172,1.933594 5.58593,1.933594 2.07032,0 4.00391,-0.507812 1.95313,-0.507813 3.86719,-1.523438 v 3.398438 q -1.9336,0.820312 -3.96485,1.25 -2.03125,0.429687 -4.12109,0.429687 -5.23437,0 -8.30078,-3.046875 -3.04688,-3.046875 -3.04688,-8.242187 0,-5.371094 2.89063,-8.515625 2.91016,-3.164063 7.83203,-3.164063 4.41406,0 6.97266,2.851563 2.57812,2.832031 2.57812,7.714843 z m -3.59375,-1.054687 q -0.0391,-2.949219 -1.66015,-4.707031 -1.60157,-1.757813 -4.25782,-1.757813 -3.00781,0 -4.82422,1.699219 -1.79687,1.699219 -2.07031,4.785156 z"
           style=""
           id="path961" />
        <path
           d="m 156.8877,75.816406 q -4.35547,0 -6.03516,0.996094 -1.67969,0.996094 -1.67969,3.398437 0,1.914063 1.25,3.046875 1.26953,1.113282 3.4375,1.113282 2.98828,0 4.78516,-2.109375 1.8164,-2.128907 1.8164,-5.644532 v -0.800781 z m 7.16796,-1.484375 V 86.8125 h -3.59375 v -3.320313 q -1.23046,1.992188 -3.0664,2.949219 -1.83594,0.9375 -4.49219,0.9375 -3.35937,0 -5.35156,-1.875 -1.97266,-1.894531 -1.97266,-5.058594 0,-3.691406 2.46094,-5.566406 2.48047,-1.875 7.38281,-1.875 h 5.03906 v -0.351562 q 0,-2.480469 -1.64062,-3.828125 -1.62109,-1.367188 -4.57031,-1.367188 -1.875,0 -3.65235,0.449219 -1.77734,0.449219 -3.41797,1.347656 v -3.320312 q 1.97266,-0.761719 3.82813,-1.132813 1.85547,-0.390625 3.61328,-0.390625 4.74609,0 7.08984,2.460938 2.34375,2.460937 2.34375,7.460937 z"
           style=""
           id="path963" />
        <path
           d="M 175.03223,58.726562 V 64.9375 h 7.40234 v 2.792969 h -7.40234 v 11.875 q 0,2.675781 0.72265,3.4375 0.74219,0.761718 2.98828,0.761718 h 3.69141 V 86.8125 h -3.69141 q -4.16015,0 -5.74218,-1.542969 -1.58203,-1.5625 -1.58203,-5.664062 v -11.875 h -2.63672 V 64.9375 h 2.63672 v -6.210938 z"
           style=""
           id="path965" />
        <path
           d="m 209.85645,75.816406 q -4.35547,0 -6.03516,0.996094 -1.67969,0.996094 -1.67969,3.398437 0,1.914063 1.25,3.046875 1.26953,1.113282 3.4375,1.113282 2.98828,0 4.78516,-2.109375 1.8164,-2.128907 1.8164,-5.644532 v -0.800781 z m 7.16796,-1.484375 V 86.8125 h -3.59375 v -3.320313 q -1.23046,1.992188 -3.0664,2.949219 -1.83594,0.9375 -4.49219,0.9375 -3.35937,0 -5.35156,-1.875 -1.97266,-1.894531 -1.97266,-5.058594 0,-3.691406 2.46094,-5.566406 2.48047,-1.875 7.38281,-1.875 h 5.03906 v -0.351562 q 0,-2.480469 -1.64062,-3.828125 -1.62109,-1.367188 -4.57031,-1.367188 -1.875,0 -3.65235,0.449219 -1.77734,0.449219 -3.41797,1.347656 v -3.320312 q 1.97266,-0.761719 3.82813,-1.132813 1.85547,-0.390625 3.61328,-0.390625 4.74609,0 7.08984,2.460938 2.34375,2.460937 2.34375,7.460937 z"
           style=""
           id="path967" />
        <path
           d="M 242.62988,73.609375 V 86.8125 h -3.59375 V 73.726562 q 0,-3.105468 -1.21093,-4.648437 -1.21094,-1.542969 -3.63282,-1.542969 -2.91015,0 -4.58984,1.855469 -1.67969,1.855469 -1.67969,5.058594 V 86.8125 h -3.61328 v -21.875 h 3.61328 v 3.398437 q 1.28906,-1.972656 3.02735,-2.949218 1.75781,-0.976563 4.04296,-0.976563 3.76954,0 5.70313,2.34375 1.93359,2.324219 1.93359,6.855469 z"
           style=""
           id="path969" />
        <path
           d="M 264.23145,68.257812 V 56.421875 h 3.59375 V 86.8125 h -3.59375 v -3.28125 q -1.13282,1.953125 -2.8711,2.910156 -1.71875,0.9375 -4.14062,0.9375 -3.96485,0 -6.46485,-3.164062 -2.48047,-3.164063 -2.48047,-8.320313 0,-5.15625 2.48047,-8.320312 2.5,-3.164063 6.46485,-3.164063 2.42187,0 4.14062,0.957031 1.73828,0.9375 2.8711,2.890625 z m -12.2461,7.636719 q 0,3.964844 1.6211,6.230469 1.64062,2.246094 4.49218,2.246094 2.85157,0 4.49219,-2.246094 1.64063,-2.265625 1.64063,-6.230469 0,-3.964844 -1.64063,-6.210937 -1.64062,-2.265625 -4.49219,-2.265625 -2.85156,0 -4.49218,2.265625 -1.6211,2.246093 -1.6211,6.210937 z"
           style=""
           id="path971" />
        <path
           d="m 303.7041,65.777344 v 3.359375 q -1.52344,-0.839844 -3.0664,-1.25 -1.52344,-0.429688 -3.08594,-0.429688 -3.4961,0 -5.42969,2.226563 -1.93359,2.207031 -1.93359,6.210937 0,4.003906 1.93359,6.230469 1.93359,2.207031 5.42969,2.207031 1.5625,0 3.08594,-0.410156 1.54296,-0.429688 3.0664,-1.269531 v 3.320312 q -1.5039,0.703125 -3.125,1.054688 -1.60156,0.351562 -3.41797,0.351562 -4.9414,0 -7.85156,-3.105469 -2.91016,-3.105468 -2.91016,-8.378906 0,-5.351562 2.92969,-8.417969 2.94922,-3.066406 8.06641,-3.066406 1.66015,0 3.24219,0.351563 1.58203,0.332031 3.0664,1.015625 z"
           style=""
           id="path973" />
        <path
           d="m 309.99316,56.421875 h 3.59375 V 86.8125 h -3.59375 z"
           style=""
           id="path975" />
        <path
           d="m 321.08691,64.9375 h 3.59375 v 21.875 h -3.59375 z m 0,-8.515625 h 3.59375 v 4.550781 h -3.59375 z"
           style=""
           id="path977" />
        <path
           d="m 347.92285,65.777344 v 3.359375 q -1.52344,-0.839844 -3.0664,-1.25 -1.52344,-0.429688 -3.08594,-0.429688 -3.4961,0 -5.42969,2.226563 -1.93359,2.207031 -1.93359,6.210937 0,4.003906 1.93359,6.230469 1.93359,2.207031 5.42969,2.207031 1.5625,0 3.08594,-0.410156 1.54296,-0.429688 3.0664,-1.269531 v 3.320312 q -1.5039,0.703125 -3.125,1.054688 -1.60156,0.351562 -3.41797,0.351562 -4.9414,0 -7.85156,-3.105469 -2.91016,-3.105468 -2.91016,-8.378906 0,-5.351562 2.92969,-8.417969 2.94922,-3.066406 8.06641,-3.066406 1.66015,0 3.24219,0.351563 1.58203,0.332031 3.0664,1.015625 z"
           style=""
           id="path979" />
        <path
           d="m 354.0752,56.421875 h 3.61328 V 74.371094 L 368.41113,64.9375 h 4.58985 L 361.39941,75.171875 373.48926,86.8125 h -4.6875 L 357.68848,76.128906 V 86.8125 h -3.61328 z"
           style=""
           id="path981" />
        <path
           d="m 398.62598,67.457031 q -2.89063,0 -4.57032,2.265625 -1.67968,2.246094 -1.67968,6.171875 0,3.925781 1.66015,6.191406 1.67969,2.246094 4.58985,2.246094 2.87109,0 4.55078,-2.265625 1.67969,-2.265625 1.67969,-6.171875 0,-3.886719 -1.67969,-6.152344 -1.67969,-2.285156 -4.55078,-2.285156 z m 0,-3.046875 q 4.6875,0 7.36328,3.046875 2.67578,3.046875 2.67578,8.4375 0,5.371094 -2.67578,8.4375 -2.67578,3.046875 -7.36328,3.046875 -4.70703,0 -7.38282,-3.046875 -2.65625,-3.066406 -2.65625,-8.4375 0,-5.390625 2.65625,-8.4375 2.67579,-3.046875 7.38282,-3.046875 z"
           style=""
           id="path983" />
        <path
           d="M 432.78613,73.609375 V 86.8125 h -3.59375 V 73.726562 q 0,-3.105468 -1.21093,-4.648437 -1.21094,-1.542969 -3.63282,-1.542969 -2.91015,0 -4.58984,1.855469 -1.67969,1.855469 -1.67969,5.058594 V 86.8125 h -3.61328 v -21.875 h 3.61328 v 3.398437 q 1.28906,-1.972656 3.02735,-2.949218 1.75781,-0.976563 4.04296,-0.976563 3.76954,0 5.70313,2.34375 1.93359,2.324219 1.93359,6.855469 z"
           style=""
           id="path985" />
        <path
           d="M 456.28223,58.726562 V 64.9375 h 7.40234 v 2.792969 h -7.40234 v 11.875 q 0,2.675781 0.72265,3.4375 0.74219,0.761718 2.98828,0.761718 h 3.69141 V 86.8125 h -3.69141 q -4.16015,0 -5.74218,-1.542969 -1.58203,-1.5625 -1.58203,-5.664062 v -11.875 h -2.63672 V 64.9375 h 2.63672 v -6.210938 z"
           style=""
           id="path987" />
        <path
           d="M 486.61426,73.609375 V 86.8125 h -3.59375 V 73.726562 q 0,-3.105468 -1.21094,-4.648437 -1.21094,-1.542969 -3.63281,-1.542969 -2.91016,0 -4.58985,1.855469 -1.67968,1.855469 -1.67968,5.058594 V 86.8125 h -3.61328 V 56.421875 h 3.61328 v 11.914062 q 1.28906,-1.972656 3.02734,-2.949218 1.75781,-0.976563 4.04297,-0.976563 3.76953,0 5.70312,2.34375 1.9336,2.324219 1.9336,6.855469 z"
           style=""
           id="path989" />
        <path
           d="m 512.53223,74.976562 v 1.757813 h -16.52344 q 0.23437,3.710937 2.22656,5.664062 2.01172,1.933594 5.58594,1.933594 2.07031,0 4.00391,-0.507812 1.95312,-0.507813 3.86718,-1.523438 v 3.398438 q -1.93359,0.820312 -3.96484,1.25 -2.03125,0.429687 -4.12109,0.429687 -5.23438,0 -8.30079,-3.046875 -3.04687,-3.046875 -3.04687,-8.242187 0,-5.371094 2.89062,-8.515625 2.91016,-3.164063 7.83204,-3.164063 4.41406,0 6.97265,2.851563 2.57813,2.832031 2.57813,7.714843 z m -3.59375,-1.054687 q -0.0391,-2.949219 -1.66016,-4.707031 -1.60156,-1.757813 -4.25781,-1.757813 -3.00781,0 -4.82422,1.699219 -1.79688,1.699219 -2.07031,4.785156 z"
           style=""
           id="path991" />
        <path
           d="m 548.84082,64.9375 v 21.875 h -3.61328 V 67.730469 h -9.86328 V 86.8125 h -3.61328 V 67.730469 h -3.4375 V 64.9375 h 3.4375 v -1.523438 q 0,-3.574218 1.67968,-5.273437 1.69922,-1.71875 5.19532,-1.71875 h 3.61328 v 2.988281 h -3.4375 q -1.9336,0 -2.69531,0.78125 -0.74219,0.78125 -0.74219,2.8125 V 64.9375 Z m -3.61328,-8.476563 h 3.61328 v 4.550782 h -3.61328 z"
           style=""
           id="path993" />
        <path
           d="m 569.0752,68.296875 q -0.60547,-0.351563 -1.32813,-0.507813 -0.70312,-0.175781 -1.5625,-0.175781 -3.04687,0 -4.6875,1.992188 -1.62109,1.972656 -1.62109,5.683593 V 86.8125 h -3.61328 v -21.875 h 3.61328 v 3.398437 q 1.13281,-1.992187 2.94922,-2.949218 1.8164,-0.976563 4.41406,-0.976563 0.37109,0 0.82031,0.05859 0.44922,0.03906 0.99609,0.136719 z"
           style=""
           id="path995" />
        <path
           d="m 590.73535,74.976562 v 1.757813 h -16.52344 q 0.23438,3.710937 2.22657,5.664062 2.01172,1.933594 5.58593,1.933594 2.07032,0 4.00391,-0.507812 1.95313,-0.507813 3.86719,-1.523438 v 3.398438 q -1.9336,0.820312 -3.96485,1.25 -2.03125,0.429687 -4.12109,0.429687 -5.23437,0 -8.30078,-3.046875 -3.04688,-3.046875 -3.04688,-8.242187 0,-5.371094 2.89063,-8.515625 2.91016,-3.164063 7.83203,-3.164063 4.41406,0 6.97266,2.851563 2.57812,2.832031 2.57812,7.714843 z m -3.59375,-1.054687 q -0.0391,-2.949219 -1.66015,-4.707031 -1.60157,-1.757813 -4.25782,-1.757813 -3.00781,0 -4.82422,1.699219 -1.79687,1.699219 -2.07031,4.785156 z"
           style=""
           id="path997" />
        <path
           d="M 612.92285,58.726562 V 64.9375 h 7.40235 v 2.792969 h -7.40235 v 11.875 q 0,2.675781 0.72266,3.4375 0.74219,0.761718 2.98828,0.761718 h 3.69141 V 86.8125 h -3.69141 q -4.16016,0 -5.74219,-1.542969 -1.58203,-1.5625 -1.58203,-5.664062 v -11.875 h -2.63672 V 64.9375 h 2.63672 v -6.210938 z"
           style=""
           id="path999" />
        <path
           d="m 633.54785,67.457031 q -2.89062,0 -4.57031,2.265625 -1.67969,2.246094 -1.67969,6.171875 0,3.925781 1.66016,6.191406 1.67969,2.246094 4.58984,2.246094 2.8711,0 4.55078,-2.265625 1.67969,-2.265625 1.67969,-6.171875 0,-3.886719 -1.67969,-6.152344 -1.67968,-2.285156 -4.55078,-2.285156 z m 0,-3.046875 q 4.6875,0 7.36328,3.046875 2.67578,3.046875 2.67578,8.4375 0,5.371094 -2.67578,8.4375 -2.67578,3.046875 -7.36328,3.046875 -4.70703,0 -7.38281,-3.046875 -2.65625,-3.066406 -2.65625,-8.4375 0,-5.390625 2.65625,-8.4375 2.67578,-3.046875 7.38281,-3.046875 z"
           style=""
           id="path1001" />
        <path
           d="m 678.00098,65.777344 v 3.359375 q -1.52344,-0.839844 -3.06641,-1.25 -1.52344,-0.429688 -3.08594,-0.429688 -3.49609,0 -5.42968,2.226563 -1.9336,2.207031 -1.9336,6.210937 0,4.003906 1.9336,6.230469 1.93359,2.207031 5.42968,2.207031 1.5625,0 3.08594,-0.410156 1.54297,-0.429688 3.06641,-1.269531 v 3.320312 q -1.50391,0.703125 -3.125,1.054688 -1.60157,0.351562 -3.41797,0.351562 -4.94141,0 -7.85156,-3.105469 -2.91016,-3.105468 -2.91016,-8.378906 0,-5.351562 2.92969,-8.417969 2.94922,-3.066406 8.0664,-3.066406 1.66016,0 3.24219,0.351563 1.58203,0.332031 3.06641,1.015625 z"
           style=""
           id="path1003" />
        <path
           d="m 692.7666,67.457031 q -2.89062,0 -4.57031,2.265625 -1.67969,2.246094 -1.67969,6.171875 0,3.925781 1.66016,6.191406 1.67969,2.246094 4.58984,2.246094 2.8711,0 4.55078,-2.265625 1.67969,-2.265625 1.67969,-6.171875 0,-3.886719 -1.67969,-6.152344 -1.67968,-2.285156 -4.55078,-2.285156 z m 0,-3.046875 q 4.6875,0 7.36328,3.046875 2.67578,3.046875 2.67578,8.4375 0,5.371094 -2.67578,8.4375 -2.67578,3.046875 -7.36328,3.046875 -4.70703,0 -7.38281,-3.046875 -2.65625,-3.066406 -2.65625,-8.4375 0,-5.390625 2.65625,-8.4375 2.67578,-3.046875 7.38281,-3.046875 z"
           style=""
           id="path1005" />
        <path
           d="m 717.21973,67.457031 q -2.89063,0 -4.57032,2.265625 -1.67968,2.246094 -1.67968,6.171875 0,3.925781 1.66015,6.191406 1.67969,2.246094 4.58985,2.246094 2.87109,0 4.55078,-2.265625 1.67969,-2.265625 1.67969,-6.171875 0,-3.886719 -1.67969,-6.152344 -1.67969,-2.285156 -4.55078,-2.285156 z m 0,-3.046875 q 4.6875,0 7.36328,3.046875 2.67578,3.046875 2.67578,8.4375 0,5.371094 -2.67578,8.4375 -2.67578,3.046875 -7.36328,3.046875 -4.70703,0 -7.38282,-3.046875 -2.65625,-3.066406 -2.65625,-8.4375 0,-5.390625 2.65625,-8.4375 2.67579,-3.046875 7.38282,-3.046875 z"
           style=""
           id="path1007" />
        <path
           d="m 733.05957,56.421875 h 3.61328 V 74.371094 L 747.39551,64.9375 h 4.58984 L 740.38379,75.171875 752.47363,86.8125 h -4.6875 L 736.67285,76.128906 V 86.8125 h -3.61328 z"
           style=""
           id="path1009" />
        <path
           d="m 359.25098,114.9375 h 3.59375 v 21.875 h -3.59375 z m 0,-8.51562 h 3.59375 v 4.55078 h -3.59375 z"
           style=""
           id="path1011" />
        <path
           d="m 373.89941,108.72656 v 6.21094 h 7.40235 v 2.79297 h -7.40235 v 11.875 q 0,2.67578 0.72266,3.4375 0.74219,0.76172 2.98828,0.76172 h 3.69141 v 3.00781 h -3.69141 q -4.16015,0 -5.74219,-1.54297 -1.58203,-1.5625 -1.58203,-5.66406 v -11.875 h -2.63672 v -2.79297 h 2.63672 v -6.21094 z"
           style=""
           id="path1013" />
        <path
           d="m 388.31348,131.85156 h 3.96484 v 4.96094 h -3.96484 z m 0,-24.19922 h 3.96484 v 12.79297 l -0.39062,6.97266 h -3.16407 l -0.41015,-6.97266 z"
           style=""
           id="path1015" />
      </g>
    </g>
  </g>
</svg>
