<?xml version="1.0" encoding="UTF-8" standalone="no"?>
<!-- Created with Inkscape (http://www.inkscape.org/) -->

<svg
   xmlns:dc="http://purl.org/dc/elements/1.1/"
   xmlns:cc="http://creativecommons.org/ns#"
   xmlns:rdf="http://www.w3.org/1999/02/22-rdf-syntax-ns#"
   xmlns:svg="http://www.w3.org/2000/svg"
   xmlns="http://www.w3.org/2000/svg"
   xmlns:sodipodi="http://sodipodi.sourceforge.net/DTD/sodipodi-0.dtd"
   xmlns:inkscape="http://www.inkscape.org/namespaces/inkscape"
   width="200mm"
   height="200mm"
   viewBox="0 0 200 200"
   version="1.1"
   id="svg8"
   inkscape:version="0.92.5 (2060ec1f9f, 2020-04-08)"
   sodipodi:docname="tutorial8.svg">
  <defs
     id="defs2" />
  <sodipodi:namedview
     id="base"
     pagecolor="#ffffff"
     bordercolor="#666666"
     borderopacity="1.0"
     inkscape:pageopacity="0.0"
     inkscape:pageshadow="2"
     inkscape:zoom="1.4142136"
     inkscape:cx="372.82251"
     inkscape:cy="633.32929"
     inkscape:document-units="mm"
     inkscape:current-layer="layer1"
     showgrid="false"
     inkscape:window-width="1853"
     inkscape:window-height="1057"
     inkscape:window-x="1979"
     inkscape:window-y="-8"
     inkscape:window-maximized="1" />
  <metadata
     id="metadata5">
    <rdf:RDF>
      <cc:Work
         rdf:about="">
        <dc:format>image/svg+xml</dc:format>
        <dc:type
           rdf:resource="http://purl.org/dc/dcmitype/StillImage" />
        <dc:title></dc:title>
      </cc:Work>
    </rdf:RDF>
  </metadata>
  <g
     inkscape:label="Ebene 1"
     inkscape:groupmode="layer"
     id="layer1"
     transform="translate(0,-97)"
     style="display:inline">
    <flowRoot
       xml:space="preserve"
       id="flowRoot2853"
       style="fill:black;fill-opacity:1;stroke:none;font-family:sans-serif;font-style:normal;font-weight:normal;font-size:40px;line-height:1.25;letter-spacing:0px;word-spacing:0px"><flowRegion
         id="flowRegion2855"><rect
           id="rect2857"
           width="755.19"
           height="217.78888"
           x="0.70710677"
           y="0.0083828345" /></flowRegion><flowPara
         id="flowPara2859"></flowPara></flowRoot>    <g
       aria-label="A lone wolf appeared! Near the fire you are safe, but you should think about crafting an item to protect yourself!"
       transform="matrix(0.26458333,0,0,0.26458333,0,97)"
       style="font-style:normal;font-variant:normal;font-weight:normal;font-stretch:normal;font-size:40px;line-height:1.25;font-family:sans-serif;-inkscape-font-specification:'sans-serif, Normal';font-variant-ligatures:normal;font-variant-caps:normal;font-variant-numeric:normal;font-feature-settings:normal;text-align:center;letter-spacing:0px;word-spacing:0px;writing-mode:lr-tb;text-anchor:middle;fill:#ffffff;fill-opacity:1;stroke:#000000;stroke-width:1.13385832;stroke-miterlimit:4;stroke-dasharray:none;stroke-opacity:1"
       id="flowRoot2861">
      <path
         d="M 39.74707,10.125 34.395508,24.636719 H 45.118164 Z M 37.520508,6.2382812 h 4.472656 L 53.106445,35.398437 h -4.101562 l -2.65625,-7.480468 H 33.204102 l -2.65625,7.480468 h -4.160157 z"
         style=""
         id="path4579" />
      <path
         d="m 69.922852,5.0078125 h 3.59375 V 35.398437 h -3.59375 z"
         style=""
         id="path4581" />
      <path
         d="m 89.493164,16.042969 q -2.890625,0 -4.570312,2.265625 -1.679688,2.246093 -1.679688,6.171875 0,3.925781 1.660156,6.191406 1.679688,2.246094 4.589844,2.246094 2.871094,0 4.550781,-2.265625 1.679688,-2.265625 1.679688,-6.171875 0,-3.886719 -1.679688,-6.152344 -1.679687,-2.285156 -4.550781,-2.285156 z m 0,-3.046875 q 4.6875,0 7.363281,3.046875 2.675782,3.046875 2.675782,8.4375 0,5.371093 -2.675782,8.4375 -2.675781,3.046875 -7.363281,3.046875 -4.707031,0 -7.382812,-3.046875 -2.65625,-3.066407 -2.65625,-8.4375 0,-5.390625 2.65625,-8.4375 2.675781,-3.046875 7.382812,-3.046875 z"
         style=""
         id="path4583" />
      <path
         d="m 123.65332,22.195312 v 13.203125 h -3.59375 V 22.3125 q 0,-3.105469 -1.21094,-4.648438 -1.21093,-1.542968 -3.63281,-1.542968 -2.91016,0 -4.58984,1.855468 -1.67969,1.855469 -1.67969,5.058594 v 12.363281 h -3.61328 V 13.523438 h 3.61328 v 3.398437 q 1.28906,-1.972656 3.02734,-2.949219 1.75782,-0.976562 4.04297,-0.976562 3.76953,0 5.70313,2.34375 1.93359,2.324218 1.93359,6.855468 z"
         style=""
         id="path4585" />
      <path
         d="m 149.57129,23.5625 v 1.757812 h -16.52344 q 0.23438,3.710938 2.22656,5.664063 2.01172,1.933594 5.58594,1.933594 2.07031,0 4.00391,-0.507813 1.95312,-0.507812 3.86719,-1.523437 v 3.398437 q -1.9336,0.820313 -3.96485,1.25 -2.03125,0.429688 -4.12109,0.429688 -5.23438,0 -8.30078,-3.046875 -3.04688,-3.046875 -3.04688,-8.242188 0,-5.371094 2.89063,-8.515625 2.91015,-3.164062 7.83203,-3.164062 4.41406,0 6.97265,2.851562 2.57813,2.832031 2.57813,7.714844 z m -3.59375,-1.054688 q -0.0391,-2.949218 -1.66016,-4.707031 -1.60156,-1.757812 -4.25781,-1.757812 -3.00781,0 -4.82422,1.699218 -1.79687,1.699219 -2.07031,4.785157 z"
         style=""
         id="path4587" />
      <path
         d="m 166.11426,13.523438 h 3.59375 l 4.49219,17.070312 4.47265,-17.070312 h 4.23828 l 4.49219,17.070312 4.47266,-17.070312 h 3.59375 l -5.72266,21.874999 h -4.23828 L 180.80176,17.46875 176.0752,35.398437 h -4.23829 z"
         style=""
         id="path4589" />
      <path
         d="m 209.41504,16.042969 q -2.89063,0 -4.57031,2.265625 -1.67969,2.246093 -1.67969,6.171875 0,3.925781 1.66016,6.191406 1.67968,2.246094 4.58984,2.246094 2.87109,0 4.55078,-2.265625 1.67969,-2.265625 1.67969,-6.171875 0,-3.886719 -1.67969,-6.152344 -1.67969,-2.285156 -4.55078,-2.285156 z m 0,-3.046875 q 4.6875,0 7.36328,3.046875 2.67578,3.046875 2.67578,8.4375 0,5.371093 -2.67578,8.4375 -2.67578,3.046875 -7.36328,3.046875 -4.70703,0 -7.38281,-3.046875 -2.65625,-3.066407 -2.65625,-8.4375 0,-5.390625 2.65625,-8.4375 2.67578,-3.046875 7.38281,-3.046875 z"
         style=""
         id="path4591" />
      <path
         d="m 225.3916,5.0078125 h 3.59375 V 35.398437 h -3.59375 z"
         style=""
         id="path4593" />
      <path
         d="m 247.55957,5.0078125 v 2.9882812 h -3.4375 q -1.93359,0 -2.69531,0.7812501 -0.74219,0.78125 -0.74219,2.8125002 v 1.933594 h 5.91797 v 2.792968 h -5.91797 v 19.082031 h -3.61328 V 16.316406 h -3.4375 v -2.792968 h 3.4375 V 12 q 0,-3.6523437 1.69922,-5.3125 1.69922,-1.6796875 5.39062,-1.6796875 z"
         style=""
         id="path4595" />
      <path
         d="m 273.22363,24.402344 q -4.35547,0 -6.03515,0.996093 -1.67969,0.996094 -1.67969,3.398438 0,1.914062 1.25,3.046875 1.26953,1.113281 3.4375,1.113281 2.98828,0 4.78516,-2.109375 1.8164,-2.128906 1.8164,-5.644531 v -0.800781 z m 7.16797,-1.484375 v 12.480468 h -3.59375 v -3.320312 q -1.23047,1.992187 -3.0664,2.949219 -1.83594,0.9375 -4.49219,0.9375 -3.35938,0 -5.35156,-1.875 -1.97266,-1.894532 -1.97266,-5.058594 0,-3.691406 2.46094,-5.566406 2.48047,-1.875 7.38281,-1.875 h 5.03906 v -0.351563 q 0,-2.480469 -1.64062,-3.828125 -1.6211,-1.367187 -4.57032,-1.367187 -1.875,0 -3.65234,0.449218 -1.77734,0.449219 -3.41797,1.347657 v -3.320313 q 1.97266,-0.761718 3.82813,-1.132812 1.85547,-0.390625 3.61328,-0.390625 4.74609,0 7.08984,2.460937 2.34375,2.460938 2.34375,7.460938 z"
         style=""
         id="path4597" />
      <path
         d="M 291.29004,32.117187 V 43.71875 h -3.61328 V 13.523438 h 3.61328 v 3.320312 q 1.13281,-1.953125 2.85156,-2.890625 1.73828,-0.957031 4.14063,-0.957031 3.98437,0 6.46484,3.164062 2.5,3.164063 2.5,8.320313 0,5.15625 -2.5,8.320312 -2.48047,3.164063 -6.46484,3.164063 -2.40235,0 -4.14063,-0.9375 -1.71875,-0.957032 -2.85156,-2.910157 z m 12.22656,-7.636718 q 0,-3.964844 -1.64062,-6.210938 -1.6211,-2.265625 -4.47266,-2.265625 -2.85156,0 -4.49219,2.265625 -1.62109,2.246094 -1.62109,6.210938 0,3.964843 1.62109,6.230468 1.64063,2.246094 4.49219,2.246094 2.85156,0 4.47266,-2.246094 1.64062,-2.265625 1.64062,-6.230468 z"
         style=""
         id="path4599" />
      <path
         d="M 316.68066,32.117187 V 43.71875 h -3.61328 V 13.523438 h 3.61328 v 3.320312 q 1.13282,-1.953125 2.85157,-2.890625 1.73828,-0.957031 4.14062,-0.957031 3.98438,0 6.46485,3.164062 2.5,3.164063 2.5,8.320313 0,5.15625 -2.5,8.320312 -2.48047,3.164063 -6.46485,3.164063 -2.40234,0 -4.14062,-0.9375 -1.71875,-0.957032 -2.85157,-2.910157 z m 12.22657,-7.636718 q 0,-3.964844 -1.64063,-6.210938 -1.62109,-2.265625 -4.47265,-2.265625 -2.85157,0 -4.49219,2.265625 -1.6211,2.246094 -1.6211,6.210938 0,3.964843 1.6211,6.230468 1.64062,2.246094 4.49219,2.246094 2.85156,0 4.47265,-2.246094 1.64063,-2.265625 1.64063,-6.230468 z"
         style=""
         id="path4601" />
      <path
         d="m 357.30566,23.5625 v 1.757812 h -16.52343 q 0.23437,3.710938 2.22656,5.664063 2.01172,1.933594 5.58594,1.933594 2.07031,0 4.0039,-0.507813 1.95313,-0.507812 3.86719,-1.523437 v 3.398437 q -1.93359,0.820313 -3.96484,1.25 -2.03125,0.429688 -4.1211,0.429688 -5.23437,0 -8.30078,-3.046875 -3.04687,-3.046875 -3.04687,-8.242188 0,-5.371094 2.89062,-8.515625 2.91016,-3.164062 7.83203,-3.164062 4.41407,0 6.97266,2.851562 2.57812,2.832031 2.57812,7.714844 z m -3.59375,-1.054688 q -0.0391,-2.949218 -1.66015,-4.707031 -1.60156,-1.757812 -4.25781,-1.757812 -3.00782,0 -4.82422,1.699218 -1.79688,1.699219 -2.07032,4.785157 z"
         style=""
         id="path4603" />
      <path
         d="m 373.14551,24.402344 q -4.35547,0 -6.03516,0.996093 -1.67969,0.996094 -1.67969,3.398438 0,1.914062 1.25,3.046875 1.26954,1.113281 3.4375,1.113281 2.98829,0 4.78516,-2.109375 1.81641,-2.128906 1.81641,-5.644531 v -0.800781 z m 7.16797,-1.484375 v 12.480468 h -3.59375 v -3.320312 q -1.23047,1.992187 -3.06641,2.949219 -1.83594,0.9375 -4.49219,0.9375 -3.35937,0 -5.35156,-1.875 -1.97266,-1.894532 -1.97266,-5.058594 0,-3.691406 2.46094,-5.566406 2.48047,-1.875 7.38281,-1.875 h 5.03907 v -0.351563 q 0,-2.480469 -1.64063,-3.828125 -1.62109,-1.367187 -4.57031,-1.367187 -1.875,0 -3.65234,0.449218 -1.77735,0.449219 -3.41797,1.347657 v -3.320313 q 1.97265,-0.761718 3.82812,-1.132812 1.85547,-0.390625 3.61328,-0.390625 4.7461,0 7.08985,2.460937 2.34375,2.460938 2.34375,7.460938 z"
         style=""
         id="path4605" />
      <path
         d="m 400.41113,16.882812 q -0.60547,-0.351562 -1.32812,-0.507812 -0.70313,-0.175781 -1.5625,-0.175781 -3.04688,0 -4.6875,1.992187 -1.6211,1.972656 -1.6211,5.683594 v 11.523437 h -3.61328 V 13.523438 h 3.61328 v 3.398437 q 1.13282,-1.992187 2.94922,-2.949219 1.81641,-0.976562 4.41407,-0.976562 0.37109,0 0.82031,0.05859 0.44922,0.03906 0.99609,0.136718 z"
         style=""
         id="path4607" />
      <path
         d="m 422.07129,23.5625 v 1.757812 h -16.52344 q 0.23438,3.710938 2.22656,5.664063 2.01172,1.933594 5.58594,1.933594 2.07031,0 4.00391,-0.507813 1.95312,-0.507812 3.86719,-1.523437 v 3.398437 q -1.9336,0.820313 -3.96485,1.25 -2.03125,0.429688 -4.12109,0.429688 -5.23438,0 -8.30078,-3.046875 -3.04688,-3.046875 -3.04688,-8.242188 0,-5.371094 2.89063,-8.515625 2.91015,-3.164062 7.83203,-3.164062 4.41406,0 6.97265,2.851562 2.57813,2.832031 2.57813,7.714844 z m -3.59375,-1.054688 q -0.0391,-2.949218 -1.66016,-4.707031 -1.60156,-1.757812 -4.25781,-1.757812 -3.00781,0 -4.82422,1.699218 -1.79687,1.699219 -2.07031,4.785157 z"
         style=""
         id="path4609" />
      <path
         d="M 442.36426,16.84375 V 5.0078125 h 3.59375 V 35.398437 h -3.59375 v -3.28125 q -1.13281,1.953125 -2.8711,2.910157 -1.71875,0.9375 -4.14062,0.9375 -3.96484,0 -6.46484,-3.164063 -2.48047,-3.164062 -2.48047,-8.320312 0,-5.15625 2.48047,-8.320313 2.5,-3.164062 6.46484,-3.164062 2.42187,0 4.14062,0.957031 1.73829,0.9375 2.8711,2.890625 z m -12.2461,7.636719 q 0,3.964843 1.6211,6.230468 1.64062,2.246094 4.49219,2.246094 2.85156,0 4.49218,-2.246094 1.64063,-2.265625 1.64063,-6.230468 0,-3.964844 -1.64063,-6.210938 -1.64062,-2.265625 -4.49218,-2.265625 -2.85157,0 -4.49219,2.265625 -1.6211,2.246094 -1.6211,6.210938 z"
         style=""
         id="path4611" />
      <path
         d="m 455.62598,30.4375 h 3.96484 v 4.960937 h -3.96484 z m 0,-24.1992188 h 3.96484 V 19.03125 l -0.39062,6.972656 h -3.16407 l -0.41015,-6.972656 z"
         style=""
         id="path4613" />
      <path
         d="m 482.2666,6.2382812 h 5.3125 L 500.50879,30.632812 V 6.2382812 h 3.82812 V 35.398437 h -5.3125 L 486.09473,11.003906 v 24.394531 h -3.82813 z"
         style=""
         id="path4615" />
      <path
         d="m 530.74316,23.5625 v 1.757812 h -16.52343 q 0.23437,3.710938 2.22656,5.664063 2.01172,1.933594 5.58594,1.933594 2.07031,0 4.0039,-0.507813 1.95313,-0.507812 3.86719,-1.523437 v 3.398437 q -1.93359,0.820313 -3.96484,1.25 -2.03125,0.429688 -4.1211,0.429688 -5.23437,0 -8.30078,-3.046875 -3.04687,-3.046875 -3.04687,-8.242188 0,-5.371094 2.89062,-8.515625 2.91016,-3.164062 7.83203,-3.164062 4.41407,0 6.97266,2.851562 2.57812,2.832031 2.57812,7.714844 z m -3.59375,-1.054688 q -0.0391,-2.949218 -1.66015,-4.707031 -1.60156,-1.757812 -4.25781,-1.757812 -3.00782,0 -4.82422,1.699218 -1.79688,1.699219 -2.07032,4.785157 z"
         style=""
         id="path4617" />
      <path
         d="m 546.58301,24.402344 q -4.35547,0 -6.03516,0.996093 -1.67969,0.996094 -1.67969,3.398438 0,1.914062 1.25,3.046875 1.26954,1.113281 3.4375,1.113281 2.98829,0 4.78516,-2.109375 1.81641,-2.128906 1.81641,-5.644531 v -0.800781 z m 7.16797,-1.484375 v 12.480468 h -3.59375 v -3.320312 q -1.23047,1.992187 -3.06641,2.949219 -1.83594,0.9375 -4.49219,0.9375 -3.35937,0 -5.35156,-1.875 -1.97266,-1.894532 -1.97266,-5.058594 0,-3.691406 2.46094,-5.566406 2.48047,-1.875 7.38281,-1.875 h 5.03907 v -0.351563 q 0,-2.480469 -1.64063,-3.828125 -1.62109,-1.367187 -4.57031,-1.367187 -1.875,0 -3.65234,0.449218 -1.77735,0.449219 -3.41797,1.347657 v -3.320313 q 1.97265,-0.761718 3.82812,-1.132812 1.85547,-0.390625 3.61328,-0.390625 4.7461,0 7.08985,2.460937 2.34375,2.460938 2.34375,7.460938 z"
         style=""
         id="path4619" />
      <path
         d="m 573.84863,16.882812 q -0.60547,-0.351562 -1.32812,-0.507812 -0.70313,-0.175781 -1.5625,-0.175781 -3.04688,0 -4.6875,1.992187 -1.6211,1.972656 -1.6211,5.683594 v 11.523437 h -3.61328 V 13.523438 h 3.61328 v 3.398437 q 1.13282,-1.992187 2.94922,-2.949219 1.81641,-0.976562 4.41407,-0.976562 0.37109,0 0.82031,0.05859 0.44922,0.03906 0.99609,0.136718 z"
         style=""
         id="path4621" />
      <path
         d="m 593.94629,7.3125 v 6.210938 h 7.40234 v 2.792968 h -7.40234 v 11.875 q 0,2.675781 0.72266,3.4375 0.74218,0.761719 2.98828,0.761719 h 3.6914 v 3.007812 h -3.6914 q -4.16016,0 -5.74219,-1.542968 -1.58203,-1.5625 -1.58203,-5.664063 v -11.875 h -2.63672 v -2.792968 h 2.63672 V 7.3125 Z"
         style=""
         id="path4623" />
      <path
         d="m 624.27832,22.195312 v 13.203125 h -3.59375 V 22.3125 q 0,-3.105469 -1.21094,-4.648438 -1.21093,-1.542968 -3.63281,-1.542968 -2.91016,0 -4.58984,1.855468 -1.67969,1.855469 -1.67969,5.058594 v 12.363281 h -3.61328 V 5.0078125 h 3.61328 V 16.921875 q 1.28906,-1.972656 3.02734,-2.949219 1.75782,-0.976562 4.04297,-0.976562 3.76953,0 5.70313,2.34375 1.93359,2.324218 1.93359,6.855468 z"
         style=""
         id="path4625" />
      <path
         d="m 650.19629,23.5625 v 1.757812 h -16.52344 q 0.23438,3.710938 2.22656,5.664063 2.01172,1.933594 5.58594,1.933594 2.07031,0 4.00391,-0.507813 1.95312,-0.507812 3.86719,-1.523437 v 3.398437 q -1.9336,0.820313 -3.96485,1.25 -2.03125,0.429688 -4.12109,0.429688 -5.23438,0 -8.30078,-3.046875 -3.04688,-3.046875 -3.04688,-8.242188 0,-5.371094 2.89063,-8.515625 2.91015,-3.164062 7.83203,-3.164062 4.41406,0 6.97265,2.851562 2.57813,2.832031 2.57813,7.714844 z m -3.59375,-1.054688 q -0.0391,-2.949218 -1.66016,-4.707031 -1.60156,-1.757812 -4.25781,-1.757812 -3.00781,0 -4.82422,1.699218 -1.79687,1.699219 -2.07031,4.785157 z"
         style=""
         id="path4627" />
      <path
         d="M 686.50488,13.523438 V 35.398437 H 682.8916 V 16.316406 h -9.86328 v 19.082031 h -3.61328 V 16.316406 h -3.4375 v -2.792968 h 3.4375 V 12 q 0,-3.5742187 1.67969,-5.2734375 1.69922,-1.71875 5.19531,-1.71875 h 3.61328 v 2.9882812 h -3.4375 q -1.93359,0 -2.69531,0.7812501 -0.74219,0.78125 -0.74219,2.8125002 v 1.933594 z M 682.8916,5.046875 h 3.61328 v 4.5507813 h -3.61328 z"
         style=""
         id="path4629" />
      <path
         d="m 706.73926,16.882812 q -0.60547,-0.351562 -1.32813,-0.507812 -0.70312,-0.175781 -1.5625,-0.175781 -3.04687,0 -4.6875,1.992187 -1.62109,1.972656 -1.62109,5.683594 v 11.523437 h -3.61328 V 13.523438 h 3.61328 v 3.398437 q 1.13281,-1.992187 2.94922,-2.949219 1.8164,-0.976562 4.41406,-0.976562 0.37109,0 0.82031,0.05859 0.44922,0.03906 0.9961,0.136718 z"
         style=""
         id="path4631" />
      <path
         d="m 728.39941,23.5625 v 1.757812 h -16.52343 q 0.23437,3.710938 2.22656,5.664063 2.01172,1.933594 5.58594,1.933594 2.07031,0 4.0039,-0.507813 1.95313,-0.507812 3.86719,-1.523437 v 3.398437 q -1.93359,0.820313 -3.96484,1.25 -2.03125,0.429688 -4.1211,0.429688 -5.23437,0 -8.30078,-3.046875 -3.04687,-3.046875 -3.04687,-8.242188 0,-5.371094 2.89062,-8.515625 2.91016,-3.164062 7.83203,-3.164062 4.41407,0 6.97266,2.851562 2.57812,2.832031 2.57812,7.714844 z m -3.59375,-1.054688 q -0.0391,-2.949218 -1.66015,-4.707031 -1.60156,-1.757812 -4.25781,-1.757812 -3.00782,0 -4.82422,1.699218 -1.79688,1.699219 -2.07032,4.785157 z"
         style=""
         id="path4633" />
      <path
         d="m 48.750977,87.429687 q -1.523438,3.90625 -2.96875,5.097657 -1.445313,1.191406 -3.867188,1.191406 h -2.871094 v -3.007813 h 2.109375 q 1.484375,0 2.304688,-0.703125 0.820312,-0.703125 1.816406,-3.320312 l 0.644531,-1.640625 -8.847656,-21.523438 h 3.808594 l 6.835937,17.109375 6.835938,-17.109375 h 3.808594 z"
         style=""
         id="path4635" />
      <path
         d="m 71.797852,66.042969 q -2.890625,0 -4.570313,2.265625 -1.679687,2.246093 -1.679687,6.171875 0,3.925781 1.660156,6.191406 1.679687,2.246094 4.589844,2.246094 2.871093,0 4.550781,-2.265625 1.679687,-2.265625 1.679687,-6.171875 0,-3.886719 -1.679687,-6.152344 -1.679688,-2.285156 -4.550781,-2.285156 z m 0,-3.046875 q 4.6875,0 7.363281,3.046875 2.675781,3.046875 2.675781,8.4375 0,5.371093 -2.675781,8.4375 -2.675781,3.046875 -7.363281,3.046875 -4.707032,0 -7.382813,-3.046875 -2.65625,-3.066407 -2.65625,-8.4375 0,-5.390625 2.65625,-8.4375 2.675781,-3.046875 7.382813,-3.046875 z"
         style=""
         id="path4637" />
      <path
         d="M 87.40332,76.765625 V 63.523437 h 3.59375 v 13.105469 q 0,3.105469 1.210938,4.667969 1.210937,1.542969 3.632812,1.542969 2.910157,0 4.58984,-1.855469 1.69922,-1.855469 1.69922,-5.058594 V 63.523437 h 3.59375 v 21.875 h -3.59375 v -3.359375 q -1.30859,1.992188 -3.046872,2.96875 -1.71875,0.957032 -4.003906,0.957032 -3.769532,0 -5.722657,-2.34375 -1.953125,-2.34375 -1.953125,-6.855469 z m 9.042969,-13.769531 z"
         style=""
         id="path4639" />
      <path
         d="m 135.84082,74.402344 q -4.35547,0 -6.03516,0.996093 -1.67968,0.996094 -1.67968,3.398438 0,1.914062 1.25,3.046875 1.26953,1.113281 3.4375,1.113281 2.98828,0 4.78515,-2.109375 1.81641,-2.128906 1.81641,-5.644531 v -0.800781 z m 7.16797,-1.484375 v 12.480468 h -3.59375 v -3.320312 q -1.23047,1.992187 -3.06641,2.949219 -1.83593,0.9375 -4.49218,0.9375 -3.35938,0 -5.35157,-1.875 -1.97265,-1.894532 -1.97265,-5.058594 0,-3.691406 2.46093,-5.566406 2.48047,-1.875 7.38282,-1.875 h 5.03906 v -0.351563 q 0,-2.480469 -1.64063,-3.828125 -1.62109,-1.367187 -4.57031,-1.367187 -1.875,0 -3.65234,0.449218 -1.77735,0.449219 -3.41797,1.347657 v -3.320313 q 1.97266,-0.761719 3.82812,-1.132812 1.85547,-0.390625 3.61329,-0.390625 4.74609,0 7.08984,2.460937 2.34375,2.460938 2.34375,7.460938 z"
         style=""
         id="path4641" />
      <path
         d="m 163.10645,66.882812 q -0.60547,-0.351562 -1.32813,-0.507812 -0.70312,-0.175781 -1.5625,-0.175781 -3.04687,0 -4.6875,1.992187 -1.62109,1.972656 -1.62109,5.683594 v 11.523437 h -3.61328 v -21.875 h 3.61328 v 3.398438 q 1.13281,-1.992188 2.94922,-2.949219 1.8164,-0.976562 4.41406,-0.976562 0.37109,0 0.82031,0.05859 0.44922,0.03906 0.99609,0.136719 z"
         style=""
         id="path4643" />
      <path
         d="m 184.7666,73.5625 v 1.757812 h -16.52344 q 0.23438,3.710938 2.22657,5.664063 2.01172,1.933594 5.58593,1.933594 2.07032,0 4.00391,-0.507813 1.95313,-0.507812 3.86719,-1.523437 v 3.398437 q -1.9336,0.820313 -3.96485,1.25 -2.03125,0.429688 -4.12109,0.429688 -5.23437,0 -8.30078,-3.046875 -3.04688,-3.046875 -3.04688,-8.242188 0,-5.371094 2.89063,-8.515625 2.91016,-3.164062 7.83203,-3.164062 4.41406,0 6.97266,2.851562 2.57812,2.832031 2.57812,7.714844 z m -3.59375,-1.054688 q -0.0391,-2.949218 -1.66015,-4.707031 -1.60157,-1.757812 -4.25782,-1.757812 -3.00781,0 -4.82422,1.699218 -1.79687,1.699219 -2.07031,4.785157 z"
         style=""
         id="path4645" />
      <path
         d="m 217.34473,64.167969 v 3.398437 q -1.52344,-0.78125 -3.16407,-1.171875 -1.64062,-0.390625 -3.39843,-0.390625 -2.67578,0 -4.02344,0.820313 -1.32813,0.820312 -1.32813,2.460937 0,1.25 0.95704,1.972656 0.95703,0.703125 3.84765,1.347657 l 1.23047,0.273437 q 3.82813,0.820313 5.42969,2.324219 1.62109,1.484375 1.62109,4.160156 0,3.046875 -2.42187,4.824219 -2.40235,1.777344 -6.6211,1.777344 -1.75781,0 -3.67187,-0.351563 -1.89453,-0.332031 -4.00391,-1.015625 v -3.710937 q 1.99219,1.035156 3.92578,1.5625 1.9336,0.507812 3.82813,0.507812 2.53906,0 3.90625,-0.859375 1.36719,-0.878906 1.36719,-2.460937 0,-1.464844 -0.9961,-2.246094 -0.97656,-0.78125 -4.3164,-1.503906 l -1.25,-0.292969 q -3.33985,-0.703125 -4.82422,-2.148438 -1.48438,-1.464843 -1.48438,-4.003906 0,-3.085937 2.1875,-4.765625 2.1875,-1.679687 6.21094,-1.679687 1.99219,0 3.75,0.292968 1.75781,0.292969 3.24219,0.878907 z"
         style=""
         id="path4647" />
      <path
         d="m 234.2002,74.402344 q -4.35547,0 -6.03516,0.996093 -1.67969,0.996094 -1.67969,3.398438 0,1.914062 1.25,3.046875 1.26953,1.113281 3.4375,1.113281 2.98828,0 4.78516,-2.109375 1.8164,-2.128906 1.8164,-5.644531 v -0.800781 z m 7.16796,-1.484375 v 12.480468 h -3.59375 v -3.320312 q -1.23046,1.992187 -3.0664,2.949219 -1.83594,0.9375 -4.49219,0.9375 -3.35937,0 -5.35156,-1.875 -1.97266,-1.894532 -1.97266,-5.058594 0,-3.691406 2.46094,-5.566406 2.48047,-1.875 7.38281,-1.875 h 5.03906 v -0.351563 q 0,-2.480469 -1.64062,-3.828125 -1.62109,-1.367187 -4.57031,-1.367187 -1.875,0 -3.65235,0.449218 -1.77734,0.449219 -3.41797,1.347657 v -3.320313 q 1.97266,-0.761719 3.82813,-1.132812 1.85547,-0.390625 3.61328,-0.390625 4.74609,0 7.08984,2.460937 2.34375,2.460938 2.34375,7.460938 z"
         style=""
         id="path4649" />
      <path
         d="m 259.86426,55.007812 v 2.988282 h -3.4375 q -1.9336,0 -2.69531,0.78125 -0.74219,0.78125 -0.74219,2.8125 v 1.933593 h 5.91797 v 2.792969 h -5.91797 v 19.082031 h -3.61328 V 66.316406 h -3.4375 v -2.792969 h 3.4375 V 62 q 0,-3.652344 1.69922,-5.3125 1.69921,-1.679688 5.39062,-1.679688 z"
         style=""
         id="path4651" />
      <path
         d="m 281.56348,73.5625 v 1.757812 h -16.52344 q 0.23437,3.710938 2.22656,5.664063 2.01172,1.933594 5.58594,1.933594 2.07031,0 4.00391,-0.507813 1.95312,-0.507812 3.86718,-1.523437 v 3.398437 q -1.93359,0.820313 -3.96484,1.25 -2.03125,0.429688 -4.12109,0.429688 -5.23438,0 -8.30079,-3.046875 -3.04687,-3.046875 -3.04687,-8.242188 0,-5.371094 2.89062,-8.515625 2.91016,-3.164062 7.83204,-3.164062 4.41406,0 6.97265,2.851562 2.57813,2.832031 2.57813,7.714844 z m -3.59375,-1.054688 q -0.0391,-2.949218 -1.66016,-4.707031 -1.60156,-1.757812 -4.25781,-1.757812 -3.00781,0 -4.82422,1.699218 -1.79688,1.699219 -2.07031,4.785157 z"
         style=""
         id="path4653" />
      <path
         d="m 288.37988,80.4375 h 4.1211 v 3.359375 l -3.20313,6.25 h -2.51953 l 1.60156,-6.25 z"
         style=""
         id="path4655" />
      <path
         d="m 328.63379,74.480469 q 0,-3.964844 -1.64063,-6.210938 -1.62109,-2.265625 -4.47265,-2.265625 -2.85156,0 -4.49219,2.265625 -1.62109,2.246094 -1.62109,6.210938 0,3.964843 1.62109,6.230468 1.64063,2.246094 4.49219,2.246094 2.85156,0 4.47265,-2.246094 1.64063,-2.265625 1.64063,-6.230468 z M 316.40723,66.84375 q 1.13281,-1.953125 2.85156,-2.890625 1.73828,-0.957031 4.14062,-0.957031 3.98438,0 6.46485,3.164062 2.5,3.164063 2.5,8.320313 0,5.15625 -2.5,8.320312 -2.48047,3.164063 -6.46485,3.164063 -2.40234,0 -4.14062,-0.9375 -1.71875,-0.957032 -2.85156,-2.910157 v 3.28125 h -3.61328 V 55.007812 h 3.61328 z"
         style=""
         id="path4657" />
      <path
         d="M 337.9502,76.765625 V 63.523437 h 3.59375 v 13.105469 q 0,3.105469 1.21093,4.667969 1.21094,1.542969 3.63282,1.542969 2.91015,0 4.58984,-1.855469 1.69922,-1.855469 1.69922,-5.058594 V 63.523437 h 3.59375 v 21.875 h -3.59375 v -3.359375 q -1.3086,1.992188 -3.04688,2.96875 -1.71875,0.957032 -4.0039,0.957032 -3.76953,0 -5.72266,-2.34375 -1.95312,-2.34375 -1.95312,-6.855469 z m 9.04296,-13.769531 z"
         style=""
         id="path4659" />
      <path
         d="m 367.2666,57.3125 v 6.210937 h 7.40235 v 2.792969 h -7.40235 v 11.875 q 0,2.675781 0.72266,3.4375 0.74219,0.761719 2.98828,0.761719 h 3.69141 v 3.007812 h -3.69141 q -4.16016,0 -5.74219,-1.542968 -1.58203,-1.5625 -1.58203,-5.664063 v -11.875 h -2.63672 v -2.792969 h 2.63672 V 57.3125 Z"
         style=""
         id="path4661" />
      <path
         d="m 401.25098,87.429687 q -1.52344,3.90625 -2.96875,5.097657 -1.44532,1.191406 -3.86719,1.191406 h -2.87109 v -3.007813 h 2.10937 q 1.48438,0 2.30469,-0.703125 0.82031,-0.703125 1.8164,-3.320312 l 0.64454,-1.640625 -8.84766,-21.523438 h 3.80859 l 6.83594,17.109375 6.83594,-17.109375 h 3.80859 z"
         style=""
         id="path4663" />
      <path
         d="m 424.29785,66.042969 q -2.89062,0 -4.57031,2.265625 -1.67969,2.246093 -1.67969,6.171875 0,3.925781 1.66016,6.191406 1.67969,2.246094 4.58984,2.246094 2.8711,0 4.55078,-2.265625 1.67969,-2.265625 1.67969,-6.171875 0,-3.886719 -1.67969,-6.152344 -1.67968,-2.285156 -4.55078,-2.285156 z m 0,-3.046875 q 4.6875,0 7.36328,3.046875 2.67578,3.046875 2.67578,8.4375 0,5.371093 -2.67578,8.4375 -2.67578,3.046875 -7.36328,3.046875 -4.70703,0 -7.38281,-3.046875 -2.65625,-3.066407 -2.65625,-8.4375 0,-5.390625 2.65625,-8.4375 2.67578,-3.046875 7.38281,-3.046875 z"
         style=""
         id="path4665" />
      <path
         d="M 439.90332,76.765625 V 63.523437 h 3.59375 v 13.105469 q 0,3.105469 1.21094,4.667969 1.21094,1.542969 3.63281,1.542969 2.91016,0 4.58984,-1.855469 1.69922,-1.855469 1.69922,-5.058594 V 63.523437 h 3.59375 v 21.875 h -3.59375 v -3.359375 q -1.30859,1.992188 -3.04687,2.96875 -1.71875,0.957032 -4.00391,0.957032 -3.76953,0 -5.72265,-2.34375 -1.95313,-2.34375 -1.95313,-6.855469 z m 9.04297,-13.769531 z"
         style=""
         id="path4667" />
      <path
         d="m 492.34473,64.167969 v 3.398437 q -1.52344,-0.78125 -3.16407,-1.171875 -1.64062,-0.390625 -3.39843,-0.390625 -2.67578,0 -4.02344,0.820313 -1.32813,0.820312 -1.32813,2.460937 0,1.25 0.95704,1.972656 0.95703,0.703125 3.84765,1.347657 l 1.23047,0.273437 q 3.82813,0.820313 5.42969,2.324219 1.62109,1.484375 1.62109,4.160156 0,3.046875 -2.42187,4.824219 -2.40235,1.777344 -6.6211,1.777344 -1.75781,0 -3.67187,-0.351563 -1.89453,-0.332031 -4.00391,-1.015625 v -3.710937 q 1.99219,1.035156 3.92578,1.5625 1.9336,0.507812 3.82813,0.507812 2.53906,0 3.90625,-0.859375 1.36719,-0.878906 1.36719,-2.460937 0,-1.464844 -0.9961,-2.246094 -0.97656,-0.78125 -4.3164,-1.503906 l -1.25,-0.292969 q -3.33985,-0.703125 -4.82422,-2.148438 -1.48438,-1.464843 -1.48438,-4.003906 0,-3.085937 2.1875,-4.765625 2.1875,-1.679687 6.21094,-1.679687 1.99219,0 3.75,0.292968 1.75781,0.292969 3.24219,0.878907 z"
         style=""
         id="path4669" />
      <path
         d="m 517.44238,72.195312 v 13.203125 h -3.59375 V 72.3125 q 0,-3.105469 -1.21093,-4.648438 -1.21094,-1.542968 -3.63282,-1.542968 -2.91015,0 -4.58984,1.855468 -1.67969,1.855469 -1.67969,5.058594 v 12.363281 h -3.61328 V 55.007812 h 3.61328 v 11.914063 q 1.28906,-1.972656 3.02735,-2.949219 1.75781,-0.976562 4.04296,-0.976562 3.76954,0 5.70313,2.34375 1.93359,2.324218 1.93359,6.855468 z"
         style=""
         id="path4671" />
      <path
         d="m 533.12598,66.042969 q -2.89063,0 -4.57032,2.265625 -1.67968,2.246093 -1.67968,6.171875 0,3.925781 1.66015,6.191406 1.67969,2.246094 4.58985,2.246094 2.87109,0 4.55078,-2.265625 1.67969,-2.265625 1.67969,-6.171875 0,-3.886719 -1.67969,-6.152344 -1.67969,-2.285156 -4.55078,-2.285156 z m 0,-3.046875 q 4.6875,0 7.36328,3.046875 2.67578,3.046875 2.67578,8.4375 0,5.371093 -2.67578,8.4375 -2.67578,3.046875 -7.36328,3.046875 -4.70703,0 -7.38282,-3.046875 -2.65625,-3.066407 -2.65625,-8.4375 0,-5.390625 2.65625,-8.4375 2.67579,-3.046875 7.38282,-3.046875 z"
         style=""
         id="path4673" />
      <path
         d="M 548.73145,76.765625 V 63.523437 h 3.59375 v 13.105469 q 0,3.105469 1.21093,4.667969 1.21094,1.542969 3.63282,1.542969 2.91015,0 4.58984,-1.855469 1.69922,-1.855469 1.69922,-5.058594 V 63.523437 h 3.59375 v 21.875 h -3.59375 v -3.359375 q -1.3086,1.992188 -3.04688,2.96875 -1.71875,0.957032 -4.0039,0.957032 -3.76953,0 -5.72266,-2.34375 -1.95312,-2.34375 -1.95312,-6.855469 z m 9.04296,-13.769531 z"
         style=""
         id="path4675" />
      <path
         d="m 574.49316,55.007812 h 3.59375 v 30.390625 h -3.59375 z"
         style=""
         id="path4677" />
      <path
         d="M 599.98145,66.84375 V 55.007812 h 3.59375 v 30.390625 h -3.59375 v -3.28125 q -1.13282,1.953125 -2.8711,2.910157 -1.71875,0.9375 -4.14062,0.9375 -3.96485,0 -6.46485,-3.164063 -2.48047,-3.164062 -2.48047,-8.320312 0,-5.15625 2.48047,-8.320313 2.5,-3.164062 6.46485,-3.164062 2.42187,0 4.14062,0.957031 1.73828,0.9375 2.8711,2.890625 z m -12.2461,7.636719 q 0,3.964843 1.6211,6.230468 1.64062,2.246094 4.49218,2.246094 2.85157,0 4.49219,-2.246094 1.64063,-2.265625 1.64063,-6.230468 0,-3.964844 -1.64063,-6.210938 -1.64062,-2.265625 -4.49219,-2.265625 -2.85156,0 -4.49218,2.265625 -1.6211,2.246094 -1.6211,6.210938 z"
         style=""
         id="path4679" />
      <path
         d="m 627.2666,57.3125 v 6.210937 h 7.40235 v 2.792969 h -7.40235 v 11.875 q 0,2.675781 0.72266,3.4375 0.74219,0.761719 2.98828,0.761719 h 3.69141 v 3.007812 h -3.69141 q -4.16016,0 -5.74219,-1.542968 -1.58203,-1.5625 -1.58203,-5.664063 v -11.875 h -2.63672 v -2.792969 h 2.63672 V 57.3125 Z"
         style=""
         id="path4681" />
      <path
         d="m 657.59863,72.195312 v 13.203125 h -3.59375 V 72.3125 q 0,-3.105469 -1.21093,-4.648438 -1.21094,-1.542968 -3.63282,-1.542968 -2.91015,0 -4.58984,1.855468 -1.67969,1.855469 -1.67969,5.058594 v 12.363281 h -3.61328 V 55.007812 h 3.61328 v 11.914063 q 1.28906,-1.972656 3.02735,-2.949219 1.75781,-0.976562 4.04296,-0.976562 3.76954,0 5.70313,2.34375 1.93359,2.324218 1.93359,6.855468 z"
         style=""
         id="path4683" />
      <path
         d="m 664.80566,63.523437 h 3.59375 v 21.875 h -3.59375 z m 0,-8.515625 h 3.59375 v 4.550782 h -3.59375 z"
         style=""
         id="path4685" />
      <path
         d="m 694.08301,72.195312 v 13.203125 h -3.59375 V 72.3125 q 0,-3.105469 -1.21094,-4.648438 -1.21094,-1.542968 -3.63281,-1.542968 -2.91016,0 -4.58985,1.855468 -1.67968,1.855469 -1.67968,5.058594 v 12.363281 h -3.61328 v -21.875 h 3.61328 v 3.398438 q 1.28906,-1.972656 3.02734,-2.949219 1.75781,-0.976562 4.04297,-0.976562 3.76953,0 5.70312,2.34375 1.9336,2.324218 1.9336,6.855468 z"
         style=""
         id="path4687" />
      <path
         d="m 701.15332,55.007812 h 3.61328 v 17.949219 l 10.72266,-9.433594 h 4.58984 l -11.60156,10.234375 12.08984,11.640625 h -4.6875 L 704.7666,74.714844 v 10.683593 h -3.61328 z"
         style=""
         id="path4689" />
      <path
         d="m 63.458008,124.40234 q -4.355469,0 -6.035156,0.9961 -1.679688,0.99609 -1.679688,3.39843 0,1.91407 1.25,3.04688 1.269531,1.11328 3.4375,1.11328 2.988281,0 4.785156,-2.10937 1.816407,-2.12891 1.816407,-5.64453 v -0.80079 z m 7.167969,-1.48437 v 12.48047 h -3.59375 v -3.32032 q -1.230469,1.99219 -3.066407,2.94922 -1.835937,0.9375 -4.492187,0.9375 -3.359375,0 -5.351563,-1.875 -1.972656,-1.89453 -1.972656,-5.05859 0,-3.69141 2.460938,-5.56641 2.480468,-1.875 7.382812,-1.875 h 5.039063 v -0.35156 q 0,-2.48047 -1.640625,-3.82812 -1.621094,-1.36719 -4.570313,-1.36719 -1.875,0 -3.652344,0.44922 -1.777343,0.44922 -3.417968,1.34765 v -3.32031 q 1.972656,-0.76172 3.828125,-1.13281 1.855468,-0.39063 3.613281,-0.39063 4.746094,0 7.089844,2.46094 2.34375,2.46094 2.34375,7.46094 z"
         style=""
         id="path4691" />
      <path
         d="m 93.750977,124.48047 q 0,-3.96484 -1.640625,-6.21094 -1.621094,-2.26562 -4.472657,-2.26562 -2.851562,0 -4.492187,2.26562 -1.621094,2.2461 -1.621094,6.21094 0,3.96484 1.621094,6.23047 1.640625,2.24609 4.492187,2.24609 2.851563,0 4.472657,-2.24609 1.640625,-2.26563 1.640625,-6.23047 z m -12.226563,-7.63672 q 1.132813,-1.95312 2.851563,-2.89062 1.738281,-0.95704 4.140625,-0.95704 3.984375,0 6.464843,3.16407 2.5,3.16406 2.5,8.32031 0,5.15625 -2.5,8.32031 -2.480468,3.16406 -6.464843,3.16406 -2.402344,0 -4.140625,-0.9375 -1.71875,-0.95703 -2.851563,-2.91015 v 3.28125 h -3.613281 v -30.39063 h 3.613281 z"
         style=""
         id="path4693" />
      <path
         d="m 111.91504,116.04297 q -2.89063,0 -4.57031,2.26562 -1.67969,2.2461 -1.67969,6.17188 0,3.92578 1.66016,6.1914 1.67968,2.2461 4.58984,2.2461 2.87109,0 4.55078,-2.26563 1.67969,-2.26562 1.67969,-6.17187 0,-3.88672 -1.67969,-6.15234 -1.67969,-2.28516 -4.55078,-2.28516 z m 0,-3.04688 q 4.6875,0 7.36328,3.04688 2.67578,3.04687 2.67578,8.4375 0,5.37109 -2.67578,8.4375 -2.67578,3.04687 -7.36328,3.04687 -4.70703,0 -7.38281,-3.04687 -2.65625,-3.06641 -2.65625,-8.4375 0,-5.39063 2.65625,-8.4375 2.67578,-3.04688 7.38281,-3.04688 z"
         style=""
         id="path4695" />
      <path
         d="m 127.52051,126.76563 v -13.24219 h 3.59375 v 13.10547 q 0,3.10546 1.21094,4.66796 1.21093,1.54297 3.63281,1.54297 2.91015,0 4.58984,-1.85547 1.69922,-1.85546 1.69922,-5.05859 v -12.40234 h 3.59375 v 21.875 h -3.59375 v -3.35938 q -1.30859,1.99219 -3.04687,2.96875 -1.71875,0.95703 -4.00391,0.95703 -3.76953,0 -5.72266,-2.34375 -1.95312,-2.34375 -1.95312,-6.85546 z m 9.04297,-13.76954 z"
         style=""
         id="path4697" />
      <path
         d="m 156.83691,107.3125 v 6.21094 h 7.40235 v 2.79297 h -7.40235 v 11.875 q 0,2.67578 0.72266,3.4375 0.74219,0.76171 2.98828,0.76171 h 3.69141 v 3.00782 h -3.69141 q -4.16015,0 -5.74219,-1.54297 -1.58203,-1.5625 -1.58203,-5.66406 v -11.875 h -2.63672 v -2.79297 h 2.63672 v -6.21094 z"
         style=""
         id="path4699" />
      <path
         d="m 197.46191,114.36328 v 3.35938 q -1.52343,-0.83985 -3.0664,-1.25 -1.52344,-0.42969 -3.08594,-0.42969 -3.49609,0 -5.42969,2.22656 -1.93359,2.20703 -1.93359,6.21094 0,4.0039 1.93359,6.23047 1.9336,2.20703 5.42969,2.20703 1.5625,0 3.08594,-0.41016 1.54297,-0.42969 3.0664,-1.26953 v 3.32031 q -1.5039,0.70313 -3.125,1.05469 -1.60156,0.35156 -3.41796,0.35156 -4.94141,0 -7.85157,-3.10547 -2.91015,-3.10546 -2.91015,-8.3789 0,-5.35156 2.92968,-8.41797 2.94922,-3.06641 8.06641,-3.06641 1.66016,0 3.24219,0.35157 1.58203,0.33203 3.0664,1.01562 z"
         style=""
         id="path4701" />
      <path
         d="m 216.42676,116.88281 q -0.60547,-0.35156 -1.32813,-0.50781 -0.70312,-0.17578 -1.5625,-0.17578 -3.04687,0 -4.6875,1.99219 -1.62109,1.97265 -1.62109,5.68359 v 11.52344 h -3.61328 v -21.875 h 3.61328 v 3.39844 q 1.13281,-1.99219 2.94922,-2.94922 1.8164,-0.97657 4.41406,-0.97657 0.37109,0 0.82031,0.0586 0.44922,0.0391 0.9961,0.13672 z"
         style=""
         id="path4703" />
      <path
         d="m 230.17676,124.40234 q -4.35547,0 -6.03516,0.9961 -1.67969,0.99609 -1.67969,3.39843 0,1.91407 1.25,3.04688 1.26954,1.11328 3.4375,1.11328 2.98829,0 4.78516,-2.10937 1.81641,-2.12891 1.81641,-5.64453 v -0.80079 z m 7.16797,-1.48437 v 12.48047 h -3.59375 v -3.32032 q -1.23047,1.99219 -3.06641,2.94922 -1.83594,0.9375 -4.49219,0.9375 -3.35937,0 -5.35156,-1.875 -1.97266,-1.89453 -1.97266,-5.05859 0,-3.69141 2.46094,-5.56641 2.48047,-1.875 7.38281,-1.875 h 5.03907 v -0.35156 q 0,-2.48047 -1.64063,-3.82812 -1.62109,-1.36719 -4.57031,-1.36719 -1.875,0 -3.65234,0.44922 -1.77735,0.44922 -3.41797,1.34765 v -3.32031 q 1.97265,-0.76172 3.82812,-1.13281 1.85547,-0.39063 3.61328,-0.39063 4.7461,0 7.08985,2.46094 2.34375,2.46094 2.34375,7.46094 z"
         style=""
         id="path4705" />
      <path
         d="m 255.84082,105.00781 v 2.98828 h -3.4375 q -1.93359,0 -2.69531,0.78125 -0.74219,0.78125 -0.74219,2.8125 v 1.9336 h 5.91797 v 2.79297 h -5.91797 v 19.08203 h -3.61328 v -19.08203 h -3.4375 v -2.79297 h 3.4375 V 112 q 0,-3.65234 1.69922,-5.3125 1.69922,-1.67969 5.39062,-1.67969 z"
         style=""
         id="path4707" />
      <path
         d="m 261.68066,107.3125 v 6.21094 h 7.40235 v 2.79297 h -7.40235 v 11.875 q 0,2.67578 0.72266,3.4375 0.74219,0.76171 2.98828,0.76171 h 3.69141 v 3.00782 h -3.69141 q -4.16015,0 -5.74219,-1.54297 -1.58203,-1.5625 -1.58203,-5.66406 v -11.875 h -2.63672 v -2.79297 h 2.63672 v -6.21094 z"
         style=""
         id="path4709" />
      <path
         d="m 273.8291,113.52344 h 3.59375 v 21.875 h -3.59375 z m 0,-8.51563 h 3.59375 v 4.55078 h -3.59375 z"
         style=""
         id="path4711" />
      <path
         d="m 303.10645,122.19531 v 13.20313 H 299.5127 V 122.3125 q 0,-3.10547 -1.21094,-4.64844 -1.21094,-1.54297 -3.63281,-1.54297 -2.91016,0 -4.58985,1.85547 -1.67969,1.85547 -1.67969,5.0586 v 12.36328 h -3.61328 v -21.875 h 3.61328 v 3.39844 q 1.28907,-1.97266 3.02735,-2.94922 1.75781,-0.97657 4.04297,-0.97657 3.76953,0 5.70312,2.34375 1.9336,2.32422 1.9336,6.85547 z"
         style=""
         id="path4713" />
      <path
         d="m 324.70801,124.20703 q 0,-3.90625 -1.6211,-6.05469 -1.60156,-2.14843 -4.51171,-2.14843 -2.89063,0 -4.51172,2.14843 -1.60157,2.14844 -1.60157,6.05469 0,3.88672 1.60157,6.03516 1.62109,2.14843 4.51172,2.14843 2.91015,0 4.51171,-2.14843 1.6211,-2.14844 1.6211,-6.03516 z m 3.59375,8.47656 q 0,5.58594 -2.48047,8.30078 -2.48047,2.73438 -7.59766,2.73438 -1.89453,0 -3.57422,-0.29297 -1.67968,-0.27344 -3.26171,-0.85937 v -3.4961 q 1.58203,0.85938 3.125,1.26953 1.54296,0.41016 3.14453,0.41016 3.53515,0 5.29297,-1.85547 1.75781,-1.83594 1.75781,-5.56641 v -1.77734 q -1.11328,1.93359 -2.85156,2.89063 -1.73829,0.95703 -4.16016,0.95703 -4.02344,0 -6.48438,-3.06641 -2.46093,-3.06641 -2.46093,-8.125 0,-5.07812 2.46093,-8.14453 2.46094,-3.06641 6.48438,-3.06641 2.42187,0 4.16016,0.95704 1.73828,0.95703 2.85156,2.89062 v -3.32031 h 3.59375 z"
         style=""
         id="path4715" />
      <path
         d="m 358.37988,124.40234 q -4.35547,0 -6.03515,0.9961 -1.67969,0.99609 -1.67969,3.39843 0,1.91407 1.25,3.04688 1.26953,1.11328 3.4375,1.11328 2.98828,0 4.78516,-2.10937 1.8164,-2.12891 1.8164,-5.64453 v -0.80079 z m 7.16797,-1.48437 v 12.48047 h -3.59375 v -3.32032 q -1.23047,1.99219 -3.0664,2.94922 -1.83594,0.9375 -4.49219,0.9375 -3.35938,0 -5.35156,-1.875 -1.97266,-1.89453 -1.97266,-5.05859 0,-3.69141 2.46094,-5.56641 2.48047,-1.875 7.38281,-1.875 h 5.03906 v -0.35156 q 0,-2.48047 -1.64062,-3.82812 -1.6211,-1.36719 -4.57032,-1.36719 -1.875,0 -3.65234,0.44922 -1.77734,0.44922 -3.41797,1.34765 v -3.32031 q 1.97266,-0.76172 3.82813,-1.13281 1.85547,-0.39063 3.61328,-0.39063 4.74609,0 7.08984,2.46094 2.34375,2.46094 2.34375,7.46094 z"
         style=""
         id="path4717" />
      <path
         d="m 391.15332,122.19531 v 13.20313 h -3.59375 V 122.3125 q 0,-3.10547 -1.21094,-4.64844 -1.21093,-1.54297 -3.63281,-1.54297 -2.91016,0 -4.58984,1.85547 -1.67969,1.85547 -1.67969,5.0586 v 12.36328 h -3.61328 v -21.875 h 3.61328 v 3.39844 q 1.28906,-1.97266 3.02734,-2.94922 1.75782,-0.97657 4.04297,-0.97657 3.76953,0 5.70313,2.34375 1.93359,2.32422 1.93359,6.85547 z"
         style=""
         id="path4719" />
      <path
         d="m 411.09473,113.52344 h 3.59375 v 21.875 h -3.59375 z m 0,-8.51563 h 3.59375 v 4.55078 h -3.59375 z"
         style=""
         id="path4721" />
      <path
         d="m 425.74316,107.3125 v 6.21094 h 7.40235 v 2.79297 h -7.40235 v 11.875 q 0,2.67578 0.72266,3.4375 0.74219,0.76171 2.98828,0.76171 h 3.69141 v 3.00782 h -3.69141 q -4.16015,0 -5.74219,-1.54297 -1.58203,-1.5625 -1.58203,-5.66406 v -11.875 h -2.63672 v -2.79297 h 2.63672 v -6.21094 z"
         style=""
         id="path4723" />
      <path
         d="m 456.60254,123.5625 v 1.75781 H 440.0791 q 0.23438,3.71094 2.22656,5.66406 2.01172,1.9336 5.58594,1.9336 2.07031,0 4.00391,-0.50781 1.95312,-0.50782 3.86719,-1.52344 v 3.39844 q -1.9336,0.82031 -3.96485,1.25 -2.03125,0.42968 -4.12109,0.42968 -5.23438,0 -8.30078,-3.04687 -3.04688,-3.04688 -3.04688,-8.24219 0,-5.37109 2.89063,-8.51562 2.91015,-3.16407 7.83203,-3.16407 4.41406,0 6.97265,2.85157 2.57813,2.83203 2.57813,7.71484 z m -3.59375,-1.05469 q -0.0391,-2.94922 -1.66016,-4.70703 -1.60156,-1.75781 -4.25781,-1.75781 -3.00781,0 -4.82422,1.69922 -1.79687,1.69922 -2.07031,4.78515 z"
         style=""
         id="path4725" />
      <path
         d="m 479.53223,117.72266 q 1.34765,-2.42188 3.22265,-3.57422 1.875,-1.15235 4.41407,-1.15235 3.41796,0 5.27343,2.40235 1.85547,2.38281 1.85547,6.79687 v 13.20313 h -3.61328 V 122.3125 q 0,-3.14453 -1.11328,-4.66797 -1.11328,-1.52344 -3.39844,-1.52344 -2.79297,0 -4.41406,1.85547 -1.62109,1.85547 -1.62109,5.0586 v 12.36328 h -3.61329 V 122.3125 q 0,-3.16406 -1.11328,-4.66797 -1.11328,-1.52344 -3.4375,-1.52344 -2.7539,0 -4.375,1.875 -1.62109,1.85547 -1.62109,5.03907 v 12.36328 h -3.61328 v -21.875 h 3.61328 v 3.39844 q 1.23047,-2.01172 2.94922,-2.96875 1.71875,-0.95704 4.08203,-0.95704 2.38281,0 4.04297,1.21094 1.67969,1.21094 2.48047,3.51563 z"
         style=""
         id="path4727" />
      <path
         d="m 517.77441,107.3125 v 6.21094 h 7.40235 v 2.79297 h -7.40235 v 11.875 q 0,2.67578 0.72266,3.4375 0.74219,0.76171 2.98828,0.76171 h 3.69141 v 3.00782 h -3.69141 q -4.16015,0 -5.74219,-1.54297 -1.58203,-1.5625 -1.58203,-5.66406 v -11.875 h -2.63672 v -2.79297 h 2.63672 v -6.21094 z"
         style=""
         id="path4729" />
      <path
         d="m 538.39941,116.04297 q -2.89062,0 -4.57031,2.26562 -1.67969,2.2461 -1.67969,6.17188 0,3.92578 1.66016,6.1914 1.67969,2.2461 4.58984,2.2461 2.8711,0 4.55079,-2.26563 1.67968,-2.26562 1.67968,-6.17187 0,-3.88672 -1.67968,-6.15234 -1.67969,-2.28516 -4.55079,-2.28516 z m 0,-3.04688 q 4.6875,0 7.36329,3.04688 2.67578,3.04687 2.67578,8.4375 0,5.37109 -2.67578,8.4375 -2.67579,3.04687 -7.36329,3.04687 -4.70703,0 -7.38281,-3.04687 -2.65625,-3.06641 -2.65625,-8.4375 0,-5.39063 2.65625,-8.4375 2.67578,-3.04688 7.38281,-3.04688 z"
         style=""
         id="path4731" />
      <path
         d="m 570.58691,132.11719 v 11.60156 h -3.61328 v -30.19531 h 3.61328 v 3.32031 q 1.13282,-1.95312 2.85157,-2.89062 1.73828,-0.95704 4.14062,-0.95704 3.98438,0 6.46485,3.16407 2.5,3.16406 2.5,8.32031 0,5.15625 -2.5,8.32031 -2.48047,3.16406 -6.46485,3.16406 -2.40234,0 -4.14062,-0.9375 -1.71875,-0.95703 -2.85157,-2.91015 z m 12.22657,-7.63672 q 0,-3.96484 -1.64063,-6.21094 -1.62109,-2.26562 -4.47265,-2.26562 -2.85157,0 -4.49219,2.26562 -1.6211,2.2461 -1.6211,6.21094 0,3.96484 1.6211,6.23047 1.64062,2.24609 4.49219,2.24609 2.85156,0 4.47265,-2.24609 1.64063,-2.26563 1.64063,-6.23047 z"
         style=""
         id="path4733" />
      <path
         d="m 605.17676,116.88281 q -0.60547,-0.35156 -1.32813,-0.50781 -0.70312,-0.17578 -1.5625,-0.17578 -3.04687,0 -4.6875,1.99219 -1.62109,1.97265 -1.62109,5.68359 v 11.52344 h -3.61328 v -21.875 h 3.61328 v 3.39844 q 1.13281,-1.99219 2.94922,-2.94922 1.8164,-0.97657 4.41406,-0.97657 0.37109,0 0.82031,0.0586 0.44922,0.0391 0.9961,0.13672 z"
         style=""
         id="path4735" />
      <path
         d="m 616.60254,116.04297 q -2.89063,0 -4.57031,2.26562 -1.67969,2.2461 -1.67969,6.17188 0,3.92578 1.66016,6.1914 1.67968,2.2461 4.58984,2.2461 2.87109,0 4.55078,-2.26563 1.67969,-2.26562 1.67969,-6.17187 0,-3.88672 -1.67969,-6.15234 -1.67969,-2.28516 -4.55078,-2.28516 z m 0,-3.04688 q 4.6875,0 7.36328,3.04688 2.67578,3.04687 2.67578,8.4375 0,5.37109 -2.67578,8.4375 -2.67578,3.04687 -7.36328,3.04687 -4.70703,0 -7.38281,-3.04687 -2.65625,-3.06641 -2.65625,-8.4375 0,-5.39063 2.65625,-8.4375 2.67578,-3.04688 7.38281,-3.04688 z"
         style=""
         id="path4737" />
      <path
         d="m 636.13379,107.3125 v 6.21094 h 7.40234 v 2.79297 h -7.40234 v 11.875 q 0,2.67578 0.72266,3.4375 0.74218,0.76171 2.98828,0.76171 h 3.6914 v 3.00782 h -3.6914 q -4.16016,0 -5.74219,-1.54297 -1.58203,-1.5625 -1.58203,-5.66406 v -11.875 h -2.63672 v -2.79297 h 2.63672 v -6.21094 z"
         style=""
         id="path4739" />
      <path
         d="m 666.99316,123.5625 v 1.75781 h -16.52343 q 0.23437,3.71094 2.22656,5.66406 2.01172,1.9336 5.58594,1.9336 2.07031,0 4.0039,-0.50781 1.95313,-0.50782 3.86719,-1.52344 v 3.39844 q -1.93359,0.82031 -3.96484,1.25 -2.03125,0.42968 -4.1211,0.42968 -5.23437,0 -8.30078,-3.04687 -3.04687,-3.04688 -3.04687,-8.24219 0,-5.37109 2.89062,-8.51562 2.91016,-3.16407 7.83203,-3.16407 4.41407,0 6.97266,2.85157 2.57812,2.83203 2.57812,7.71484 z m -3.59375,-1.05469 q -0.0391,-2.94922 -1.66015,-4.70703 -1.60156,-1.75781 -4.25781,-1.75781 -3.00782,0 -4.82422,1.69922 -1.79688,1.69922 -2.07032,4.78515 z"
         style=""
         id="path4741" />
      <path
         d="m 688.63379,114.36328 v 3.35938 q -1.52344,-0.83985 -3.06641,-1.25 -1.52343,-0.42969 -3.08593,-0.42969 -3.4961,0 -5.42969,2.22656 -1.9336,2.20703 -1.9336,6.21094 0,4.0039 1.9336,6.23047 1.93359,2.20703 5.42969,2.20703 1.5625,0 3.08593,-0.41016 1.54297,-0.42969 3.06641,-1.26953 v 3.32031 q -1.50391,0.70313 -3.125,1.05469 -1.60156,0.35156 -3.41797,0.35156 -4.94141,0 -7.85156,-3.10547 -2.91016,-3.10546 -2.91016,-8.3789 0,-5.35156 2.92969,-8.41797 2.94922,-3.06641 8.06641,-3.06641 1.66015,0 3.24218,0.35157 1.58203,0.33203 3.06641,1.01562 z"
         style=""
         id="path4743" />
      <path
         d="m 698.47754,107.3125 v 6.21094 h 7.40234 v 2.79297 h -7.40234 v 11.875 q 0,2.67578 0.72266,3.4375 0.74218,0.76171 2.98828,0.76171 h 3.6914 v 3.00782 h -3.6914 q -4.16016,0 -5.74219,-1.54297 -1.58203,-1.5625 -1.58203,-5.66406 v -11.875 h -2.63672 v -2.79297 h 2.63672 v -6.21094 z"
         style=""
         id="path4745" />
      <path
         d="m 302.85254,187.42969 q -1.52344,3.90625 -2.96875,5.09765 -1.44531,1.19141 -3.86719,1.19141 h -2.87109 v -3.00781 h 2.10937 q 1.48438,0 2.30469,-0.70313 0.82031,-0.70312 1.81641,-3.32031 l 0.64453,-1.64063 -8.84766,-21.52343 h 3.8086 l 6.83593,17.10937 6.83594,-17.10937 h 3.80859 z"
         style=""
         id="path4747" />
      <path
         d="m 325.89941,166.04297 q -2.89062,0 -4.57031,2.26562 -1.67969,2.2461 -1.67969,6.17188 0,3.92578 1.66016,6.1914 1.67969,2.2461 4.58984,2.2461 2.8711,0 4.55079,-2.26563 1.67968,-2.26562 1.67968,-6.17187 0,-3.88672 -1.67968,-6.15235 -1.67969,-2.28515 -4.55079,-2.28515 z m 0,-3.04688 q 4.6875,0 7.36329,3.04688 2.67578,3.04687 2.67578,8.4375 0,5.37109 -2.67578,8.4375 -2.67579,3.04687 -7.36329,3.04687 -4.70703,0 -7.38281,-3.04687 -2.65625,-3.06641 -2.65625,-8.4375 0,-5.39063 2.65625,-8.4375 2.67578,-3.04688 7.38281,-3.04688 z"
         style=""
         id="path4749" />
      <path
         d="m 341.50488,176.76562 v -13.24218 h 3.59375 v 13.10547 q 0,3.10546 1.21094,4.66796 1.21094,1.54297 3.63281,1.54297 2.91016,0 4.58985,-1.85547 1.69922,-1.85546 1.69922,-5.05859 v -12.40234 h 3.59375 v 21.875 h -3.59375 v -3.35938 q -1.3086,1.99219 -3.04688,2.96875 -1.71875,0.95703 -4.00391,0.95703 -3.76953,0 -5.72265,-2.34375 -1.95313,-2.34375 -1.95313,-6.85547 z m 9.04297,-13.76953 z"
         style=""
         id="path4751" />
      <path
         d="m 379.94238,166.88281 q -0.60547,-0.35156 -1.32812,-0.50781 -0.70313,-0.17578 -1.5625,-0.17578 -3.04688,0 -4.6875,1.99219 -1.6211,1.97265 -1.6211,5.68359 v 11.52344 h -3.61328 v -21.875 h 3.61328 v 3.39843 q 1.13282,-1.99218 2.94922,-2.94921 1.81641,-0.97657 4.41407,-0.97657 0.37109,0 0.82031,0.0586 0.44922,0.0391 0.99609,0.13672 z"
         style=""
         id="path4753" />
      <path
         d="m 397.69629,164.16797 v 3.39844 q -1.52344,-0.78125 -3.16406,-1.17188 -1.64063,-0.39062 -3.39844,-0.39062 -2.67578,0 -4.02344,0.82031 -1.32812,0.82031 -1.32812,2.46094 0,1.25 0.95703,1.97265 0.95703,0.70313 3.84765,1.34766 l 1.23047,0.27344 q 3.82813,0.82031 5.42969,2.32421 1.62109,1.48438 1.62109,4.16016 0,3.04688 -2.42187,4.82422 -2.40234,1.77734 -6.62109,1.77734 -1.75782,0 -3.67188,-0.35156 -1.89453,-0.33203 -4.00391,-1.01562 v -3.71094 q 1.99219,1.03515 3.92579,1.5625 1.93359,0.50781 3.82812,0.50781 2.53906,0 3.90625,-0.85937 1.36719,-0.87891 1.36719,-2.46094 0,-1.46485 -0.9961,-2.2461 -0.97656,-0.78125 -4.3164,-1.5039 l -1.25,-0.29297 q -3.33985,-0.70313 -4.82422,-2.14844 -1.48438,-1.46484 -1.48438,-4.0039 0,-3.08594 2.1875,-4.76563 2.1875,-1.67969 6.21094,-1.67969 1.99219,0 3.75,0.29297 1.75781,0.29297 3.24219,0.87891 z"
         style=""
         id="path4755" />
      <path
         d="m 423.32129,173.5625 v 1.75781 h -16.52344 q 0.23438,3.71094 2.22656,5.66406 2.01172,1.9336 5.58594,1.9336 2.07031,0 4.00391,-0.50781 1.95312,-0.50782 3.86719,-1.52344 v 3.39844 q -1.9336,0.82031 -3.96485,1.25 -2.03125,0.42968 -4.12109,0.42968 -5.23438,0 -8.30078,-3.04687 -3.04688,-3.04688 -3.04688,-8.24219 0,-5.37109 2.89063,-8.51562 2.91015,-3.16407 7.83203,-3.16407 4.41406,0 6.97265,2.85157 2.57813,2.83203 2.57813,7.71484 z m -3.59375,-1.05469 q -0.0391,-2.94922 -1.66016,-4.70703 -1.60156,-1.75781 -4.25781,-1.75781 -3.00781,0 -4.82422,1.69922 -1.79687,1.69922 -2.07031,4.78515 z"
         style=""
         id="path4757" />
      <path
         d="m 429.21973,155.00781 h 3.59375 v 30.39063 h -3.59375 z"
         style=""
         id="path4759" />
      <path
         d="m 451.3877,155.00781 v 2.98828 h -3.4375 q -1.9336,0 -2.69532,0.78125 -0.74218,0.78125 -0.74218,2.8125 v 1.9336 h 5.91796 v 2.79297 h -5.91796 v 19.08203 h -3.61329 v -19.08203 h -3.4375 v -2.79297 h 3.4375 V 162 q 0,-3.65234 1.69922,-5.3125 1.69922,-1.67969 5.39063,-1.67969 z"
         style=""
         id="path4761" />
      <path
         d="m 456.6416,180.4375 h 3.96485 v 4.96094 h -3.96485 z m 0,-24.19922 h 3.96485 v 12.79297 l -0.39063,6.97266 h -3.16406 l -0.41016,-6.97266 z"
         style=""
         id="path4763" />
    </g>
  </g>
</svg>
