<?xml version="1.0" encoding="UTF-8" standalone="no"?>
<!-- Created with Inkscape (http://www.inkscape.org/) -->

<svg
   xmlns:dc="http://purl.org/dc/elements/1.1/"
   xmlns:cc="http://creativecommons.org/ns#"
   xmlns:rdf="http://www.w3.org/1999/02/22-rdf-syntax-ns#"
   xmlns:svg="http://www.w3.org/2000/svg"
   xmlns="http://www.w3.org/2000/svg"
   xmlns:sodipodi="http://sodipodi.sourceforge.net/DTD/sodipodi-0.dtd"
   xmlns:inkscape="http://www.inkscape.org/namespaces/inkscape"
   width="200mm"
   height="200mm"
   viewBox="0 0 200 200"
   version="1.1"
   id="svg8"
   inkscape:version="0.92.5 (2060ec1f9f, 2020-04-08)"
   sodipodi:docname="tutorial1.svg">
  <defs
     id="defs2" />
  <sodipodi:namedview
     id="base"
     pagecolor="#ffffff"
     bordercolor="#666666"
     borderopacity="1.0"
     inkscape:pageopacity="0.0"
     inkscape:pageshadow="2"
     inkscape:zoom="1.4142136"
     inkscape:cx="448.18456"
     inkscape:cy="659.3596"
     inkscape:document-units="mm"
     inkscape:current-layer="layer2"
     showgrid="false"
     inkscape:window-width="1853"
     inkscape:window-height="1057"
     inkscape:window-x="1979"
     inkscape:window-y="-8"
     inkscape:window-maximized="1" />
  <metadata
     id="metadata5">
    <rdf:RDF>
      <cc:Work
         rdf:about="">
        <dc:format>image/svg+xml</dc:format>
        <dc:type
           rdf:resource="http://purl.org/dc/dcmitype/StillImage" />
        <dc:title></dc:title>
      </cc:Work>
    </rdf:RDF>
  </metadata>
  <g
     inkscape:label="Ebene 1"
     inkscape:groupmode="layer"
     id="layer1"
     transform="translate(0,-97)"
     style="display:inline">
    <g
       inkscape:groupmode="layer"
       id="layer2"
       inkscape:label="Hintergrund"
       style="display:inline">
      <rect
         style="fill:#e3dbdb;fill-opacity:1;stroke:none;stroke-width:0.25981101;stroke-opacity:1"
         id="rect94"
         width="200.15549"
         height="40.872219"
         x="7.6495816e-08"
         y="96.999809" />
    </g>
    <flowRoot
       xml:space="preserve"
       id="flowRoot100"
       style="fill:black;fill-opacity:1;stroke:none;font-family:sans-serif;font-style:normal;font-weight:normal;font-size:40px;line-height:1.25;letter-spacing:0px;word-spacing:0px"><flowRegion
         id="flowRegion102"><rect
           id="rect104"
           width="756.49316"
           height="144.47768"
           x="2.8911805e-07"
           y="-0.00072088768" /></flowRegion><flowPara
         id="flowPara106"></flowPara></flowRoot>    <g
       aria-label="Your fire is running out of fuel! Click on the fire to walk there and throw your log into it."
       transform="matrix(0.26458333,0,0,0.26458333,0,97)"
       style="font-style:normal;font-variant:normal;font-weight:normal;font-stretch:normal;font-size:40px;line-height:1.25;font-family:sans-serif;-inkscape-font-specification:'sans-serif, Normal';font-variant-ligatures:normal;font-variant-caps:normal;font-variant-numeric:normal;font-feature-settings:normal;text-align:center;letter-spacing:0px;word-spacing:0px;writing-mode:lr-tb;text-anchor:middle;fill:#000000;fill-opacity:1;stroke:none"
       id="flowRoot108">
      <path
         d="m 23.496094,6.2304687 h 4.238281 L 35.820312,18.222656 43.847656,6.2304687 h 4.238281 L 37.773437,21.503906 V 35.390625 H 33.808594 V 21.503906 Z"
         style=""
         id="path116" />
      <path
         d="m 54.960937,16.035156 q -2.890625,0 -4.570312,2.265625 -1.679688,2.246094 -1.679688,6.171875 0,3.925781 1.660157,6.191406 1.679687,2.246094 4.589843,2.246094 2.871094,0 4.550782,-2.265625 1.679687,-2.265625 1.679687,-6.171875 0,-3.886719 -1.679687,-6.152344 -1.679688,-2.285156 -4.550782,-2.285156 z m 0,-3.046875 q 4.6875,0 7.363282,3.046875 Q 65,19.082031 65,24.472656 q 0,5.371094 -2.675781,8.4375 -2.675782,3.046875 -7.363282,3.046875 -4.707031,0 -7.382812,-3.046875 -2.65625,-3.066406 -2.65625,-8.4375 0,-5.390625 2.65625,-8.4375 2.675781,-3.046875 7.382812,-3.046875 z"
         style=""
         id="path118" />
      <path
         d="M 70.566406,26.757812 V 13.515625 h 3.59375 v 13.105469 q 0,3.105468 1.210938,4.667968 1.210937,1.542969 3.632812,1.542969 2.910156,0 4.589844,-1.855469 1.699219,-1.855468 1.699219,-5.058593 V 13.515625 h 3.59375 v 21.875 h -3.59375 V 32.03125 Q 83.984375,34.023437 82.246094,35 q -1.71875,0.957031 -4.003907,0.957031 -3.769531,0 -5.722656,-2.34375 -1.953125,-2.34375 -1.953125,-6.855469 z m 9.042969,-13.769531 z"
         style=""
         id="path120" />
      <path
         d="m 109.00391,16.875 q -0.60547,-0.351563 -1.32813,-0.507813 -0.70312,-0.175781 -1.5625,-0.175781 -3.04687,0 -4.6875,1.992188 -1.621093,1.972656 -1.621093,5.683593 v 11.523438 h -3.613281 v -21.875 h 3.613281 v 3.398437 q 1.132813,-1.992187 2.949223,-2.949218 1.8164,-0.976563 4.41406,-0.976563 0.37109,0 0.82031,0.05859 0.44922,0.03906 0.9961,0.136719 z"
         style=""
         id="path122" />
      <path
         d="m 143.22266,13.515625 v 21.875 h -3.61329 V 16.308594 h -9.86328 v 19.082031 h -3.61328 V 16.308594 h -3.4375 v -2.792969 h 3.4375 v -1.523437 q 0,-3.5742192 1.67969,-5.273438 Q 129.51172,5 133.00781,5 h 3.61328 v 2.9882812 h -3.4375 q -1.93359,0 -2.69531,0.7812501 -0.74219,0.78125 -0.74219,2.8124997 v 1.933594 z m -3.61329,-8.4765625 h 3.61329 v 4.5507813 h -3.61329 z"
         style=""
         id="path124" />
      <path
         d="m 163.45703,16.875 q -0.60547,-0.351563 -1.32812,-0.507813 -0.70313,-0.175781 -1.5625,-0.175781 -3.04688,0 -4.6875,1.992188 -1.6211,1.972656 -1.6211,5.683593 v 11.523438 h -3.61328 v -21.875 h 3.61328 v 3.398437 q 1.13281,-1.992187 2.94922,-2.949218 1.81641,-0.976563 4.41406,-0.976563 0.3711,0 0.82032,0.05859 0.44921,0.03906 0.99609,0.136719 z"
         style=""
         id="path126" />
      <path
         d="M 185.11719,23.554687 V 25.3125 h -16.52344 q 0.23437,3.710937 2.22656,5.664062 2.01172,1.933594 5.58594,1.933594 2.07031,0 4.00391,-0.507812 1.95312,-0.507813 3.86718,-1.523438 v 3.398438 q -1.93359,0.820312 -3.96484,1.25 -2.03125,0.429687 -4.12109,0.429687 -5.23438,0 -8.30079,-3.046875 -3.04687,-3.046875 -3.04687,-8.242187 0,-5.371094 2.89062,-8.515625 2.91016,-3.164063 7.83204,-3.164063 4.41406,0 6.97265,2.851563 2.57813,2.832031 2.57813,7.714843 z M 181.52344,22.5 q -0.0391,-2.949219 -1.66016,-4.707031 -1.60156,-1.757813 -4.25781,-1.757813 -3.00781,0 -4.82422,1.699219 -1.79688,1.699219 -2.07031,4.785156 z"
         style=""
         id="path128" />
      <path
         d="m 203.75,13.515625 h 3.59375 v 21.875 H 203.75 Z M 203.75,5 h 3.59375 V 9.5507813 H 203.75 Z"
         style=""
         id="path130" />
      <path
         d="m 228.78906,14.160156 v 3.398438 q -1.52344,-0.78125 -3.16406,-1.171875 -1.64063,-0.390625 -3.39844,-0.390625 -2.67578,0 -4.02344,0.820312 -1.32812,0.820313 -1.32812,2.460938 0,1.25 0.95703,1.972656 0.95703,0.703125 3.84766,1.347656 l 1.23047,0.273438 q 3.82812,0.820312 5.42968,2.324218 1.6211,1.484375 1.6211,4.160157 0,3.046875 -2.42188,4.824218 -2.40234,1.777344 -6.62109,1.777344 -1.75781,0 -3.67188,-0.351562 -1.89453,-0.332032 -4.0039,-1.015625 v -3.710938 q 1.99218,1.035156 3.92578,1.5625 1.93359,0.507813 3.82812,0.507813 2.53907,0 3.90625,-0.859375 1.36719,-0.878907 1.36719,-2.460938 0,-1.464844 -0.99609,-2.246094 -0.97657,-0.78125 -4.31641,-1.503906 l -1.25,-0.292969 q -3.33984,-0.703125 -4.82422,-2.148437 -1.48437,-1.464844 -1.48437,-4.003906 0,-3.085938 2.1875,-4.765625 2.1875,-1.679688 6.21093,-1.679688 1.99219,0 3.75,0.292969 1.75782,0.292969 3.24219,0.878906 z"
         style=""
         id="path132" />
      <path
         d="m 261.11328,16.875 q -0.60547,-0.351563 -1.32812,-0.507813 -0.70313,-0.175781 -1.5625,-0.175781 -3.04688,0 -4.6875,1.992188 -1.6211,1.972656 -1.6211,5.683593 v 11.523438 h -3.61328 v -21.875 h 3.61328 v 3.398437 q 1.13281,-1.992187 2.94922,-2.949218 1.81641,-0.976563 4.41406,-0.976563 0.3711,0 0.82032,0.05859 0.44921,0.03906 0.99609,0.136719 z"
         style=""
         id="path134" />
      <path
         d="M 264.55078,26.757812 V 13.515625 h 3.59375 v 13.105469 q 0,3.105468 1.21094,4.667968 1.21094,1.542969 3.63281,1.542969 2.91016,0 4.58984,-1.855469 1.69922,-1.855468 1.69922,-5.058593 V 13.515625 h 3.59375 v 21.875 h -3.59375 V 32.03125 q -1.30859,1.992187 -3.04687,2.96875 -1.71875,0.957031 -4.00391,0.957031 -3.76953,0 -5.72265,-2.34375 -1.95313,-2.34375 -1.95313,-6.855469 z m 9.04297,-13.769531 z"
         style=""
         id="path136" />
      <path
         d="m 308.49609,22.1875 v 13.203125 h -3.59375 V 22.304687 q 0,-3.105468 -1.21093,-4.648437 -1.21094,-1.542969 -3.63282,-1.542969 -2.91015,0 -4.58984,1.855469 -1.67969,1.855469 -1.67969,5.058594 v 12.363281 h -3.61328 v -21.875 h 3.61328 v 3.398437 q 1.28906,-1.972656 3.02735,-2.949218 1.75781,-0.976563 4.04296,-0.976563 3.76954,0 5.70313,2.34375 1.93359,2.324219 1.93359,6.855469 z"
         style=""
         id="path138" />
      <path
         d="m 333.88672,22.1875 v 13.203125 h -3.59375 V 22.304687 q 0,-3.105468 -1.21094,-4.648437 -1.21094,-1.542969 -3.63281,-1.542969 -2.91016,0 -4.58985,1.855469 -1.67968,1.855469 -1.67968,5.058594 v 12.363281 h -3.61328 v -21.875 h 3.61328 v 3.398437 q 1.28906,-1.972656 3.02734,-2.949218 1.75781,-0.976563 4.04297,-0.976563 3.76953,0 5.70312,2.34375 1.9336,2.324219 1.9336,6.855469 z"
         style=""
         id="path140" />
      <path
         d="m 341.09375,13.515625 h 3.59375 v 21.875 h -3.59375 z m 0,-8.515625 h 3.59375 v 4.5507813 h -3.59375 z"
         style=""
         id="path142" />
      <path
         d="m 370.37109,22.1875 v 13.203125 h -3.59375 V 22.304687 q 0,-3.105468 -1.21093,-4.648437 -1.21094,-1.542969 -3.63282,-1.542969 -2.91015,0 -4.58984,1.855469 -1.67969,1.855469 -1.67969,5.058594 v 12.363281 h -3.61328 v -21.875 h 3.61328 v 3.398437 q 1.28906,-1.972656 3.02735,-2.949218 1.75781,-0.976563 4.04296,-0.976563 3.76954,0 5.70313,2.34375 1.93359,2.324219 1.93359,6.855469 z"
         style=""
         id="path144" />
      <path
         d="m 391.97266,24.199219 q 0,-3.90625 -1.6211,-6.054688 -1.60156,-2.148437 -4.51172,-2.148437 -2.89062,0 -4.51172,2.148437 -1.60156,2.148438 -1.60156,6.054688 0,3.886718 1.60156,6.035156 1.6211,2.148437 4.51172,2.148437 2.91016,0 4.51172,-2.148437 1.6211,-2.148438 1.6211,-6.035156 z m 3.59375,8.476562 q 0,5.585938 -2.48047,8.300781 -2.48047,2.734375 -7.59766,2.734375 -1.89453,0 -3.57422,-0.292968 -1.67969,-0.273438 -3.26172,-0.859375 V 39.0625 q 1.58203,0.859375 3.125,1.269531 1.54297,0.410156 3.14453,0.410156 3.53516,0 5.29297,-1.855468 1.75782,-1.835938 1.75782,-5.566407 v -1.777343 q -1.11329,1.933593 -2.85157,2.890625 -1.73828,0.957031 -4.16015,0.957031 -4.02344,0 -6.48438,-3.066406 -2.46094,-3.066407 -2.46094,-8.125 0,-5.078125 2.46094,-8.144532 2.46094,-3.066406 6.48438,-3.066406 2.42187,0 4.16015,0.957032 1.73828,0.957031 2.85157,2.890624 v -3.320312 h 3.59375 z"
         style=""
         id="path146" />
      <path
         d="m 424.17969,16.035156 q -2.89063,0 -4.57032,2.265625 -1.67968,2.246094 -1.67968,6.171875 0,3.925781 1.66015,6.191406 1.67969,2.246094 4.58985,2.246094 2.87109,0 4.55078,-2.265625 1.67969,-2.265625 1.67969,-6.171875 0,-3.886719 -1.67969,-6.152344 -1.67969,-2.285156 -4.55078,-2.285156 z m 0,-3.046875 q 4.6875,0 7.36328,3.046875 2.67578,3.046875 2.67578,8.4375 0,5.371094 -2.67578,8.4375 -2.67578,3.046875 -7.36328,3.046875 -4.70703,0 -7.38282,-3.046875 -2.65625,-3.066406 -2.65625,-8.4375 0,-5.390625 2.65625,-8.4375 2.67579,-3.046875 7.38282,-3.046875 z"
         style=""
         id="path148" />
      <path
         d="M 439.78516,26.757812 V 13.515625 h 3.59375 v 13.105469 q 0,3.105468 1.21093,4.667968 1.21094,1.542969 3.63282,1.542969 2.91015,0 4.58984,-1.855469 1.69922,-1.855468 1.69922,-5.058593 V 13.515625 h 3.59375 v 21.875 h -3.59375 V 32.03125 q -1.3086,1.992187 -3.04688,2.96875 -1.71875,0.957031 -4.0039,0.957031 -3.76953,0 -5.72266,-2.34375 -1.95312,-2.34375 -1.95312,-6.855469 z m 9.04296,-13.769531 z"
         style=""
         id="path150" />
      <path
         d="m 469.10156,7.3046875 v 6.2109375 h 7.40235 v 2.792969 h -7.40235 v 11.875 q 0,2.675781 0.72266,3.4375 0.74219,0.761718 2.98828,0.761718 h 3.69141 v 3.007813 h -3.69141 q -4.16016,0 -5.74219,-1.542969 -1.58203,-1.5625 -1.58203,-5.664062 v -11.875 h -2.63672 v -2.792969 h 2.63672 V 7.3046875 Z"
         style=""
         id="path152" />
      <path
         d="m 502.46094,16.035156 q -2.89063,0 -4.57032,2.265625 -1.67968,2.246094 -1.67968,6.171875 0,3.925781 1.66015,6.191406 1.67969,2.246094 4.58985,2.246094 2.87109,0 4.55078,-2.265625 1.67969,-2.265625 1.67969,-6.171875 0,-3.886719 -1.67969,-6.152344 -1.67969,-2.285156 -4.55078,-2.285156 z m 0,-3.046875 q 4.6875,0 7.36328,3.046875 2.67578,3.046875 2.67578,8.4375 0,5.371094 -2.67578,8.4375 -2.67578,3.046875 -7.36328,3.046875 -4.70703,0 -7.38282,-3.046875 -2.65625,-3.066406 -2.65625,-8.4375 0,-5.390625 2.65625,-8.4375 2.67579,-3.046875 7.38282,-3.046875 z"
         style=""
         id="path154" />
      <path
         d="m 529.51172,5 v 2.9882812 h -3.4375 q -1.9336,0 -2.69531,0.7812501 -0.74219,0.78125 -0.74219,2.8124997 v 1.933594 h 5.91797 v 2.792969 h -5.91797 v 19.082031 h -3.61328 V 16.308594 h -3.4375 v -2.792969 h 3.4375 v -1.523437 q 0,-3.6523442 1.69922,-5.3125005 Q 522.42187,5 526.11328,5 Z"
         style=""
         id="path156" />
      <path
         d="m 556.30859,5 v 2.9882812 h -3.4375 q -1.93359,0 -2.69531,0.7812501 -0.74219,0.78125 -0.74219,2.8124997 v 1.933594 h 5.91797 v 2.792969 h -5.91797 v 19.082031 h -3.61328 V 16.308594 h -3.4375 v -2.792969 h 3.4375 v -1.523437 q 0,-3.6523442 1.69922,-5.3125005 Q 549.21875,5 552.91016,5 Z"
         style=""
         id="path158" />
      <path
         d="M 558.92578,26.757812 V 13.515625 h 3.59375 v 13.105469 q 0,3.105468 1.21094,4.667968 1.21094,1.542969 3.63281,1.542969 2.91016,0 4.58984,-1.855469 1.69922,-1.855468 1.69922,-5.058593 V 13.515625 h 3.59375 v 21.875 h -3.59375 V 32.03125 q -1.30859,1.992187 -3.04687,2.96875 -1.71875,0.957031 -4.00391,0.957031 -3.76953,0 -5.72265,-2.34375 -1.95313,-2.34375 -1.95313,-6.855469 z m 9.04297,-13.769531 z"
         style=""
         id="path160" />
      <path
         d="M 603.39844,23.554687 V 25.3125 H 586.875 q 0.23437,3.710937 2.22656,5.664062 2.01172,1.933594 5.58594,1.933594 2.07031,0 4.00391,-0.507812 1.95312,-0.507813 3.86718,-1.523438 v 3.398438 q -1.93359,0.820312 -3.96484,1.25 -2.03125,0.429687 -4.12109,0.429687 -5.23438,0 -8.30079,-3.046875 -3.04687,-3.046875 -3.04687,-8.242187 0,-5.371094 2.89062,-8.515625 2.91016,-3.164063 7.83204,-3.164063 4.41406,0 6.97265,2.851563 2.57813,2.832031 2.57813,7.714843 z M 599.80469,22.5 q -0.0391,-2.949219 -1.66016,-4.707031 -1.60156,-1.757813 -4.25781,-1.757813 -3.00781,0 -4.82422,1.699219 -1.79688,1.699219 -2.07031,4.785156 z"
         style=""
         id="path162" />
      <path
         d="m 609.29687,5 h 3.59375 v 30.390625 h -3.59375 z"
         style=""
         id="path164" />
      <path
         d="m 622.65625,30.429687 h 3.96484 v 4.960938 h -3.96484 z m 0,-24.1992183 h 3.96484 V 19.023437 l -0.39062,6.972657 h -3.16406 l -0.41016,-6.972657 z"
         style=""
         id="path166" />
      <path
         d="m 671.13281,8.4765625 v 4.1601565 q -1.99219,-1.855469 -4.25781,-2.7734377 -2.24609,-0.9179688 -4.78516,-0.9179688 -5,0 -7.65625,3.0664065 -2.65625,3.046875 -2.65625,8.828125 0,5.761718 2.65625,8.828125 2.65625,3.046875 7.65625,3.046875 2.53907,0 4.78516,-0.917969 2.26562,-0.917969 4.25781,-2.773438 v 4.121094 q -2.07031,1.40625 -4.39453,2.109375 -2.30469,0.703125 -4.88281,0.703125 -6.6211,0 -10.42969,-4.042969 -3.80859,-4.0625 -3.80859,-11.074218 0,-7.03125 3.80859,-11.074219 3.80859,-4.0625 10.42969,-4.0625 2.61719,0 4.92187,0.703125 2.32422,0.6835937 4.35547,2.0703125 z"
         style=""
         id="path168" />
      <path
         d="m 677.10937,5 h 3.59375 v 30.390625 h -3.59375 z"
         style=""
         id="path170" />
      <path
         d="m 688.20312,13.515625 h 3.59375 v 21.875 h -3.59375 z m 0,-8.515625 h 3.59375 v 4.5507813 h -3.59375 z"
         style=""
         id="path172" />
      <path
         d="m 715.03906,14.355469 v 3.359375 q -1.52344,-0.839844 -3.0664,-1.25 -1.52344,-0.429688 -3.08594,-0.429688 -3.4961,0 -5.42969,2.226563 -1.93359,2.207031 -1.93359,6.210937 0,4.003906 1.93359,6.230469 1.93359,2.207031 5.42969,2.207031 1.5625,0 3.08594,-0.410156 1.54296,-0.429688 3.0664,-1.269531 v 3.320312 q -1.5039,0.703125 -3.125,1.054688 -1.60156,0.351562 -3.41797,0.351562 -4.9414,0 -7.85156,-3.105469 -2.91016,-3.105468 -2.91016,-8.378906 0,-5.351562 2.92969,-8.417969 2.94922,-3.066406 8.06641,-3.066406 1.66015,0 3.24219,0.351563 1.58203,0.332031 3.0664,1.015625 z"
         style=""
         id="path174" />
      <path
         d="m 721.19141,5 h 3.61328 v 17.949219 l 10.72265,-9.433594 h 4.58985 L 728.51562,23.75 740.60547,35.390625 h -4.6875 L 724.80469,24.707031 v 10.683594 h -3.61328 z"
         style=""
         id="path176" />
      <path
         d="m 45.898437,66.035156 q -2.890625,0 -4.570312,2.265625 -1.679688,2.246094 -1.679688,6.171875 0,3.925781 1.660157,6.191406 1.679687,2.246094 4.589843,2.246094 2.871094,0 4.550782,-2.265625 1.679687,-2.265625 1.679687,-6.171875 0,-3.886719 -1.679687,-6.152344 -1.679688,-2.285156 -4.550782,-2.285156 z m 0,-3.046875 q 4.6875,0 7.363282,3.046875 2.675781,3.046875 2.675781,8.4375 0,5.371094 -2.675781,8.4375 -2.675782,3.046875 -7.363282,3.046875 -4.707031,0 -7.382812,-3.046875 -2.65625,-3.066406 -2.65625,-8.4375 0,-5.390625 2.65625,-8.4375 2.675781,-3.046875 7.382812,-3.046875 z"
         style=""
         id="path178" />
      <path
         d="m 80.058594,72.1875 v 13.203125 h -3.59375 V 72.304687 q 0,-3.105468 -1.210938,-4.648437 -1.210937,-1.542969 -3.632812,-1.542969 -2.910157,0 -4.589844,1.855469 -1.679688,1.855469 -1.679688,5.058594 v 12.363281 h -3.613281 v -21.875 h 3.613281 v 3.398437 q 1.289063,-1.972656 3.027344,-2.949218 1.757813,-0.976563 4.042969,-0.976563 3.769531,0 5.703125,2.34375 1.933594,2.324219 1.933594,6.855469 z"
         style=""
         id="path180" />
      <path
         d="m 103.55469,57.304687 v 6.210938 h 7.40234 v 2.792969 h -7.40234 v 11.875 q 0,2.675781 0.72265,3.4375 0.74219,0.761718 2.98829,0.761718 h 3.6914 v 3.007813 h -3.6914 q -4.16016,0 -5.74219,-1.542969 -1.582034,-1.5625 -1.582034,-5.664062 v -11.875 h -2.636719 v -2.792969 h 2.636719 v -6.210938 z"
         style=""
         id="path182" />
      <path
         d="m 133.88672,72.1875 v 13.203125 h -3.59375 V 72.304687 q 0,-3.105468 -1.21094,-4.648437 -1.21094,-1.542969 -3.63281,-1.542969 -2.91016,0 -4.58984,1.855469 -1.67969,1.855469 -1.67969,5.058594 v 12.363281 h -3.61328 V 55 h 3.61328 v 11.914062 q 1.28906,-1.972656 3.02734,-2.949218 1.75781,-0.976563 4.04297,-0.976563 3.76953,0 5.70312,2.34375 1.9336,2.324219 1.9336,6.855469 z"
         style=""
         id="path184" />
      <path
         d="M 159.80469,73.554687 V 75.3125 h -16.52344 q 0.23437,3.710937 2.22656,5.664062 2.01172,1.933594 5.58594,1.933594 2.07031,0 4.00391,-0.507812 1.95312,-0.507813 3.86718,-1.523438 v 3.398438 q -1.93359,0.820312 -3.96484,1.25 -2.03125,0.429687 -4.12109,0.429687 -5.23438,0 -8.30079,-3.046875 -3.04687,-3.046875 -3.04687,-8.242187 0,-5.371094 2.89062,-8.515625 2.91016,-3.164063 7.83204,-3.164063 4.41406,0 6.97265,2.851563 2.57813,2.832031 2.57813,7.714843 z M 156.21094,72.5 q -0.0391,-2.949219 -1.66016,-4.707031 -1.60156,-1.757813 -4.25781,-1.757813 -3.00781,0 -4.82422,1.699219 -1.79688,1.699219 -2.07031,4.785156 z"
         style=""
         id="path186" />
      <path
         d="m 196.11328,63.515625 v 21.875 H 192.5 V 66.308594 h -9.86328 v 19.082031 h -3.61328 V 66.308594 h -3.4375 v -2.792969 h 3.4375 v -1.523438 q 0,-3.574218 1.67968,-5.273437 Q 182.40234,55 185.89844,55 h 3.61328 v 2.988281 h -3.4375 q -1.9336,0 -2.69531,0.78125 -0.74219,0.78125 -0.74219,2.8125 v 1.933594 z M 192.5,55.039062 h 3.61328 v 4.550782 H 192.5 Z"
         style=""
         id="path188" />
      <path
         d="m 216.34766,66.875 q -0.60547,-0.351563 -1.32813,-0.507813 -0.70312,-0.175781 -1.5625,-0.175781 -3.04687,0 -4.6875,1.992188 -1.62109,1.972656 -1.62109,5.683593 v 11.523438 h -3.61328 v -21.875 h 3.61328 v 3.398437 q 1.13281,-1.992187 2.94922,-2.949218 1.8164,-0.976563 4.41406,-0.976563 0.37109,0 0.82031,0.05859 0.44922,0.03906 0.99609,0.136719 z"
         style=""
         id="path190" />
      <path
         d="M 238.00781,73.554687 V 75.3125 h -16.52344 q 0.23438,3.710937 2.22657,5.664062 2.01172,1.933594 5.58593,1.933594 2.07032,0 4.00391,-0.507812 1.95313,-0.507813 3.86719,-1.523438 v 3.398438 q -1.9336,0.820312 -3.96485,1.25 -2.03125,0.429687 -4.12109,0.429687 -5.23437,0 -8.30078,-3.046875 -3.04688,-3.046875 -3.04688,-8.242187 0,-5.371094 2.89063,-8.515625 2.91016,-3.164063 7.83203,-3.164063 4.41406,0 6.97266,2.851563 2.57812,2.832031 2.57812,7.714843 z M 234.41406,72.5 q -0.0391,-2.949219 -1.66015,-4.707031 -1.60157,-1.757813 -4.25782,-1.757813 -3.00781,0 -4.82422,1.699219 -1.79687,1.699219 -2.07031,4.785156 z"
         style=""
         id="path192" />
      <path
         d="m 260.19531,57.304687 v 6.210938 h 7.40235 v 2.792969 h -7.40235 v 11.875 q 0,2.675781 0.72266,3.4375 0.74219,0.761718 2.98828,0.761718 h 3.69141 v 3.007813 h -3.69141 q -4.16016,0 -5.74219,-1.542969 -1.58203,-1.5625 -1.58203,-5.664062 v -11.875 h -2.63672 v -2.792969 h 2.63672 v -6.210938 z"
         style=""
         id="path194" />
      <path
         d="m 280.82031,66.035156 q -2.89062,0 -4.57031,2.265625 -1.67969,2.246094 -1.67969,6.171875 0,3.925781 1.66016,6.191406 1.67969,2.246094 4.58984,2.246094 2.8711,0 4.55078,-2.265625 1.67969,-2.265625 1.67969,-6.171875 0,-3.886719 -1.67969,-6.152344 -1.67968,-2.285156 -4.55078,-2.285156 z m 0,-3.046875 q 4.6875,0 7.36328,3.046875 2.67578,3.046875 2.67578,8.4375 0,5.371094 -2.67578,8.4375 -2.67578,3.046875 -7.36328,3.046875 -4.70703,0 -7.38281,-3.046875 -2.65625,-3.066406 -2.65625,-8.4375 0,-5.390625 2.65625,-8.4375 2.67578,-3.046875 7.38281,-3.046875 z"
         style=""
         id="path196" />
      <path
         d="m 307.44141,63.515625 h 3.59375 L 315.52734,80.585937 320,63.515625 h 4.23828 l 4.49219,17.070312 4.47265,-17.070312 h 3.59375 l -5.72265,21.875 h -4.23828 l -4.70703,-17.929688 -4.72657,17.929688 h -4.23828 z"
         style=""
         id="path198" />
      <path
         d="m 352.20703,74.394531 q -4.35547,0 -6.03516,0.996094 -1.67968,0.996094 -1.67968,3.398437 0,1.914063 1.25,3.046875 1.26953,1.113282 3.4375,1.113282 2.98828,0 4.78515,-2.109375 1.81641,-2.128907 1.81641,-5.644532 v -0.800781 z m 7.16797,-1.484375 v 12.480469 h -3.59375 v -3.320313 q -1.23047,1.992188 -3.06641,2.949219 -1.83593,0.9375 -4.49218,0.9375 -3.35938,0 -5.35157,-1.875 -1.97265,-1.894531 -1.97265,-5.058594 0,-3.691406 2.46093,-5.566406 2.48047,-1.875 7.38282,-1.875 h 5.03906 v -0.351562 q 0,-2.480469 -1.64063,-3.828125 -1.62109,-1.367188 -4.57031,-1.367188 -1.875,0 -3.65234,0.449219 -1.77735,0.449219 -3.41797,1.347656 v -3.320312 q 1.97266,-0.761719 3.82812,-1.132813 1.85547,-0.390625 3.61329,-0.390625 4.74609,0 7.08984,2.460938 2.34375,2.460937 2.34375,7.460937 z"
         style=""
         id="path200" />
      <path
         d="m 366.79687,55 h 3.59375 v 30.390625 h -3.59375 z"
         style=""
         id="path202" />
      <path
         d="m 377.75391,55 h 3.61328 v 17.949219 l 10.72265,-9.433594 h 4.58985 L 385.07812,73.75 397.16797,85.390625 h -4.6875 L 381.36719,74.707031 v 10.683594 h -3.61328 z"
         style=""
         id="path204" />
      <path
         d="m 417.38281,57.304687 v 6.210938 h 7.40235 v 2.792969 h -7.40235 v 11.875 q 0,2.675781 0.72266,3.4375 0.74219,0.761718 2.98828,0.761718 h 3.69141 v 3.007813 h -3.69141 q -4.16016,0 -5.74219,-1.542969 -1.58203,-1.5625 -1.58203,-5.664062 v -11.875 h -2.63672 v -2.792969 h 2.63672 v -6.210938 z"
         style=""
         id="path206" />
      <path
         d="m 447.71484,72.1875 v 13.203125 h -3.59375 V 72.304687 q 0,-3.105468 -1.21093,-4.648437 -1.21094,-1.542969 -3.63282,-1.542969 -2.91015,0 -4.58984,1.855469 -1.67969,1.855469 -1.67969,5.058594 v 12.363281 h -3.61328 V 55 h 3.61328 v 11.914062 q 1.28906,-1.972656 3.02735,-2.949218 1.75781,-0.976563 4.04296,-0.976563 3.76954,0 5.70313,2.34375 1.93359,2.324219 1.93359,6.855469 z"
         style=""
         id="path208" />
      <path
         d="M 473.63281,73.554687 V 75.3125 h -16.52344 q 0.23438,3.710937 2.22657,5.664062 2.01172,1.933594 5.58593,1.933594 2.07032,0 4.00391,-0.507812 1.95313,-0.507813 3.86719,-1.523438 v 3.398438 q -1.9336,0.820312 -3.96485,1.25 -2.03125,0.429687 -4.12109,0.429687 -5.23437,0 -8.30078,-3.046875 -3.04688,-3.046875 -3.04688,-8.242187 0,-5.371094 2.89063,-8.515625 2.91016,-3.164063 7.83203,-3.164063 4.41406,0 6.97266,2.851563 2.57812,2.832031 2.57812,7.714843 z M 470.03906,72.5 Q 470,69.550781 468.37891,67.792969 q -1.60157,-1.757813 -4.25782,-1.757813 -3.00781,0 -4.82422,1.699219 -1.79687,1.699219 -2.07031,4.785156 z"
         style=""
         id="path210" />
      <path
         d="m 492.20703,66.875 q -0.60547,-0.351563 -1.32812,-0.507813 -0.70313,-0.175781 -1.5625,-0.175781 -3.04688,0 -4.6875,1.992188 -1.6211,1.972656 -1.6211,5.683593 v 11.523438 h -3.61328 v -21.875 h 3.61328 v 3.398437 q 1.13281,-1.992187 2.94922,-2.949218 1.81641,-0.976563 4.41406,-0.976563 0.3711,0 0.82032,0.05859 0.44921,0.03906 0.99609,0.136719 z"
         style=""
         id="path212" />
      <path
         d="M 513.86719,73.554687 V 75.3125 h -16.52344 q 0.23437,3.710937 2.22656,5.664062 2.01172,1.933594 5.58594,1.933594 2.07031,0 4.00391,-0.507812 1.95312,-0.507813 3.86718,-1.523438 v 3.398438 q -1.93359,0.820312 -3.96484,1.25 -2.03125,0.429687 -4.12109,0.429687 -5.23438,0 -8.30079,-3.046875 -3.04687,-3.046875 -3.04687,-8.242187 0,-5.371094 2.89062,-8.515625 2.91016,-3.164063 7.83204,-3.164063 4.41406,0 6.97265,2.851563 2.57813,2.832031 2.57813,7.714843 z M 510.27344,72.5 q -0.0391,-2.949219 -1.66016,-4.707031 -1.60156,-1.757813 -4.25781,-1.757813 -3.00781,0 -4.82422,1.699219 -1.79688,1.699219 -2.07031,4.785156 z"
         style=""
         id="path214" />
      <path
         d="m 542.44141,74.394531 q -4.35547,0 -6.03516,0.996094 -1.67969,0.996094 -1.67969,3.398437 0,1.914063 1.25,3.046875 1.26953,1.113282 3.4375,1.113282 2.98828,0 4.78516,-2.109375 1.8164,-2.128907 1.8164,-5.644532 v -0.800781 z m 7.16796,-1.484375 v 12.480469 h -3.59375 v -3.320313 q -1.23046,1.992188 -3.0664,2.949219 -1.83594,0.9375 -4.49219,0.9375 -3.35937,0 -5.35156,-1.875 -1.97266,-1.894531 -1.97266,-5.058594 0,-3.691406 2.46094,-5.566406 2.48047,-1.875 7.38281,-1.875 h 5.03906 v -0.351562 q 0,-2.480469 -1.64062,-3.828125 -1.62109,-1.367188 -4.57031,-1.367188 -1.875,0 -3.65235,0.449219 -1.77734,0.449219 -3.41797,1.347656 v -3.320312 q 1.97266,-0.761719 3.82813,-1.132813 1.85547,-0.390625 3.61328,-0.390625 4.74609,0 7.08984,2.460938 2.34375,2.460937 2.34375,7.460937 z"
         style=""
         id="path216" />
      <path
         d="m 575.21484,72.1875 v 13.203125 h -3.59375 V 72.304687 q 0,-3.105468 -1.21093,-4.648437 -1.21094,-1.542969 -3.63282,-1.542969 -2.91015,0 -4.58984,1.855469 -1.67969,1.855469 -1.67969,5.058594 v 12.363281 h -3.61328 v -21.875 h 3.61328 v 3.398437 q 1.28906,-1.972656 3.02735,-2.949218 1.75781,-0.976563 4.04296,-0.976563 3.76954,0 5.70313,2.34375 1.93359,2.324219 1.93359,6.855469 z"
         style=""
         id="path218" />
      <path
         d="M 596.81641,66.835937 V 55 h 3.59375 v 30.390625 h -3.59375 v -3.28125 q -1.13282,1.953125 -2.8711,2.910156 -1.71875,0.9375 -4.14062,0.9375 -3.96485,0 -6.46485,-3.164062 -2.48047,-3.164063 -2.48047,-8.320313 0,-5.15625 2.48047,-8.320312 2.5,-3.164063 6.46485,-3.164063 2.42187,0 4.14062,0.957031 1.73828,0.9375 2.8711,2.890625 z m -12.2461,7.636719 q 0,3.964844 1.6211,6.230469 1.64062,2.246094 4.49218,2.246094 2.85157,0 4.49219,-2.246094 1.64063,-2.265625 1.64063,-6.230469 0,-3.964844 -1.64063,-6.210937 -1.64062,-2.265625 -4.49219,-2.265625 -2.85156,0 -4.49218,2.265625 -1.6211,2.246093 -1.6211,6.210937 z"
         style=""
         id="path220" />
      <path
         d="m 624.10156,57.304687 v 6.210938 h 7.40235 v 2.792969 h -7.40235 v 11.875 q 0,2.675781 0.72266,3.4375 0.74219,0.761718 2.98828,0.761718 h 3.69141 v 3.007813 h -3.69141 q -4.16016,0 -5.74219,-1.542969 -1.58203,-1.5625 -1.58203,-5.664062 v -11.875 h -2.63672 v -2.792969 h 2.63672 v -6.210938 z"
         style=""
         id="path222" />
      <path
         d="m 654.43359,72.1875 v 13.203125 h -3.59375 V 72.304687 q 0,-3.105468 -1.21093,-4.648437 -1.21094,-1.542969 -3.63282,-1.542969 -2.91015,0 -4.58984,1.855469 -1.67969,1.855469 -1.67969,5.058594 v 12.363281 h -3.61328 V 55 h 3.61328 v 11.914062 q 1.28906,-1.972656 3.02735,-2.949218 1.75781,-0.976563 4.04296,-0.976563 3.76954,0 5.70313,2.34375 1.93359,2.324219 1.93359,6.855469 z"
         style=""
         id="path224" />
      <path
         d="m 674.31641,66.875 q -0.60547,-0.351563 -1.32813,-0.507813 -0.70312,-0.175781 -1.5625,-0.175781 -3.04687,0 -4.6875,1.992188 -1.62109,1.972656 -1.62109,5.683593 v 11.523438 h -3.61328 v -21.875 h 3.61328 v 3.398437 q 1.13281,-1.992187 2.94922,-2.949218 1.8164,-0.976563 4.41406,-0.976563 0.37109,0 0.82031,0.05859 0.44922,0.03906 0.99609,0.136719 z"
         style=""
         id="path226" />
      <path
         d="m 685.74219,66.035156 q -2.89063,0 -4.57032,2.265625 -1.67968,2.246094 -1.67968,6.171875 0,3.925781 1.66015,6.191406 1.67969,2.246094 4.58985,2.246094 2.87109,0 4.55078,-2.265625 1.67969,-2.265625 1.67969,-6.171875 0,-3.886719 -1.67969,-6.152344 -1.67969,-2.285156 -4.55078,-2.285156 z m 0,-3.046875 q 4.6875,0 7.36328,3.046875 2.67578,3.046875 2.67578,8.4375 0,5.371094 -2.67578,8.4375 -2.67578,3.046875 -7.36328,3.046875 -4.70703,0 -7.38282,-3.046875 -2.65625,-3.066406 -2.65625,-8.4375 0,-5.390625 2.65625,-8.4375 2.67579,-3.046875 7.38282,-3.046875 z"
         style=""
         id="path228" />
      <path
         d="m 699.62891,63.515625 h 3.59375 l 4.49218,17.070312 4.47266,-17.070312 h 4.23828 l 4.49219,17.070312 4.47265,-17.070312 h 3.59375 l -5.72265,21.875 h -4.23828 l -4.70703,-17.929688 -4.72657,17.929688 h -4.23828 z"
         style=""
         id="path230" />
      <path
         d="m 242.38281,137.42187 q -1.52344,3.90625 -2.96875,5.09766 -1.44531,1.19141 -3.86719,1.19141 h -2.87109 v -3.00782 h 2.10938 q 1.48437,0 2.30468,-0.70312 0.82032,-0.70313 1.81641,-3.32031 l 0.64453,-1.64063 -8.84766,-21.52343 h 3.8086 l 6.83594,17.10937 6.83593,-17.10937 h 3.8086 z"
         style=""
         id="path232" />
      <path
         d="m 265.42969,116.03516 q -2.89063,0 -4.57032,2.26562 -1.67968,2.2461 -1.67968,6.17188 0,3.92578 1.66015,6.1914 1.67969,2.2461 4.58985,2.2461 2.87109,0 4.55078,-2.26563 1.67969,-2.26562 1.67969,-6.17187 0,-3.88672 -1.67969,-6.15235 -1.67969,-2.28515 -4.55078,-2.28515 z m 0,-3.04688 q 4.6875,0 7.36328,3.04688 2.67578,3.04687 2.67578,8.4375 0,5.37109 -2.67578,8.4375 -2.67578,3.04687 -7.36328,3.04687 -4.70703,0 -7.38282,-3.04687 -2.65625,-3.06641 -2.65625,-8.4375 0,-5.39063 2.65625,-8.4375 2.67579,-3.04688 7.38282,-3.04688 z"
         style=""
         id="path234" />
      <path
         d="m 281.03516,126.75781 v -13.24218 h 3.59375 v 13.10546 q 0,3.10547 1.21093,4.66797 1.21094,1.54297 3.63282,1.54297 2.91015,0 4.58984,-1.85547 1.69922,-1.85547 1.69922,-5.05859 v -12.40234 h 3.59375 v 21.87499 h -3.59375 v -3.35937 q -1.3086,1.99219 -3.04688,2.96875 -1.71875,0.95703 -4.0039,0.95703 -3.76953,0 -5.72266,-2.34375 -1.95312,-2.34375 -1.95312,-6.85547 z m 9.04296,-13.76953 z"
         style=""
         id="path236" />
      <path
         d="m 319.47266,116.875 q -0.60547,-0.35156 -1.32813,-0.50781 -0.70312,-0.17578 -1.5625,-0.17578 -3.04687,0 -4.6875,1.99218 -1.62109,1.97266 -1.62109,5.6836 v 11.52343 h -3.61328 v -21.87499 h 3.61328 v 3.39843 q 1.13281,-1.99218 2.94922,-2.94922 1.8164,-0.97656 4.41406,-0.97656 0.37109,0 0.82031,0.0586 0.44922,0.0391 0.99609,0.13671 z"
         style=""
         id="path238" />
      <path
         d="m 336.01562,105 h 3.59375 v 30.39062 h -3.59375 z"
         style=""
         id="path240" />
      <path
         d="m 355.58594,116.03516 q -2.89063,0 -4.57032,2.26562 -1.67968,2.2461 -1.67968,6.17188 0,3.92578 1.66015,6.1914 1.67969,2.2461 4.58985,2.2461 2.87109,0 4.55078,-2.26563 1.67969,-2.26562 1.67969,-6.17187 0,-3.88672 -1.67969,-6.15235 -1.67969,-2.28515 -4.55078,-2.28515 z m 0,-3.04688 q 4.6875,0 7.36328,3.04688 2.67578,3.04687 2.67578,8.4375 0,5.37109 -2.67578,8.4375 -2.67578,3.04687 -7.36328,3.04687 -4.70703,0 -7.38282,-3.04687 -2.65625,-3.06641 -2.65625,-8.4375 0,-5.39063 2.65625,-8.4375 2.67579,-3.04688 7.38282,-3.04688 z"
         style=""
         id="path242" />
      <path
         d="m 385.95703,124.19922 q 0,-3.90625 -1.62109,-6.05469 -1.60157,-2.14844 -4.51172,-2.14844 -2.89063,0 -4.51172,2.14844 -1.60156,2.14844 -1.60156,6.05469 0,3.88672 1.60156,6.03515 1.62109,2.14844 4.51172,2.14844 2.91015,0 4.51172,-2.14844 1.62109,-2.14843 1.62109,-6.03515 z m 3.59375,8.47656 q 0,5.58594 -2.48047,8.30078 -2.48047,2.73438 -7.59765,2.73438 -1.89454,0 -3.57422,-0.29297 -1.67969,-0.27344 -3.26172,-0.85938 v -3.49609 q 1.58203,0.85937 3.125,1.26953 1.54297,0.41016 3.14453,0.41016 3.53516,0 5.29297,-1.85547 1.75781,-1.83594 1.75781,-5.56641 v -1.77734 q -1.11328,1.93359 -2.85156,2.89062 -1.73828,0.95703 -4.16016,0.95703 -4.02344,0 -6.48437,-3.0664 Q 370,129.25781 370,124.19922 q 0,-5.07813 2.46094,-8.14453 2.46093,-3.06641 6.48437,-3.06641 2.42188,0 4.16016,0.95703 1.73828,0.95703 2.85156,2.89063 v -3.32031 h 3.59375 z"
         style=""
         id="path244" />
      <path
         d="m 409.6875,113.51563 h 3.59375 v 21.87499 h -3.59375 z m 0,-8.51563 h 3.59375 v 4.55078 h -3.59375 z"
         style=""
         id="path246" />
      <path
         d="m 438.96484,122.1875 v 13.20312 h -3.59375 v -13.08593 q 0,-3.10547 -1.21093,-4.64844 -1.21094,-1.54297 -3.63282,-1.54297 -2.91015,0 -4.58984,1.85547 -1.67969,1.85547 -1.67969,5.05859 v 12.36328 h -3.61328 v -21.87499 h 3.61328 v 3.39843 q 1.28906,-1.97265 3.02735,-2.94922 1.75781,-0.97656 4.04296,-0.97656 3.76954,0 5.70313,2.34375 1.93359,2.32422 1.93359,6.85547 z"
         style=""
         id="path248" />
      <path
         d="m 449.72656,107.30469 v 6.21094 h 7.40235 v 2.79296 h -7.40235 v 11.875 q 0,2.67578 0.72266,3.4375 0.74219,0.76172 2.98828,0.76172 h 3.69141 v 3.00781 h -3.69141 q -4.16016,0 -5.74219,-1.54296 -1.58203,-1.5625 -1.58203,-5.66407 v -11.875 h -2.63672 v -2.79296 h 2.63672 v -6.21094 z"
         style=""
         id="path250" />
      <path
         d="m 470.35156,116.03516 q -2.89062,0 -4.57031,2.26562 -1.67969,2.2461 -1.67969,6.17188 0,3.92578 1.66016,6.1914 1.67969,2.2461 4.58984,2.2461 2.8711,0 4.55078,-2.26563 1.67969,-2.26562 1.67969,-6.17187 0,-3.88672 -1.67969,-6.15235 -1.67968,-2.28515 -4.55078,-2.28515 z m 0,-3.04688 q 4.6875,0 7.36328,3.04688 2.67578,3.04687 2.67578,8.4375 0,5.37109 -2.67578,8.4375 -2.67578,3.04687 -7.36328,3.04687 -4.70703,0 -7.38281,-3.04687 -2.65625,-3.06641 -2.65625,-8.4375 0,-5.39063 2.65625,-8.4375 2.67578,-3.04688 7.38281,-3.04688 z"
         style=""
         id="path252" />
      <path
         d="m 499.0625,113.51563 h 3.59375 v 21.87499 h -3.59375 z m 0,-8.51563 h 3.59375 v 4.55078 h -3.59375 z"
         style=""
         id="path254" />
      <path
         d="m 513.71094,107.30469 v 6.21094 h 7.40234 v 2.79296 h -7.40234 v 11.875 q 0,2.67578 0.72265,3.4375 0.74219,0.76172 2.98828,0.76172 h 3.69141 v 3.00781 h -3.69141 q -4.16015,0 -5.74218,-1.54296 -1.58203,-1.5625 -1.58203,-5.66407 v -11.875 h -2.63672 v -2.79296 h 2.63672 v -6.21094 z"
         style=""
         id="path256" />
      <path
         d="m 526.36719,130.42969 h 4.12109 v 4.96093 h -4.12109 z"
         style=""
         id="path258" />
    </g>
  </g>
</svg>
