<?xml version="1.0" encoding="UTF-8" standalone="no"?>
<!-- Created with Inkscape (http://www.inkscape.org/) -->

<svg
   xmlns:dc="http://purl.org/dc/elements/1.1/"
   xmlns:cc="http://creativecommons.org/ns#"
   xmlns:rdf="http://www.w3.org/1999/02/22-rdf-syntax-ns#"
   xmlns:svg="http://www.w3.org/2000/svg"
   xmlns="http://www.w3.org/2000/svg"
   xmlns:sodipodi="http://sodipodi.sourceforge.net/DTD/sodipodi-0.dtd"
   xmlns:inkscape="http://www.inkscape.org/namespaces/inkscape"
   width="200mm"
   height="200mm"
   viewBox="0 0 200 200"
   version="1.1"
   id="svg8"
   inkscape:version="0.92.5 (2060ec1f9f, 2020-04-08)"
   sodipodi:docname="tutorial7.svg">
  <defs
     id="defs2" />
  <sodipodi:namedview
     id="base"
     pagecolor="#ffffff"
     bordercolor="#666666"
     borderopacity="1.0"
     inkscape:pageopacity="0.0"
     inkscape:pageshadow="2"
     inkscape:zoom="1.4142136"
     inkscape:cx="372.82251"
     inkscape:cy="633.32929"
     inkscape:document-units="mm"
     inkscape:current-layer="layer1"
     showgrid="false"
     inkscape:window-width="1853"
     inkscape:window-height="1057"
     inkscape:window-x="1979"
     inkscape:window-y="-8"
     inkscape:window-maximized="1" />
  <metadata
     id="metadata5">
    <rdf:RDF>
      <cc:Work
         rdf:about="">
        <dc:format>image/svg+xml</dc:format>
        <dc:type
           rdf:resource="http://purl.org/dc/dcmitype/StillImage" />
        <dc:title></dc:title>
      </cc:Work>
    </rdf:RDF>
  </metadata>
  <g
     inkscape:label="Ebene 1"
     inkscape:groupmode="layer"
     id="layer1"
     transform="translate(0,-97)"
     style="display:inline">
    <flowRoot
       xml:space="preserve"
       id="flowRoot2853"
       style="fill:black;fill-opacity:1;stroke:none;font-family:sans-serif;font-style:normal;font-weight:normal;font-size:40px;line-height:1.25;letter-spacing:0px;word-spacing:0px"><flowRegion
         id="flowRegion2855"><rect
           id="rect2857"
           width="755.19"
           height="217.78888"
           x="0.70710677"
           y="0.0083828345" /></flowRegion><flowPara
         id="flowPara2859"></flowPara></flowRoot>    <g
       aria-label="Click on your player to eat the foot and fill up your energy meter. Yummy!"
       transform="matrix(0.26458333,0,0,0.26458333,0,97)"
       style="font-style:normal;font-variant:normal;font-weight:normal;font-stretch:normal;font-size:40px;line-height:1.25;font-family:sans-serif;-inkscape-font-specification:'sans-serif, Normal';font-variant-ligatures:normal;font-variant-caps:normal;font-variant-numeric:normal;font-feature-settings:normal;text-align:center;letter-spacing:0px;word-spacing:0px;writing-mode:lr-tb;text-anchor:middle;fill:#ffffff;fill-opacity:1;stroke:#000000;stroke-width:1.13385832;stroke-miterlimit:4;stroke-dasharray:none;stroke-opacity:1"
       id="flowRoot2861">
      <path
         d="m 54.297852,8.484375 v 4.160156 Q 52.305664,10.789063 50.040039,9.8710938 47.793945,8.953125 45.254883,8.953125 q -5,0 -7.65625,3.066406 -2.65625,3.046875 -2.65625,8.828125 0,5.761719 2.65625,8.828125 2.65625,3.046875 7.65625,3.046875 2.539062,0 4.785156,-0.917969 2.265625,-0.917968 4.257813,-2.773437 v 4.121094 q -2.070313,1.40625 -4.394532,2.109375 -2.304687,0.703125 -4.882812,0.703125 -6.621094,0 -10.429688,-4.042969 -3.808593,-4.0625 -3.808593,-11.074219 0,-7.03125 3.808593,-11.0742185 3.808594,-4.0625 10.429688,-4.0625 2.617187,0 4.921875,0.703125 2.324219,0.6835937 4.355469,2.0703125 z"
         style=""
         id="path4456" />
      <path
         d="m 60.274414,5.0078125 h 3.59375 V 35.398437 h -3.59375 z"
         style=""
         id="path4458" />
      <path
         d="m 71.368164,13.523438 h 3.59375 v 21.874999 h -3.59375 z m 0,-8.5156255 h 3.59375 v 4.5507813 h -3.59375 z"
         style=""
         id="path4460" />
      <path
         d="m 98.204102,14.363281 v 3.359375 q -1.523438,-0.839844 -3.066407,-1.25 -1.523437,-0.429687 -3.085937,-0.429687 -3.496094,0 -5.429688,2.226562 -1.933593,2.207031 -1.933593,6.210938 0,4.003906 1.933593,6.230468 1.933594,2.207032 5.429688,2.207032 1.5625,0 3.085937,-0.410157 1.542969,-0.429687 3.066407,-1.269531 v 3.320313 q -1.503907,0.703125 -3.125,1.054687 -1.601563,0.351563 -3.417969,0.351563 -4.941406,0 -7.851563,-3.105469 -2.910156,-3.105469 -2.910156,-8.378906 0,-5.351563 2.929688,-8.417969 2.949218,-3.066406 8.066406,-3.066406 1.660156,0 3.242187,0.351562 1.582032,0.332032 3.066407,1.015625 z"
         style=""
         id="path4462" />
      <path
         d="m 104.35645,5.0078125 h 3.61328 V 22.957031 l 10.72265,-9.433593 h 4.58985 l -11.60157,10.234374 12.08985,11.640625 h -4.6875 L 107.96973,24.714844 v 10.683593 h -3.61328 z"
         style=""
         id="path4464" />
      <path
         d="m 148.90723,16.042969 q -2.89063,0 -4.57032,2.265625 -1.67968,2.246093 -1.67968,6.171875 0,3.925781 1.66015,6.191406 1.67969,2.246094 4.58985,2.246094 2.87109,0 4.55078,-2.265625 1.67969,-2.265625 1.67969,-6.171875 0,-3.886719 -1.67969,-6.152344 -1.67969,-2.285156 -4.55078,-2.285156 z m 0,-3.046875 q 4.6875,0 7.36328,3.046875 2.67578,3.046875 2.67578,8.4375 0,5.371093 -2.67578,8.4375 -2.67578,3.046875 -7.36328,3.046875 -4.70703,0 -7.38282,-3.046875 -2.65625,-3.066407 -2.65625,-8.4375 0,-5.390625 2.65625,-8.4375 2.67579,-3.046875 7.38282,-3.046875 z"
         style=""
         id="path4466" />
      <path
         d="m 183.06738,22.195312 v 13.203125 h -3.59375 V 22.3125 q 0,-3.105469 -1.21093,-4.648438 -1.21094,-1.542968 -3.63282,-1.542968 -2.91015,0 -4.58984,1.855468 -1.67969,1.855469 -1.67969,5.058594 v 12.363281 h -3.61328 V 13.523438 h 3.61328 v 3.398437 q 1.28906,-1.972656 3.02735,-2.949219 1.75781,-0.976562 4.04296,-0.976562 3.76954,0 5.70313,2.34375 1.93359,2.324218 1.93359,6.855468 z"
         style=""
         id="path4468" />
      <path
         d="m 212.11035,37.429687 q -1.52344,3.90625 -2.96875,5.097657 -1.44531,1.191406 -3.86719,1.191406 h -2.87109 v -3.007813 h 2.10938 q 1.48437,0 2.30468,-0.703125 0.82032,-0.703125 1.81641,-3.320312 l 0.64453,-1.640625 -8.84766,-21.523437 h 3.8086 l 6.83594,17.109374 6.83593,-17.109374 h 3.8086 z"
         style=""
         id="path4470" />
      <path
         d="m 235.15723,16.042969 q -2.89063,0 -4.57032,2.265625 -1.67968,2.246093 -1.67968,6.171875 0,3.925781 1.66015,6.191406 1.67969,2.246094 4.58985,2.246094 2.87109,0 4.55078,-2.265625 1.67969,-2.265625 1.67969,-6.171875 0,-3.886719 -1.67969,-6.152344 -1.67969,-2.285156 -4.55078,-2.285156 z m 0,-3.046875 q 4.6875,0 7.36328,3.046875 2.67578,3.046875 2.67578,8.4375 0,5.371093 -2.67578,8.4375 -2.67578,3.046875 -7.36328,3.046875 -4.70703,0 -7.38282,-3.046875 -2.65625,-3.066407 -2.65625,-8.4375 0,-5.390625 2.65625,-8.4375 2.67579,-3.046875 7.38282,-3.046875 z"
         style=""
         id="path4472" />
      <path
         d="M 250.7627,26.765625 V 13.523438 h 3.59375 v 13.105468 q 0,3.105469 1.21093,4.667969 1.21094,1.542969 3.63282,1.542969 2.91015,0 4.58984,-1.855469 1.69922,-1.855469 1.69922,-5.058594 V 13.523438 h 3.59375 v 21.874999 h -3.59375 v -3.359375 q -1.3086,1.992188 -3.04688,2.96875 -1.71875,0.957032 -4.0039,0.957032 -3.76953,0 -5.72266,-2.34375 -1.95312,-2.34375 -1.95312,-6.855469 z m 9.04296,-13.769531 z"
         style=""
         id="path4474" />
      <path
         d="m 289.2002,16.882812 q -0.60547,-0.351562 -1.32813,-0.507812 -0.70312,-0.175781 -1.5625,-0.175781 -3.04687,0 -4.6875,1.992187 -1.62109,1.972656 -1.62109,5.683594 V 35.398437 H 276.3877 V 13.523438 h 3.61328 v 3.398437 q 1.13281,-1.992187 2.94922,-2.949219 1.8164,-0.976562 4.41406,-0.976562 0.37109,0 0.82031,0.05859 0.44922,0.03906 0.99609,0.136718 z"
         style=""
         id="path4476" />
      <path
         d="M 309.21973,32.117187 V 43.71875 h -3.61328 V 13.523438 h 3.61328 v 3.320312 q 1.13281,-1.953125 2.85156,-2.890625 1.73828,-0.957031 4.14062,-0.957031 3.98438,0 6.46485,3.164062 2.5,3.164063 2.5,8.320313 0,5.15625 -2.5,8.320312 -2.48047,3.164063 -6.46485,3.164063 -2.40234,0 -4.14062,-0.9375 -1.71875,-0.957032 -2.85156,-2.910157 z m 12.22656,-7.636718 q 0,-3.964844 -1.64063,-6.210938 -1.62109,-2.265625 -4.47265,-2.265625 -2.85156,0 -4.49219,2.265625 -1.62109,2.246094 -1.62109,6.210938 0,3.964843 1.62109,6.230468 1.64063,2.246094 4.49219,2.246094 2.85156,0 4.47265,-2.246094 1.64063,-2.265625 1.64063,-6.230468 z"
         style=""
         id="path4478" />
      <path
         d="m 331.13379,5.0078125 h 3.59375 V 35.398437 h -3.59375 z"
         style=""
         id="path4480" />
      <path
         d="m 352.16895,24.402344 q -4.35547,0 -6.03516,0.996093 -1.67969,0.996094 -1.67969,3.398438 0,1.914062 1.25,3.046875 1.26953,1.113281 3.4375,1.113281 2.98828,0 4.78516,-2.109375 1.8164,-2.128906 1.8164,-5.644531 v -0.800781 z m 7.16796,-1.484375 v 12.480468 h -3.59375 v -3.320312 q -1.23046,1.992187 -3.0664,2.949219 -1.83594,0.9375 -4.49219,0.9375 -3.35937,0 -5.35156,-1.875 -1.97266,-1.894532 -1.97266,-5.058594 0,-3.691406 2.46094,-5.566406 2.48047,-1.875 7.38281,-1.875 h 5.03906 v -0.351563 q 0,-2.480469 -1.64062,-3.828125 -1.62109,-1.367187 -4.57031,-1.367187 -1.875,0 -3.65235,0.449218 -1.77734,0.449219 -3.41797,1.347657 v -3.320313 q 1.97266,-0.761718 3.82813,-1.132812 1.85547,-0.390625 3.61328,-0.390625 4.74609,0 7.08984,2.460937 2.34375,2.460938 2.34375,7.460938 z"
         style=""
         id="path4482" />
      <path
         d="m 375.86035,37.429687 q -1.52344,3.90625 -2.96875,5.097657 -1.44531,1.191406 -3.86719,1.191406 h -2.87109 v -3.007813 h 2.10938 q 1.48437,0 2.30468,-0.703125 0.82032,-0.703125 1.81641,-3.320312 l 0.64453,-1.640625 -8.84766,-21.523437 h 3.8086 l 6.83594,17.109374 6.83593,-17.109374 h 3.8086 z"
         style=""
         id="path4484" />
      <path
         d="m 409.1416,23.5625 v 1.757812 h -16.52344 q 0.23438,3.710938 2.22657,5.664063 2.01172,1.933594 5.58593,1.933594 2.07032,0 4.00391,-0.507813 1.95313,-0.507812 3.86719,-1.523437 v 3.398437 q -1.9336,0.820313 -3.96485,1.25 -2.03125,0.429688 -4.12109,0.429688 -5.23437,0 -8.30078,-3.046875 -3.04688,-3.046875 -3.04688,-8.242188 0,-5.371094 2.89063,-8.515625 2.91016,-3.164062 7.83203,-3.164062 4.41406,0 6.97266,2.851562 2.57812,2.832031 2.57812,7.714844 z m -3.59375,-1.054688 q -0.0391,-2.949218 -1.66015,-4.707031 -1.60157,-1.757812 -4.25782,-1.757812 -3.00781,0 -4.82422,1.699218 -1.79687,1.699219 -2.07031,4.785157 z"
         style=""
         id="path4486" />
      <path
         d="M 427.71582,16.882812 Q 427.11035,16.53125 426.3877,16.375 q -0.70313,-0.175781 -1.5625,-0.175781 -3.04688,0 -4.6875,1.992187 -1.6211,1.972656 -1.6211,5.683594 v 11.523437 h -3.61328 V 13.523438 h 3.61328 v 3.398437 q 1.13281,-1.992187 2.94922,-2.949219 1.81641,-0.976562 4.41406,-0.976562 0.3711,0 0.82032,0.05859 0.44921,0.03906 0.99609,0.136718 z"
         style=""
         id="path4488" />
      <path
         d="m 447.81348,7.3125 v 6.210938 h 7.40234 v 2.792968 h -7.40234 v 11.875 q 0,2.675781 0.72265,3.4375 0.74219,0.761719 2.98828,0.761719 h 3.69141 v 3.007812 h -3.69141 q -4.16015,0 -5.74218,-1.542968 -1.58203,-1.5625 -1.58203,-5.664063 v -11.875 h -2.63672 v -2.792968 h 2.63672 V 7.3125 Z"
         style=""
         id="path4490" />
      <path
         d="m 468.43848,16.042969 q -2.89063,0 -4.57032,2.265625 -1.67968,2.246093 -1.67968,6.171875 0,3.925781 1.66015,6.191406 1.67969,2.246094 4.58985,2.246094 2.87109,0 4.55078,-2.265625 1.67969,-2.265625 1.67969,-6.171875 0,-3.886719 -1.67969,-6.152344 -1.67969,-2.285156 -4.55078,-2.285156 z m 0,-3.046875 q 4.6875,0 7.36328,3.046875 2.67578,3.046875 2.67578,8.4375 0,5.371093 -2.67578,8.4375 -2.67578,3.046875 -7.36328,3.046875 -4.70703,0 -7.38282,-3.046875 -2.65625,-3.066407 -2.65625,-8.4375 0,-5.390625 2.65625,-8.4375 2.67579,-3.046875 7.38282,-3.046875 z"
         style=""
         id="path4492" />
      <path
         d="m 515.86035,23.5625 v 1.757812 h -16.52344 q 0.23438,3.710938 2.22657,5.664063 2.01172,1.933594 5.58593,1.933594 2.07032,0 4.00391,-0.507813 1.95313,-0.507812 3.86719,-1.523437 v 3.398437 q -1.9336,0.820313 -3.96485,1.25 -2.03125,0.429688 -4.12109,0.429688 -5.23437,0 -8.30078,-3.046875 -3.04688,-3.046875 -3.04688,-8.242188 0,-5.371094 2.89063,-8.515625 2.91016,-3.164062 7.83203,-3.164062 4.41406,0 6.97266,2.851562 2.57812,2.832031 2.57812,7.714844 z m -3.59375,-1.054688 q -0.0391,-2.949218 -1.66015,-4.707031 -1.60157,-1.757812 -4.25782,-1.757812 -3.00781,0 -4.82422,1.699218 -1.79687,1.699219 -2.07031,4.785157 z"
         style=""
         id="path4494" />
      <path
         d="m 531.7002,24.402344 q -4.35547,0 -6.03516,0.996093 -1.67969,0.996094 -1.67969,3.398438 0,1.914062 1.25,3.046875 1.26953,1.113281 3.4375,1.113281 2.98828,0 4.78516,-2.109375 1.8164,-2.128906 1.8164,-5.644531 v -0.800781 z m 7.16796,-1.484375 v 12.480468 h -3.59375 v -3.320312 q -1.23046,1.992187 -3.0664,2.949219 -1.83594,0.9375 -4.49219,0.9375 -3.35937,0 -5.35156,-1.875 -1.97266,-1.894532 -1.97266,-5.058594 0,-3.691406 2.46094,-5.566406 2.48047,-1.875 7.38281,-1.875 h 5.03906 v -0.351563 q 0,-2.480469 -1.64062,-3.828125 -1.62109,-1.367187 -4.57031,-1.367187 -1.875,0 -3.65235,0.449218 -1.77734,0.449219 -3.41797,1.347657 v -3.320313 q 1.97266,-0.761718 3.82813,-1.132812 1.85547,-0.390625 3.61328,-0.390625 4.74609,0 7.08984,2.460937 2.34375,2.460938 2.34375,7.460938 z"
         style=""
         id="path4496" />
      <path
         d="m 549.84473,7.3125 v 6.210938 h 7.40234 v 2.792968 h -7.40234 v 11.875 q 0,2.675781 0.72265,3.4375 0.74219,0.761719 2.98828,0.761719 h 3.69141 v 3.007812 h -3.69141 q -4.16015,0 -5.74218,-1.542968 -1.58203,-1.5625 -1.58203,-5.664063 v -11.875 h -2.63672 v -2.792968 h 2.63672 V 7.3125 Z"
         style=""
         id="path4498" />
      <path
         d="m 578.28223,7.3125 v 6.210938 h 7.40234 v 2.792968 h -7.40234 v 11.875 q 0,2.675781 0.72265,3.4375 0.74219,0.761719 2.98828,0.761719 h 3.69141 v 3.007812 h -3.69141 q -4.16015,0 -5.74218,-1.542968 -1.58203,-1.5625 -1.58203,-5.664063 v -11.875 h -2.63672 v -2.792968 h 2.63672 V 7.3125 Z"
         style=""
         id="path4500" />
      <path
         d="m 608.61426,22.195312 v 13.203125 h -3.59375 V 22.3125 q 0,-3.105469 -1.21094,-4.648438 -1.21094,-1.542968 -3.63281,-1.542968 -2.91016,0 -4.58985,1.855468 -1.67968,1.855469 -1.67968,5.058594 v 12.363281 h -3.61328 V 5.0078125 h 3.61328 V 16.921875 q 1.28906,-1.972656 3.02734,-2.949219 1.75781,-0.976562 4.04297,-0.976562 3.76953,0 5.70312,2.34375 1.9336,2.324218 1.9336,6.855468 z"
         style=""
         id="path4502" />
      <path
         d="m 634.53223,23.5625 v 1.757812 h -16.52344 q 0.23437,3.710938 2.22656,5.664063 2.01172,1.933594 5.58594,1.933594 2.07031,0 4.00391,-0.507813 1.95312,-0.507812 3.86718,-1.523437 v 3.398437 q -1.93359,0.820313 -3.96484,1.25 -2.03125,0.429688 -4.12109,0.429688 -5.23438,0 -8.30079,-3.046875 -3.04687,-3.046875 -3.04687,-8.242188 0,-5.371094 2.89062,-8.515625 2.91016,-3.164062 7.83204,-3.164062 4.41406,0 6.97265,2.851562 2.57813,2.832031 2.57813,7.714844 z m -3.59375,-1.054688 q -0.0391,-2.949218 -1.66016,-4.707031 -1.60156,-1.757812 -4.25781,-1.757812 -3.00781,0 -4.82422,1.699218 -1.79688,1.699219 -2.07031,4.785157 z"
         style=""
         id="path4504" />
      <path
         d="m 664.23926,5.0078125 v 2.9882812 h -3.4375 q -1.9336,0 -2.69531,0.7812501 -0.74219,0.78125 -0.74219,2.8125002 v 1.933594 h 5.91797 v 2.792968 h -5.91797 v 19.082031 h -3.61328 V 16.316406 h -3.4375 v -2.792968 h 3.4375 V 12 q 0,-3.6523437 1.69922,-5.3125 1.69921,-1.6796875 5.39062,-1.6796875 z"
         style=""
         id="path4506" />
      <path
         d="m 675.7041,16.042969 q -2.89062,0 -4.57031,2.265625 -1.67969,2.246093 -1.67969,6.171875 0,3.925781 1.66016,6.191406 1.67969,2.246094 4.58984,2.246094 2.8711,0 4.55078,-2.265625 1.67969,-2.265625 1.67969,-6.171875 0,-3.886719 -1.67969,-6.152344 -1.67968,-2.285156 -4.55078,-2.285156 z m 0,-3.046875 q 4.6875,0 7.36328,3.046875 2.67578,3.046875 2.67578,8.4375 0,5.371093 -2.67578,8.4375 -2.67578,3.046875 -7.36328,3.046875 -4.70703,0 -7.38281,-3.046875 -2.65625,-3.066407 -2.65625,-8.4375 0,-5.390625 2.65625,-8.4375 2.67578,-3.046875 7.38281,-3.046875 z"
         style=""
         id="path4508" />
      <path
         d="m 700.15723,16.042969 q -2.89063,0 -4.57032,2.265625 -1.67968,2.246093 -1.67968,6.171875 0,3.925781 1.66015,6.191406 1.67969,2.246094 4.58985,2.246094 2.87109,0 4.55078,-2.265625 1.67969,-2.265625 1.67969,-6.171875 0,-3.886719 -1.67969,-6.152344 -1.67969,-2.285156 -4.55078,-2.285156 z m 0,-3.046875 q 4.6875,0 7.36328,3.046875 2.67578,3.046875 2.67578,8.4375 0,5.371093 -2.67578,8.4375 -2.67578,3.046875 -7.36328,3.046875 -4.70703,0 -7.38282,-3.046875 -2.65625,-3.066407 -2.65625,-8.4375 0,-5.390625 2.65625,-8.4375 2.67579,-3.046875 7.38282,-3.046875 z"
         style=""
         id="path4510" />
      <path
         d="m 719.68848,7.3125 v 6.210938 h 7.40234 v 2.792968 h -7.40234 v 11.875 q 0,2.675781 0.72265,3.4375 0.74219,0.761719 2.98828,0.761719 h 3.69141 v 3.007812 h -3.69141 q -4.16015,0 -5.74218,-1.542968 -1.58203,-1.5625 -1.58203,-5.664063 v -11.875 h -2.63672 v -2.792968 h 2.63672 V 7.3125 Z"
         style=""
         id="path4512" />
      <path
         d="m 93.96582,74.402344 q -4.355468,0 -6.035156,0.996093 -1.679687,0.996094 -1.679687,3.398438 0,1.914062 1.25,3.046875 1.269531,1.113281 3.4375,1.113281 2.988281,0 4.785156,-2.109375 1.816406,-2.128906 1.816406,-5.644531 v -0.800781 z m 7.16797,-1.484375 v 12.480468 h -3.593751 v -3.320312 q -1.230469,1.992187 -3.066406,2.949219 -1.835938,0.9375 -4.492188,0.9375 -3.359375,0 -5.351562,-1.875 -1.972656,-1.894532 -1.972656,-5.058594 0,-3.691406 2.460937,-5.566406 2.480469,-1.875 7.382813,-1.875 h 5.039062 v -0.351563 q 0,-2.480469 -1.640625,-3.828125 -1.621094,-1.367187 -4.570312,-1.367187 -1.875,0 -3.652344,0.449218 -1.777344,0.449219 -3.417969,1.347657 v -3.320313 q 1.972656,-0.761719 3.828125,-1.132812 1.855469,-0.390625 3.613281,-0.390625 4.746094,0 7.089844,2.460937 2.343751,2.460938 2.343751,7.460938 z"
         style=""
         id="path4514" />
      <path
         d="m 126.73926,72.195312 v 13.203125 h -3.59375 V 72.3125 q 0,-3.105469 -1.21094,-4.648438 -1.21094,-1.542968 -3.63281,-1.542968 -2.91016,0 -4.58985,1.855468 -1.67968,1.855469 -1.67968,5.058594 v 12.363281 h -3.61328 v -21.875 h 3.61328 v 3.398438 q 1.28906,-1.972656 3.02734,-2.949219 1.75781,-0.976562 4.04297,-0.976562 3.76953,0 5.70312,2.34375 1.9336,2.324218 1.9336,6.855468 z"
         style=""
         id="path4516" />
      <path
         d="M 148.34082,66.84375 V 55.007812 h 3.59375 v 30.390625 h -3.59375 v -3.28125 q -1.13281,1.953125 -2.87109,2.910157 -1.71875,0.9375 -4.14063,0.9375 -3.96484,0 -6.46484,-3.164063 -2.48047,-3.164062 -2.48047,-8.320312 0,-5.15625 2.48047,-8.320313 2.5,-3.164062 6.46484,-3.164062 2.42188,0 4.14063,0.957031 1.73828,0.9375 2.87109,2.890625 z m -12.24609,7.636719 q 0,3.964843 1.62109,6.230468 1.64063,2.246094 4.49219,2.246094 2.85156,0 4.49219,-2.246094 1.64062,-2.265625 1.64062,-6.230468 0,-3.964844 -1.64062,-6.210938 -1.64063,-2.265625 -4.49219,-2.265625 -2.85156,0 -4.49219,2.265625 -1.62109,2.246094 -1.62109,6.210938 z"
         style=""
         id="path4518" />
      <path
         d="m 189.74707,63.523437 v 21.875 h -3.61328 V 66.316406 h -9.86328 v 19.082031 h -3.61328 V 66.316406 h -3.4375 v -2.792969 h 3.4375 V 62 q 0,-3.574219 1.67968,-5.273438 1.69922,-1.71875 5.19532,-1.71875 h 3.61328 v 2.988282 h -3.4375 q -1.9336,0 -2.69531,0.78125 -0.74219,0.78125 -0.74219,2.8125 v 1.933593 z m -3.61328,-8.476562 h 3.61328 v 4.550781 h -3.61328 z"
         style=""
         id="path4520" />
      <path
         d="m 197.30566,55.007812 h 3.59375 v 30.390625 h -3.59375 z"
         style=""
         id="path4522" />
      <path
         d="m 208.39941,55.007812 h 3.59375 v 30.390625 h -3.59375 z"
         style=""
         id="path4524" />
      <path
         d="M 231.85645,76.765625 V 63.523437 h 3.59375 v 13.105469 q 0,3.105469 1.21093,4.667969 1.21094,1.542969 3.63282,1.542969 2.91015,0 4.58984,-1.855469 1.69922,-1.855469 1.69922,-5.058594 V 63.523437 h 3.59375 v 21.875 h -3.59375 v -3.359375 q -1.3086,1.992188 -3.04688,2.96875 -1.71875,0.957032 -4.0039,0.957032 -3.76953,0 -5.72266,-2.34375 -1.95312,-2.34375 -1.95312,-6.855469 z m 9.04296,-13.769531 z"
         style=""
         id="path4526" />
      <path
         d="M 261.09473,82.117187 V 93.71875 h -3.61328 V 63.523437 h 3.61328 v 3.320313 q 1.13281,-1.953125 2.85156,-2.890625 1.73828,-0.957031 4.14062,-0.957031 3.98438,0 6.46485,3.164062 2.5,3.164063 2.5,8.320313 0,5.15625 -2.5,8.320312 -2.48047,3.164063 -6.46485,3.164063 -2.40234,0 -4.14062,-0.9375 -1.71875,-0.957032 -2.85156,-2.910157 z m 12.22656,-7.636718 q 0,-3.964844 -1.64063,-6.210938 -1.62109,-2.265625 -4.47265,-2.265625 -2.85156,0 -4.49219,2.265625 -1.62109,2.246094 -1.62109,6.210938 0,3.964843 1.62109,6.230468 1.64063,2.246094 4.49219,2.246094 2.85156,0 4.47265,-2.246094 1.64063,-2.265625 1.64063,-6.230468 z"
         style=""
         id="path4528" />
      <path
         d="m 304.84473,87.429687 q -1.52344,3.90625 -2.96875,5.097657 -1.44532,1.191406 -3.86719,1.191406 h -2.87109 v -3.007813 h 2.10937 q 1.48438,0 2.30469,-0.703125 0.82031,-0.703125 1.8164,-3.320312 l 0.64454,-1.640625 -8.84766,-21.523438 h 3.80859 l 6.83594,17.109375 6.83594,-17.109375 h 3.80859 z"
         style=""
         id="path4530" />
      <path
         d="m 327.8916,66.042969 q -2.89062,0 -4.57031,2.265625 -1.67969,2.246093 -1.67969,6.171875 0,3.925781 1.66016,6.191406 1.67969,2.246094 4.58984,2.246094 2.8711,0 4.55078,-2.265625 1.67969,-2.265625 1.67969,-6.171875 0,-3.886719 -1.67969,-6.152344 -1.67968,-2.285156 -4.55078,-2.285156 z m 0,-3.046875 q 4.6875,0 7.36328,3.046875 2.67578,3.046875 2.67578,8.4375 0,5.371093 -2.67578,8.4375 -2.67578,3.046875 -7.36328,3.046875 -4.70703,0 -7.38281,-3.046875 -2.65625,-3.066407 -2.65625,-8.4375 0,-5.390625 2.65625,-8.4375 2.67578,-3.046875 7.38281,-3.046875 z"
         style=""
         id="path4532" />
      <path
         d="M 343.49707,76.765625 V 63.523437 h 3.59375 v 13.105469 q 0,3.105469 1.21094,4.667969 1.21094,1.542969 3.63281,1.542969 2.91016,0 4.58984,-1.855469 1.69922,-1.855469 1.69922,-5.058594 V 63.523437 h 3.59375 v 21.875 h -3.59375 v -3.359375 q -1.30859,1.992188 -3.04687,2.96875 -1.71875,0.957032 -4.00391,0.957032 -3.76953,0 -5.72265,-2.34375 -1.95313,-2.34375 -1.95313,-6.855469 z m 9.04297,-13.769531 z"
         style=""
         id="path4534" />
      <path
         d="M 381.93457,66.882812 Q 381.3291,66.53125 380.60645,66.375 q -0.70313,-0.175781 -1.5625,-0.175781 -3.04688,0 -4.6875,1.992187 -1.6211,1.972656 -1.6211,5.683594 v 11.523437 h -3.61328 v -21.875 h 3.61328 v 3.398438 q 1.13281,-1.992188 2.94922,-2.949219 1.81641,-0.976562 4.41406,-0.976562 0.3711,0 0.82032,0.05859 0.44921,0.03906 0.99609,0.136719 z"
         style=""
         id="path4536" />
      <path
         d="m 417.18848,73.5625 v 1.757812 h -16.52344 q 0.23437,3.710938 2.22656,5.664063 2.01172,1.933594 5.58594,1.933594 2.07031,0 4.00391,-0.507813 1.95312,-0.507812 3.86718,-1.523437 v 3.398437 q -1.93359,0.820313 -3.96484,1.25 -2.03125,0.429688 -4.12109,0.429688 -5.23438,0 -8.30079,-3.046875 -3.04687,-3.046875 -3.04687,-8.242188 0,-5.371094 2.89062,-8.515625 2.91016,-3.164062 7.83204,-3.164062 4.41406,0 6.97265,2.851562 2.57813,2.832031 2.57813,7.714844 z m -3.59375,-1.054688 q -0.0391,-2.949218 -1.66016,-4.707031 -1.60156,-1.757812 -4.25781,-1.757812 -3.00781,0 -4.82422,1.699218 -1.79688,1.699219 -2.07031,4.785157 z"
         style=""
         id="path4538" />
      <path
         d="m 441.27051,72.195312 v 13.203125 h -3.59375 V 72.3125 q 0,-3.105469 -1.21094,-4.648438 -1.21094,-1.542968 -3.63281,-1.542968 -2.91016,0 -4.58985,1.855468 -1.67968,1.855469 -1.67968,5.058594 v 12.363281 h -3.61328 v -21.875 h 3.61328 v 3.398438 q 1.28906,-1.972656 3.02734,-2.949219 1.75781,-0.976562 4.04297,-0.976562 3.76953,0 5.70312,2.34375 1.9336,2.324218 1.9336,6.855468 z"
         style=""
         id="path4540" />
      <path
         d="m 467.18848,73.5625 v 1.757812 h -16.52344 q 0.23437,3.710938 2.22656,5.664063 2.01172,1.933594 5.58594,1.933594 2.07031,0 4.00391,-0.507813 1.95312,-0.507812 3.86718,-1.523437 v 3.398437 q -1.93359,0.820313 -3.96484,1.25 -2.03125,0.429688 -4.12109,0.429688 -5.23438,0 -8.30079,-3.046875 -3.04687,-3.046875 -3.04687,-8.242188 0,-5.371094 2.89062,-8.515625 2.91016,-3.164062 7.83204,-3.164062 4.41406,0 6.97265,2.851562 2.57813,2.832031 2.57813,7.714844 z m -3.59375,-1.054688 q -0.0391,-2.949218 -1.66016,-4.707031 -1.60156,-1.757812 -4.25781,-1.757812 -3.00781,0 -4.82422,1.699218 -1.79688,1.699219 -2.07031,4.785157 z"
         style=""
         id="path4542" />
      <path
         d="m 485.7627,66.882812 q -0.60547,-0.351562 -1.32813,-0.507812 -0.70312,-0.175781 -1.5625,-0.175781 -3.04687,0 -4.6875,1.992187 -1.62109,1.972656 -1.62109,5.683594 v 11.523437 h -3.61328 v -21.875 h 3.61328 v 3.398438 q 1.13281,-1.992188 2.94922,-2.949219 1.8164,-0.976562 4.41406,-0.976562 0.37109,0 0.82031,0.05859 0.44922,0.03906 0.99609,0.136719 z"
         style=""
         id="path4544" />
      <path
         d="m 503.2627,74.207031 q 0,-3.90625 -1.6211,-6.054687 -1.60156,-2.148438 -4.51172,-2.148438 -2.89062,0 -4.51172,2.148438 -1.60156,2.148437 -1.60156,6.054687 0,3.886719 1.60156,6.035156 1.6211,2.148438 4.51172,2.148438 2.91016,0 4.51172,-2.148438 1.6211,-2.148437 1.6211,-6.035156 z m 3.59375,8.476563 q 0,5.585937 -2.48047,8.300781 -2.48047,2.734375 -7.59766,2.734375 -1.89453,0 -3.57422,-0.292969 -1.67969,-0.273437 -3.26172,-0.859375 v -3.496094 q 1.58203,0.859375 3.125,1.269532 1.54297,0.410156 3.14453,0.410156 3.53516,0 5.29297,-1.855469 1.75782,-1.835937 1.75782,-5.566406 v -1.777344 q -1.11329,1.933594 -2.85157,2.890625 -1.73828,0.957031 -4.16015,0.957031 -4.02344,0 -6.48438,-3.066406 -2.46094,-3.066406 -2.46094,-8.125 0,-5.078125 2.46094,-8.144531 2.46094,-3.066406 6.48438,-3.066406 2.42187,0 4.16015,0.957031 1.73828,0.957031 2.85157,2.890625 v -3.320313 h 3.59375 z"
         style=""
         id="path4546" />
      <path
         d="m 523.36035,87.429687 q -1.52344,3.90625 -2.96875,5.097657 -1.44531,1.191406 -3.86719,1.191406 h -2.87109 v -3.007813 h 2.10938 q 1.48437,0 2.30468,-0.703125 0.82032,-0.703125 1.81641,-3.320312 l 0.64453,-1.640625 -8.84766,-21.523438 h 3.8086 l 6.83594,17.109375 6.83593,-17.109375 h 3.8086 z"
         style=""
         id="path4548" />
      <path
         d="m 567.69629,67.722656 q 1.34766,-2.421875 3.22266,-3.574219 1.875,-1.152343 4.41406,-1.152343 3.41797,0 5.27344,2.402343 1.85546,2.382813 1.85546,6.796875 v 13.203125 h -3.61328 V 72.3125 q 0,-3.144531 -1.11328,-4.667969 -1.11328,-1.523437 -3.39844,-1.523437 -2.79296,0 -4.41406,1.855468 -1.62109,1.855469 -1.62109,5.058594 v 12.363281 h -3.61328 V 72.3125 q 0,-3.164063 -1.11328,-4.667969 -1.11329,-1.523437 -3.4375,-1.523437 -2.75391,0 -4.375,1.875 -1.6211,1.855468 -1.6211,5.039062 v 12.363281 h -3.61328 v -21.875 h 3.61328 v 3.398438 q 1.23047,-2.011719 2.94922,-2.96875 1.71875,-0.957031 4.08203,-0.957031 2.38281,0 4.04297,1.210937 1.67969,1.210938 2.48047,3.515625 z"
         style=""
         id="path4550" />
      <path
         d="m 608.36035,73.5625 v 1.757812 h -16.52344 q 0.23438,3.710938 2.22657,5.664063 2.01172,1.933594 5.58593,1.933594 2.07032,0 4.00391,-0.507813 1.95313,-0.507812 3.86719,-1.523437 v 3.398437 q -1.9336,0.820313 -3.96485,1.25 -2.03125,0.429688 -4.12109,0.429688 -5.23437,0 -8.30078,-3.046875 -3.04688,-3.046875 -3.04688,-8.242188 0,-5.371094 2.89063,-8.515625 2.91016,-3.164062 7.83203,-3.164062 4.41406,0 6.97266,2.851562 2.57812,2.832031 2.57812,7.714844 z m -3.59375,-1.054688 q -0.0391,-2.949218 -1.66015,-4.707031 -1.60157,-1.757812 -4.25782,-1.757812 -3.00781,0 -4.82422,1.699218 -1.79687,1.699219 -2.07031,4.785157 z"
         style=""
         id="path4552" />
      <path
         d="m 617.81348,57.3125 v 6.210937 h 7.40234 v 2.792969 h -7.40234 v 11.875 q 0,2.675781 0.72265,3.4375 0.74219,0.761719 2.98828,0.761719 h 3.69141 v 3.007812 h -3.69141 q -4.16015,0 -5.74218,-1.542968 -1.58203,-1.5625 -1.58203,-5.664063 v -11.875 h -2.63672 v -2.792969 h 2.63672 V 57.3125 Z"
         style=""
         id="path4554" />
      <path
         d="m 648.67285,73.5625 v 1.757812 h -16.52344 q 0.23438,3.710938 2.22657,5.664063 2.01172,1.933594 5.58593,1.933594 2.07032,0 4.00391,-0.507813 1.95313,-0.507812 3.86719,-1.523437 v 3.398437 q -1.9336,0.820313 -3.96485,1.25 -2.03125,0.429688 -4.12109,0.429688 -5.23437,0 -8.30078,-3.046875 -3.04688,-3.046875 -3.04688,-8.242188 0,-5.371094 2.89063,-8.515625 2.91016,-3.164062 7.83203,-3.164062 4.41406,0 6.97266,2.851562 2.57812,2.832031 2.57812,7.714844 z m -3.59375,-1.054688 q -0.0391,-2.949218 -1.66015,-4.707031 -1.60157,-1.757812 -4.25782,-1.757812 -3.00781,0 -4.82422,1.699218 -1.79687,1.699219 -2.07031,4.785157 z"
         style=""
         id="path4556" />
      <path
         d="M 667.24707,66.882812 Q 666.6416,66.53125 665.91895,66.375 q -0.70313,-0.175781 -1.5625,-0.175781 -3.04688,0 -4.6875,1.992187 -1.6211,1.972656 -1.6211,5.683594 v 11.523437 h -3.61328 v -21.875 h 3.61328 v 3.398438 q 1.13281,-1.992188 2.94922,-2.949219 1.81641,-0.976562 4.41406,-0.976562 0.3711,0 0.82032,0.05859 0.44921,0.03906 0.99609,0.136719 z"
         style=""
         id="path4558" />
      <path
         d="m 667.8916,80.4375 h 4.1211 v 4.960937 h -4.1211 z"
         style=""
         id="path4560" />
      <path
         d="m 296.77832,106.23828 h 4.23828 l 8.08594,11.99219 8.02734,-11.99219 h 4.23828 l -10.3125,15.27344 v 13.88672 h -3.96484 v -13.88672 z"
         style=""
         id="path4562" />
      <path
         d="m 320.09863,126.76563 v -13.24219 h 3.59375 v 13.10547 q 0,3.10546 1.21094,4.66796 1.21094,1.54297 3.63281,1.54297 2.91016,0 4.58985,-1.85547 1.69922,-1.85546 1.69922,-5.05859 v -12.40234 h 3.59375 v 21.875 h -3.59375 v -3.35938 q -1.3086,1.99219 -3.04688,2.96875 -1.71875,0.95703 -4.00391,0.95703 -3.76953,0 -5.72265,-2.34375 -1.95313,-2.34375 -1.95313,-6.85546 z m 9.04297,-13.76954 z"
         style=""
         id="path4564" />
      <path
         d="m 362.8916,117.72266 q 1.34766,-2.42188 3.22266,-3.57422 1.875,-1.15235 4.41406,-1.15235 3.41797,0 5.27344,2.40235 1.85547,2.38281 1.85547,6.79687 v 13.20313 h -3.61328 V 122.3125 q 0,-3.14453 -1.11329,-4.66797 -1.11328,-1.52344 -3.39843,-1.52344 -2.79297,0 -4.41407,1.85547 -1.62109,1.85547 -1.62109,5.0586 v 12.36328 h -3.61328 V 122.3125 q 0,-3.16406 -1.11328,-4.66797 -1.11328,-1.52344 -3.4375,-1.52344 -2.75391,0 -4.375,1.875 -1.6211,1.85547 -1.6211,5.03907 v 12.36328 h -3.61328 v -21.875 h 3.61328 v 3.39844 q 1.23047,-2.01172 2.94922,-2.96875 1.71875,-0.95704 4.08203,-0.95704 2.38282,0 4.04297,1.21094 1.67969,1.21094 2.48047,3.51563 z"
         style=""
         id="path4566" />
      <path
         d="m 401.87598,117.72266 q 1.34765,-2.42188 3.22265,-3.57422 1.875,-1.15235 4.41407,-1.15235 3.41796,0 5.27343,2.40235 1.85547,2.38281 1.85547,6.79687 v 13.20313 h -3.61328 V 122.3125 q 0,-3.14453 -1.11328,-4.66797 -1.11328,-1.52344 -3.39844,-1.52344 -2.79297,0 -4.41406,1.85547 -1.62109,1.85547 -1.62109,5.0586 v 12.36328 h -3.61329 V 122.3125 q 0,-3.16406 -1.11328,-4.66797 -1.11328,-1.52344 -3.4375,-1.52344 -2.7539,0 -4.375,1.875 -1.62109,1.85547 -1.62109,5.03907 v 12.36328 h -3.61328 v -21.875 h 3.61328 v 3.39844 q 1.23047,-2.01172 2.94922,-2.96875 1.71875,-0.95704 4.08203,-0.95704 2.38281,0 4.04297,1.21094 1.67969,1.21094 2.48047,3.51563 z"
         style=""
         id="path4568" />
      <path
         d="m 432.93066,137.42969 q -1.52343,3.90625 -2.96875,5.09765 -1.44531,1.19141 -3.86718,1.19141 h -2.8711 v -3.00781 h 2.10938 q 1.48437,0 2.30469,-0.70313 0.82031,-0.70312 1.8164,-3.32031 l 0.64453,-1.64063 -8.84765,-21.52343 h 3.80859 l 6.83594,17.10937 6.83594,-17.10937 h 3.80859 z"
         style=""
         id="path4570" />
      <path
         d="m 449.7666,130.4375 h 3.96485 v 4.96094 h -3.96485 z m 0,-24.19922 h 3.96485 v 12.79297 l -0.39063,6.97266 h -3.16406 l -0.41016,-6.97266 z"
         style=""
         id="path4572" />
    </g>
  </g>
</svg>
