<?xml version="1.0" encoding="UTF-8" standalone="no"?>
<!-- Created with Inkscape (http://www.inkscape.org/) -->

<svg
   xmlns:dc="http://purl.org/dc/elements/1.1/"
   xmlns:cc="http://creativecommons.org/ns#"
   xmlns:rdf="http://www.w3.org/1999/02/22-rdf-syntax-ns#"
   xmlns:svg="http://www.w3.org/2000/svg"
   xmlns="http://www.w3.org/2000/svg"
   xmlns:sodipodi="http://sodipodi.sourceforge.net/DTD/sodipodi-0.dtd"
   xmlns:inkscape="http://www.inkscape.org/namespaces/inkscape"
   width="200mm"
   height="200mm"
   viewBox="0 0 200 200"
   version="1.1"
   id="svg8"
   inkscape:version="0.92.5 (2060ec1f9f, 2020-04-08)"
   sodipodi:docname="tutorial0.svg">
  <defs
     id="defs2" />
  <sodipodi:namedview
     id="base"
     pagecolor="#ffffff"
     bordercolor="#666666"
     borderopacity="1.0"
     inkscape:pageopacity="0.0"
     inkscape:pageshadow="2"
     inkscape:zoom="1.4142136"
     inkscape:cx="338.88139"
     inkscape:cy="633.32929"
     inkscape:document-units="mm"
     inkscape:current-layer="layer1"
     showgrid="false"
     inkscape:window-width="1853"
     inkscape:window-height="1057"
     inkscape:window-x="1979"
     inkscape:window-y="-8"
     inkscape:window-maximized="1" />
  <metadata
     id="metadata5">
    <rdf:RDF>
      <cc:Work
         rdf:about="">
        <dc:format>image/svg+xml</dc:format>
        <dc:type
           rdf:resource="http://purl.org/dc/dcmitype/StillImage" />
        <dc:title />
      </cc:Work>
    </rdf:RDF>
  </metadata>
  <g
     inkscape:label="Ebene 1"
     inkscape:groupmode="layer"
     id="layer1"
     transform="translate(0,-97)"
     style="display:inline">
    <g
       aria-label="Click on this log to walk there and pick it up! "
       transform="matrix(0.26458333,0,0,0.26458333,0,97)"
       style="font-style:normal;font-variant:normal;font-weight:normal;font-stretch:normal;font-size:40px;line-height:1.25;font-family:sans-serif;-inkscape-font-specification:'sans-serif, Normal';font-variant-ligatures:normal;font-variant-caps:normal;font-variant-numeric:normal;font-feature-settings:normal;text-align:center;letter-spacing:0px;word-spacing:0px;writing-mode:lr-tb;text-anchor:middle;fill:#ffffff;fill-opacity:1;stroke:#000000;stroke-width:1.13385828;stroke-miterlimit:4;stroke-dasharray:none;stroke-opacity:1"
       id="flowRoot2100">
      <path
         d="m 63.399414,8.484375 v 4.160156 Q 61.407227,10.789063 59.141602,9.8710938 56.895508,8.953125 54.356445,8.953125 q -5,0 -7.65625,3.066406 -2.65625,3.046875 -2.65625,8.828125 0,5.761719 2.65625,8.828125 2.65625,3.046875 7.65625,3.046875 2.539063,0 4.785157,-0.917969 2.265625,-0.917968 4.257812,-2.773437 v 4.121094 q -2.070312,1.40625 -4.394531,2.109375 -2.304688,0.703125 -4.882813,0.703125 -6.621093,0 -10.429687,-4.042969 -3.808594,-4.0625 -3.808594,-11.074219 0,-7.03125 3.808594,-11.0742185 3.808594,-4.0625 10.429687,-4.0625 2.617188,0 4.921875,0.703125 2.324219,0.6835937 4.355469,2.0703125 z"
         style="stroke-width:1.13385828;stroke-miterlimit:4;stroke-dasharray:none"
         id="path2651" />
      <path
         d="m 69.375977,5.0078125 h 3.59375 V 35.398437 h -3.59375 z"
         style="stroke-width:1.13385828;stroke-miterlimit:4;stroke-dasharray:none"
         id="path2653" />
      <path
         d="m 80.469727,13.523438 h 3.59375 v 21.874999 h -3.59375 z m 0,-8.5156255 h 3.59375 v 4.5507813 h -3.59375 z"
         style="stroke-width:1.13385828;stroke-miterlimit:4;stroke-dasharray:none"
         id="path2655" />
      <path
         d="m 107.30566,14.363281 v 3.359375 q -1.52343,-0.839844 -3.0664,-1.25 -1.52344,-0.429687 -3.08594,-0.429687 -3.496093,0 -5.429687,2.226562 -1.933594,2.207031 -1.933594,6.210938 0,4.003906 1.933594,6.230468 1.933594,2.207032 5.429687,2.207032 1.5625,0 3.08594,-0.410157 1.54297,-0.429687 3.0664,-1.269531 v 3.320313 q -1.5039,0.703125 -3.125,1.054687 -1.60156,0.351563 -3.41796,0.351563 -4.941411,0 -7.851567,-3.105469 -2.910156,-3.105469 -2.910156,-8.378906 0,-5.351563 2.929687,-8.417969 2.949219,-3.066406 8.066406,-3.066406 1.66016,0 3.24219,0.351562 1.58203,0.332032 3.0664,1.015625 z"
         style="stroke-width:1.13385828;stroke-miterlimit:4;stroke-dasharray:none"
         id="path2657" />
      <path
         d="m 113.45801,5.0078125 h 3.61328 V 22.957031 l 10.72266,-9.433593 h 4.58984 l -11.60156,10.234374 12.08984,11.640625 h -4.6875 L 117.07129,24.714844 v 10.683593 h -3.61328 z"
         style="stroke-width:1.13385828;stroke-miterlimit:4;stroke-dasharray:none"
         id="path2659" />
      <path
         d="m 158.00879,16.042969 q -2.89063,0 -4.57031,2.265625 -1.67969,2.246093 -1.67969,6.171875 0,3.925781 1.66016,6.191406 1.67968,2.246094 4.58984,2.246094 2.87109,0 4.55078,-2.265625 1.67969,-2.265625 1.67969,-6.171875 0,-3.886719 -1.67969,-6.152344 -1.67969,-2.285156 -4.55078,-2.285156 z m 0,-3.046875 q 4.6875,0 7.36328,3.046875 2.67578,3.046875 2.67578,8.4375 0,5.371093 -2.67578,8.4375 -2.67578,3.046875 -7.36328,3.046875 -4.70703,0 -7.38281,-3.046875 -2.65625,-3.066407 -2.65625,-8.4375 0,-5.390625 2.65625,-8.4375 2.67578,-3.046875 7.38281,-3.046875 z"
         style="stroke-width:1.13385828;stroke-miterlimit:4;stroke-dasharray:none"
         id="path2661" />
      <path
         d="M 192.16895,22.195312 V 35.398437 H 188.5752 V 22.3125 q 0,-3.105469 -1.21094,-4.648438 -1.21094,-1.542968 -3.63281,-1.542968 -2.91016,0 -4.58985,1.855468 -1.67969,1.855469 -1.67969,5.058594 v 12.363281 h -3.61328 V 13.523438 h 3.61328 v 3.398437 q 1.28907,-1.972656 3.02735,-2.949219 1.75781,-0.976562 4.04297,-0.976562 3.76953,0 5.70312,2.34375 1.9336,2.324218 1.9336,6.855468 z"
         style="stroke-width:1.13385828;stroke-miterlimit:4;stroke-dasharray:none"
         id="path2663" />
      <path
         d="m 215.66504,7.3125 v 6.210938 h 7.40234 v 2.792968 h -7.40234 v 11.875 q 0,2.675781 0.72266,3.4375 0.74218,0.761719 2.98828,0.761719 h 3.6914 v 3.007812 h -3.6914 q -4.16016,0 -5.74219,-1.542968 -1.58203,-1.5625 -1.58203,-5.664063 v -11.875 h -2.63672 v -2.792968 h 2.63672 V 7.3125 Z"
         style="stroke-width:1.13385828;stroke-miterlimit:4;stroke-dasharray:none"
         id="path2665" />
      <path
         d="m 245.99707,22.195312 v 13.203125 h -3.59375 V 22.3125 q 0,-3.105469 -1.21094,-4.648438 -1.21093,-1.542968 -3.63281,-1.542968 -2.91016,0 -4.58984,1.855468 -1.67969,1.855469 -1.67969,5.058594 v 12.363281 h -3.61328 V 5.0078125 h 3.61328 V 16.921875 q 1.28906,-1.972656 3.02734,-2.949219 1.75782,-0.976562 4.04297,-0.976562 3.76953,0 5.70313,2.34375 1.93359,2.324218 1.93359,6.855468 z"
         style="stroke-width:1.13385828;stroke-miterlimit:4;stroke-dasharray:none"
         id="path2667" />
      <path
         d="m 253.2041,13.523438 h 3.59375 v 21.874999 h -3.59375 z m 0,-8.5156255 h 3.59375 v 4.5507813 h -3.59375 z"
         style="stroke-width:1.13385828;stroke-miterlimit:4;stroke-dasharray:none"
         id="path2669" />
      <path
         d="m 278.24316,14.167969 v 3.398437 q -1.52343,-0.78125 -3.16406,-1.171875 -1.64062,-0.390625 -3.39844,-0.390625 -2.67578,0 -4.02343,0.820313 -1.32813,0.820312 -1.32813,2.460937 0,1.25 0.95703,1.972656 0.95703,0.703125 3.84766,1.347657 l 1.23047,0.273437 q 3.82812,0.820313 5.42969,2.324219 1.62109,1.484375 1.62109,4.160156 0,3.046875 -2.42188,4.824219 -2.40234,1.777344 -6.62109,1.777344 -1.75781,0 -3.67187,-0.351563 -1.89454,-0.332031 -4.00391,-1.015625 v -3.710937 q 1.99219,1.035156 3.92578,1.5625 1.93359,0.507812 3.82813,0.507812 2.53906,0 3.90625,-0.859375 1.36718,-0.878906 1.36718,-2.460937 0,-1.464844 -0.99609,-2.246094 -0.97656,-0.78125 -4.31641,-1.503906 l -1.25,-0.292969 q -3.33984,-0.703125 -4.82422,-2.148438 -1.48437,-1.464843 -1.48437,-4.003906 0,-3.085937 2.1875,-4.765625 2.1875,-1.679687 6.21094,-1.679687 1.99218,0 3.75,0.292969 1.75781,0.292968 3.24218,0.878906 z"
         style="stroke-width:1.13385828;stroke-miterlimit:4;stroke-dasharray:none"
         id="path2671" />
      <path
         d="m 297.8916,5.0078125 h 3.59375 V 35.398437 h -3.59375 z"
         style="stroke-width:1.13385828;stroke-miterlimit:4;stroke-dasharray:none"
         id="path2673" />
      <path
         d="m 317.46191,16.042969 q -2.89062,0 -4.57031,2.265625 -1.67969,2.246093 -1.67969,6.171875 0,3.925781 1.66016,6.191406 1.67969,2.246094 4.58984,2.246094 2.8711,0 4.55079,-2.265625 1.67968,-2.265625 1.67968,-6.171875 0,-3.886719 -1.67968,-6.152344 -1.67969,-2.285156 -4.55079,-2.285156 z m 0,-3.046875 q 4.6875,0 7.36329,3.046875 2.67578,3.046875 2.67578,8.4375 0,5.371093 -2.67578,8.4375 -2.67579,3.046875 -7.36329,3.046875 -4.70703,0 -7.38281,-3.046875 -2.65625,-3.066407 -2.65625,-8.4375 0,-5.390625 2.65625,-8.4375 2.67578,-3.046875 7.38281,-3.046875 z"
         style="stroke-width:1.13385828;stroke-miterlimit:4;stroke-dasharray:none"
         id="path2675" />
      <path
         d="m 347.83301,24.207031 q 0,-3.90625 -1.6211,-6.054687 -1.60156,-2.148438 -4.51171,-2.148438 -2.89063,0 -4.51172,2.148438 -1.60157,2.148437 -1.60157,6.054687 0,3.886719 1.60157,6.035156 1.62109,2.148438 4.51172,2.148438 2.91015,0 4.51171,-2.148438 1.6211,-2.148437 1.6211,-6.035156 z m 3.59375,8.476563 q 0,5.585937 -2.48047,8.300781 -2.48047,2.734375 -7.59766,2.734375 -1.89453,0 -3.57422,-0.292969 -1.67968,-0.273437 -3.26171,-0.859375 v -3.496094 q 1.58203,0.859375 3.125,1.269532 1.54296,0.410156 3.14453,0.410156 3.53515,0 5.29297,-1.855469 1.75781,-1.835937 1.75781,-5.566406 v -1.777344 q -1.11328,1.933594 -2.85156,2.890625 -1.73829,0.957031 -4.16016,0.957031 -4.02344,0 -6.48438,-3.066406 -2.46093,-3.066406 -2.46093,-8.125 0,-5.078125 2.46093,-8.144531 2.46094,-3.066406 6.48438,-3.066406 2.42187,0 4.16016,0.957031 1.73828,0.957031 2.85156,2.890625 v -3.320312 h 3.59375 z"
         style="stroke-width:1.13385828;stroke-miterlimit:4;stroke-dasharray:none"
         id="path2677" />
      <path
         d="m 375.11816,7.3125 v 6.210938 h 7.40235 v 2.792968 h -7.40235 v 11.875 q 0,2.675781 0.72266,3.4375 0.74219,0.761719 2.98828,0.761719 h 3.69141 v 3.007812 h -3.69141 q -4.16015,0 -5.74219,-1.542968 -1.58203,-1.5625 -1.58203,-5.664063 v -11.875 h -2.63672 v -2.792968 h 2.63672 V 7.3125 Z"
         style="stroke-width:1.13385828;stroke-miterlimit:4;stroke-dasharray:none"
         id="path2679" />
      <path
         d="m 395.74316,16.042969 q -2.89062,0 -4.57031,2.265625 -1.67969,2.246093 -1.67969,6.171875 0,3.925781 1.66016,6.191406 1.67969,2.246094 4.58984,2.246094 2.8711,0 4.55079,-2.265625 1.67968,-2.265625 1.67968,-6.171875 0,-3.886719 -1.67968,-6.152344 -1.67969,-2.285156 -4.55079,-2.285156 z m 0,-3.046875 q 4.6875,0 7.36329,3.046875 2.67578,3.046875 2.67578,8.4375 0,5.371093 -2.67578,8.4375 -2.67579,3.046875 -7.36329,3.046875 -4.70703,0 -7.38281,-3.046875 -2.65625,-3.066407 -2.65625,-8.4375 0,-5.390625 2.65625,-8.4375 2.67578,-3.046875 7.38281,-3.046875 z"
         style="stroke-width:1.13385828;stroke-miterlimit:4;stroke-dasharray:none"
         id="path2681" />
      <path
         d="m 422.36426,13.523438 h 3.59375 l 4.49219,17.070312 4.47265,-17.070312 h 4.23828 l 4.49219,17.070312 4.47266,-17.070312 h 3.59375 l -5.72266,21.874999 h -4.23828 L 437.05176,17.46875 432.3252,35.398437 h -4.23829 z"
         style="stroke-width:1.13385828;stroke-miterlimit:4;stroke-dasharray:none"
         id="path2683" />
      <path
         d="m 467.12988,24.402344 q -4.35547,0 -6.03515,0.996093 -1.67969,0.996094 -1.67969,3.398438 0,1.914062 1.25,3.046875 1.26953,1.113281 3.4375,1.113281 2.98828,0 4.78516,-2.109375 1.8164,-2.128906 1.8164,-5.644531 v -0.800781 z m 7.16797,-1.484375 v 12.480468 h -3.59375 v -3.320312 q -1.23047,1.992187 -3.0664,2.949219 -1.83594,0.9375 -4.49219,0.9375 -3.35938,0 -5.35156,-1.875 -1.97266,-1.894532 -1.97266,-5.058594 0,-3.691406 2.46094,-5.566406 2.48047,-1.875 7.38281,-1.875 h 5.03906 v -0.351563 q 0,-2.480469 -1.64062,-3.828125 -1.6211,-1.367187 -4.57032,-1.367187 -1.875,0 -3.65234,0.449218 -1.77734,0.449219 -3.41797,1.347657 v -3.320313 q 1.97266,-0.761718 3.82813,-1.132812 1.85547,-0.390625 3.61328,-0.390625 4.74609,0 7.08984,2.460937 2.34375,2.460938 2.34375,7.460938 z"
         style="stroke-width:1.13385828;stroke-miterlimit:4;stroke-dasharray:none"
         id="path2685" />
      <path
         d="m 481.71973,5.0078125 h 3.59375 V 35.398437 h -3.59375 z"
         style="stroke-width:1.13385828;stroke-miterlimit:4;stroke-dasharray:none"
         id="path2687" />
      <path
         d="m 492.67676,5.0078125 h 3.61328 V 22.957031 l 10.72266,-9.433593 h 4.58984 l -11.60156,10.234374 12.08984,11.640625 h -4.6875 L 496.29004,24.714844 v 10.683593 h -3.61328 z"
         style="stroke-width:1.13385828;stroke-miterlimit:4;stroke-dasharray:none"
         id="path2689" />
      <path
         d="m 532.30566,7.3125 v 6.210938 h 7.40235 v 2.792968 h -7.40235 v 11.875 q 0,2.675781 0.72266,3.4375 0.74219,0.761719 2.98828,0.761719 h 3.69141 v 3.007812 h -3.69141 q -4.16015,0 -5.74219,-1.542968 -1.58203,-1.5625 -1.58203,-5.664063 v -11.875 h -2.63672 v -2.792968 h 2.63672 V 7.3125 Z"
         style="stroke-width:1.13385828;stroke-miterlimit:4;stroke-dasharray:none"
         id="path2691" />
      <path
         d="m 562.6377,22.195312 v 13.203125 h -3.59375 V 22.3125 q 0,-3.105469 -1.21094,-4.648438 -1.21094,-1.542968 -3.63281,-1.542968 -2.91016,0 -4.58985,1.855468 -1.67969,1.855469 -1.67969,5.058594 v 12.363281 h -3.61328 V 5.0078125 h 3.61328 V 16.921875 q 1.28907,-1.972656 3.02735,-2.949219 1.75781,-0.976562 4.04297,-0.976562 3.76953,0 5.70312,2.34375 1.9336,2.324218 1.9336,6.855468 z"
         style="stroke-width:1.13385828;stroke-miterlimit:4;stroke-dasharray:none"
         id="path2693" />
      <path
         d="m 588.55566,23.5625 v 1.757812 h -16.52343 q 0.23437,3.710938 2.22656,5.664063 2.01172,1.933594 5.58594,1.933594 2.07031,0 4.0039,-0.507813 1.95313,-0.507812 3.86719,-1.523437 v 3.398437 q -1.93359,0.820313 -3.96484,1.25 -2.03125,0.429688 -4.1211,0.429688 -5.23437,0 -8.30078,-3.046875 -3.04687,-3.046875 -3.04687,-8.242188 0,-5.371094 2.89062,-8.515625 2.91016,-3.164062 7.83203,-3.164062 4.41407,0 6.97266,2.851562 2.57812,2.832031 2.57812,7.714844 z m -3.59375,-1.054688 q -0.0391,-2.949218 -1.66015,-4.707031 -1.60156,-1.757812 -4.25781,-1.757812 -3.00782,0 -4.82422,1.699218 -1.79688,1.699219 -2.07032,4.785157 z"
         style="stroke-width:1.13385828;stroke-miterlimit:4;stroke-dasharray:none"
         id="path2695" />
      <path
         d="m 607.12988,16.882812 q -0.60547,-0.351562 -1.32812,-0.507812 -0.70313,-0.175781 -1.5625,-0.175781 -3.04688,0 -4.6875,1.992187 -1.6211,1.972656 -1.6211,5.683594 v 11.523437 h -3.61328 V 13.523438 h 3.61328 v 3.398437 q 1.13282,-1.992187 2.94922,-2.949219 1.81641,-0.976562 4.41407,-0.976562 0.37109,0 0.82031,0.05859 0.44922,0.03906 0.99609,0.136718 z"
         style="stroke-width:1.13385828;stroke-miterlimit:4;stroke-dasharray:none"
         id="path2697" />
      <path
         d="m 628.79004,23.5625 v 1.757812 H 612.2666 q 0.23438,3.710938 2.22656,5.664063 2.01172,1.933594 5.58594,1.933594 2.07031,0 4.00391,-0.507813 1.95312,-0.507812 3.86719,-1.523437 v 3.398437 q -1.9336,0.820313 -3.96485,1.25 -2.03125,0.429688 -4.12109,0.429688 -5.23438,0 -8.30078,-3.046875 -3.04688,-3.046875 -3.04688,-8.242188 0,-5.371094 2.89063,-8.515625 2.91015,-3.164062 7.83203,-3.164062 4.41406,0 6.97265,2.851562 2.57813,2.832031 2.57813,7.714844 z m -3.59375,-1.054688 q -0.0391,-2.949218 -1.66016,-4.707031 -1.60156,-1.757812 -4.25781,-1.757812 -3.00781,0 -4.82422,1.699218 -1.79687,1.699219 -2.07031,4.785157 z"
         style="stroke-width:1.13385828;stroke-miterlimit:4;stroke-dasharray:none"
         id="path2699" />
      <path
         d="m 657.36426,24.402344 q -4.35547,0 -6.03516,0.996093 -1.67969,0.996094 -1.67969,3.398438 0,1.914062 1.25,3.046875 1.26954,1.113281 3.4375,1.113281 2.98829,0 4.78516,-2.109375 1.81641,-2.128906 1.81641,-5.644531 v -0.800781 z m 7.16797,-1.484375 v 12.480468 h -3.59375 v -3.320312 q -1.23047,1.992187 -3.06641,2.949219 -1.83594,0.9375 -4.49219,0.9375 -3.35937,0 -5.35156,-1.875 -1.97266,-1.894532 -1.97266,-5.058594 0,-3.691406 2.46094,-5.566406 2.48047,-1.875 7.38281,-1.875 h 5.03907 v -0.351563 q 0,-2.480469 -1.64063,-3.828125 -1.62109,-1.367187 -4.57031,-1.367187 -1.875,0 -3.65234,0.449218 -1.77735,0.449219 -3.41797,1.347657 v -3.320313 q 1.97265,-0.761718 3.82812,-1.132812 1.85547,-0.390625 3.61328,-0.390625 4.7461,0 7.08985,2.460937 2.34375,2.460938 2.34375,7.460938 z"
         style="stroke-width:1.13385828;stroke-miterlimit:4;stroke-dasharray:none"
         id="path2701" />
      <path
         d="m 690.1377,22.195312 v 13.203125 h -3.59375 V 22.3125 q 0,-3.105469 -1.21094,-4.648438 -1.21094,-1.542968 -3.63281,-1.542968 -2.91016,0 -4.58985,1.855468 -1.67969,1.855469 -1.67969,5.058594 v 12.363281 h -3.61328 V 13.523438 h 3.61328 v 3.398437 q 1.28907,-1.972656 3.02735,-2.949219 1.75781,-0.976562 4.04297,-0.976562 3.76953,0 5.70312,2.34375 1.9336,2.324218 1.9336,6.855468 z"
         style="stroke-width:1.13385828;stroke-miterlimit:4;stroke-dasharray:none"
         id="path2703" />
      <path
         d="M 711.73926,16.84375 V 5.0078125 h 3.59375 V 35.398437 h -3.59375 v -3.28125 q -1.13281,1.953125 -2.8711,2.910157 -1.71875,0.9375 -4.14062,0.9375 -3.96484,0 -6.46484,-3.164063 -2.48047,-3.164062 -2.48047,-8.320312 0,-5.15625 2.48047,-8.320313 2.5,-3.164062 6.46484,-3.164062 2.42187,0 4.14062,0.957031 1.73829,0.9375 2.8711,2.890625 z m -12.2461,7.636719 q 0,3.964843 1.6211,6.230468 1.64062,2.246094 4.49219,2.246094 2.85156,0 4.49218,-2.246094 1.64063,-2.265625 1.64063,-6.230468 0,-3.964844 -1.64063,-6.210938 -1.64062,-2.265625 -4.49218,-2.265625 -2.85157,0 -4.49219,2.265625 -1.6211,2.246094 -1.6211,6.210938 z"
         style="stroke-width:1.13385828;stroke-miterlimit:4;stroke-dasharray:none"
         id="path2705" />
      <path
         d="M 285.15723,82.117187 V 93.71875 h -3.61328 V 63.523437 h 3.61328 v 3.320313 q 1.13281,-1.953125 2.85156,-2.890625 1.73828,-0.957031 4.14062,-0.957031 3.98438,0 6.46485,3.164062 2.5,3.164063 2.5,8.320313 0,5.15625 -2.5,8.320312 -2.48047,3.164063 -6.46485,3.164063 -2.40234,0 -4.14062,-0.9375 -1.71875,-0.957032 -2.85156,-2.910157 z m 12.22656,-7.636718 q 0,-3.964844 -1.64063,-6.210938 -1.62109,-2.265625 -4.47265,-2.265625 -2.85156,0 -4.49219,2.265625 -1.62109,2.246094 -1.62109,6.210938 0,3.964843 1.62109,6.230468 1.64063,2.246094 4.49219,2.246094 2.85156,0 4.47265,-2.246094 1.64063,-2.265625 1.64063,-6.230468 z"
         style="stroke-width:1.13385828;stroke-miterlimit:4;stroke-dasharray:none"
         id="path2707" />
      <path
         d="m 307.07129,63.523437 h 3.59375 v 21.875 h -3.59375 z m 0,-8.515625 h 3.59375 v 4.550782 h -3.59375 z"
         style="stroke-width:1.13385828;stroke-miterlimit:4;stroke-dasharray:none"
         id="path2709" />
      <path
         d="m 333.90723,64.363281 v 3.359375 q -1.52344,-0.839844 -3.06641,-1.25 -1.52344,-0.429687 -3.08594,-0.429687 -3.49609,0 -5.42968,2.226562 -1.9336,2.207031 -1.9336,6.210938 0,4.003906 1.9336,6.230468 1.93359,2.207032 5.42968,2.207032 1.5625,0 3.08594,-0.410157 1.54297,-0.429687 3.06641,-1.269531 v 3.320313 q -1.50391,0.703125 -3.125,1.054687 -1.60157,0.351563 -3.41797,0.351563 -4.94141,0 -7.85156,-3.105469 -2.91016,-3.105469 -2.91016,-8.378906 0,-5.351563 2.92969,-8.417969 2.94922,-3.066406 8.0664,-3.066406 1.66016,0 3.24219,0.351562 1.58203,0.332031 3.06641,1.015625 z"
         style="stroke-width:1.13385828;stroke-miterlimit:4;stroke-dasharray:none"
         id="path2711" />
      <path
         d="m 340.05957,55.007812 h 3.61328 v 17.949219 l 10.72266,-9.433594 h 4.58984 l -11.60156,10.234375 12.08984,11.640625 h -4.6875 L 343.67285,74.714844 v 10.683593 h -3.61328 z"
         style="stroke-width:1.13385828;stroke-miterlimit:4;stroke-dasharray:none"
         id="path2713" />
      <path
         d="m 376.13379,63.523437 h 3.59375 v 21.875 h -3.59375 z m 0,-8.515625 h 3.59375 v 4.550782 h -3.59375 z"
         style="stroke-width:1.13385828;stroke-miterlimit:4;stroke-dasharray:none"
         id="path2715" />
      <path
         d="m 390.78223,57.3125 v 6.210937 h 7.40234 v 2.792969 h -7.40234 v 11.875 q 0,2.675781 0.72265,3.4375 0.74219,0.761719 2.98828,0.761719 h 3.69141 v 3.007812 h -3.69141 q -4.16015,0 -5.74218,-1.542968 -1.58203,-1.5625 -1.58203,-5.664063 v -11.875 h -2.63672 v -2.792969 h 2.63672 V 57.3125 Z"
         style="stroke-width:1.13385828;stroke-miterlimit:4;stroke-dasharray:none"
         id="path2717" />
      <path
         d="M 415.29395,76.765625 V 63.523437 h 3.59375 v 13.105469 q 0,3.105469 1.21093,4.667969 1.21094,1.542969 3.63282,1.542969 2.91015,0 4.58984,-1.855469 1.69922,-1.855469 1.69922,-5.058594 V 63.523437 h 3.59375 v 21.875 h -3.59375 v -3.359375 q -1.3086,1.992188 -3.04688,2.96875 -1.71875,0.957032 -4.0039,0.957032 -3.76953,0 -5.72266,-2.34375 -1.95312,-2.34375 -1.95312,-6.855469 z m 9.04296,-13.769531 z"
         style="stroke-width:1.13385828;stroke-miterlimit:4;stroke-dasharray:none"
         id="path2719" />
      <path
         d="M 444.53223,82.117187 V 93.71875 h -3.61328 V 63.523437 h 3.61328 v 3.320313 q 1.13281,-1.953125 2.85156,-2.890625 1.73828,-0.957031 4.14062,-0.957031 3.98438,0 6.46485,3.164062 2.5,3.164063 2.5,8.320313 0,5.15625 -2.5,8.320312 -2.48047,3.164063 -6.46485,3.164063 -2.40234,0 -4.14062,-0.9375 -1.71875,-0.957032 -2.85156,-2.910157 z m 12.22656,-7.636718 q 0,-3.964844 -1.64063,-6.210938 -1.62109,-2.265625 -4.47265,-2.265625 -2.85156,0 -4.49219,2.265625 -1.62109,2.246094 -1.62109,6.210938 0,3.964843 1.62109,6.230468 1.64063,2.246094 4.49219,2.246094 2.85156,0 4.47265,-2.246094 1.64063,-2.265625 1.64063,-6.230468 z"
         style="stroke-width:1.13385828;stroke-miterlimit:4;stroke-dasharray:none"
         id="path2721" />
      <path
         d="m 468.71191,80.4375 h 3.96485 v 4.960937 h -3.96485 z m 0,-24.199219 h 3.96485 V 69.03125 l -0.39063,6.972656 h -3.16406 l -0.41016,-6.972656 z"
         style="stroke-width:1.13385828;stroke-miterlimit:4;stroke-dasharray:none"
         id="path2723" />
    </g>
  </g>
</svg>
