<?xml version="1.0" encoding="UTF-8" standalone="no"?>
<!-- Created with Inkscape (http://www.inkscape.org/) -->

<svg
   xmlns:dc="http://purl.org/dc/elements/1.1/"
   xmlns:cc="http://creativecommons.org/ns#"
   xmlns:rdf="http://www.w3.org/1999/02/22-rdf-syntax-ns#"
   xmlns:svg="http://www.w3.org/2000/svg"
   xmlns="http://www.w3.org/2000/svg"
   xmlns:sodipodi="http://sodipodi.sourceforge.net/DTD/sodipodi-0.dtd"
   xmlns:inkscape="http://www.inkscape.org/namespaces/inkscape"
   width="200mm"
   height="200mm"
   viewBox="0 0 200 200"
   version="1.1"
   id="svg8"
   inkscape:version="0.92.5 (2060ec1f9f, 2020-04-08)"
   sodipodi:docname="tutorial2.svg">
  <defs
     id="defs2" />
  <sodipodi:namedview
     id="base"
     pagecolor="#ffffff"
     bordercolor="#666666"
     borderopacity="1.0"
     inkscape:pageopacity="0.0"
     inkscape:pageshadow="2"
     inkscape:zoom="1.4142136"
     inkscape:cx="372.82251"
     inkscape:cy="633.32929"
     inkscape:document-units="mm"
     inkscape:current-layer="layer1"
     showgrid="false"
     inkscape:window-width="1853"
     inkscape:window-height="1057"
     inkscape:window-x="1979"
     inkscape:window-y="-8"
     inkscape:window-maximized="1" />
  <metadata
     id="metadata5">
    <rdf:RDF>
      <cc:Work
         rdf:about="">
        <dc:format>image/svg+xml</dc:format>
        <dc:type
           rdf:resource="http://purl.org/dc/dcmitype/StillImage" />
        <dc:title></dc:title>
      </cc:Work>
    </rdf:RDF>
  </metadata>
  <g
     inkscape:label="Ebene 1"
     inkscape:groupmode="layer"
     id="layer1"
     transform="translate(0,-97)"
     style="display:inline">
    <flowRoot
       xml:space="preserve"
       id="flowRoot2853"
       style="fill:black;fill-opacity:1;stroke:none;font-family:sans-serif;font-style:normal;font-weight:normal;font-size:40px;line-height:1.25;letter-spacing:0px;word-spacing:0px"><flowRegion
         id="flowRegion2855"><rect
           id="rect2857"
           width="755.19"
           height="217.78888"
           x="0.70710677"
           y="0.0083828345" /></flowRegion><flowPara
         id="flowPara2859"></flowPara></flowRoot>    <g
       aria-label="It's time to craft an axe! Drop 2 wood and 1 stone near the fireplace."
       transform="matrix(0.26458333,0,0,0.26458333,0,97)"
       style="font-style:normal;font-variant:normal;font-weight:normal;font-stretch:normal;font-size:40px;line-height:1.25;font-family:sans-serif;-inkscape-font-specification:'sans-serif, Normal';font-variant-ligatures:normal;font-variant-caps:normal;font-variant-numeric:normal;font-feature-settings:normal;text-align:center;letter-spacing:0px;word-spacing:0px;writing-mode:lr-tb;text-anchor:middle;fill:#ffffff;fill-opacity:1;stroke:#000000;stroke-width:1.13385832;stroke-miterlimit:4;stroke-dasharray:none;stroke-opacity:1"
       id="flowRoot2861">
      <path
         d="M 7.1494141,6.2382812 H 11.094727 V 35.398437 H 7.1494141 Z"
         style=""
         id="path3569" />
      <path
         d="m 22.344727,7.3125 v 6.210938 h 7.402343 v 2.792968 h -7.402343 v 11.875 q 0,2.675781 0.722656,3.4375 0.742187,0.761719 2.988281,0.761719 h 3.691406 v 3.007812 h -3.691406 q -4.160156,0 -5.742187,-1.542968 -1.582032,-1.5625 -1.582032,-5.664063 v -11.875 h -2.636718 v -2.792968 h 2.636718 V 7.3125 Z"
         style=""
         id="path3571" />
      <path
         d="M 37.891602,6.2382812 V 17.078125 H 34.571289 V 6.2382812 Z"
         style=""
         id="path3573" />
      <path
         d="m 59.454102,14.167969 v 3.398437 q -1.523438,-0.78125 -3.164063,-1.171875 -1.640625,-0.390625 -3.398437,-0.390625 -2.675782,0 -4.023438,0.820313 -1.328125,0.820312 -1.328125,2.460937 0,1.25 0.957031,1.972656 0.957032,0.703125 3.847657,1.347657 l 1.230468,0.273437 q 3.828125,0.820313 5.429688,2.324219 1.621094,1.484375 1.621094,4.160156 0,3.046875 -2.421875,4.824219 -2.402344,1.777344 -6.621094,1.777344 -1.757813,0 -3.671875,-0.351563 -1.894531,-0.332031 -4.003906,-1.015625 v -3.710937 q 1.992187,1.035156 3.925781,1.5625 1.933594,0.507812 3.828125,0.507812 2.539062,0 3.90625,-0.859375 1.367187,-0.878906 1.367187,-2.460937 0,-1.464844 -0.996093,-2.246094 -0.976563,-0.78125 -4.316407,-1.503906 l -1.25,-0.292969 q -3.339843,-0.703125 -4.824218,-2.148438 -1.484375,-1.464843 -1.484375,-4.003906 0,-3.085937 2.1875,-4.765625 2.1875,-1.679687 6.210937,-1.679687 1.992188,0 3.75,0.292969 1.757813,0.292968 3.242188,0.878906 z"
         style=""
         id="path3575" />
      <path
         d="m 82.657227,7.3125 v 6.210938 h 7.402343 v 2.792968 h -7.402343 v 11.875 q 0,2.675781 0.722656,3.4375 0.742187,0.761719 2.988281,0.761719 h 3.691406 v 3.007812 h -3.691406 q -4.160156,0 -5.742187,-1.542968 -1.582032,-1.5625 -1.582032,-5.664063 v -11.875 h -2.636718 v -2.792968 h 2.636718 V 7.3125 Z"
         style=""
         id="path3577" />
      <path
         d="m 94.805664,13.523438 h 3.59375 v 21.874999 h -3.59375 z m 0,-8.5156255 h 3.59375 v 4.5507813 h -3.59375 z"
         style=""
         id="path3579" />
      <path
         d="m 122.93066,17.722656 q 1.34766,-2.421875 3.22266,-3.574218 1.875,-1.152344 4.41406,-1.152344 3.41797,0 5.27344,2.402344 1.85547,2.382812 1.85547,6.796874 v 13.203125 h -3.61328 V 22.3125 q 0,-3.144531 -1.11328,-4.667969 -1.11328,-1.523437 -3.39844,-1.523437 -2.79297,0 -4.41406,1.855468 -1.6211,1.855469 -1.6211,5.058594 v 12.363281 h -3.61328 V 22.3125 q 0,-3.164063 -1.11328,-4.667969 -1.11328,-1.523437 -3.4375,-1.523437 -2.75391,0 -4.375,1.875 -1.62109,1.855468 -1.62109,5.039062 V 35.398437 H 105.7627 V 13.523438 h 3.61328 v 3.398437 q 1.23047,-2.011719 2.94922,-2.96875 1.71875,-0.957031 4.08203,-0.957031 2.38281,0 4.04297,1.210937 1.67968,1.210938 2.48046,3.515625 z"
         style=""
         id="path3581" />
      <path
         d="m 163.59473,23.5625 v 1.757812 h -16.52344 q 0.23437,3.710938 2.22656,5.664063 2.01172,1.933594 5.58594,1.933594 2.07031,0 4.00391,-0.507813 1.95312,-0.507812 3.86718,-1.523437 v 3.398437 q -1.93359,0.820313 -3.96484,1.25 -2.03125,0.429688 -4.12109,0.429688 -5.23438,0 -8.30079,-3.046875 -3.04687,-3.046875 -3.04687,-8.242188 0,-5.371094 2.89062,-8.515625 2.91016,-3.164062 7.83204,-3.164062 4.41406,0 6.97265,2.851562 2.57813,2.832031 2.57813,7.714844 z m -3.59375,-1.054688 q -0.0391,-2.949218 -1.66016,-4.707031 -1.60156,-1.757812 -4.25781,-1.757812 -3.00781,0 -4.82422,1.699218 -1.79688,1.699219 -2.07031,4.785157 z"
         style=""
         id="path3583" />
      <path
         d="m 185.78223,7.3125 v 6.210938 h 7.40234 v 2.792968 h -7.40234 v 11.875 q 0,2.675781 0.72265,3.4375 0.74219,0.761719 2.98828,0.761719 h 3.69141 v 3.007812 h -3.69141 q -4.16015,0 -5.74218,-1.542968 -1.58203,-1.5625 -1.58203,-5.664063 v -11.875 h -2.63672 v -2.792968 h 2.63672 V 7.3125 Z"
         style=""
         id="path3585" />
      <path
         d="m 206.40723,16.042969 q -2.89063,0 -4.57032,2.265625 -1.67968,2.246093 -1.67968,6.171875 0,3.925781 1.66015,6.191406 1.67969,2.246094 4.58985,2.246094 2.87109,0 4.55078,-2.265625 1.67969,-2.265625 1.67969,-6.171875 0,-3.886719 -1.67969,-6.152344 -1.67969,-2.285156 -4.55078,-2.285156 z m 0,-3.046875 q 4.6875,0 7.36328,3.046875 2.67578,3.046875 2.67578,8.4375 0,5.371093 -2.67578,8.4375 -2.67578,3.046875 -7.36328,3.046875 -4.70703,0 -7.38282,-3.046875 -2.65625,-3.066407 -2.65625,-8.4375 0,-5.390625 2.65625,-8.4375 2.67579,-3.046875 7.38282,-3.046875 z"
         style=""
         id="path3587" />
      <path
         d="m 250.86035,14.363281 v 3.359375 q -1.52344,-0.839844 -3.0664,-1.25 -1.52344,-0.429687 -3.08594,-0.429687 -3.4961,0 -5.42969,2.226562 -1.93359,2.207031 -1.93359,6.210938 0,4.003906 1.93359,6.230468 1.93359,2.207032 5.42969,2.207032 1.5625,0 3.08594,-0.410157 1.54296,-0.429687 3.0664,-1.269531 v 3.320313 q -1.5039,0.703125 -3.125,1.054687 -1.60156,0.351563 -3.41797,0.351563 -4.9414,0 -7.85156,-3.105469 -2.91016,-3.105469 -2.91016,-8.378906 0,-5.351563 2.92969,-8.417969 2.94922,-3.066406 8.06641,-3.066406 1.66015,0 3.24219,0.351562 1.58203,0.332032 3.0664,1.015625 z"
         style=""
         id="path3589" />
      <path
         d="m 269.8252,16.882812 q -0.60547,-0.351562 -1.32813,-0.507812 -0.70312,-0.175781 -1.5625,-0.175781 -3.04687,0 -4.6875,1.992187 -1.62109,1.972656 -1.62109,5.683594 V 35.398437 H 257.0127 V 13.523438 h 3.61328 v 3.398437 q 1.13281,-1.992187 2.94922,-2.949219 1.8164,-0.976562 4.41406,-0.976562 0.37109,0 0.82031,0.05859 0.44922,0.03906 0.99609,0.136718 z"
         style=""
         id="path3591" />
      <path
         d="m 283.5752,24.402344 q -4.35547,0 -6.03516,0.996093 -1.67969,0.996094 -1.67969,3.398438 0,1.914062 1.25,3.046875 1.26953,1.113281 3.4375,1.113281 2.98828,0 4.78516,-2.109375 1.8164,-2.128906 1.8164,-5.644531 v -0.800781 z m 7.16796,-1.484375 v 12.480468 h -3.59375 v -3.320312 q -1.23046,1.992187 -3.0664,2.949219 -1.83594,0.9375 -4.49219,0.9375 -3.35937,0 -5.35156,-1.875 -1.97266,-1.894532 -1.97266,-5.058594 0,-3.691406 2.46094,-5.566406 2.48047,-1.875 7.38281,-1.875 h 5.03906 v -0.351563 q 0,-2.480469 -1.64062,-3.828125 -1.62109,-1.367187 -4.57031,-1.367187 -1.875,0 -3.65235,0.449218 -1.77734,0.449219 -3.41797,1.347657 v -3.320313 q 1.97266,-0.761718 3.82813,-1.132812 1.85547,-0.390625 3.61328,-0.390625 4.74609,0 7.08984,2.460937 2.34375,2.460938 2.34375,7.460938 z"
         style=""
         id="path3593" />
      <path
         d="m 309.23926,5.0078125 v 2.9882812 h -3.4375 q -1.9336,0 -2.69531,0.7812501 -0.74219,0.78125 -0.74219,2.8125002 v 1.933594 h 5.91797 v 2.792968 h -5.91797 v 19.082031 h -3.61328 V 16.316406 h -3.4375 v -2.792968 h 3.4375 V 12 q 0,-3.6523437 1.69922,-5.3125 1.69921,-1.6796875 5.39062,-1.6796875 z"
         style=""
         id="path3595" />
      <path
         d="m 315.0791,7.3125 v 6.210938 h 7.40235 v 2.792968 h -7.40235 v 11.875 q 0,2.675781 0.72266,3.4375 0.74219,0.761719 2.98828,0.761719 h 3.69141 v 3.007812 h -3.69141 q -4.16016,0 -5.74219,-1.542968 -1.58203,-1.5625 -1.58203,-5.664063 v -11.875 h -2.63672 v -2.792968 h 2.63672 V 7.3125 Z"
         style=""
         id="path3597" />
      <path
         d="m 349.90332,24.402344 q -4.35547,0 -6.03516,0.996093 -1.67968,0.996094 -1.67968,3.398438 0,1.914062 1.25,3.046875 1.26953,1.113281 3.4375,1.113281 2.98828,0 4.78515,-2.109375 1.81641,-2.128906 1.81641,-5.644531 v -0.800781 z m 7.16797,-1.484375 v 12.480468 h -3.59375 v -3.320312 q -1.23047,1.992187 -3.06641,2.949219 -1.83593,0.9375 -4.49218,0.9375 -3.35938,0 -5.35157,-1.875 -1.97265,-1.894532 -1.97265,-5.058594 0,-3.691406 2.46093,-5.566406 2.48047,-1.875 7.38282,-1.875 h 5.03906 v -0.351563 q 0,-2.480469 -1.64063,-3.828125 -1.62109,-1.367187 -4.57031,-1.367187 -1.875,0 -3.65234,0.449218 -1.77735,0.449219 -3.41797,1.347657 v -3.320313 q 1.97266,-0.761718 3.82812,-1.132812 1.85547,-0.390625 3.61329,-0.390625 4.74609,0 7.08984,2.460937 2.34375,2.460938 2.34375,7.460938 z"
         style=""
         id="path3599" />
      <path
         d="m 382.67676,22.195312 v 13.203125 h -3.59375 V 22.3125 q 0,-3.105469 -1.21094,-4.648438 -1.21094,-1.542968 -3.63281,-1.542968 -2.91016,0 -4.58985,1.855468 -1.67968,1.855469 -1.67968,5.058594 v 12.363281 h -3.61328 V 13.523438 h 3.61328 v 3.398437 q 1.28906,-1.972656 3.02734,-2.949219 1.75781,-0.976562 4.04297,-0.976562 3.76953,0 5.70312,2.34375 1.9336,2.324218 1.9336,6.855468 z"
         style=""
         id="path3601" />
      <path
         d="m 412.55957,24.402344 q -4.35547,0 -6.03516,0.996093 -1.67968,0.996094 -1.67968,3.398438 0,1.914062 1.25,3.046875 1.26953,1.113281 3.4375,1.113281 2.98828,0 4.78515,-2.109375 1.81641,-2.128906 1.81641,-5.644531 v -0.800781 z m 7.16797,-1.484375 v 12.480468 h -3.59375 v -3.320312 q -1.23047,1.992187 -3.06641,2.949219 -1.83593,0.9375 -4.49218,0.9375 -3.35938,0 -5.35157,-1.875 -1.97265,-1.894532 -1.97265,-5.058594 0,-3.691406 2.46093,-5.566406 2.48047,-1.875 7.38282,-1.875 h 5.03906 v -0.351563 q 0,-2.480469 -1.64063,-3.828125 -1.62109,-1.367187 -4.57031,-1.367187 -1.875,0 -3.65234,0.449218 -1.77735,0.449219 -3.41797,1.347657 v -3.320313 q 1.97266,-0.761718 3.82812,-1.132812 1.85547,-0.390625 3.61329,-0.390625 4.74609,0 7.08984,2.460937 2.34375,2.460938 2.34375,7.460938 z"
         style=""
         id="path3603" />
      <path
         d="m 445.33301,13.523438 -7.91016,10.644531 8.32031,11.230468 h -4.23828 l -6.36718,-8.59375 -6.36719,8.59375 h -4.23828 l 8.49609,-11.445312 -7.77344,-10.429687 h 4.23828 l 5.80079,7.792968 5.80078,-7.792968 z"
         style=""
         id="path3605" />
      <path
         d="m 468.28223,23.5625 v 1.757812 h -16.52344 q 0.23437,3.710938 2.22656,5.664063 2.01172,1.933594 5.58594,1.933594 2.07031,0 4.00391,-0.507813 1.95312,-0.507812 3.86718,-1.523437 v 3.398437 q -1.93359,0.820313 -3.96484,1.25 -2.03125,0.429688 -4.12109,0.429688 -5.23438,0 -8.30079,-3.046875 -3.04687,-3.046875 -3.04687,-8.242188 0,-5.371094 2.89062,-8.515625 2.91016,-3.164062 7.83204,-3.164062 4.41406,0 6.97265,2.851562 2.57813,2.832031 2.57813,7.714844 z m -3.59375,-1.054688 q -0.0391,-2.949218 -1.66016,-4.707031 -1.60156,-1.757812 -4.25781,-1.757812 -3.00781,0 -4.82422,1.699218 -1.79688,1.699219 -2.07031,4.785157 z"
         style=""
         id="path3607" />
      <path
         d="m 476.44629,30.4375 h 3.96484 v 4.960937 h -3.96484 z m 0,-24.1992188 h 3.96484 V 19.03125 l -0.39062,6.972656 h -3.16406 l -0.41016,-6.972656 z"
         style=""
         id="path3609" />
      <path
         d="M 507.03223,9.4804688 V 32.15625 h 4.76562 q 6.03516,0 8.82813,-2.734375 2.8125,-2.734375 2.8125,-8.632813 0,-5.859374 -2.8125,-8.574218 -2.79297,-2.7343752 -8.82813,-2.7343752 z m -3.94532,-3.2421876 h 8.10547 q 8.47657,0 12.44141,3.5351563 3.96484,3.5156255 3.96484,11.0156245 0,7.539063 -3.98437,11.074219 -3.98438,3.535156 -12.42188,3.535156 h -8.10547 z"
         style=""
         id="path3611" />
      <path
         d="m 546.3877,16.882812 q -0.60547,-0.351562 -1.32813,-0.507812 -0.70312,-0.175781 -1.5625,-0.175781 -3.04687,0 -4.6875,1.992187 -1.62109,1.972656 -1.62109,5.683594 V 35.398437 H 533.5752 V 13.523438 h 3.61328 v 3.398437 q 1.13281,-1.992187 2.94922,-2.949219 1.8164,-0.976562 4.41406,-0.976562 0.37109,0 0.82031,0.05859 0.44922,0.03906 0.99609,0.136718 z"
         style=""
         id="path3613" />
      <path
         d="m 557.81348,16.042969 q -2.89063,0 -4.57032,2.265625 -1.67968,2.246093 -1.67968,6.171875 0,3.925781 1.66015,6.191406 1.67969,2.246094 4.58985,2.246094 2.87109,0 4.55078,-2.265625 1.67969,-2.265625 1.67969,-6.171875 0,-3.886719 -1.67969,-6.152344 -1.67969,-2.285156 -4.55078,-2.285156 z m 0,-3.046875 q 4.6875,0 7.36328,3.046875 2.67578,3.046875 2.67578,8.4375 0,5.371093 -2.67578,8.4375 -2.67578,3.046875 -7.36328,3.046875 -4.70703,0 -7.38282,-3.046875 -2.65625,-3.066407 -2.65625,-8.4375 0,-5.390625 2.65625,-8.4375 2.67579,-3.046875 7.38282,-3.046875 z"
         style=""
         id="path3615" />
      <path
         d="M 577.2666,32.117187 V 43.71875 h -3.61328 V 13.523438 h 3.61328 v 3.320312 q 1.13281,-1.953125 2.85156,-2.890625 1.73829,-0.957031 4.14063,-0.957031 3.98437,0 6.46484,3.164062 2.5,3.164063 2.5,8.320313 0,5.15625 -2.5,8.320312 -2.48047,3.164063 -6.46484,3.164063 -2.40234,0 -4.14063,-0.9375 -1.71875,-0.957032 -2.85156,-2.910157 z m 12.22656,-7.636718 q 0,-3.964844 -1.64062,-6.210938 -1.62109,-2.265625 -4.47266,-2.265625 -2.85156,0 -4.49218,2.265625 -1.6211,2.246094 -1.6211,6.210938 0,3.964843 1.6211,6.230468 1.64062,2.246094 4.49218,2.246094 2.85157,0 4.47266,-2.246094 1.64062,-2.265625 1.64062,-6.230468 z"
         style=""
         id="path3617" />
      <path
         d="m 615.82129,32.078125 h 13.76953 v 3.320312 H 611.0752 v -3.320312 q 2.24609,-2.324219 6.11328,-6.230469 3.88672,-3.925781 4.88281,-5.058594 1.89453,-2.128906 2.63672,-3.59375 0.76172,-1.484374 0.76172,-2.910156 0,-2.324218 -1.64063,-3.789062 -1.62109,-1.464844 -4.23828,-1.464844 -1.85547,0 -3.92578,0.6445313 -2.05078,0.6445317 -4.39453,1.9531247 V 7.6445312 q 2.38281,-0.9570312 4.45312,-1.4453125 2.07032,-0.4882812 3.78907,-0.4882812 4.53125,0 7.22656,2.265625 2.69531,2.2656255 2.69531,6.0546875 0,1.796875 -0.68359,3.417969 -0.66407,1.601562 -2.44141,3.789062 -0.48828,0.566406 -3.10547,3.28125 -2.61719,2.695313 -7.38281,7.558594 z"
         style=""
         id="path3619" />
      <path
         d="m 648.02832,13.523438 h 3.59375 l 4.49219,17.070312 4.47265,-17.070312 h 4.23829 l 4.49218,17.070312 4.47266,-17.070312 h 3.59375 l -5.72266,21.874999 h -4.23828 l -4.70703,-17.929687 -4.72656,17.929687 h -4.23828 z"
         style=""
         id="path3621" />
      <path
         d="m 691.3291,16.042969 q -2.89062,0 -4.57031,2.265625 -1.67969,2.246093 -1.67969,6.171875 0,3.925781 1.66016,6.191406 1.67969,2.246094 4.58984,2.246094 2.8711,0 4.55078,-2.265625 1.67969,-2.265625 1.67969,-6.171875 0,-3.886719 -1.67969,-6.152344 -1.67968,-2.285156 -4.55078,-2.285156 z m 0,-3.046875 q 4.6875,0 7.36328,3.046875 2.67578,3.046875 2.67578,8.4375 0,5.371093 -2.67578,8.4375 -2.67578,3.046875 -7.36328,3.046875 -4.70703,0 -7.38281,-3.046875 -2.65625,-3.066407 -2.65625,-8.4375 0,-5.390625 2.65625,-8.4375 2.67578,-3.046875 7.38281,-3.046875 z"
         style=""
         id="path3623" />
      <path
         d="m 715.78223,16.042969 q -2.89063,0 -4.57032,2.265625 -1.67968,2.246093 -1.67968,6.171875 0,3.925781 1.66015,6.191406 1.67969,2.246094 4.58985,2.246094 2.87109,0 4.55078,-2.265625 1.67969,-2.265625 1.67969,-6.171875 0,-3.886719 -1.67969,-6.152344 -1.67969,-2.285156 -4.55078,-2.285156 z m 0,-3.046875 q 4.6875,0 7.36328,3.046875 2.67578,3.046875 2.67578,8.4375 0,5.371093 -2.67578,8.4375 -2.67578,3.046875 -7.36328,3.046875 -4.70703,0 -7.38282,-3.046875 -2.65625,-3.066407 -2.65625,-8.4375 0,-5.390625 2.65625,-8.4375 2.67579,-3.046875 7.38282,-3.046875 z"
         style=""
         id="path3625" />
      <path
         d="M 746.15332,16.84375 V 5.0078125 h 3.59375 V 35.398437 h -3.59375 v -3.28125 q -1.13281,1.953125 -2.87109,2.910157 -1.71875,0.9375 -4.14063,0.9375 -3.96484,0 -6.46484,-3.164063 -2.48047,-3.164062 -2.48047,-8.320312 0,-5.15625 2.48047,-8.320313 2.5,-3.164062 6.46484,-3.164062 2.42188,0 4.14063,0.957031 1.73828,0.9375 2.87109,2.890625 z m -12.24609,7.636719 q 0,3.964843 1.62109,6.230468 1.64063,2.246094 4.49219,2.246094 2.85156,0 4.49219,-2.246094 1.64062,-2.265625 1.64062,-6.230468 0,-3.964844 -1.64062,-6.210938 -1.64063,-2.265625 -4.49219,-2.265625 -2.85156,0 -4.49219,2.265625 -1.62109,2.246094 -1.62109,6.210938 z"
         style=""
         id="path3627" />
      <path
         d="m 82.989258,74.402344 q -4.355469,0 -6.035156,0.996093 -1.679688,0.996094 -1.679688,3.398438 0,1.914062 1.25,3.046875 1.269531,1.113281 3.4375,1.113281 2.988281,0 4.785156,-2.109375 1.816407,-2.128906 1.816407,-5.644531 v -0.800781 z m 7.167969,-1.484375 v 12.480468 h -3.59375 v -3.320312 q -1.230469,1.992187 -3.066407,2.949219 -1.835937,0.9375 -4.492187,0.9375 -3.359375,0 -5.351563,-1.875 -1.972656,-1.894532 -1.972656,-5.058594 0,-3.691406 2.460938,-5.566406 2.480468,-1.875 7.382812,-1.875 h 5.039063 v -0.351563 q 0,-2.480469 -1.640625,-3.828125 -1.621094,-1.367187 -4.570313,-1.367187 -1.875,0 -3.652344,0.449218 -1.777343,0.449219 -3.417968,1.347657 v -3.320313 q 1.972656,-0.761719 3.828125,-1.132812 1.855468,-0.390625 3.613281,-0.390625 4.746094,0 7.089844,2.460937 2.34375,2.460938 2.34375,7.460938 z"
         style=""
         id="path3629" />
      <path
         d="m 115.7627,72.195312 v 13.203125 h -3.59375 V 72.3125 q 0,-3.105469 -1.21094,-4.648438 -1.21094,-1.542968 -3.63281,-1.542968 -2.91016,0 -4.58985,1.855468 -1.67969,1.855469 -1.67969,5.058594 v 12.363281 h -3.613277 v -21.875 h 3.613277 v 3.398438 q 1.28907,-1.972656 3.02735,-2.949219 1.75781,-0.976562 4.04297,-0.976562 3.76953,0 5.70312,2.34375 1.9336,2.324218 1.9336,6.855468 z"
         style=""
         id="path3631" />
      <path
         d="M 137.36426,66.84375 V 55.007812 h 3.59375 v 30.390625 h -3.59375 v -3.28125 q -1.13281,1.953125 -2.8711,2.910157 -1.71875,0.9375 -4.14062,0.9375 -3.96484,0 -6.46484,-3.164063 -2.48047,-3.164062 -2.48047,-8.320312 0,-5.15625 2.48047,-8.320313 2.5,-3.164062 6.46484,-3.164062 2.42187,0 4.14062,0.957031 1.73829,0.9375 2.8711,2.890625 z m -12.2461,7.636719 q 0,3.964843 1.6211,6.230468 1.64062,2.246094 4.49219,2.246094 2.85156,0 4.49218,-2.246094 1.64063,-2.265625 1.64063,-6.230468 0,-3.964844 -1.64063,-6.210938 -1.64062,-2.265625 -4.49218,-2.265625 -2.85157,0 -4.49219,2.265625 -1.6211,2.246094 -1.6211,6.210938 z"
         style=""
         id="path3633" />
      <path
         d="m 162.28613,82.078125 h 6.44532 V 59.832031 l -7.01172,1.40625 v -3.59375 l 6.97265,-1.40625 h 3.94532 v 25.839844 h 6.44531 v 3.320312 h -16.79688 z"
         style=""
         id="path3635" />
      <path
         d="m 213.24316,64.167969 v 3.398437 q -1.52343,-0.78125 -3.16406,-1.171875 -1.64062,-0.390625 -3.39844,-0.390625 -2.67578,0 -4.02343,0.820313 -1.32813,0.820312 -1.32813,2.460937 0,1.25 0.95703,1.972656 0.95703,0.703125 3.84766,1.347657 l 1.23047,0.273437 q 3.82812,0.820313 5.42969,2.324219 1.62109,1.484375 1.62109,4.160156 0,3.046875 -2.42188,4.824219 -2.40234,1.777344 -6.62109,1.777344 -1.75781,0 -3.67187,-0.351563 -1.89454,-0.332031 -4.00391,-1.015625 v -3.710937 q 1.99219,1.035156 3.92578,1.5625 1.93359,0.507812 3.82813,0.507812 2.53906,0 3.90625,-0.859375 1.36718,-0.878906 1.36718,-2.460937 0,-1.464844 -0.99609,-2.246094 -0.97656,-0.78125 -4.31641,-1.503906 l -1.25,-0.292969 q -3.33984,-0.703125 -4.82422,-2.148438 -1.48437,-1.464843 -1.48437,-4.003906 0,-3.085937 2.1875,-4.765625 2.1875,-1.679687 6.21094,-1.679687 1.99218,0 3.75,0.292968 1.75781,0.292969 3.24218,0.878907 z"
         style=""
         id="path3637" />
      <path
         d="m 223.71191,57.3125 v 6.210937 h 7.40235 v 2.792969 h -7.40235 v 11.875 q 0,2.675781 0.72266,3.4375 0.74219,0.761719 2.98828,0.761719 h 3.69141 v 3.007812 h -3.69141 q -4.16015,0 -5.74219,-1.542968 -1.58203,-1.5625 -1.58203,-5.664063 v -11.875 h -2.63672 v -2.792969 h 2.63672 V 57.3125 Z"
         style=""
         id="path3639" />
      <path
         d="m 244.33691,66.042969 q -2.89062,0 -4.57031,2.265625 -1.67969,2.246093 -1.67969,6.171875 0,3.925781 1.66016,6.191406 1.67969,2.246094 4.58984,2.246094 2.8711,0 4.55079,-2.265625 1.67968,-2.265625 1.67968,-6.171875 0,-3.886719 -1.67968,-6.152344 -1.67969,-2.285156 -4.55079,-2.285156 z m 0,-3.046875 q 4.6875,0 7.36329,3.046875 2.67578,3.046875 2.67578,8.4375 0,5.371093 -2.67578,8.4375 -2.67579,3.046875 -7.36329,3.046875 -4.70703,0 -7.38281,-3.046875 -2.65625,-3.066407 -2.65625,-8.4375 0,-5.390625 2.65625,-8.4375 2.67578,-3.046875 7.38281,-3.046875 z"
         style=""
         id="path3641" />
      <path
         d="m 278.49707,72.195312 v 13.203125 h -3.59375 V 72.3125 q 0,-3.105469 -1.21094,-4.648438 -1.21093,-1.542968 -3.63281,-1.542968 -2.91016,0 -4.58984,1.855468 -1.67969,1.855469 -1.67969,5.058594 v 12.363281 h -3.61328 v -21.875 h 3.61328 v 3.398438 q 1.28906,-1.972656 3.02734,-2.949219 1.75782,-0.976562 4.04297,-0.976562 3.76953,0 5.70313,2.34375 1.93359,2.324218 1.93359,6.855468 z"
         style=""
         id="path3643" />
      <path
         d="m 304.41504,73.5625 v 1.757812 H 287.8916 q 0.23438,3.710938 2.22656,5.664063 2.01172,1.933594 5.58594,1.933594 2.07031,0 4.00391,-0.507813 1.95312,-0.507812 3.86719,-1.523437 v 3.398437 q -1.9336,0.820313 -3.96485,1.25 -2.03125,0.429688 -4.12109,0.429688 -5.23438,0 -8.30078,-3.046875 -3.04688,-3.046875 -3.04688,-8.242188 0,-5.371094 2.89063,-8.515625 2.91015,-3.164062 7.83203,-3.164062 4.41406,0 6.97265,2.851562 2.57813,2.832031 2.57813,7.714844 z m -3.59375,-1.054688 q -0.0391,-2.949218 -1.66016,-4.707031 -1.60156,-1.757812 -4.25781,-1.757812 -3.00781,0 -4.82422,1.699218 -1.79687,1.699219 -2.07031,4.785157 z"
         style=""
         id="path3645" />
      <path
         d="M 341.23145,72.195312 V 85.398437 H 337.6377 V 72.3125 q 0,-3.105469 -1.21094,-4.648438 -1.21094,-1.542968 -3.63281,-1.542968 -2.91016,0 -4.58985,1.855468 -1.67969,1.855469 -1.67969,5.058594 v 12.363281 h -3.61328 v -21.875 h 3.61328 v 3.398438 q 1.28907,-1.972656 3.02735,-2.949219 1.75781,-0.976562 4.04297,-0.976562 3.76953,0 5.70312,2.34375 1.9336,2.324218 1.9336,6.855468 z"
         style=""
         id="path3647" />
      <path
         d="m 367.14941,73.5625 v 1.757812 h -16.52343 q 0.23437,3.710938 2.22656,5.664063 2.01172,1.933594 5.58594,1.933594 2.07031,0 4.0039,-0.507813 1.95313,-0.507812 3.86719,-1.523437 v 3.398437 q -1.93359,0.820313 -3.96484,1.25 -2.03125,0.429688 -4.1211,0.429688 -5.23437,0 -8.30078,-3.046875 -3.04687,-3.046875 -3.04687,-8.242188 0,-5.371094 2.89062,-8.515625 2.91016,-3.164062 7.83203,-3.164062 4.41407,0 6.97266,2.851562 2.57812,2.832031 2.57812,7.714844 z m -3.59375,-1.054688 q -0.0391,-2.949218 -1.66015,-4.707031 -1.60156,-1.757812 -4.25781,-1.757812 -3.00782,0 -4.82422,1.699218 -1.79688,1.699219 -2.07032,4.785157 z"
         style=""
         id="path3649" />
      <path
         d="m 382.98926,74.402344 q -4.35547,0 -6.03516,0.996093 -1.67969,0.996094 -1.67969,3.398438 0,1.914062 1.25,3.046875 1.26954,1.113281 3.4375,1.113281 2.98829,0 4.78516,-2.109375 1.81641,-2.128906 1.81641,-5.644531 v -0.800781 z m 7.16797,-1.484375 v 12.480468 h -3.59375 v -3.320312 q -1.23047,1.992187 -3.06641,2.949219 -1.83594,0.9375 -4.49219,0.9375 -3.35937,0 -5.35156,-1.875 -1.97266,-1.894532 -1.97266,-5.058594 0,-3.691406 2.46094,-5.566406 2.48047,-1.875 7.38281,-1.875 h 5.03907 v -0.351563 q 0,-2.480469 -1.64063,-3.828125 -1.62109,-1.367187 -4.57031,-1.367187 -1.875,0 -3.65234,0.449218 -1.77735,0.449219 -3.41797,1.347657 v -3.320313 q 1.97265,-0.761719 3.82812,-1.132812 1.85547,-0.390625 3.61328,-0.390625 4.7461,0 7.08985,2.460937 2.34375,2.460938 2.34375,7.460938 z"
         style=""
         id="path3651" />
      <path
         d="m 410.25488,66.882812 q -0.60547,-0.351562 -1.32812,-0.507812 -0.70313,-0.175781 -1.5625,-0.175781 -3.04688,0 -4.6875,1.992187 -1.6211,1.972656 -1.6211,5.683594 v 11.523437 h -3.61328 v -21.875 h 3.61328 v 3.398438 q 1.13282,-1.992188 2.94922,-2.949219 1.81641,-0.976562 4.41407,-0.976562 0.37109,0 0.82031,0.05859 0.44922,0.03906 0.99609,0.136719 z"
         style=""
         id="path3653" />
      <path
         d="m 430.35254,57.3125 v 6.210937 h 7.40234 v 2.792969 h -7.40234 v 11.875 q 0,2.675781 0.72266,3.4375 0.74218,0.761719 2.98828,0.761719 h 3.6914 v 3.007812 h -3.6914 q -4.16016,0 -5.74219,-1.542968 -1.58203,-1.5625 -1.58203,-5.664063 v -11.875 h -2.63672 v -2.792969 h 2.63672 V 57.3125 Z"
         style=""
         id="path3655" />
      <path
         d="m 460.68457,72.195312 v 13.203125 h -3.59375 V 72.3125 q 0,-3.105469 -1.21094,-4.648438 -1.21093,-1.542968 -3.63281,-1.542968 -2.91016,0 -4.58984,1.855468 -1.67969,1.855469 -1.67969,5.058594 v 12.363281 h -3.61328 V 55.007812 h 3.61328 v 11.914063 q 1.28906,-1.972656 3.02734,-2.949219 1.75782,-0.976562 4.04297,-0.976562 3.76953,0 5.70313,2.34375 1.93359,2.324218 1.93359,6.855468 z"
         style=""
         id="path3657" />
      <path
         d="m 486.60254,73.5625 v 1.757812 H 470.0791 q 0.23438,3.710938 2.22656,5.664063 2.01172,1.933594 5.58594,1.933594 2.07031,0 4.00391,-0.507813 1.95312,-0.507812 3.86719,-1.523437 v 3.398437 q -1.9336,0.820313 -3.96485,1.25 -2.03125,0.429688 -4.12109,0.429688 -5.23438,0 -8.30078,-3.046875 -3.04688,-3.046875 -3.04688,-8.242188 0,-5.371094 2.89063,-8.515625 2.91015,-3.164062 7.83203,-3.164062 4.41406,0 6.97265,2.851562 2.57813,2.832031 2.57813,7.714844 z m -3.59375,-1.054688 q -0.0391,-2.949218 -1.66016,-4.707031 -1.60156,-1.757812 -4.25781,-1.757812 -3.00781,0 -4.82422,1.699218 -1.79687,1.699219 -2.07031,4.785157 z"
         style=""
         id="path3659" />
      <path
         d="m 522.91113,63.523437 v 21.875 h -3.61328 V 66.316406 h -9.86328 v 19.082031 h -3.61328 V 66.316406 h -3.4375 v -2.792969 h 3.4375 V 62 q 0,-3.574219 1.67969,-5.273438 1.69922,-1.71875 5.19531,-1.71875 h 3.61328 v 2.988282 h -3.4375 q -1.93359,0 -2.69531,0.78125 -0.74219,0.78125 -0.74219,2.8125 v 1.933593 z m -3.61328,-8.476562 h 3.61328 v 4.550781 h -3.61328 z"
         style=""
         id="path3661" />
      <path
         d="m 543.14551,66.882812 q -0.60547,-0.351562 -1.32813,-0.507812 -0.70312,-0.175781 -1.5625,-0.175781 -3.04687,0 -4.6875,1.992187 -1.62109,1.972656 -1.62109,5.683594 v 11.523437 h -3.61328 v -21.875 h 3.61328 v 3.398438 q 1.13281,-1.992188 2.94922,-2.949219 1.8164,-0.976562 4.41406,-0.976562 0.37109,0 0.82031,0.05859 0.44922,0.03906 0.9961,0.136719 z"
         style=""
         id="path3663" />
      <path
         d="m 564.80566,73.5625 v 1.757812 h -16.52343 q 0.23437,3.710938 2.22656,5.664063 2.01172,1.933594 5.58594,1.933594 2.07031,0 4.0039,-0.507813 1.95313,-0.507812 3.86719,-1.523437 v 3.398437 q -1.93359,0.820313 -3.96484,1.25 -2.03125,0.429688 -4.1211,0.429688 -5.23437,0 -8.30078,-3.046875 -3.04687,-3.046875 -3.04687,-8.242188 0,-5.371094 2.89062,-8.515625 2.91016,-3.164062 7.83203,-3.164062 4.41407,0 6.97266,2.851562 2.57812,2.832031 2.57812,7.714844 z m -3.59375,-1.054688 q -0.0391,-2.949218 -1.66015,-4.707031 -1.60156,-1.757812 -4.25781,-1.757812 -3.00782,0 -4.82422,1.699218 -1.79688,1.699219 -2.07032,4.785157 z"
         style=""
         id="path3665" />
      <path
         d="M 574.18066,82.117187 V 93.71875 h -3.61328 V 63.523437 h 3.61328 v 3.320313 q 1.13282,-1.953125 2.85157,-2.890625 1.73828,-0.957031 4.14062,-0.957031 3.98438,0 6.46485,3.164062 2.5,3.164063 2.5,8.320313 0,5.15625 -2.5,8.320312 -2.48047,3.164063 -6.46485,3.164063 -2.40234,0 -4.14062,-0.9375 -1.71875,-0.957032 -2.85157,-2.910157 z m 12.22657,-7.636718 q 0,-3.964844 -1.64063,-6.210938 -1.62109,-2.265625 -4.47265,-2.265625 -2.85157,0 -4.49219,2.265625 -1.6211,2.246094 -1.6211,6.210938 0,3.964843 1.6211,6.230468 1.64062,2.246094 4.49219,2.246094 2.85156,0 4.47265,-2.246094 1.64063,-2.265625 1.64063,-6.230468 z"
         style=""
         id="path3667" />
      <path
         d="m 596.09473,55.007812 h 3.59375 v 30.390625 h -3.59375 z"
         style=""
         id="path3669" />
      <path
         d="m 617.12988,74.402344 q -4.35547,0 -6.03515,0.996093 -1.67969,0.996094 -1.67969,3.398438 0,1.914062 1.25,3.046875 1.26953,1.113281 3.4375,1.113281 2.98828,0 4.78516,-2.109375 1.8164,-2.128906 1.8164,-5.644531 v -0.800781 z m 7.16797,-1.484375 v 12.480468 h -3.59375 v -3.320312 q -1.23047,1.992187 -3.0664,2.949219 -1.83594,0.9375 -4.49219,0.9375 -3.35938,0 -5.35156,-1.875 -1.97266,-1.894532 -1.97266,-5.058594 0,-3.691406 2.46094,-5.566406 2.48047,-1.875 7.38281,-1.875 h 5.03906 v -0.351563 q 0,-2.480469 -1.64062,-3.828125 -1.6211,-1.367187 -4.57032,-1.367187 -1.875,0 -3.65234,0.449218 -1.77734,0.449219 -3.41797,1.347657 v -3.320313 q 1.97266,-0.761719 3.82813,-1.132812 1.85547,-0.390625 3.61328,-0.390625 4.74609,0 7.08984,2.460937 2.34375,2.460938 2.34375,7.460938 z"
         style=""
         id="path3671" />
      <path
         d="m 647.46191,64.363281 v 3.359375 q -1.52343,-0.839844 -3.0664,-1.25 -1.52344,-0.429687 -3.08594,-0.429687 -3.49609,0 -5.42969,2.226562 -1.93359,2.207031 -1.93359,6.210938 0,4.003906 1.93359,6.230468 1.9336,2.207032 5.42969,2.207032 1.5625,0 3.08594,-0.410157 1.54297,-0.429687 3.0664,-1.269531 v 3.320313 q -1.5039,0.703125 -3.125,1.054687 -1.60156,0.351563 -3.41796,0.351563 -4.94141,0 -7.85157,-3.105469 -2.91015,-3.105469 -2.91015,-8.378906 0,-5.351563 2.92968,-8.417969 2.94922,-3.066406 8.06641,-3.066406 1.66016,0 3.24219,0.351562 1.58203,0.332031 3.0664,1.015625 z"
         style=""
         id="path3673" />
      <path
         d="m 672.46191,73.5625 v 1.757812 h -16.52343 q 0.23437,3.710938 2.22656,5.664063 2.01172,1.933594 5.58594,1.933594 2.07031,0 4.0039,-0.507813 1.95313,-0.507812 3.86719,-1.523437 v 3.398437 q -1.93359,0.820313 -3.96484,1.25 -2.03125,0.429688 -4.1211,0.429688 -5.23437,0 -8.30078,-3.046875 -3.04687,-3.046875 -3.04687,-8.242188 0,-5.371094 2.89062,-8.515625 2.91016,-3.164062 7.83203,-3.164062 4.41407,0 6.97266,2.851562 2.57812,2.832031 2.57812,7.714844 z m -3.59375,-1.054688 q -0.0391,-2.949218 -1.66015,-4.707031 -1.60156,-1.757812 -4.25781,-1.757812 -3.00782,0 -4.82422,1.699218 -1.79688,1.699219 -2.07032,4.785157 z"
         style=""
         id="path3675" />
      <path
         d="m 678.86816,80.4375 h 4.1211 v 4.960937 h -4.1211 z"
         style=""
         id="path3677" />
    </g>
  </g>
</svg>
