<?xml version="1.0" encoding="UTF-8" standalone="no"?>
<!-- Created with Inkscape (http://www.inkscape.org/) -->

<svg
   xmlns:dc="http://purl.org/dc/elements/1.1/"
   xmlns:cc="http://creativecommons.org/ns#"
   xmlns:rdf="http://www.w3.org/1999/02/22-rdf-syntax-ns#"
   xmlns:svg="http://www.w3.org/2000/svg"
   xmlns="http://www.w3.org/2000/svg"
   xmlns:sodipodi="http://sodipodi.sourceforge.net/DTD/sodipodi-0.dtd"
   xmlns:inkscape="http://www.inkscape.org/namespaces/inkscape"
   width="420mm"
   height="420mm"
   viewBox="0 0 420 420"
   version="1.1"
   id="svg64564"
   inkscape:export-filename="/home/matthias/bitmap.png"
   inkscape:export-xdpi="96"
   inkscape:export-ydpi="96"
   inkscape:version="0.92.5 (2060ec1f9f, 2020-04-08)"
   sodipodi:docname="crafting9.svg">
  <defs
     id="defs64558" />
  <sodipodi:namedview
     id="base"
     pagecolor="#ffffff"
     bordercolor="#666666"
     borderopacity="1.0"
     inkscape:pageopacity="0.0"
     inkscape:pageshadow="2"
     inkscape:zoom="0.38954534"
     inkscape:cx="531.92876"
     inkscape:cy="723.94655"
     inkscape:document-units="mm"
     inkscape:current-layer="layer3"
     showgrid="false"
     inkscape:window-width="1853"
     inkscape:window-height="1057"
     inkscape:window-x="1979"
     inkscape:window-y="-8"
     inkscape:window-maximized="1"
     showguides="false"
     inkscape:guide-bbox="true" />
  <metadata
     id="metadata64561">
    <rdf:RDF>
      <cc:Work
         rdf:about="">
        <dc:format>image/svg+xml</dc:format>
        <dc:type
           rdf:resource="http://purl.org/dc/dcmitype/StillImage" />
        <dc:title />
      </cc:Work>
    </rdf:RDF>
  </metadata>
  <g
     inkscape:label="Stone"
     inkscape:groupmode="layer"
     id="layer1"
     transform="translate(0,123)">
    <ellipse
       style="fill:#666666;fill-opacity:1;stroke:none;stroke-width:0.95283598;stroke-miterlimit:4;stroke-dasharray:none;stroke-opacity:1;paint-order:fill markers stroke"
       id="path836"
       cx="209.87608"
       cy="232.2585"
       rx="209.19687"
       ry="64.741516" />
  </g>
  <g
     inkscape:groupmode="layer"
     id="layer2"
     inkscape:label="Wood"
     style="display:inline">
    <path
       style="fill:#784421;fill-opacity:1;stroke:none;stroke-width:0.66499996;stroke-miterlimit:4;stroke-dasharray:none;stroke-opacity:1;paint-order:fill markers stroke"
       d="m 115.49492,331.69079 58.80087,30.47189 -8.79982,15.31079 -51.28636,-33.90823 z"
       id="rect844"
       inkscape:connector-curvature="0"
       sodipodi:nodetypes="ccccc" />
    <path
       style="fill:#800000;fill-opacity:1;stroke:none;stroke-width:0.66499996;stroke-miterlimit:4;stroke-dasharray:none;stroke-opacity:1;paint-order:fill markers stroke"
       d="m 97.649808,360.72186 109.304642,5.28302 -2.88165,23.32624 -110.265188,2.40137 z"
       id="rect840"
       inkscape:connector-curvature="0"
       sodipodi:nodetypes="ccccc" />
    <path
       style="fill:#552200;fill-opacity:1;stroke:none;stroke-width:0.66499996;stroke-miterlimit:4;stroke-dasharray:none;stroke-opacity:1;paint-order:fill markers stroke"
       d="m 168.85789,388.03951 146.04724,-56.63588 20.38451,26.89878 -159.4043,57.65828 z"
       id="rect842"
       inkscape:connector-curvature="0"
       sodipodi:nodetypes="ccccc" />
    <path
       style="fill:#502d16;fill-opacity:1;stroke:none;stroke-width:0.66499996;stroke-miterlimit:4;stroke-dasharray:none;stroke-opacity:1;paint-order:fill markers stroke"
       d="m 176.56268,326.1187 103.1977,29.33365 -10.85032,28.8946 -94.61427,-22.18427 z"
       id="rect846"
       inkscape:connector-curvature="0"
       sodipodi:nodetypes="ccccc" />
    <path
       style="fill:#784421;fill-opacity:1;stroke:none;stroke-width:0.66499996;stroke-miterlimit:4;stroke-dasharray:none;stroke-opacity:1;paint-order:fill markers stroke"
       d="m 215.22163,357.48602 58.80087,30.47189 -8.79982,15.31079 -51.28636,-33.90823 z"
       id="rect844-7"
       inkscape:connector-curvature="0"
       sodipodi:nodetypes="ccccc" />
    <path
       style="display:inline;fill:#502d16;fill-opacity:1;stroke:none;stroke-width:0.66499996;stroke-miterlimit:4;stroke-dasharray:none;stroke-opacity:1;paint-order:fill markers stroke"
       d="m 23.264515,331.51079 104.706515,-23.3832 4.22863,30.57362 -93.753529,25.57886 z"
       id="rect846-2"
       inkscape:connector-curvature="0"
       sodipodi:nodetypes="ccccc" />
    <path
       style="display:inline;fill:#800000;fill-opacity:1;stroke:none;stroke-width:0.66499996;stroke-miterlimit:4;stroke-dasharray:none;stroke-opacity:1;paint-order:fill markers stroke"
       d="m 169.10139,290.15673 105.1395,30.34964 -8.18372,22.0328 -107.84641,-23.09395 z"
       id="rect840-3"
       inkscape:connector-curvature="0"
       sodipodi:nodetypes="ccccc" />
    <path
       style="display:inline;fill:#552200;fill-opacity:1;stroke:none;stroke-width:0.52122897;stroke-miterlimit:4;stroke-dasharray:none;stroke-opacity:1;paint-order:fill markers stroke"
       d="m 285.55722,299.77622 112.46686,36.95994 -3.29969,26.68131 -120.4835,-42.9111 z"
       id="rect842-1"
       inkscape:connector-curvature="0"
       sodipodi:nodetypes="ccccc" />
    <path
       style="display:inline;fill:#784421;fill-opacity:1;stroke:none;stroke-width:0.66499996;stroke-miterlimit:4;stroke-dasharray:none;stroke-opacity:1;paint-order:fill markers stroke"
       d="m 319.27011,396.62934 48.60397,-44.98593 11.42016,13.46986 -49.28887,36.75141 z"
       id="rect844-8"
       inkscape:connector-curvature="0"
       sodipodi:nodetypes="ccccc" />
    <path
       style="display:inline;fill:#784421;fill-opacity:1;stroke:none;stroke-width:0.66499996;stroke-miterlimit:4;stroke-dasharray:none;stroke-opacity:1;paint-order:fill markers stroke"
       d="m 121.29607,320.82019 64.3326,-15.72877 3.44369,17.32046 -60.93325,8.19746 z"
       id="rect844-5"
       inkscape:connector-curvature="0"
       sodipodi:nodetypes="ccccc" />
    <path
       style="display:inline;fill:#784421;fill-opacity:1;stroke:none;stroke-width:0.66499996;stroke-miterlimit:4;stroke-dasharray:none;stroke-opacity:1;paint-order:fill markers stroke"
       d="m 256.51068,319.67865 58.80087,30.47189 -8.79982,15.31079 -51.28636,-33.90823 z"
       id="rect844-0"
       inkscape:connector-curvature="0"
       sodipodi:nodetypes="ccccc" />
    <g
       style="display:inline"
       transform="matrix(1.082169,0,0,1.082169,198.02067,-239.62261)"
       id="layer1-1"
       inkscape:label="Layer 1">
      <path
         sodipodi:nodetypes="ccccc"
         inkscape:connector-curvature="0"
         id="rect10"
         d="m 22.048582,249.38692 c 59.315981,8.43364 113.101198,0.70829 169.288178,0 l -0.70139,44.25568 c -34.28609,0.24343 -108.914117,2.89045 -168.586788,3.21737 z"
         style="fill:#800000;fill-opacity:1;stroke:none;stroke-width:1.11892545;stroke-miterlimit:4;stroke-dasharray:none" />
      <ellipse
         ry="23.736519"
         rx="21.16102"
         cy="273.12341"
         cx="22.04858"
         id="path12"
         style="fill:#550000;fill-opacity:1;stroke:none;stroke-width:1.11892545;stroke-miterlimit:4;stroke-dasharray:none" />
      <ellipse
         ry="22.11109"
         rx="8.5966616"
         cy="271.49802"
         cx="190.67548"
         id="path16"
         style="fill:#800000;fill-opacity:1;stroke:none;stroke-width:1.09271634;stroke-miterlimit:4;stroke-dasharray:none" />
      <ellipse
         ry="14.352314"
         rx="12.894997"
         cy="272.29541"
         cx="22.37923"
         id="path20"
         style="fill:#aa4400;fill-opacity:1;stroke:none;stroke-width:1.23526025;stroke-miterlimit:4;stroke-dasharray:none" />
      <path
         inkscape:connector-curvature="0"
         id="path23"
         d="m 48.666215,261.54431 c 8.728476,0 17.45695,0 26.185426,0 1.870387,0 3.740773,0 5.61116,0 0.467606,0 0.935199,0 1.402793,0 0.155868,0 0.328182,-0.0581 0.467593,0 0.197161,0.0822 0.270446,0.30803 0.467606,0.39033 0.278811,0.1164 0.656364,-0.1164 0.935187,0 0.197161,0.0822 0.270446,0.30803 0.467594,0.39034 0.139412,0.0581 0.311737,0 0.467606,0 0.623462,0 1.246924,0 1.870387,0 0.155868,0 0.311724,0 0.467593,0 0.155869,0 0.328182,-0.0582 0.467594,0 0.19716,0.0822 0.258482,0.33214 0.467593,0.39033 0.295741,0.0822 0.623475,0 0.9352,0 0.155868,0 0.311725,0 0.467593,0 0.9352,0 1.870387,0 2.805586,0 2.182112,0 4.364236,0 6.54636,0 1.246925,0 2.493844,0 3.740774,0 0.14942,0 1.33534,-0.0282 1.40279,0 0.19715,0.0822 0.25848,0.33213 0.46759,0.39033 0.29575,0.0822 0.62347,0 0.9352,0 1.09106,0 2.18212,0 3.27317,0 3.27318,0 6.54637,0 9.81954,0 1.55865,0 3.11731,0 4.67597,0 0.4676,0 0.9352,0 1.4028,0 0.15588,0 0.31173,0 0.46759,0 0.15589,0 0.32818,-0.0583 0.46761,0 0.19714,0.0822 0.27042,0.30803 0.46759,0.39033 0.13944,0.0582 0.31174,0 0.46758,0 0.46762,0 0.93521,0 1.40279,0 1.4028,0 2.80559,0 4.20838,0 0.77933,0 1.55866,0 2.33799,0 0.15589,0 0.31173,0 0.4676,0 0.15588,0 0.32818,0.0582 0.46759,0 0.19716,-0.0824 0.27045,-0.30805 0.46758,-0.39033 0.13944,-0.0583 0.31175,0 0.46762,0 0.53202,0 2.08692,0.0524 2.33797,0 0.21385,-0.0447 0.27044,-0.30805 0.46761,-0.39033 0.21025,-0.0877 1.19252,0.0877 1.40279,0 0.19715,-0.0824 0.27043,-0.30806 0.46759,-0.39033 0.17759,-0.0742 1.6928,0.0742 1.87039,0 0.19716,-0.0822 0.27044,-0.30806 0.4676,-0.39034 0.27883,-0.1164 0.65637,0.1164 0.93519,0 0.19716,-0.0822 0.27043,-0.30805 0.46761,-0.39033 0.13943,-0.0581 0.31172,0 0.46759,0 0.15588,0 0.31174,0 0.46759,0 0.31174,0 0.63946,0.0822 0.93519,0 0.20911,-0.0581 0.27043,-0.30805 0.46761,-0.39033 0.27881,-0.1164 0.65636,0.1164 0.93518,0 0.19715,-0.0824 0.27044,-0.30804 0.4676,-0.39033 0.27882,-0.1164 0.65637,0.1164 0.9352,0 0.19715,-0.0824 0.27043,-0.30804 0.46759,-0.39034 0.13944,-0.0581 0.31173,0 0.46759,0 0.33299,0 1.72378,0.0408 1.8704,0 0.20912,-0.0581 0.27044,-0.30805 0.4676,-0.39033 0.27882,-0.1164 0.65637,0.1164 0.9352,0 0.19715,-0.0824 0.29123,-0.27992 0.46759,-0.39033 0.44958,-0.28147 0.90013,-0.57086 1.40279,-0.78067 0.19506,-0.0813 0.82633,0.0908 0.9352,0 0.11017,-0.092 -0.11017,-0.29832 0,-0.39033 0.11017,-0.092 0.32817,0.0582 0.46758,0 0.19718,-0.0822 0.27044,-0.30804 0.4676,-0.39033 0.13943,-0.0581 0.32819,0.0583 0.46759,0 0.19716,-0.0822 0.27045,-0.30804 0.46761,-0.39033 0.17759,-0.0741 1.69279,0.0742 1.87038,0 0.19715,-0.0822 0.27045,-0.30803 0.4676,-0.39034 0.13943,-0.0581 0.31173,0 0.4676,0 0.4676,0 0.93519,0 1.4028,0 1.40279,0 2.80556,0 4.20835,0"
         style="fill:none;stroke:#000000;stroke-width:0.42292717px;stroke-linecap:butt;stroke-linejoin:miter;stroke-opacity:1" />
      <path
         inkscape:connector-curvature="0"
         id="path25"
         d="m 47.263424,277.5479 c 2.49385,0 4.9877,0 7.481549,0 0.467601,0 0.935197,0 1.402793,0 0.155866,0 0.311734,0 0.467595,0 0.155866,0 0.328189,-0.0581 0.467601,0 0.197153,0.0822 0.258477,0.33215 0.467596,0.39033 0.295736,0.0822 0.623462,0 0.93519,0 0.779329,0 1.558659,0 2.337988,0 0.155867,0 0.311729,0 0.467597,0 0.155866,0 0.357383,-0.0921 0.467596,0 0.110219,0.0921 -0.139421,0.33215 0,0.39034 0.07316,0.0305 2.207256,0 2.337983,0 0.779328,0 1.558657,0 2.337987,0 0.155866,0 0.311728,0 0.467596,0 0.155866,0 0.319727,-0.0411 0.467596,0 0.330643,0.092 0.604553,0.29832 0.935196,0.39033 0.14787,0.0411 0.311729,0 0.467596,0 0.155865,0 0.311727,0 0.467596,0 0.623461,0 1.246925,0 1.870386,0 0.311734,0 0.675821,-0.1443 0.935196,0 0.289992,0.16138 0.22115,0.57493 0.467596,0.78066 0.09559,0.0797 1.217391,-0.0774 1.402792,0 0.197158,0.0822 0.270439,0.30803 0.467596,0.39032 0.139403,0.0583 0.328184,-0.0581 0.467596,0 0.197161,0.0822 0.270445,0.30805 0.467606,0.39034 0.139399,0.0581 0.311725,0 0.467593,0 0.311725,0.13013 0.645198,0.22894 0.935188,0.39033 0.183404,0.10209 0.311737,0.26022 0.467606,0.39032 0.311724,0.26024 0.623462,0.52044 0.935187,0.78066 0.155868,0.13013 0.270445,0.30806 0.467593,0.39034 0.139399,0.0581 0.316381,-0.0316 0.467606,0 0.478163,0.0998 0.924606,0.29054 1.402781,0.39033 0.151213,0.0316 0.328194,-0.0581 0.467606,0 0.197148,0.0822 0.270433,0.30805 0.467593,0.39033 0.139399,0.0582 0.328182,-0.0581 0.467594,0 0.19716,0.0822 0.270445,0.30806 0.467593,0.39033 0.278824,0.1164 0.639459,-0.0822 0.9352,0 0.330634,0.0921 0.604553,0.29833 0.935187,0.39034 0.147877,0.0412 0.319742,-0.0411 0.467606,0 0.330634,0.092 0.604553,0.29834 0.935187,0.39033 0.267893,0.0745 1.191703,-0.088 1.402793,0 0.197161,0.0824 0.270445,0.30805 0.467594,0.39033 0.139411,0.0582 0.311737,0 0.467593,0 0.779331,0 1.558662,0 2.337993,0 0.623462,0 1.246924,0 1.870386,0 0.155869,0 0.328182,-0.0581 0.467594,0 0.19716,0.0822 0.258482,0.33215 0.467606,0.39033 0.295728,0.0824 0.623462,0 0.935187,0 1.091056,0 2.182124,0 3.27318,0 0.311737,0 0.623462,0 0.935199,0 0.155856,0 0.319717,-0.0411 0.467594,0 0.330634,0.0921 0.604552,0.29833 0.935185,0.39034 0.14788,0.0411 0.31174,0 0.467609,0 0.15585,0 0.31172,0 0.46759,0 0.62346,0 1.24693,0 1.87039,0 1.71452,0 3.42905,0 5.14355,0 1.24694,0 2.49386,0 3.74079,0 0.31173,0 0.62346,0 0.9352,0 0.15588,0 0.31971,0.0411 0.46759,0 0.33065,-0.0921 0.60455,-0.29832 0.9352,-0.39034 0.29572,-0.0822 0.65636,0.1164 0.93519,0 0.19716,-0.0822 0.27044,-0.30804 0.4676,-0.39033 0.13944,-0.0581 0.31173,0 0.4676,0 0.62345,0 1.24691,0 1.87037,0 0.15588,0 0.31174,0 0.46759,0 0.15589,0 0.3282,0.0582 0.46761,0 0.19715,-0.0822 0.27043,-0.30803 0.46759,-0.39033 0.13944,-0.0581 0.31174,0 0.4676,0 0.15588,0 0.31173,0 0.4676,0 0.77933,0 1.55865,0 2.33798,0 0.19842,0 1.27392,0.0359 1.4028,0 0.33064,-0.0921 0.60455,-0.29832 0.9352,-0.39033 0.14784,-0.0411 0.31173,0 0.46759,0 0.15589,0 0.31174,0 0.46761,0 0.46759,0 0.93517,0 1.40279,0 1.7145,0 3.42902,0 5.14355,0 1.87039,0 3.74076,0 5.61116,0 0.148,0 2.24589,-0.0255 2.33798,0 0.20913,0.0581 0.2585,0.33214 0.46761,0.39033 0.29574,0.0824 0.62346,0 0.93519,0 0.15588,0 0.31173,0 0.4676,0 1.24693,0 2.49385,0 3.74077,0 2.12862,0 0.0268,-0.184 1.4028,0.39033 0.13943,0.0582 0.31171,0 0.46758,0 0.31174,0 0.62346,0 0.9352,0 0.62346,0 1.24692,0 1.87038,0 0.77934,0 1.55867,0 2.338,0 0.31173,0 0.63946,-0.0822 0.9352,0 0.2091,0.0582 0.25143,0.35425 0.46759,0.39033 0.61136,0.10209 1.24692,0 1.87037,0 0.77934,0 1.55867,0 2.338,0 0.62346,0 1.24692,0 1.87038,0 0.15588,0 0.31173,0 0.4676,0 0.15588,0 0.32819,-0.0581 0.4676,0 0.19715,0.0824 0.25847,0.33215 0.4676,0.39034 0.29574,0.0824 0.62346,0 0.9352,0 0.77931,0 1.55865,0 2.33798,0 1.09104,0 2.18212,0 3.27316,0 0.15588,0 0.3574,-0.0921 0.46761,0 0.11017,0.092 -0.11017,0.29833 0,0.39033 0.088,0.0735 1.31473,-0.0735 1.40279,0 0.24646,0.20572 0.17761,0.61929 0.4676,0.78066 1.40279,0.78067 0.46759,-0.39033 1.40279,0 0.19715,0.0822 0.27044,0.30804 0.46759,0.39034 0.27883,0.1164 0.65638,-0.1164 0.9352,0 0.19715,0.0822 0.27045,0.30804 0.4676,0.39033 0.13943,0.0581 0.32818,-0.0581 0.4676,0 0.19715,0.0822 0.27043,0.30804 0.4676,0.39033 0.13943,0.0581 0.31172,0 0.46759,0 0.15588,0 0.31171,0 0.46761,0 0.31172,0 0.63944,-0.0822 0.93518,0 0.20911,0.0581 0.27044,0.30804 0.46758,0.39033 0.13944,0.0581 0.31174,0 0.46761,0 0.1984,0 1.2739,-0.0359 1.40279,0 0.33064,0.0921 0.60454,0.29832 0.93519,0.39034 0.12894,0.0359 1.20439,0 1.40279,0"
         style="fill:none;stroke:#000000;stroke-width:0.42292717px;stroke-linecap:butt;stroke-linejoin:miter;stroke-opacity:1" />
      <path
         inkscape:connector-curvature="0"
         id="path27"
         d="m 88.411953,273.64458 c 3.896642,0 7.793284,0 11.689927,0 0.77932,0 1.55865,0 2.33798,0 0.15587,0 0.31174,0 0.46759,0 0.15587,0 0.31973,-0.0411 0.46761,0 0.33063,0.092 0.59707,0.31978 0.93518,0.39033 0.30243,0.0631 0.62347,0 0.9352,0 0.77933,0 1.55864,0 2.33797,0 0.15588,0 0.31175,0 0.46761,0 0.15588,0 0.32819,-0.0581 0.46759,0 0.19716,0.0822 0.27045,0.30806 0.46759,0.39033 0.13944,0.0581 0.31174,0 0.46761,0 0.62346,0 1.24693,0 1.87039,0 0.31173,0 0.65637,-0.1164 0.9352,0 0.13943,0.0581 -0.14784,0.34919 0,0.39033 0.44359,0.12341 0.93518,0 1.40279,0 1.09106,0 2.18212,0 3.27317,0 1.05641,0 -0.20911,-0.0581 1.40279,0.39034 0.12893,0.0359 1.20438,0 1.40279,0 0.93519,0 1.87039,0 2.80559,0 0.14941,0 1.33535,-0.0282 1.40279,0 0.19715,0.0824 0.27044,0.30804 0.4676,0.39033 0.13943,0.0581 0.31173,0 0.46759,0 0.15589,0 0.31174,0 0.46761,0 0.77933,0 1.55863,0 2.33796,0 0.31173,0 0.62347,0 0.9352,0 0.15588,0 0.31972,-0.0411 0.4676,0 0.33064,0.092 0.60455,0.29832 0.9352,0.39033 0.14782,0.0411 0.31172,0 0.46759,0 0.15588,0 0.31174,0 0.46759,0 0.62347,0 1.24694,0 1.8704,0 0.30716,0 1.76043,-0.0458 1.87039,0 0.13944,0.0582 -0.11017,0.29834 0,0.39033 0.11017,0.0921 0.31174,0 0.46759,0 0.62346,0 1.24691,0 1.87038,0 0.15588,0 0.31974,-0.0412 0.4676,0 0.33064,0.0921 0.60454,0.29833 0.93519,0.39034 0.14784,0.0411 0.31174,0 0.46761,0 0.15588,0 0.31172,0 0.46759,0 0.46759,0 0.9352,0 1.40279,0 0.15588,0 0.3282,-0.0581 0.4676,0 0.19716,0.0822 0.27044,0.30803 0.4676,0.39033 0.13944,0.0581 0.31173,0 0.46759,0 0.15589,0 0.31174,0 0.4676,0 0.9352,0 1.8704,0 2.80558,0 0.46761,0 0.93519,0 1.4028,0 0.15589,0 0.31171,0 0.46758,0 0.15588,0 0.32819,-0.0581 0.4676,0 0.19715,0.0822 0.25849,0.33215 0.4676,0.39033 0.29574,0.0822 0.62346,0 0.9352,0 1.09105,0 2.18211,0 3.27318,0 2.33799,0 4.67596,0 7.01395,0 4.20838,0 8.41673,0 12.62511,0 0.46761,0 0.9352,0 1.4028,0 0.15588,0 0.35738,0.092 0.4676,0 0.96747,-0.80761 -1.47844,0.0316 0.4676,-0.78066 0.27881,-0.1164 0.65637,0.1164 0.9352,0 0.19714,-0.0822 0.31172,-0.26022 0.46758,-0.39034 0.31175,-0.26022 0.62346,-0.52044 0.93518,-0.78066 0.15588,-0.13013 0.27045,-0.30804 0.46761,-0.39033 0.13944,-0.0581 0.35739,0.0921 0.46759,0 0.11017,-0.092 -0.11017,-0.29832 0,-0.39034 0.11017,-0.092 0.3282,0.0583 0.4676,0 0.19716,-0.0822 0.25848,-0.33214 0.4676,-0.39033 0.29574,-0.0822 0.62346,0 0.93519,0 0.15588,0 0.35739,0.092 0.46761,0 0.11017,-0.0921 -0.11017,-0.29832 0,-0.39033 0.1088,-0.0908 0.74013,0.0813 0.93518,0 0.19716,-0.0822 0.27045,-0.30804 0.46761,-0.39033 0.27882,-0.1164 0.63944,0.0824 0.93519,0 0.33064,-0.0921 0.60455,-0.29832 0.9352,-0.39033 0.14783,-0.0411 0.35737,0.092 0.46759,0 0.24644,-0.20572 0.22115,-0.57494 0.4676,-0.78065 0.11017,-0.0921 0.32817,0.0581 0.4676,0 0.19715,-0.0824 0.27044,-0.30806 0.46758,-0.39035 0.21027,-0.0877 1.19254,0.0877 1.40279,0 0.19718,-0.0822 0.31173,-0.26021 0.4676,-0.39032 0.31173,0 0.63947,0.0822 0.9352,0 0.20912,-0.0583 0.27044,-0.30804 0.46759,-0.39033 0.27882,-0.1164 0.65638,0.1164 0.9352,0 0.19715,-0.0824 0.27044,-0.30805 0.46759,-0.39033 0.13944,-0.0583 0.31174,0 0.46761,0 0.15588,0 0.31172,0 0.46759,0"
         style="fill:none;stroke:#000000;stroke-width:0.42292717px;stroke-linecap:butt;stroke-linejoin:miter;stroke-opacity:1" />
      <path
         inkscape:connector-curvature="0"
         id="path29"
         d="m 172.11179,259.98298 c 1.8704,0 3.74078,0 5.61116,0 0.33299,0 1.72378,0.0408 1.87039,0 0.20912,-0.0581 0.27044,-0.30804 0.46761,-0.39033 0.13943,-0.0581 0.31172,0 0.46759,0 0.15588,0 0.31172,0 0.46759,0 0.77933,0 1.55866,0 2.338,0 0.15588,0 0.35737,0.092 0.46759,0 0.24644,-0.20571 0.22115,-0.57495 0.4676,-0.78067 0.11017,-0.092 0.31173,0 0.4676,0 0.15588,0 0.31172,0 0.46758,0 0.62346,0 1.24692,0 1.87039,0 0.31173,0 0.65637,0.1164 0.9352,0 0.13943,-0.0581 -0.11017,-0.29832 0,-0.39033 0.11017,-0.092 0.31172,0 0.46759,0 0.77933,0 1.55866,0 2.33799,0 1.09658,0 -0.22043,0.0921 0.9352,-0.39033 0.13944,-0.0581 0.31173,0 0.46759,0 0.15589,0 0.31173,0 0.4676,0 0.62346,0 1.24692,0 1.87037,0 0.46762,0 0.9592,0.1234 1.4028,0 0.14783,-0.0411 0,-0.26022 0,-0.39033"
         style="fill:none;stroke:#000000;stroke-width:0.42292717px;stroke-linecap:butt;stroke-linejoin:miter;stroke-opacity:1" />
      <path
         inkscape:connector-curvature="0"
         id="path31"
         d="m 44.457844,288.8675 c 1.558655,0 3.117314,0 4.675967,0 0.198413,0 1.273903,-0.0359 1.402792,0 0.330644,0.0921 0.597073,0.31978 0.935197,0.39034 0.302419,0.0631 0.623462,0 0.935191,0 0.779328,0 1.558658,0 2.337982,0 0.311734,0 0.639461,-0.0822 0.935197,0 0.209114,0.0583 0.258481,0.33214 0.467596,0.39033 0.295736,0.0824 0.623462,0 0.935196,0 0.155866,0 0.311729,0 0.467596,0 0.93519,0 1.870388,0 2.805577,0 0.149428,0 1.335355,-0.0282 1.402794,0 0.197156,0.0824 0.270442,0.30804 0.467596,0.39033 0.278822,0.1164 0.639459,-0.0822 0.935195,0 0.330642,0.092 0.604553,0.29834 0.935192,0.39033 0.147871,0.0411 0.32819,-0.0581 0.467599,0 0.197153,0.0824 0.27044,0.30805 0.467596,0.39034 0.139403,0.0581 0.311729,0 0.467596,0 0.688027,0 0.357385,-0.0921 0.935196,0.39033"
         style="fill:none;stroke:#000000;stroke-width:0.42292717px;stroke-linecap:butt;stroke-linejoin:miter;stroke-opacity:1" />
      <ellipse
         ry="11.815159"
         rx="10.79081"
         cy="271.69293"
         cx="22.246992"
         id="path20-6"
         style="fill:#d45500;fill-opacity:1;stroke:none;stroke-width:1.02525926;stroke-miterlimit:4;stroke-dasharray:none" />
    </g>
  </g>
  <g
     inkscape:groupmode="layer"
     id="layer3"
     inkscape:label="Fire"
     style="display:inline">
    <path
       style="fill:#ff9955;fill-opacity:1;stroke:none;stroke-width:1.15348303;stroke-miterlimit:4;stroke-dasharray:none;stroke-opacity:1;paint-order:fill markers stroke"
       d="M 159.35129,121.90956 166.08121,1.8530369 361.21806,368.00482 62.645311,375.81474 C 96.826845,265.90377 120.95345,242.93755 159.35129,121.90956 Z"
       id="rect872"
       inkscape:connector-curvature="0"
       sodipodi:nodetypes="ccccc" />
    <path
       style="fill:#ffff00;fill-opacity:1;stroke:none;stroke-width:0.92651391;stroke-miterlimit:4;stroke-dasharray:none;stroke-opacity:1;paint-order:fill markers stroke"
       d="M 173.66452,136.42885 168.49955,55.787363 335.28964,358.30241 109.75704,369.83179 Z"
       id="rect872-8"
       inkscape:connector-curvature="0"
       sodipodi:nodetypes="ccccc" />
    <g
       transform="matrix(0.69772673,0,0,0.69772673,0.30475631,-120.05865)"
       id="layer1-4"
       inkscape:label="Layer 1">
      <path
         sodipodi:nodetypes="sssss"
         inkscape:connector-curvature="0"
         id="path815"
         d="m 198.79096,285.73107 c 2.69696,13.0246 -43.36563,10.41324 -98.05148,10.41324 -54.685859,0 -99.98353168,3.00594 -99.98353168,-10.41324 0,-13.41917 46.86481468,-44.00143 99.01750768,-24.29757 38.495204,14.54391 96.674634,12.98297 99.017504,24.29757 z"
         style="fill:#666666;fill-opacity:1;stroke:none;stroke-width:0.37002736;stroke-opacity:1;paint-order:fill markers stroke" />
      <path
         sodipodi:nodetypes="sssss"
         inkscape:connector-curvature="0"
         id="path818"
         d="m 188.59617,264.31883 c -4.21853,17.87911 -31.69226,3.39622 -72.3266,-6.19138 -40.634323,-9.5876 -79.963769,-10.8922 -74.823315,-28.52837 4.545056,-15.59344 42.103135,-13.93156 81.213295,-15.01311 41.73415,-1.15412 70.15517,31.85374 65.93662,49.73286 z"
         style="fill:#666666;fill-opacity:1;stroke:none;stroke-width:0.26458332;stroke-opacity:1;paint-order:fill markers stroke" />
      <path
         sodipodi:nodetypes="sssss"
         inkscape:connector-curvature="0"
         id="path823"
         d="m 176.1369,197.97025 c 0,13.77753 -27.00819,13.60714 -63.12202,13.60714 -36.11384,0 -67.657744,0.17039 -67.657741,-13.60714 1.2e-5,-13.77753 29.276055,-24.94642 65.389881,-24.94642 36.11382,0 65.38987,11.16889 65.38988,24.94642 z"
         style="fill:#666666;fill-opacity:1;stroke:none;stroke-width:0.26458332;stroke-opacity:1;paint-order:fill markers stroke" />
    </g>
    <g
       aria-label="x6"
       transform="matrix(0.26458333,0,0,0.26458333,13.584213,-8.1505275)"
       style="font-style:normal;font-variant:normal;font-weight:normal;font-stretch:normal;font-size:192px;line-height:1.25;font-family:sans-serif;-inkscape-font-specification:'sans-serif, Normal';font-variant-ligatures:normal;font-variant-caps:normal;font-variant-numeric:normal;font-feature-settings:normal;text-align:start;letter-spacing:0px;word-spacing:0px;writing-mode:lr-tb;text-anchor:start;fill:#000000;fill-opacity:1;stroke:none"
       id="flowRoot7043">
      <path
         d="m 226.0293,417.50391 -37.96875,51.09375 39.9375,53.90625 H 207.6543 l -30.5625,-41.25 -30.5625,41.25 h -20.34375 l 40.78125,-54.9375 -37.3125,-50.0625 h 20.34375 l 27.84375,37.40625 27.84375,-37.40625 z"
         style=""
         id="path7080" />
      <path
         d="m 297.6543,444.97266 q -12.75,0 -20.25,8.71875 -7.40625,8.71875 -7.40625,23.90625 0,15.09375 7.40625,23.90625 7.5,8.71875 20.25,8.71875 12.75,0 20.15625,-8.71875 7.5,-8.8125 7.5,-23.90625 0,-15.1875 -7.5,-23.90625 -7.40625,-8.71875 -20.15625,-8.71875 z m 37.59375,-59.34375 v 17.25 q -7.125,-3.375 -14.4375,-5.15625 -7.21875,-1.78125 -14.34375,-1.78125 -18.75,0 -28.6875,12.65625 -9.84375,12.65625 -11.25,38.25 5.53125,-8.15625 13.875,-12.46875 8.34375,-4.40625 18.375,-4.40625 21.09375,0 33.28125,12.84375 12.28125,12.75 12.28125,34.78125 0,21.5625 -12.75,34.59375 -12.75,13.03125 -33.9375,13.03125 -24.28125,0 -37.125,-18.5625 -12.84375,-18.65625 -12.84375,-54 0,-33.1875 15.75,-52.875 15.75,-19.78125 42.28125,-19.78125 7.125,0 14.34375,1.40625 7.3125,1.40625 15.1875,4.21875 z"
         style=""
         id="path7082" />
    </g>
    <g
       aria-label="x6"
       transform="matrix(0.26458333,0,0,0.26458333,268.52873,-8.7947647)"
       style="font-style:normal;font-variant:normal;font-weight:normal;font-stretch:normal;font-size:192px;line-height:1.25;font-family:sans-serif;-inkscape-font-specification:'sans-serif, Normal';font-variant-ligatures:normal;font-variant-caps:normal;font-variant-numeric:normal;font-feature-settings:normal;text-align:start;letter-spacing:0px;word-spacing:0px;writing-mode:lr-tb;text-anchor:start;display:inline;fill:#000000;fill-opacity:1;stroke:none"
       id="flowRoot7043-0">
      <path
         d="m 226.0293,417.50391 -37.96875,51.09375 39.9375,53.90625 H 207.6543 l -30.5625,-41.25 -30.5625,41.25 h -20.34375 l 40.78125,-54.9375 -37.3125,-50.0625 h 20.34375 l 27.84375,37.40625 27.84375,-37.40625 z"
         style=""
         id="path7075" />
      <path
         d="m 297.6543,444.97266 q -12.75,0 -20.25,8.71875 -7.40625,8.71875 -7.40625,23.90625 0,15.09375 7.40625,23.90625 7.5,8.71875 20.25,8.71875 12.75,0 20.15625,-8.71875 7.5,-8.8125 7.5,-23.90625 0,-15.1875 -7.5,-23.90625 -7.40625,-8.71875 -20.15625,-8.71875 z m 37.59375,-59.34375 v 17.25 q -7.125,-3.375 -14.4375,-5.15625 -7.21875,-1.78125 -14.34375,-1.78125 -18.75,0 -28.6875,12.65625 -9.84375,12.65625 -11.25,38.25 5.53125,-8.15625 13.875,-12.46875 8.34375,-4.40625 18.375,-4.40625 21.09375,0 33.28125,12.84375 12.28125,12.75 12.28125,34.78125 0,21.5625 -12.75,34.59375 -12.75,13.03125 -33.9375,13.03125 -24.28125,0 -37.125,-18.5625 -12.84375,-18.65625 -12.84375,-54 0,-33.1875 15.75,-52.875 15.75,-19.78125 42.28125,-19.78125 7.125,0 14.34375,1.40625 7.3125,1.40625 15.1875,4.21875 z"
         style=""
         id="path7077" />
    </g>
  </g>
  <g
     inkscape:groupmode="layer"
     id="layer4"
     inkscape:label="Wood 1">
    <rect
       style="display:inline;fill:#00ff00;fill-opacity:1;stroke:none;stroke-width:0.20220588;stroke-miterlimit:4;stroke-dasharray:none;stroke-opacity:1"
       id="rect920"
       width="19.115694"
       height="120.99729"
       x="349.30341"
       y="297.54596" />
    <rect
       style="display:inline;fill:#00ff00;fill-opacity:1;stroke:none;stroke-width:0.20220588;stroke-miterlimit:4;stroke-dasharray:none;stroke-opacity:1"
       id="rect920-4"
       width="19.115694"
       height="120.99729"
       x="348.13593"
       y="-416.86227"
       transform="rotate(90)" />
  </g>
</svg>
