<?xml version="1.0" encoding="UTF-8" standalone="no"?>
<!-- Created with Inkscape (http://www.inkscape.org/) -->

<svg
   xmlns:osb="http://www.openswatchbook.org/uri/2009/osb"
   xmlns:dc="http://purl.org/dc/elements/1.1/"
   xmlns:cc="http://creativecommons.org/ns#"
   xmlns:rdf="http://www.w3.org/1999/02/22-rdf-syntax-ns#"
   xmlns:svg="http://www.w3.org/2000/svg"
   xmlns="http://www.w3.org/2000/svg"
   xmlns:sodipodi="http://sodipodi.sourceforge.net/DTD/sodipodi-0.dtd"
   xmlns:inkscape="http://www.inkscape.org/namespaces/inkscape"
   width="200mm"
   height="200mm"
   viewBox="0 0 200 200"
   version="1.1"
   id="svg8"
   inkscape:version="0.92.5 (2060ec1f9f, 2020-04-08)"
   sodipodi:docname="greencircle.svg">
  <defs
     id="defs2">
    <linearGradient
       id="linearGradient2279"
       osb:paint="solid">
      <stop
         style="stop-color:#cccccc;stop-opacity:1;"
         offset="0"
         id="stop2277" />
    </linearGradient>
  </defs>
  <sodipodi:namedview
     id="base"
     pagecolor="#ffffff"
     bordercolor="#666666"
     borderopacity="1.0"
     inkscape:pageopacity="0.0"
     inkscape:pageshadow="2"
     inkscape:zoom="0.98994949"
     inkscape:cx="318.17211"
     inkscape:cy="288.81172"
     inkscape:document-units="mm"
     inkscape:current-layer="layer1"
     showgrid="false"
     inkscape:window-width="1853"
     inkscape:window-height="1057"
     inkscape:window-x="1979"
     inkscape:window-y="-8"
     inkscape:window-maximized="1" />
  <metadata
     id="metadata5">
    <rdf:RDF>
      <cc:Work
         rdf:about="">
        <dc:format>image/svg+xml</dc:format>
        <dc:type
           rdf:resource="http://purl.org/dc/dcmitype/StillImage" />
        <dc:title></dc:title>
      </cc:Work>
    </rdf:RDF>
  </metadata>
  <g
     inkscape:label="Layer 1"
     inkscape:groupmode="layer"
     id="layer1"
     transform="translate(0,-97)">
    <ellipse
       style="opacity:1;fill:none;fill-opacity:1;stroke:#000000;stroke-width:1.58735561;stroke-miterlimit:4;stroke-dasharray:none;stroke-opacity:1;paint-order:fill markers stroke"
       id="path815"
       cx="100.00234"
       cy="197.04791"
       rx="99.208214"
       ry="99.211243" />
    <path
       style="opacity:0.43700005;fill:#00ff00;fill-opacity:1;stroke:#000000;stroke-width:1.14536989;stroke-miterlimit:4;stroke-dasharray:none;stroke-opacity:1"
       d="M 361.1036,749.26878 C 267.45282,744.31296 180.74066,706.01836 115.62638,640.85894 56.184602,581.37595 19.876198,506.61396 8.9152013,421.13185 6.3738968,401.31284 6.3640151,355.22397 8.8967918,335.26888 19.713786,250.04461 55.905569,175.3446 115.11879,116.02617 159.93542,71.129925 213.49481,39.26522 273.76423,21.64143 345.20282,0.75158247 421.23032,1.8605676 492.26181,24.828573 546.64877,42.414576 595.29017,71.702629 636.2385,111.5201 c 61.15375,59.46488 98.06954,132.99008 110.31183,219.70817 2.11936,15.0125 3.03916,61.86343 1.53694,78.28683 -6.99248,76.44752 -35.96088,147.19796 -84.29453,205.8752 -11.14081,13.52499 -39.41616,41.39808 -52.31637,51.5721 -32.74305,25.82347 -64.60394,44.14487 -101.05877,58.11319 -46.8308,17.94405 -101.13419,26.74277 -149.314,24.19319 z"
       id="path62"
       inkscape:connector-curvature="0"
       transform="matrix(0.26458333,0,0,0.26458333,0,97)" />
  </g>
</svg>
