<?xml version="1.0" encoding="UTF-8" standalone="no"?>
<!-- Created with Inkscape (http://www.inkscape.org/) -->

<svg
   xmlns:dc="http://purl.org/dc/elements/1.1/"
   xmlns:cc="http://creativecommons.org/ns#"
   xmlns:rdf="http://www.w3.org/1999/02/22-rdf-syntax-ns#"
   xmlns:svg="http://www.w3.org/2000/svg"
   xmlns="http://www.w3.org/2000/svg"
   xmlns:sodipodi="http://sodipodi.sourceforge.net/DTD/sodipodi-0.dtd"
   xmlns:inkscape="http://www.inkscape.org/namespaces/inkscape"
   width="210mm"
   height="297mm"
   viewBox="0 0 210 297"
   version="1.1"
   id="svg44"
   inkscape:version="0.92.5 (2060ec1f9f, 2020-04-08)"
   sodipodi:docname="icon_torch.svg">
  <defs
     id="defs38" />
  <sodipodi:namedview
     id="base"
     pagecolor="#ffffff"
     bordercolor="#666666"
     borderopacity="1.0"
     inkscape:pageopacity="0.0"
     inkscape:pageshadow="2"
     inkscape:zoom="0.35"
     inkscape:cx="353.68852"
     inkscape:cy="490.92846"
     inkscape:document-units="mm"
     inkscape:current-layer="layer1"
     showgrid="false"
     inkscape:window-width="1853"
     inkscape:window-height="1057"
     inkscape:window-x="1979"
     inkscape:window-y="-8"
     inkscape:window-maximized="1" />
  <metadata
     id="metadata41">
    <rdf:RDF>
      <cc:Work
         rdf:about="">
        <dc:format>image/svg+xml</dc:format>
        <dc:type
           rdf:resource="http://purl.org/dc/dcmitype/StillImage" />
        <dc:title></dc:title>
      </cc:Work>
    </rdf:RDF>
  </metadata>
  <g
     inkscape:label="Layer 1"
     inkscape:groupmode="layer"
     id="layer1">
    <rect
       style="fill:#800000;fill-opacity:1;stroke:none;stroke-width:0.57969582;stroke-miterlimit:4;stroke-dasharray:none"
       id="rect46"
       width="36.285713"
       height="153.45833"
       x="78.619049"
       y="135.22618" />
    <path
       style="fill:#666666;fill-opacity:1;stroke:none;stroke-width:0.69999999;stroke-miterlimit:4;stroke-dasharray:none"
       d="m 146.65475,126.15477 c 0,13.15128 -22.33779,23.8125 -49.892855,23.8125 -27.555064,0 -49.892856,-10.66122 -49.892856,-23.8125 0,-13.15128 22.337792,6.4256 49.892856,6.4256 27.555065,0 49.892855,-19.57688 49.892855,-6.4256 z"
       id="path119"
       inkscape:connector-curvature="0"
       sodipodi:nodetypes="sssss" />
    <path
       style="fill:#ff0000;fill-opacity:1;stroke:none;stroke-width:0.69999999;stroke-miterlimit:4;stroke-dasharray:none"
       d="m 74.839285,74.372028 c -7.837413,20.45384 -4.320314,42.201612 -6.803571,42.711312 -3.680774,0.7555 -16.350662,-21.140851 -6.803571,-42.711312 9.723164,-21.968278 4.099173,-42.535792 6.803571,-42.711311 3.74962,-0.243356 15.243825,20.684195 6.803571,42.711311 z"
       id="path125"
       inkscape:connector-curvature="0"
       sodipodi:nodetypes="sssss" />
    <path
       style="fill:#ff0000;fill-opacity:1;stroke:none;stroke-width:0.69999999;stroke-miterlimit:4;stroke-dasharray:none"
       d="m 100.77308,77.009409 c -7.837413,20.45384 -4.320313,42.201611 -6.80357,42.711311 -3.680774,0.7555 -16.350663,-21.140851 -6.803572,-42.711311 9.723165,-21.968282 4.099174,-42.535796 6.803572,-42.711315 3.74962,-0.243356 15.24382,20.684195 6.80357,42.711315 z"
       id="path125-8"
       inkscape:connector-curvature="0"
       sodipodi:nodetypes="sssss" />
    <path
       style="fill:#ff0000;fill-opacity:1;stroke:none;stroke-width:0.69999999;stroke-miterlimit:4;stroke-dasharray:none"
       d="m 130.25522,76.253452 c -7.83741,20.453842 -4.32031,42.201618 -6.80357,42.711308 -3.68078,0.7555 -16.35066,-21.140845 -6.80357,-42.711308 9.72316,-21.968278 4.09917,-42.535792 6.80357,-42.711311 3.74962,-0.243356 15.24382,20.684195 6.80357,42.711311 z"
       id="path125-7"
       inkscape:connector-curvature="0"
       sodipodi:nodetypes="sssss" />
  </g>
</svg>
