<?xml version="1.0" encoding="UTF-8" standalone="no"?>
<!-- Created with Inkscape (http://www.inkscape.org/) -->

<svg
   xmlns:dc="http://purl.org/dc/elements/1.1/"
   xmlns:cc="http://creativecommons.org/ns#"
   xmlns:rdf="http://www.w3.org/1999/02/22-rdf-syntax-ns#"
   xmlns:svg="http://www.w3.org/2000/svg"
   xmlns="http://www.w3.org/2000/svg"
   xmlns:sodipodi="http://sodipodi.sourceforge.net/DTD/sodipodi-0.dtd"
   xmlns:inkscape="http://www.inkscape.org/namespaces/inkscape"
   width="200mm"
   height="250mm"
   viewBox="0 0 200 250"
   version="1.1"
   id="svg8"
   inkscape:version="0.92.5 (2060ec1f9f, 2020-04-08)"
   sodipodi:docname="loosescreen.svg">
  <defs
     id="defs2" />
  <sodipodi:namedview
     id="base"
     pagecolor="#ffffff"
     bordercolor="#666666"
     borderopacity="1.0"
     inkscape:pageopacity="0.0"
     inkscape:pageshadow="2"
     inkscape:zoom="0.7"
     inkscape:cx="159.66148"
     inkscape:cy="522.88968"
     inkscape:document-units="mm"
     inkscape:current-layer="layer1"
     showgrid="false"
     inkscape:window-width="1853"
     inkscape:window-height="1057"
     inkscape:window-x="1979"
     inkscape:window-y="-8"
     inkscape:window-maximized="1" />
  <metadata
     id="metadata5">
    <rdf:RDF>
      <cc:Work
         rdf:about="">
        <dc:format>image/svg+xml</dc:format>
        <dc:type
           rdf:resource="http://purl.org/dc/dcmitype/StillImage" />
        <dc:title />
      </cc:Work>
    </rdf:RDF>
  </metadata>
  <g
     inkscape:label="Layer 1"
     inkscape:groupmode="layer"
     id="layer1"
     transform="translate(0,-47)">
    <g
       aria-label="Oh no, you died :(

But no worries, try again! Click to restart..."
       transform="matrix(0.26458333,0,0,0.26458333,0,47)"
       style="font-style:normal;font-variant:normal;font-weight:normal;font-stretch:normal;font-size:53.33333588px;line-height:1.25;font-family:sans-serif;-inkscape-font-specification:'sans-serif, Normal';font-variant-ligatures:normal;font-variant-caps:normal;font-variant-numeric:normal;font-feature-settings:normal;text-align:center;letter-spacing:0px;word-spacing:0px;writing-mode:lr-tb;text-anchor:middle;fill:#ffffff;fill-opacity:1;stroke:#000000;stroke-width:1.13385832;stroke-miterlimit:4;stroke-dasharray:none;stroke-opacity:1"
       id="flowRoot1524">
      <path
         d="m 157.04198,12.470704 q -5.72917,0 -9.11458,4.270833 -3.35938,4.270834 -3.35938,11.640626 0,7.34375 3.35938,11.614584 3.38541,4.270833 9.11458,4.270833 5.72917,0 9.0625,-4.270833 3.35938,-4.270834 3.35938,-11.614584 0,-7.369792 -3.35938,-11.640626 -3.33333,-4.270833 -9.0625,-4.270833 z m 0,-4.2708338 q 8.17709,0 13.07292,5.4947918 4.89583,5.46875 4.89583,14.687501 0,9.192709 -4.89583,14.6875 -4.89583,5.468751 -13.07292,5.468751 -8.20312,0 -13.125,-5.468751 -4.89583,-5.46875 -4.89583,-14.6875 0,-9.218751 4.89583,-14.687501 4.92188,-5.4947918 13.125,-5.4947918 z"
         style=""
         id="path1536" />
      <path
         d="m 207.27636,30.179038 v 17.604167 h -4.79167 V 30.335288 q 0,-4.140625 -1.61458,-6.197917 -1.61459,-2.057292 -4.84375,-2.057292 -3.88021,0 -6.11979,2.473959 -2.23959,2.473958 -2.23959,6.744792 v 16.484375 h -4.81771 V 7.2623701 h 4.81771 V 23.147788 q 1.71875,-2.630209 4.03646,-3.932292 2.34375,-1.302084 5.39063,-1.302084 5.02604,0 7.60416,3.125 2.57813,3.098959 2.57813,9.140626 z"
         style=""
         id="path1538" />
      <path
         d="m 258.10969,30.179038 v 17.604167 h -4.79167 V 30.335288 q 0,-4.140625 -1.61458,-6.197917 -1.61458,-2.057292 -4.84375,-2.057292 -3.88021,0 -6.11979,2.473959 -2.23959,2.473958 -2.23959,6.744792 v 16.484375 h -4.8177 V 18.616537 h 4.8177 v 4.531251 q 1.71875,-2.630209 4.03646,-3.932292 2.34375,-1.302084 5.39063,-1.302084 5.02604,0 7.60417,3.125 2.57812,3.098959 2.57812,9.140626 z"
         style=""
         id="path1540" />
      <path
         d="m 279.02115,21.975912 q -3.85416,0 -6.09375,3.020834 -2.23958,2.994792 -2.23958,8.229167 0,5.234375 2.21354,8.255209 2.23958,2.994792 6.11979,2.994792 3.82813,0 6.06771,-3.020834 2.23959,-3.020833 2.23959,-8.229167 0,-5.182292 -2.23959,-8.203125 -2.23958,-3.046876 -6.06771,-3.046876 z m 0,-4.0625 q 6.25,0 9.81771,4.0625 3.56771,4.062501 3.56771,11.250001 0,7.161459 -3.56771,11.250001 -3.56771,4.0625 -9.81771,4.0625 -6.27604,0 -9.84375,-4.0625 -3.54166,-4.088542 -3.54166,-11.250001 0,-7.1875 3.54166,-11.250001 3.56771,-4.0625 9.84375,-4.0625 z"
         style=""
         id="path1542" />
      <path
         d="m 301.5472,41.168622 h 5.49479 v 4.479167 l -4.27083,8.333333 h -3.35938 l 2.13542,-8.333333 z"
         style=""
         id="path1544" />
      <path
         d="m 346.41699,50.491539 q -2.03125,5.208333 -3.95834,6.796875 -1.92708,1.588542 -5.15625,1.588542 h -3.82812 v -4.010417 h 2.8125 q 1.97916,0 3.07291,-0.9375 1.09375,-0.9375 2.42188,-4.427084 l 0.85937,-2.1875 -11.79687,-28.697918 h 5.07812 l 9.11459,22.812501 9.11458,-22.812501 h 5.07813 z"
         style=""
         id="path1546" />
      <path
         d="m 377.14615,21.975912 q -3.85416,0 -6.09375,3.020834 -2.23958,2.994792 -2.23958,8.229167 0,5.234375 2.21354,8.255209 2.23958,2.994792 6.11979,2.994792 3.82813,0 6.06771,-3.020834 2.23959,-3.020833 2.23959,-8.229167 0,-5.182292 -2.23959,-8.203125 -2.23958,-3.046876 -6.06771,-3.046876 z m 0,-4.0625 q 6.25,0 9.81771,4.0625 3.56771,4.062501 3.56771,11.250001 0,7.161459 -3.56771,11.250001 -3.56771,4.0625 -9.81771,4.0625 -6.27604,0 -9.84375,-4.0625 -3.54166,-4.088542 -3.54166,-11.250001 0,-7.1875 3.54166,-11.250001 3.56771,-4.0625 9.84375,-4.0625 z"
         style=""
         id="path1548" />
      <path
         d="M 397.95345,36.272788 V 18.616537 h 4.79167 v 17.473959 q 0,4.140626 1.61458,6.223959 1.61458,2.057292 4.84375,2.057292 3.88021,0 6.11979,-2.473959 2.26563,-2.473958 2.26563,-6.744792 V 18.616537 h 4.79166 v 29.166668 h -4.79166 v -4.479167 q -1.74479,2.656251 -4.0625,3.958334 -2.29167,1.276042 -5.33855,1.276042 -5.02604,0 -7.6302,-3.125 -2.60417,-3.125001 -2.60417,-9.140626 z m 12.05729,-18.359376 z"
         style=""
         id="path1550" />
      <path
         d="M 468.47429,23.043621 V 7.2623701 h 4.79167 V 47.783205 h -4.79167 v -4.375 q -1.51041,2.604167 -3.82812,3.880209 -2.29167,1.25 -5.52083,1.25 -5.28646,0 -8.6198,-4.21875 -3.30729,-4.218751 -3.30729,-11.093751 0,-6.875 3.30729,-11.093751 3.33334,-4.21875 8.6198,-4.21875 3.22916,0 5.52083,1.276042 2.31771,1.25 3.82812,3.854167 z m -16.32812,10.182292 q 0,5.286459 2.16146,8.307292 2.1875,2.994792 5.98958,2.994792 3.80208,0 5.98958,-2.994792 2.1875,-3.020833 2.1875,-8.307292 0,-5.286459 -2.1875,-8.28125 -2.1875,-3.020834 -5.98958,-3.020834 -3.80208,0 -5.98958,3.020834 -2.16146,2.994791 -2.16146,8.28125 z"
         style=""
         id="path1552" />
      <path
         d="m 483.13574,18.616537 h 4.79167 v 29.166668 h -4.79167 z m 0,-11.3541669 h 4.79167 v 6.0677089 h -4.79167 z"
         style=""
         id="path1554" />
      <path
         d="m 522.87535,32.001955 v 2.34375 h -22.03126 q 0.31251,4.947917 2.96876,7.552083 2.68229,2.578126 7.44791,2.578126 2.76042,0 5.33854,-0.677084 2.60417,-0.677083 5.15625,-2.03125 v 4.53125 q -2.57812,1.09375 -5.28645,1.666667 -2.70834,0.572917 -5.4948,0.572917 -6.97916,0 -11.06771,-4.0625 -4.0625,-4.062501 -4.0625,-10.989584 0,-7.161459 3.85417,-11.354168 3.88021,-4.21875 10.44271,-4.21875 5.88542,0 9.29688,3.802084 3.4375,3.776042 3.4375,10.286459 z m -4.79167,-1.40625 q -0.0521,-3.932292 -2.21354,-6.276042 -2.13542,-2.343751 -5.67709,-2.343751 -4.01041,0 -6.43229,2.265626 -2.39583,2.265625 -2.76042,6.380208 z"
         style=""
         id="path1556" />
      <path
         d="M 549.93264,23.043621 V 7.2623701 h 4.79166 V 47.783205 h -4.79166 v -4.375 q -1.51042,2.604167 -3.82813,3.880209 -2.29166,1.25 -5.52083,1.25 -5.28646,0 -8.61979,-4.21875 -3.3073,-4.218751 -3.3073,-11.093751 0,-6.875 3.3073,-11.093751 3.33333,-4.21875 8.61979,-4.21875 3.22917,0 5.52083,1.276042 2.31771,1.25 3.82813,3.854167 z m -16.32813,10.182292 q 0,5.286459 2.16146,8.307292 2.1875,2.994792 5.98958,2.994792 3.80209,0 5.98959,-2.994792 2.1875,-3.020833 2.1875,-8.307292 0,-5.286459 -2.1875,-8.28125 -2.1875,-3.020834 -5.98959,-3.020834 -3.80208,0 -5.98958,3.020834 -2.16146,2.994791 -2.16146,8.28125 z"
         style=""
         id="path1558" />
      <path
         d="m 582.7972,41.168622 h 5.49479 v 6.614583 h -5.49479 z m 0,-20.963543 h 5.49479 v 6.614584 h -5.49479 z"
         style=""
         id="path1560" />
      <path
         d="m 611.1045,7.3144534 q -3.48958,5.9895836 -5.18229,11.8489586 -1.69271,5.859376 -1.69271,11.875001 0,6.015625 1.69271,11.927084 1.71875,5.885417 5.18229,11.848959 h -4.16666 q -3.90626,-6.119792 -5.85938,-12.031251 -1.92708,-5.911458 -1.92708,-11.744792 0,-5.807292 1.92708,-11.692709 1.92708,-5.885417 5.85938,-12.0312506 z"
         style=""
         id="path1562" />
      <path
         d="m 45.635726,162.54884 v 14.24479 h 8.437501 q 4.244792,0 6.276042,-1.74479 2.057292,-1.77083 2.057292,-5.39062 0,-3.64584 -2.057292,-5.36459 -2.03125,-1.74479 -6.276042,-1.74479 z m 0,-15.98958 v 11.71875 h 7.786459 q 3.854167,0 5.729167,-1.4323 1.901042,-1.45833 1.901042,-4.42708 0,-2.94271 -1.901042,-4.40104 -1.875,-1.45833 -5.729167,-1.45833 z m -5.260416,-4.32292 h 13.4375 q 6.015625,0 9.270834,2.5 3.255208,2.5 3.255208,7.10937 0,3.56771 -1.666666,5.67709 -1.666667,2.10937 -4.895834,2.63021 3.880209,0.83333 6.015625,3.48958 2.161459,2.63021 2.161459,6.58854 0,5.20834 -3.541667,8.04688 -3.541667,2.83854 -10.078125,2.83854 H 40.37531 Z"
         style=""
         id="path1564" />
      <path
         d="m 76.234684,169.60613 v -17.65625 h 4.791667 v 17.47396 q 0,4.14063 1.614584,6.22396 1.614583,2.05729 4.84375,2.05729 3.880209,0 6.119792,-2.47396 2.265625,-2.47396 2.265625,-6.74479 v -16.53646 h 4.791668 v 29.16667 h -4.791668 v -4.47917 q -1.744792,2.65625 -4.0625,3.95834 -2.291667,1.27604 -5.338542,1.27604 -5.026042,0 -7.630209,-3.125 -2.604167,-3.125 -2.604167,-9.14063 z m 12.057293,-18.35937 z"
         style=""
         id="path1566" />
      <path
         d="m 115.32323,143.66863 v 8.28125 h 9.86979 v 3.72396 h -9.86979 v 15.83333 q 0,3.56771 0.96354,4.58334 0.98959,1.01562 3.98438,1.01562 h 4.92187 v 4.01042 h -4.92187 q -5.54688,0 -7.65625,-2.05729 -2.10938,-2.08334 -2.10938,-7.55209 v -15.83333 h -3.51562 v -3.72396 h 3.51562 v -8.28125 z"
         style=""
         id="path1568" />
      <path
         d="m 172.7451,163.51238 v 17.60417 h -4.79166 v -17.44792 q 0,-4.14062 -1.61459,-6.19792 -1.61458,-2.05729 -4.84375,-2.05729 -3.8802,0 -6.11979,2.47396 -2.23958,2.47396 -2.23958,6.74479 v 16.48438 h -4.81771 v -29.16667 h 4.81771 v 4.53125 q 1.71875,-2.63021 4.03646,-3.93229 2.34375,-1.30208 5.39062,-1.30208 5.02604,0 7.60417,3.125 2.57812,3.09895 2.57812,9.14062 z"
         style=""
         id="path1570" />
      <path
         d="m 193.65656,155.30926 q -3.85417,0 -6.09375,3.02083 -2.23958,2.99479 -2.23958,8.22917 0,5.23437 2.21354,8.25521 2.23958,2.99479 6.11979,2.99479 3.82813,0 6.06771,-3.02084 2.23958,-3.02083 2.23958,-8.22916 0,-5.1823 -2.23958,-8.20313 -2.23958,-3.04687 -6.06771,-3.04687 z m 0,-4.0625 q 6.25,0 9.81771,4.0625 3.56771,4.0625 3.56771,11.25 0,7.16146 -3.56771,11.25 -3.56771,4.0625 -9.81771,4.0625 -6.27604,0 -9.84375,-4.0625 -3.54167,-4.08854 -3.54167,-11.25 0,-7.1875 3.54167,-11.25 3.56771,-4.0625 9.84375,-4.0625 z"
         style=""
         id="path1572" />
      <path
         d="m 229.15136,151.94988 h 4.79167 l 5.98958,22.76042 5.96354,-22.76042 h 5.65105 l 5.98958,22.76042 5.96354,-22.76042 h 4.79167 l -7.63021,29.16667 h -5.65104 l -6.27604,-23.90625 -6.30209,23.90625 h -5.65104 z"
         style=""
         id="path1574" />
      <path
         d="m 286.88573,155.30926 q -3.85417,0 -6.09375,3.02083 -2.23958,2.99479 -2.23958,8.22917 0,5.23437 2.21354,8.25521 2.23958,2.99479 6.11979,2.99479 3.82813,0 6.06771,-3.02084 2.23958,-3.02083 2.23958,-8.22916 0,-5.1823 -2.23958,-8.20313 -2.23958,-3.04687 -6.06771,-3.04687 z m 0,-4.0625 q 6.25,0 9.81771,4.0625 3.56771,4.0625 3.56771,11.25 0,7.16146 -3.56771,11.25 -3.56771,4.0625 -9.81771,4.0625 -6.27604,0 -9.84375,-4.0625 -3.54167,-4.08854 -3.54167,-11.25 0,-7.1875 3.54167,-11.25 3.56771,-4.0625 9.84375,-4.0625 z"
         style=""
         id="path1576" />
      <path
         d="m 325.08886,156.42905 q -0.80729,-0.46875 -1.77083,-0.67709 -0.9375,-0.23437 -2.08333,-0.23437 -4.0625,0 -6.25,2.65625 -2.16146,2.63021 -2.16146,7.57812 v 15.36459 h -4.81771 v -29.16667 h 4.81771 v 4.53125 q 1.51041,-2.65625 3.93229,-3.93229 2.42187,-1.30208 5.88542,-1.30208 0.49479,0 1.09375,0.0781 0.59895,0.0521 1.32812,0.18229 z"
         style=""
         id="path1578" />
      <path
         d="m 346.13052,156.42905 q -0.80729,-0.46875 -1.77083,-0.67709 -0.9375,-0.23437 -2.08334,-0.23437 -4.0625,0 -6.25,2.65625 -2.16146,2.63021 -2.16146,7.57812 v 15.36459 h -4.81771 v -29.16667 h 4.81771 v 4.53125 q 1.51042,-2.65625 3.93229,-3.93229 2.42188,-1.30208 5.88542,-1.30208 0.49479,0 1.09375,0.0781 0.59896,0.0521 1.32813,0.18229 z"
         style=""
         id="path1580" />
      <path
         d="m 351.20866,151.94988 h 4.79167 v 29.16667 h -4.79167 z m 0,-11.35417 h 4.79167 v 6.06771 h -4.79167 z"
         style=""
         id="path1582" />
      <path
         d="m 390.94824,165.3353 v 2.34375 h -22.03125 q 0.3125,4.94792 2.96875,7.55208 2.68229,2.57813 7.44791,2.57813 2.76042,0 5.33855,-0.67709 2.60416,-0.67708 5.15625,-2.03125 v 4.53125 q -2.57813,1.09375 -5.28646,1.66667 -2.70834,0.57292 -5.49479,0.57292 -6.97917,0 -11.06771,-4.0625 -4.0625,-4.0625 -4.0625,-10.98959 0,-7.16146 3.85416,-11.35416 3.88021,-4.21875 10.44271,-4.21875 5.88542,0 9.29688,3.80208 3.4375,3.77604 3.4375,10.28646 z m -4.79167,-1.40625 q -0.0521,-3.93229 -2.21354,-6.27604 -2.13542,-2.34375 -5.67708,-2.34375 -4.01042,0 -6.4323,2.26562 -2.39583,2.26563 -2.76041,6.38021 z"
         style=""
         id="path1584" />
      <path
         d="m 417.40657,152.80926 v 4.53125 q -2.03125,-1.04167 -4.21875,-1.5625 -2.1875,-0.52084 -4.53125,-0.52084 -3.56771,0 -5.36458,1.09375 -1.77084,1.09375 -1.77084,3.28125 0,1.66667 1.27604,2.63021 1.27605,0.9375 5.13021,1.79688 l 1.64063,0.36458 q 5.10417,1.09375 7.23958,3.09896 2.16146,1.97916 2.16146,5.54687 0,4.0625 -3.22917,6.4323 -3.20312,2.36979 -8.82812,2.36979 -2.34375,0 -4.89584,-0.46875 -2.52604,-0.44271 -5.33854,-1.35417 v -4.94792 q 2.65625,1.38021 5.23438,2.08334 2.57812,0.67708 5.10417,0.67708 3.38541,0 5.20833,-1.14583 1.82292,-1.17188 1.82292,-3.28125 0,-1.95313 -1.32813,-2.99479 -1.30208,-1.04167 -5.75521,-2.00521 l -1.66666,-0.39063 q -4.45313,-0.9375 -6.4323,-2.86458 -1.97916,-1.95313 -1.97916,-5.33854 0,-4.11459 2.91666,-6.35417 2.91667,-2.23958 8.28125,-2.23958 2.65625,0 5,0.39062 2.34375,0.39063 4.32292,1.17188 z"
         style=""
         id="path1586" />
      <path
         d="m 427.84928,174.50197 h 5.49479 v 4.47916 l -4.27083,8.33334 h -3.35938 l 2.13542,-8.33334 z"
         style=""
         id="path1588" />
      <path
         d="m 465.32325,143.66863 v 8.28125 h 9.86979 v 3.72396 h -9.86979 v 15.83333 q 0,3.56771 0.96354,4.58334 0.98958,1.01562 3.98437,1.01562 h 4.92188 v 4.01042 h -4.92188 q -5.54687,0 -7.65625,-2.05729 -2.10937,-2.08334 -2.10937,-7.55209 v -15.83333 h -3.51563 v -3.72396 h 3.51563 v -8.28125 z"
         style=""
         id="path1590" />
      <path
         d="m 498.42221,156.42905 q -0.8073,-0.46875 -1.77084,-0.67709 -0.9375,-0.23437 -2.08333,-0.23437 -4.0625,0 -6.25,2.65625 -2.16146,2.63021 -2.16146,7.57812 v 15.36459 h -4.81771 v -29.16667 h 4.81771 v 4.53125 q 1.51042,-2.65625 3.93229,-3.93229 2.42188,-1.30208 5.88542,-1.30208 0.49479,0 1.09375,0.0781 0.59896,0.0521 1.32812,0.18229 z"
         style=""
         id="path1592" />
      <path
         d="m 515.63574,183.82488 q -2.03125,5.20834 -3.95834,6.79688 -1.92708,1.58854 -5.15625,1.58854 h -3.82812 v -4.01042 h 2.8125 q 1.97916,0 3.07291,-0.9375 1.09375,-0.9375 2.42188,-4.42708 l 0.85938,-2.1875 -11.79688,-28.69792 h 5.07812 l 9.11459,22.8125 9.11458,-22.8125 h 5.07813 z"
         style=""
         id="path1594" />
      <path
         d="m 565.29722,166.45509 q -5.8073,0 -8.04688,1.32812 -2.23958,1.32813 -2.23958,4.53126 0,2.55208 1.66666,4.0625 1.69271,1.48437 4.58334,1.48437 3.98437,0 6.38021,-2.8125 2.42187,-2.83854 2.42187,-7.52604 v -1.06771 z m 9.55729,-1.97917 v 16.64063 h -4.79167 v -4.42708 q -1.64062,2.65625 -4.08854,3.93229 -2.44792,1.25 -5.98958,1.25 -4.47917,0 -7.13542,-2.5 -2.63021,-2.52604 -2.63021,-6.74479 0,-4.92188 3.28125,-7.42188 3.30729,-2.5 9.84375,-2.5 h 6.71875 v -0.46875 q 0,-3.30729 -2.1875,-5.10417 -2.16146,-1.82291 -6.09375,-1.82291 -2.5,0 -4.86979,0.59895 -2.36979,0.59896 -4.55729,1.79688 v -4.42708 q 2.63021,-1.01563 5.10416,-1.51042 2.47396,-0.52083 4.81771,-0.52083 6.32813,0 9.45313,3.28125 3.125,3.28125 3.125,9.94791 z"
         style=""
         id="path1596" />
      <path
         d="m 603.94306,166.19467 q 0,-5.20833 -2.16146,-8.07291 -2.13542,-2.86459 -6.01562,-2.86459 -3.85417,0 -6.01563,2.86459 -2.13542,2.86458 -2.13542,8.07291 0,5.1823 2.13542,8.04688 2.16146,2.86458 6.01563,2.86458 3.8802,0 6.01562,-2.86458 2.16146,-2.86458 2.16146,-8.04688 z m 4.79167,11.30209 q 0,7.44791 -3.3073,11.06771 -3.30729,3.64583 -10.1302,3.64583 -2.52605,0 -4.76563,-0.39063 -2.23958,-0.36458 -4.34896,-1.14583 v -4.66146 q 2.10938,1.14584 4.16667,1.69271 2.05729,0.54688 4.19271,0.54688 4.71354,0 7.05729,-2.47396 2.34375,-2.44792 2.34375,-7.42188 v -2.36979 q -1.48438,2.57813 -3.80208,3.85417 -2.31771,1.27604 -5.54688,1.27604 -5.36458,0 -8.64583,-4.08854 -3.28125,-4.08854 -3.28125,-10.83334 0,-6.77083 3.28125,-10.85937 3.28125,-4.08854 8.64583,-4.08854 3.22917,0 5.54688,1.27604 2.3177,1.27604 3.80208,3.85416 v -4.42708 h 4.79167 z"
         style=""
         id="path1598" />
      <path
         d="m 631.85969,166.45509 q -5.8073,0 -8.04688,1.32812 -2.23958,1.32813 -2.23958,4.53126 0,2.55208 1.66666,4.0625 1.69271,1.48437 4.58334,1.48437 3.98437,0 6.38021,-2.8125 2.42187,-2.83854 2.42187,-7.52604 v -1.06771 z m 9.55729,-1.97917 v 16.64063 h -4.79167 v -4.42708 q -1.64062,2.65625 -4.08854,3.93229 -2.44792,1.25 -5.98959,1.25 -4.47916,0 -7.13541,-2.5 -2.63021,-2.52604 -2.63021,-6.74479 0,-4.92188 3.28125,-7.42188 3.30729,-2.5 9.84375,-2.5 h 6.71875 v -0.46875 q 0,-3.30729 -2.1875,-5.10417 -2.16146,-1.82291 -6.09375,-1.82291 -2.5,0 -4.86979,0.59895 -2.36979,0.59896 -4.55729,1.79688 v -4.42708 q 2.6302,-1.01563 5.10416,-1.51042 2.47396,-0.52083 4.81771,-0.52083 6.32813,0 9.45313,3.28125 3.125,3.28125 3.125,9.94791 z"
         style=""
         id="path1600" />
      <path
         d="m 651.31285,151.94988 h 4.79167 v 29.16667 h -4.79167 z m 0,-11.35417 h 4.79167 v 6.06771 h -4.79167 z"
         style=""
         id="path1602" />
      <path
         d="m 690.34933,163.51238 v 17.60417 h -4.79167 v -17.44792 q 0,-4.14062 -1.61458,-6.19792 -1.61458,-2.05729 -4.84375,-2.05729 -3.88021,0 -6.11979,2.47396 -2.23959,2.47396 -2.23959,6.74479 v 16.48438 h -4.8177 v -29.16667 h 4.8177 v 4.53125 q 1.71875,-2.63021 4.03646,-3.93229 2.34375,-1.30208 5.39063,-1.30208 5.02604,0 7.60416,3.125 2.57813,3.09895 2.57813,9.14062 z"
         style=""
         id="path1604" />
      <path
         d="m 702.9795,174.50197 h 5.28646 v 6.61458 h -5.28646 z m 0,-32.26563 h 5.28646 v 17.05729 l -0.52084,9.29688 h -4.21875 l -0.54687,-9.29688 z"
         style=""
         id="path1606" />
      <path
         d="m 188.2399,211.8978 v 5.54688 q -2.65625,-2.47396 -5.67708,-3.69792 -2.9948,-1.22396 -6.38021,-1.22396 -6.66667,0 -10.20834,4.08854 -3.54166,4.0625 -3.54166,11.77084 0,7.68229 3.54166,11.77083 3.54167,4.0625 10.20834,4.0625 3.38541,0 6.38021,-1.22396 3.02083,-1.22395 5.67708,-3.69791 v 5.49479 q -2.76042,1.875 -5.85938,2.8125 -3.07291,0.9375 -6.51041,0.9375 -8.82813,0 -13.90625,-5.39063 -5.07813,-5.41666 -5.07813,-14.76562 0,-9.375 5.07813,-14.76563 5.07812,-5.41666 13.90625,-5.41666 3.48958,0 6.5625,0.9375 3.09896,0.91145 5.80729,2.76041 z"
         style=""
         id="path1608" />
      <path
         d="m 196.20865,207.26239 h 4.79167 v 40.52083 h -4.79167 z"
         style=""
         id="path1610" />
      <path
         d="m 211.00032,218.61655 h 4.79166 v 29.16667 h -4.79166 z m 0,-11.35416 h 4.79166 v 6.0677 h -4.79166 z"
         style=""
         id="path1612" />
      <path
         d="m 246.78157,219.73634 v 4.47917 q -2.03125,-1.11979 -4.08855,-1.66667 -2.03125,-0.57291 -4.11458,-0.57291 -4.66146,0 -7.23958,2.96875 -2.57813,2.94271 -2.57813,8.28125 0,5.33854 2.57813,8.30729 2.57812,2.94271 7.23958,2.94271 2.08333,0 4.11458,-0.54688 2.0573,-0.57291 4.08855,-1.6927 v 4.42708 q -2.00521,0.9375 -4.16667,1.40625 -2.13542,0.46875 -4.55729,0.46875 -6.58854,0 -10.46875,-4.14063 -3.88021,-4.14062 -3.88021,-11.17187 0,-7.13542 3.90625,-11.22396 3.93229,-4.08854 10.75521,-4.08854 2.21354,0 4.32291,0.46875 2.10938,0.44271 4.08855,1.35416 z"
         style=""
         id="path1614" />
      <path
         d="m 254.98469,207.26239 h 4.81771 v 23.93229 l 14.29687,-12.57813 h 6.1198 l -15.46875,13.64584 16.11979,15.52083 h -6.25 L 259.8024,233.53843 v 14.24479 h -4.81771 z"
         style=""
         id="path1616" />
      <path
         d="m 307.82324,210.3353 v 8.28125 h 9.86979 v 3.72396 h -9.86979 v 15.83334 q 0,3.5677 0.96354,4.58333 0.98958,1.01562 3.98437,1.01562 h 4.92188 v 4.01042 h -4.92188 q -5.54687,0 -7.65625,-2.05729 -2.10937,-2.08333 -2.10937,-7.55208 v -15.83334 h -3.51563 v -3.72396 h 3.51563 v -8.28125 z"
         style=""
         id="path1618" />
      <path
         d="m 335.32324,221.97593 q -3.85417,0 -6.09375,3.02083 -2.23959,2.99479 -2.23959,8.22917 0,5.23437 2.21355,8.25521 2.23958,2.99479 6.11979,2.99479 3.82812,0 6.06771,-3.02083 2.23958,-3.02084 2.23958,-8.22917 0,-5.18229 -2.23958,-8.20313 -2.23959,-3.04687 -6.06771,-3.04687 z m 0,-4.0625 q 6.25,0 9.81771,4.0625 3.5677,4.0625 3.5677,11.25 0,7.16146 -3.5677,11.25 -3.56771,4.0625 -9.81771,4.0625 -6.27604,0 -9.84375,-4.0625 -3.54167,-4.08854 -3.54167,-11.25 0,-7.1875 3.54167,-11.25 3.56771,-4.0625 9.84375,-4.0625 z"
         style=""
         id="path1620" />
      <path
         d="m 390.50554,223.09572 q -0.80729,-0.46875 -1.77083,-0.67708 -0.9375,-0.23438 -2.08334,-0.23438 -4.0625,0 -6.25,2.65625 -2.16146,2.63021 -2.16146,7.57813 v 15.36458 h -4.8177 v -29.16667 h 4.8177 v 4.53125 q 1.51042,-2.65625 3.9323,-3.93229 2.42187,-1.30208 5.88541,-1.30208 0.49479,0 1.09375,0.0781 0.59896,0.0521 1.32813,0.18229 z"
         style=""
         id="path1622" />
      <path
         d="m 419.38574,232.00197 v 2.34375 h -22.03125 q 0.3125,4.94792 2.96875,7.55208 2.68229,2.57813 7.44792,2.57813 2.76042,0 5.33854,-0.67708 2.60417,-0.67709 5.15625,-2.03125 v 4.53125 q -2.57812,1.09375 -5.28646,1.66666 -2.70833,0.57292 -5.49479,0.57292 -6.97917,0 -11.06771,-4.0625 -4.0625,-4.0625 -4.0625,-10.98959 0,-7.16145 3.85417,-11.35416 3.88021,-4.21875 10.44271,-4.21875 5.88541,0 9.29687,3.80208 3.4375,3.77604 3.4375,10.28646 z m -4.79166,-1.40625 q -0.0521,-3.93229 -2.21355,-6.27604 -2.13541,-2.34375 -5.67708,-2.34375 -4.01042,0 -6.43229,2.26562 -2.39583,2.26563 -2.76042,6.38021 z"
         style=""
         id="path1624" />
      <path
         d="m 445.84408,219.47593 v 4.53125 q -2.03125,-1.04167 -4.21875,-1.5625 -2.1875,-0.52084 -4.53125,-0.52084 -3.56771,0 -5.36459,1.09375 -1.77083,1.09375 -1.77083,3.28125 0,1.66667 1.27604,2.63021 1.27604,0.9375 5.13021,1.79688 l 1.64062,0.36458 q 5.10417,1.09375 7.23959,3.09896 2.16146,1.97917 2.16146,5.54688 0,4.0625 -3.22917,6.43229 -3.20313,2.36979 -8.82813,2.36979 -2.34375,0 -4.89583,-0.46875 -2.52604,-0.44271 -5.33854,-1.35417 v -4.94791 q 2.65625,1.3802 5.23437,2.08333 2.57813,0.67708 5.10417,0.67708 3.38542,0 5.20833,-1.14583 1.82292,-1.17188 1.82292,-3.28125 0,-1.95313 -1.32812,-2.99479 -1.30209,-1.04167 -5.75521,-2.00521 l -1.66667,-0.39063 q -4.45312,-0.9375 -6.43229,-2.86458 -1.97917,-1.95313 -1.97917,-5.33854 0,-4.11459 2.91667,-6.35417 2.91667,-2.23958 8.28125,-2.23958 2.65625,0 5,0.39062 2.34375,0.39063 4.32292,1.17188 z"
         style=""
         id="path1626" />
      <path
         d="m 459.80241,210.3353 v 8.28125 h 9.86979 v 3.72396 h -9.86979 v 15.83334 q 0,3.5677 0.96354,4.58333 0.98958,1.01562 3.98438,1.01562 h 4.92187 v 4.01042 h -4.92187 q -5.54688,0 -7.65625,-2.05729 -2.10938,-2.08333 -2.10938,-7.55208 v -15.83334 h -3.51562 v -3.72396 h 3.51562 v -8.28125 z"
         style=""
         id="path1628" />
      <path
         d="m 489.25553,233.12176 q -5.80729,0 -8.04687,1.32813 -2.23958,1.32812 -2.23958,4.53125 0,2.55208 1.66666,4.0625 1.69271,1.48437 4.58334,1.48437 3.98437,0 6.3802,-2.8125 2.42188,-2.83854 2.42188,-7.52604 v -1.06771 z m 9.5573,-1.97917 v 16.64063 h -4.79167 v -4.42708 q -1.64063,2.65625 -4.08854,3.93229 -2.44792,1.25 -5.98959,1.25 -4.47916,0 -7.13541,-2.5 -2.63021,-2.52604 -2.63021,-6.74479 0,-4.92188 3.28125,-7.42188 3.30729,-2.5 9.84375,-2.5 h 6.71875 v -0.46875 q 0,-3.30729 -2.1875,-5.10417 -2.16146,-1.82291 -6.09375,-1.82291 -2.5,0 -4.86979,0.59896 -2.36979,0.59895 -4.55729,1.79687 v -4.42708 q 2.6302,-1.01563 5.10416,-1.51042 2.47396,-0.52083 4.81771,-0.52083 6.32813,0 9.45313,3.28125 3.125,3.28125 3.125,9.94791 z"
         style=""
         id="path1630" />
      <path
         d="m 525.60971,223.09572 q -0.80729,-0.46875 -1.77083,-0.67708 -0.9375,-0.23438 -2.08334,-0.23438 -4.0625,0 -6.25,2.65625 -2.16145,2.63021 -2.16145,7.57813 v 15.36458 h -4.81771 v -29.16667 h 4.81771 v 4.53125 q 1.51041,-2.65625 3.93229,-3.93229 2.42187,-1.30208 5.88541,-1.30208 0.4948,0 1.09375,0.0781 0.59896,0.0521 1.32813,0.18229 z"
         style=""
         id="path1632" />
      <path
         d="m 535.42741,210.3353 v 8.28125 h 9.86979 v 3.72396 h -9.86979 v 15.83334 q 0,3.5677 0.96354,4.58333 0.98958,1.01562 3.98438,1.01562 h 4.92187 v 4.01042 h -4.92187 q -5.54688,0 -7.65625,-2.05729 -2.10938,-2.08333 -2.10938,-7.55208 v -15.83334 h -3.51562 v -3.72396 h 3.51562 v -8.28125 z"
         style=""
         id="path1634" />
      <path
         d="m 552.30241,241.16864 h 5.49479 v 6.61458 h -5.49479 z"
         style=""
         id="path1636" />
      <path
         d="m 569.2816,241.16864 h 5.49479 v 6.61458 h -5.49479 z"
         style=""
         id="path1638" />
      <path
         d="m 586.26075,241.16864 h 5.49479 v 6.61458 h -5.49479 z"
         style=""
         id="path1640" />
    </g>
  </g>
</svg>
