<?xml version="1.0" encoding="UTF-8" standalone="no"?>
<!-- Created with Inkscape (http://www.inkscape.org/) -->

<svg
   xmlns:dc="http://purl.org/dc/elements/1.1/"
   xmlns:cc="http://creativecommons.org/ns#"
   xmlns:rdf="http://www.w3.org/1999/02/22-rdf-syntax-ns#"
   xmlns:svg="http://www.w3.org/2000/svg"
   xmlns="http://www.w3.org/2000/svg"
   xmlns:sodipodi="http://sodipodi.sourceforge.net/DTD/sodipodi-0.dtd"
   xmlns:inkscape="http://www.inkscape.org/namespaces/inkscape"
   width="200mm"
   height="200mm"
   viewBox="0 0 200 200"
   version="1.1"
   id="svg8"
   inkscape:version="0.92.5 (2060ec1f9f, 2020-04-08)"
   sodipodi:docname="stone.svg">
  <defs
     id="defs2" />
  <sodipodi:namedview
     id="base"
     pagecolor="#ffffff"
     bordercolor="#666666"
     borderopacity="1.0"
     inkscape:pageopacity="0.0"
     inkscape:pageshadow="2"
     inkscape:zoom="0.7"
     inkscape:cx="320.22"
     inkscape:cy="155.87405"
     inkscape:document-units="mm"
     inkscape:current-layer="layer1"
     showgrid="false"
     inkscape:window-width="1853"
     inkscape:window-height="1057"
     inkscape:window-x="1979"
     inkscape:window-y="-8"
     inkscape:window-maximized="1" />
  <metadata
     id="metadata5">
    <rdf:RDF>
      <cc:Work
         rdf:about="">
        <dc:format>image/svg+xml</dc:format>
        <dc:type
           rdf:resource="http://purl.org/dc/dcmitype/StillImage" />
        <dc:title />
      </cc:Work>
    </rdf:RDF>
  </metadata>
  <g
     inkscape:label="Layer 1"
     inkscape:groupmode="layer"
     id="layer1"
     transform="translate(0,-97)">
    <path
       style="fill:#666666;fill-opacity:1;stroke:none;stroke-width:0.23519912;stroke-opacity:1;paint-order:fill markers stroke"
       d="m 126.6323,289.63028 c 1.71426,8.27873 -27.564423,6.61896 -62.324166,6.61896 -34.759781,0 -63.55218568,1.9106 -63.55218568,-6.61896 0,-8.52963 29.78853068,-27.96851 62.93816768,-15.44426 24.468556,9.24451 61.448954,8.25238 62.938184,15.44426 z"
       id="path815"
       inkscape:connector-curvature="0"
       sodipodi:nodetypes="sssss" />
    <path
       style="fill:#666666;fill-opacity:1;stroke:none;stroke-width:0.16817649;stroke-opacity:1;paint-order:fill markers stroke"
       d="m 120.15224,276.02001 c -2.68151,11.36446 -20.1445,2.15877 -45.972743,-3.93533 -25.828266,-6.09415 -50.827114,-6.92335 -47.559702,-18.1334 2.888961,-9.91162 26.761874,-8.85515 51.621358,-9.54278 26.527347,-0.7336 44.592447,20.24721 41.911087,31.61151 z"
       id="path818"
       inkscape:connector-curvature="0"
       sodipodi:nodetypes="sssss" />
    <path
       style="fill:#666666;fill-opacity:1;stroke:none;stroke-width:0.16817649;stroke-opacity:1;paint-order:fill markers stroke"
       d="m 112.2329,233.84715 c 0,8.75736 -17.167355,8.64906 -40.122158,8.64906 -22.954941,0 -43.005092,0.1083 -43.00509,-8.64906 8e-6,-8.75742 18.608639,-15.85671 41.56351,-15.85671 22.954948,0 41.563728,7.09929 41.563738,15.85671 z"
       id="path823"
       inkscape:connector-curvature="0"
       sodipodi:nodetypes="sssss" />
  </g>
</svg>
