<?xml version="1.0" encoding="UTF-8" standalone="no"?>
<!-- Created with Inkscape (http://www.inkscape.org/) -->

<svg
   xmlns:dc="http://purl.org/dc/elements/1.1/"
   xmlns:cc="http://creativecommons.org/ns#"
   xmlns:rdf="http://www.w3.org/1999/02/22-rdf-syntax-ns#"
   xmlns:svg="http://www.w3.org/2000/svg"
   xmlns="http://www.w3.org/2000/svg"
   xmlns:sodipodi="http://sodipodi.sourceforge.net/DTD/sodipodi-0.dtd"
   xmlns:inkscape="http://www.inkscape.org/namespaces/inkscape"
   width="20cm"
   height="20cm"
   viewBox="0 0 200 200"
   version="1.1"
   id="svg44"
   inkscape:version="0.92.5 (2060ec1f9f, 2020-04-08)"
   sodipodi:docname="torch.svg">
  <defs
     id="defs38" />
  <sodipodi:namedview
     id="base"
     pagecolor="#ffffff"
     bordercolor="#666666"
     borderopacity="1.0"
     inkscape:pageopacity="0.0"
     inkscape:pageshadow="2"
     inkscape:zoom="0.35"
     inkscape:cx="-110.59719"
     inkscape:cy="490.92846"
     inkscape:document-units="mm"
     inkscape:current-layer="layer1"
     showgrid="false"
     inkscape:window-width="1853"
     inkscape:window-height="1057"
     inkscape:window-x="1979"
     inkscape:window-y="-8"
     inkscape:window-maximized="1"
     units="cm" />
  <metadata
     id="metadata41">
    <rdf:RDF>
      <cc:Work
         rdf:about="">
        <dc:format>image/svg+xml</dc:format>
        <dc:type
           rdf:resource="http://purl.org/dc/dcmitype/StillImage" />
        <dc:title />
      </cc:Work>
    </rdf:RDF>
  </metadata>
  <g
     inkscape:label="Layer 1"
     inkscape:groupmode="layer"
     id="layer1"
     transform="translate(0,-97)">
    <rect
       style="fill:#800000;fill-opacity:1;stroke:none;stroke-width:0.50083745;stroke-miterlimit:4;stroke-dasharray:none"
       id="rect46"
       width="36.835495"
       height="112.83733"
       x="86.659637"
       y="183.40669" />
    <path
       style="fill:#666666;fill-opacity:1;stroke:none;stroke-width:0.60477614;stroke-miterlimit:4;stroke-dasharray:none"
       d="m 155.72617,176.73652 c 0,9.67009 -22.67624,17.50924 -50.6488,17.50924 -27.972564,0 -50.648807,-7.83915 -50.648807,-17.50924 0,-9.67009 22.676243,4.72472 50.648807,4.72472 27.97256,0 50.6488,-14.39481 50.6488,-4.72472 z"
       id="path119"
       inkscape:connector-curvature="0"
       sodipodi:nodetypes="sssss" />
    <path
       style="fill:#ff0000;fill-opacity:1;stroke:none;stroke-width:0.60477614;stroke-miterlimit:4;stroke-dasharray:none"
       d="m 82.822601,138.66086 c -7.956162,15.03963 -4.385774,31.03069 -6.906656,31.40547 -3.736543,0.55552 -16.598399,-15.54479 -6.906655,-31.40547 9.870484,-16.15319 4.161281,-31.2764 6.906655,-31.40546 3.806433,-0.17894 15.474792,15.20901 6.906656,31.40546 z"
       id="path125"
       inkscape:connector-curvature="0"
       sodipodi:nodetypes="sssss" />
    <path
       style="fill:#ff0000;fill-opacity:1;stroke:none;stroke-width:0.60477614;stroke-miterlimit:4;stroke-dasharray:none"
       d="m 109.14933,140.60012 c -7.95616,15.03963 -4.38577,31.03069 -6.90665,31.40547 -3.736546,0.55551 -16.598403,-15.54479 -6.906659,-31.40547 9.870489,-16.1532 4.161283,-31.27641 6.906659,-31.40547 3.80643,-0.17894 15.47478,15.20901 6.90665,31.40547 z"
       id="path125-8"
       inkscape:connector-curvature="0"
       sodipodi:nodetypes="sssss" />
    <path
       style="fill:#ff0000;fill-opacity:1;stroke:none;stroke-width:0.60477614;stroke-miterlimit:4;stroke-dasharray:none"
       d="m 139.07817,140.04427 c -7.95616,15.03963 -4.38577,31.03069 -6.90666,31.40546 -3.73655,0.55552 -16.59839,-15.54478 -6.90665,-31.40546 9.87048,-16.1532 4.16128,-31.27641 6.90665,-31.40547 3.80644,-0.17894 15.47479,15.20901 6.90666,31.40547 z"
       id="path125-7"
       inkscape:connector-curvature="0"
       sodipodi:nodetypes="sssss" />
  </g>
</svg>
