<?xml version="1.0" encoding="UTF-8" standalone="no"?>
<!-- Created with Inkscape (http://www.inkscape.org/) -->

<svg
   xmlns:osb="http://www.openswatchbook.org/uri/2009/osb"
   xmlns:dc="http://purl.org/dc/elements/1.1/"
   xmlns:cc="http://creativecommons.org/ns#"
   xmlns:rdf="http://www.w3.org/1999/02/22-rdf-syntax-ns#"
   xmlns:svg="http://www.w3.org/2000/svg"
   xmlns="http://www.w3.org/2000/svg"
   xmlns:sodipodi="http://sodipodi.sourceforge.net/DTD/sodipodi-0.dtd"
   xmlns:inkscape="http://www.inkscape.org/namespaces/inkscape"
   width="200mm"
   height="200mm"
   viewBox="0 0 200 200"
   version="1.1"
   id="svg8"
   inkscape:version="0.92.5 (2060ec1f9f, 2020-04-08)"
   sodipodi:docname="wolf.svg">
  <defs
     id="defs2">
    <linearGradient
       id="linearGradient871"
       osb:paint="solid">
      <stop
         style="stop-color:#000000;stop-opacity:1;"
         offset="0"
         id="stop869" />
    </linearGradient>
  </defs>
  <sodipodi:namedview
     id="base"
     pagecolor="#ffffff"
     bordercolor="#666666"
     borderopacity="1.0"
     inkscape:pageopacity="0.0"
     inkscape:pageshadow="2"
     inkscape:zoom="0.7"
     inkscape:cx="295.83164"
     inkscape:cy="398.74192"
     inkscape:document-units="mm"
     inkscape:current-layer="layer1"
     showgrid="false"
     inkscape:window-width="1853"
     inkscape:window-height="1057"
     inkscape:window-x="1979"
     inkscape:window-y="-8"
     inkscape:window-maximized="1" />
  <metadata
     id="metadata5">
    <rdf:RDF>
      <cc:Work
         rdf:about="">
        <dc:format>image/svg+xml</dc:format>
        <dc:type
           rdf:resource="http://purl.org/dc/dcmitype/StillImage" />
        <dc:title />
      </cc:Work>
    </rdf:RDF>
  </metadata>
  <g
     inkscape:label="Layer 1"
     inkscape:groupmode="layer"
     id="layer1"
     transform="translate(0,-97)">
    <path
       style="fill:#000000;fill-opacity:1;stroke:none;stroke-width:0.69999999;stroke-miterlimit:4;stroke-dasharray:none"
       d="m 41.569402,221.08656 c 87.356548,-3.7358 78.479168,4.68777 117.718758,7.03166 8.36104,0.49942 21.11905,11.28687 14.19065,15.99364 -21.83001,14.83008 -2.43383,28.69201 -2.56926,43.01261 -0.0792,8.37559 -14.94367,14.94614 -18.22909,7.24143 -16.82295,-39.45179 -93.361354,-52.37132 -115.483308,-0.0824 -3.263573,7.71399 -15.375631,-7.70193 -14.190651,-15.99365 1.991962,-13.93845 12.895721,-24.74491 2.56926,-43.01261 -3.135226,-5.54627 10.914246,-13.97343 15.993641,-14.19065 z"
       id="rect10"
       inkscape:connector-curvature="0"
       sodipodi:nodetypes="sssssssss" />
    <path
       style="fill:#000000;fill-opacity:1;stroke:none;stroke-width:0.62702936;stroke-miterlimit:4;stroke-dasharray:none"
       d="m 188.9225,225.92757 c -10.60921,13.18624 -9.59915,16.79843 -17.33851,15.80544 -8.9642,-1.15016 -17.60244,-8.74939 -15.33374,-17.75704 3.20536,-12.7266 9.62122,-13.32188 17.33852,-15.80543 10.54675,-3.39411 21.53597,10.04826 15.33373,17.75703 z"
       id="path14"
       inkscape:connector-curvature="0"
       sodipodi:nodetypes="sssss" />
    <path
       style="fill:#000000;fill-opacity:1;stroke:none;stroke-width:0.69999999;stroke-miterlimit:4;stroke-dasharray:none"
       d="m 168.74978,206.88248 c -0.61576,2.55187 -1.42666,4.67644 -2.83691,4.5922 -1.40455,-0.0831 -0.75204,-1.93464 -2.27009,-4.89726 -1.1971,-2.33627 1.42666,-4.67644 2.83692,-4.5922 1.41364,0.0844 2.89563,2.30483 2.27008,4.89726 z"
       id="path17"
       inkscape:connector-curvature="0"
       sodipodi:nodetypes="scscs" />
    <path
       style="fill:#000000;fill-opacity:1;stroke:none;stroke-width:0.69999999;stroke-miterlimit:4;stroke-dasharray:none"
       d="m 182.58125,205.6905 c -0.0839,10.81637 -1.38086,5.38344 -2.83692,4.59221 -1.24134,-0.67455 -3.84666,-2.79831 -2.27008,-4.89727 1.7272,-2.29949 1.45162,-4.67134 2.83691,-4.5922 1.4105,0.0802 2.29044,2.27222 2.27009,4.89726 z"
       id="path17-5"
       inkscape:connector-curvature="0"
       sodipodi:nodetypes="sssss" />
    <path
       style="fill:#000000;fill-opacity:1;stroke:none;stroke-width:0.26458332;stroke-opacity:1;paint-order:fill markers stroke"
       d="m 9.55561,233.03959 c -1.9688081,-2.78685 -3.6719945,-5.29005 -3.784859,-5.56269 -0.1455012,-0.35147 0.5668327,-2.5538 2.4482364,-7.56921 l 2.6534446,-7.07351 1.241687,3.46381 1.241688,3.46381 -0.580667,5.33175 c -0.356205,3.27072 -0.491339,5.44057 -0.349583,5.61329 0.144354,0.17587 2.630229,0.4037 6.623341,0.60701 l 6.392259,0.32542 -0.216562,0.7128 c -0.119108,0.39203 -0.230678,0.72859 -0.247931,0.74791 -0.05474,0.0612 -11.700357,5.02078 -11.772446,5.0135 -0.0379,-0.004 -1.679797,-2.28709 -3.6486054,-5.07393 z"
       id="path38"
       inkscape:connector-curvature="0" />
    <path
       style="fill:#000000;fill-opacity:1;stroke:none;stroke-width:0.26458332;stroke-opacity:1;paint-order:fill markers stroke"
       d="m 56.985953,273.78466 c 0.832338,8.52075 -0.37063,15.09631 -2.440185,15.81378 -2.773543,0.96152 -10.821992,1.29766 -5.454347,-15.04262 2.671857,-8.13371 0.260171,-15.60082 2.440185,-15.81378 2.180015,-0.21295 4.622011,6.52186 5.454347,15.04262 z"
       id="path875"
       inkscape:connector-curvature="0"
       sodipodi:nodetypes="sssss" />
    <path
       style="fill:#000000;fill-opacity:1;stroke:none;stroke-width:0.73938048;stroke-opacity:1;paint-order:fill markers stroke"
       d="m 139.72841,273.71725 c -2.9999,0.72315 -4.99662,11.50843 -8.97675,14.13472 -4.74236,0.94637 -8.41222,-3.84758 -8.19685,-10.70759 0.21537,-6.86003 4.23439,-13.18836 8.97676,-14.13473 4.74235,-0.94635 15.56216,8.93211 8.19684,10.7076 z"
       id="path877"
       inkscape:connector-curvature="0"
       sodipodi:nodetypes="scscs" />
  </g>
</svg>
